<!-- by TradingView --><svg width="18" height="18" xmlns="http://www.w3.org/2000/svg"><path d="M0 9a9 9 0 1118 0A9 9 0 010 9z" fill="#2775CA"/><path d="M9 14c2.77 0 5-2.23 5-5s-2.23-5-5-5-5 2.23-5 5 2.23 5 5 5z" fill="#fff"/><path d="M10.375 9.792c0-.73-.438-.98-1.313-1.084-.625-.083-.75-.25-.75-.541 0-.292.209-.48.625-.48.375 0 .584.126.688.438.02.063.083.104.146.104h.333a.142.142 0 00.146-.146v-.02c-.083-.459-.458-.896-.938-.938v-.46c0-.082-.062-.145-.166-.166h-.274c-.083 0-.164.063-.184.167v.459c-.625.083-1.042.563-1.042 1.083 0 .688.416.959 1.291 1.063.584.104.771.23.771.562 0 .334-.291.563-.687.563-.542 0-.73-.23-.792-.542-.02-.083-.083-.125-.146-.125H7.73a.142.142 0 00-.146.146v.02c.084.522.417.876 1.104.98v.464c0 .083.063.14.167.161h.298c.083 0 .14-.057.16-.16v-.465c.626-.104 1.063-.52 1.063-1.083z" fill="#2775CA"/><path d="M7.873 12c-1.625-.583-2.394-2.417-1.79-4.02.313-.876.939-1.542 1.793-1.855.083-.042.125-.104.125-.208v-.292c0-.083-.042-.146-.125-.167-.021 0-.063 0-.084.021-1.979.625-3 2.73-2.375 4.709.375 1.166 1.206 2.083 2.373 2.458.083.042.166 0 .187-.083.021-.021.021-.042.021-.084v-.291c0-.063-.062-.146-.125-.188zm2.333-6.52c-.083-.042-.166 0-.187.083-.02.02-.02.041-.02.083v.292c0 .083.062.166.124.208 1.625.583 2.398 2.396 1.794 4-.313.875-.933 1.52-1.787 1.833a.213.213 0 00-.13.209v.291c0 .084.047.146.13.167.021 0 .063 0 .083-.02 1.98-.626 2.995-2.71 2.37-4.688-.375-1.188-1.23-2.084-2.377-2.459z" fill="#2775CA"/></svg>