<svg width="30" height="30" viewBox="0 0 30 30" fill="none" xmlns="http://www.w3.org/2000/svg">
<path d="M0.517265 24.8276H29.4827C29.7684 24.8276 30 24.596 30 24.3103V5.68969C30 5.40404 29.7684 5.17242 29.4827 5.17242H0.517265C0.231621 5.17248 0 5.40404 0 5.68969V24.3103C0 24.596 0.231621 24.8276 0.517265 24.8276Z" fill="#C8414B"/>
<path d="M29.9999 9.31061H0V20.6901H29.9999V9.31061Z" fill="#FFD250"/>
<path d="M12.6722 15.0001L13.1107 13.0266C13.1512 12.8448 13.0128 12.6724 12.8266 12.6724H12.5177C12.3316 12.6724 12.1933 12.8448 12.2336 13.0266L12.6722 15.0001Z" fill="#C8414B"/>
<path d="M13.1907 13.9652H12.1562V18.3615H13.1907V13.9652Z" fill="#F5F5F5"/>
<path d="M13.4482 13.4485H11.8965V13.9658H13.4482V13.4485Z" fill="#FAB446"/>
<path d="M13.4477 15.0001H10.8613V15.5173H13.4477V15.0001Z" fill="#C8414B"/>
<path d="M13.4463 17.069L11.8945 16.5518V16.0345L13.4463 16.5518V17.069Z" fill="#C8414B"/>
<path d="M4.9124 15.0001L5.35097 13.0266C5.3914 12.8448 5.25306 12.6724 5.06685 12.6724H4.75794C4.57179 12.6724 4.43351 12.8448 4.47382 13.0266L4.9124 15.0001Z" fill="#C8414B"/>
<path d="M6.7243 13.4483C6.43865 13.4483 6.20703 13.6799 6.20703 13.9656V17.3276C6.20703 17.956 6.79355 19.138 8.79324 19.138C10.7929 19.138 11.3794 17.9561 11.3794 17.3276V13.9656C11.3794 13.6799 11.1478 13.4483 10.8622 13.4483H6.7243Z" fill="#F5F5F5"/>
<path d="M8.79324 16.0345H6.20703V13.9656C6.20703 13.6799 6.43865 13.4483 6.7243 13.4483H8.79324V16.0345Z" fill="#C8414B"/>
<path d="M8.79297 16.0345H11.3792V17.3276C11.3792 18.0418 10.8003 18.6207 10.0861 18.6207C9.37187 18.6207 8.79297 18.0418 8.79297 17.3276V16.0345Z" fill="#C8414B"/>
<path d="M6.20703 16.0345H8.79324V17.3276C8.79324 18.0418 8.21433 18.6207 7.50013 18.6207C6.78594 18.6207 6.20703 18.0418 6.20703 17.3276V16.0345Z" fill="#FAB446"/>
<path d="M8.27703 18.3563V16.0345H7.75977V18.5946C7.95219 18.5556 8.12604 18.4704 8.27703 18.3563Z" fill="#C8414B"/>
<path d="M7.24187 18.5946V16.0345H6.72461V18.3563C6.87566 18.4704 7.04951 18.5556 7.24187 18.5946Z" fill="#C8414B"/>
<path d="M8.27634 15.0001H6.72461V15.5173H8.27634V15.0001Z" fill="#FFB441"/>
<path d="M8.27634 13.9652H6.72461V14.4825H8.27634V13.9652Z" fill="#FAB446"/>
<path d="M8.01689 14.2728H6.98242V15.2099H8.01689V14.2728Z" fill="#FAB446"/>
<path d="M5.43096 13.9652H4.39648V18.3615H5.43096V13.9652Z" fill="#F5F5F5"/>
<path d="M5.69041 18.1038H4.13867V18.6211H5.69041V18.1038Z" fill="#FAB446"/>
<path d="M5.69041 13.4485H4.13867V13.9658H5.69041V13.4485Z" fill="#FAB446"/>
<path d="M5.94785 18.6205H3.87891V19.1378H5.94785V18.6205Z" fill="#5064AA"/>
<path d="M13.708 18.1038H12.1562V18.6211H13.708V18.1038Z" fill="#FAB446"/>
<path d="M13.7076 18.6205H11.6387V19.1378H13.7076V18.6205Z" fill="#5064AA"/>
<path d="M10.3457 12.9311H7.24219V13.4484H10.3457V12.9311Z" fill="#FAB446"/>
<path d="M9.05242 11.3795H8.53516V12.9313H9.05242V11.3795Z" fill="#FFB441"/>
<path d="M8.27584 12.1552C7.84799 12.1552 7.5 11.8071 7.5 11.3794C7.5 10.9515 7.84805 10.6035 8.27584 10.6035C8.70369 10.6035 9.05168 10.9516 9.05168 11.3794C9.05174 11.8071 8.70369 12.1552 8.27584 12.1552ZM8.27584 11.1207C8.13316 11.1207 8.01721 11.2366 8.01721 11.3794C8.01721 11.522 8.1331 11.638 8.27584 11.638C8.41857 11.638 8.53447 11.5221 8.53447 11.3794C8.53447 11.2367 8.41857 11.1207 8.27584 11.1207Z" fill="#F5F5F5"/>
<path d="M9.31099 12.1552C8.88314 12.1552 8.53516 11.8071 8.53516 11.3794C8.53516 10.9515 8.8832 10.6035 9.31099 10.6035C9.73884 10.6035 10.0868 10.9516 10.0868 11.3794C10.0868 11.8071 9.73879 12.1552 9.31099 12.1552ZM9.31099 11.1207C9.16832 11.1207 9.05236 11.2366 9.05236 11.3794C9.05236 11.522 9.16826 11.638 9.31099 11.638C9.45367 11.638 9.56963 11.5221 9.56963 11.3794C9.56957 11.2367 9.45367 11.1207 9.31099 11.1207Z" fill="#F5F5F5"/>
<path d="M10.3442 12.6725C9.91635 12.6725 9.56836 12.3244 9.56836 11.8966C9.56836 11.4688 9.91641 11.1208 10.3442 11.1208C10.772 11.1208 11.12 11.4688 11.12 11.8966C11.12 12.3244 10.772 12.6725 10.3442 12.6725ZM10.3442 11.638C10.2015 11.638 10.0856 11.7539 10.0856 11.8966C10.0856 12.0393 10.2015 12.1553 10.3442 12.1553C10.4869 12.1553 10.6028 12.0394 10.6028 11.8966C10.6028 11.7539 10.4869 11.638 10.3442 11.638Z" fill="#F5F5F5"/>
<path d="M7.24068 12.6725C6.81283 12.6725 6.46484 12.3244 6.46484 11.8966C6.46484 11.4688 6.81289 11.1208 7.24068 11.1208C7.66853 11.1208 8.01652 11.4688 8.01652 11.8966C8.01658 12.3244 7.66853 12.6725 7.24068 12.6725ZM7.24068 11.638C7.09801 11.638 6.98205 11.7539 6.98205 11.8966C6.98205 12.0393 7.09795 12.1553 7.24068 12.1553C7.38342 12.1553 7.49931 12.0393 7.49931 11.8966C7.49931 11.7539 7.38342 11.638 7.24068 11.638Z" fill="#F5F5F5"/>
<path d="M10.3451 17.069V17.3276C10.3451 17.4702 10.2291 17.5862 10.0864 17.5862C9.94383 17.5862 9.82781 17.4702 9.82781 17.3276V17.069H10.3451ZM10.8623 16.5518H9.31055V17.3276C9.31055 17.7554 9.65859 18.1034 10.0864 18.1034C10.5142 18.1034 10.8622 17.7554 10.8622 17.3276V16.5518H10.8623Z" fill="#FAB446"/>
<path d="M10.0856 15.5173C9.79998 15.5173 9.56836 15.2857 9.56836 15V14.4828C9.56836 14.1971 9.79998 13.9655 10.0856 13.9655C10.3713 13.9655 10.6029 14.1971 10.6029 14.4828V15C10.6029 15.2857 10.3713 15.5173 10.0856 15.5173Z" fill="#FFA0D2"/>
<path d="M8.79342 16.81C9.2219 16.81 9.56926 16.4627 9.56926 16.0342C9.56926 15.6057 9.2219 15.2584 8.79342 15.2584C8.36493 15.2584 8.01758 15.6057 8.01758 16.0342C8.01758 16.4627 8.36493 16.81 8.79342 16.81Z" fill="#5064AA"/>
<path d="M9.05242 10.3447H8.53516V11.8965H9.05242V10.3447Z" fill="#FAB446"/>
<path d="M7.24187 12.9311L6.72461 12.4138L7.0276 12.1108C7.49594 11.6425 8.13121 11.3793 8.79361 11.3793C9.45602 11.3793 10.0912 11.6425 10.5596 12.1108L10.8626 12.4138L10.3454 12.9311H7.24187Z" fill="#C8414B"/>
<path d="M8.79379 12.6724C8.93663 12.6724 9.05242 12.5566 9.05242 12.4137C9.05242 12.2709 8.93663 12.1551 8.79379 12.1551C8.65095 12.1551 8.53516 12.2709 8.53516 12.4137C8.53516 12.5566 8.65095 12.6724 8.79379 12.6724Z" fill="#FFD250"/>
<path d="M7.75863 12.6724C7.90147 12.6724 8.01727 12.5566 8.01727 12.4137C8.01727 12.2709 7.90147 12.1551 7.75863 12.1551C7.61579 12.1551 7.5 12.2709 7.5 12.4137C7.5 12.5566 7.61579 12.6724 7.75863 12.6724Z" fill="#FFD250"/>
<path d="M9.82699 12.6724C9.96983 12.6724 10.0856 12.5566 10.0856 12.4137C10.0856 12.2709 9.96983 12.1551 9.82699 12.1551C9.68415 12.1551 9.56836 12.2709 9.56836 12.4137C9.56836 12.5566 9.68415 12.6724 9.82699 12.6724Z" fill="#FFD250"/>
<path d="M6.725 15.0001H4.13867V15.5173H6.725V15.0001Z" fill="#C8414B"/>
<path d="M4.13867 17.069L5.69035 16.5517V16.0345L4.13867 16.5517V17.069Z" fill="#C8414B"/>
</svg>
