<svg width="30" height="30" viewBox="0 0 30 30" fill="none" xmlns="http://www.w3.org/2000/svg">
<path d="M29.4844 24.8262H0.515625C0.228516 24.8262 0 24.5918 0 24.3105V5.68945C0 5.40234 0.234375 5.17383 0.515625 5.17383H29.4785C29.7656 5.17383 29.9941 5.4082 29.9941 5.68945V24.3105C30 24.5977 29.7656 24.8262 29.4844 24.8262Z" fill="#F5F5F5"/>
<path d="M29.4844 24.8262H0.515625C0.228516 24.8262 0 24.5918 0 24.3105V21.7266H30V24.3105C30 24.5977 29.7656 24.8262 29.4844 24.8262Z" fill="#FF4B55"/>
<path d="M0.515625 5.17383H29.4785C29.7656 5.17383 29.9941 5.4082 29.9941 5.68945V8.27344H0V5.68945C0 5.40234 0.234375 5.17383 0.515625 5.17383Z" fill="#FF4B55"/>
<path d="M30 11.3789H0V18.6211H30V11.3789Z" fill="#41479B"/>
</svg>
