<svg width="40" height="40" viewBox="0 0 40 40" fill="none" xmlns="http://www.w3.org/2000/svg">
<g clip-path="url(#clip0)" filter="url(#filter0_d)">
<path d="M19.8588 37.5278C20.184 37.4679 20.4578 37.2711 20.6289 36.9887C24.5048 30.4861 25.3091 26.67 25.8909 23.8807C25.9679 23.5214 26.0364 23.1706 26.1134 22.8369L36.0299 21.6305C38.2203 21.5877 40 19.7909 40 17.592C40 15.4187 38.323 13.6647 36.1668 13.5535C36.1241 13.5535 36.0898 13.5449 36.0471 13.5449L30.2118 13.5449L15.9658 13.4508L17.1551 11.9107C17.4118 11.6112 19.0973 9.52351 19.0973 6.93955C19.0973 5.1941 18.3615 3.64543 16.9241 2.33634C16.5219 1.96843 15.923 1.9342 15.4781 2.25078C15.3241 2.36201 11.6107 5.01442 7.82888 9.1727C5.59572 11.6369 3.80748 14.1182 2.51551 16.5481C0.872726 19.6454 0.0256689 22.6743 -2.80507e-07 25.5577C-2.81017e-07 25.6005 -2.81629e-07 25.6518 -2.82139e-07 25.6946C-3.29074e-07 29.6305 1.30053 32.6936 3.85882 34.7984C9.55722 39.4871 19.4396 37.6048 19.8588 37.5278ZM5.31337 33.0101C3.31123 31.3674 2.3016 28.9032 2.3016 25.6946C2.3016 25.6518 2.3016 25.6176 2.3016 25.5748C2.34438 19.8508 6.23743 14.3577 9.49733 10.7641C12.0984 7.89784 14.7166 5.73313 16 4.74062C16.5219 5.41655 16.7786 6.14383 16.7786 6.94811C16.7786 8.80479 15.4011 10.4133 15.384 10.4219C15.3668 10.439 15.3497 10.4647 15.3326 10.4818L12.7059 13.8957C12.4406 14.2465 12.3893 14.7085 12.5861 15.1107C12.7743 15.5043 13.1765 15.7524 13.6128 15.7609L30.1947 15.8722L35.9701 15.8722C35.9786 15.8722 35.9957 15.8722 36.0043 15.8722C36.9455 15.8978 37.6813 16.6593 37.6813 17.6005C37.6813 18.5588 36.9027 19.3289 35.9529 19.3289C35.9102 19.3289 35.8588 19.3289 35.816 19.3374L25.0438 20.6294C24.5733 20.6893 24.1882 21.023 24.0684 21.4764C23.9059 22.0925 23.769 22.7256 23.6321 23.4016C23.0674 26.1053 22.3572 29.4593 18.9176 35.346C16.9326 35.6369 9.51444 36.4668 5.31337 33.0101Z" fill="#FEAB00"/>
</g>
<defs>
<filter id="filter0_d" x="0" y="0" width="40" height="41" filterUnits="userSpaceOnUse" color-interpolation-filters="sRGB">
<feFlood flood-opacity="0" result="BackgroundImageFix"/>
<feColorMatrix in="SourceAlpha" type="matrix" values="0 0 0 0 0 0 0 0 0 0 0 0 0 0 0 0 0 0 127 0"/>
<feOffset dy="1"/>
<feColorMatrix type="matrix" values="0 0 0 0 0 0 0 0 0 0 0 0 0 0 0 0 0 0 0.25 0"/>
<feBlend mode="normal" in2="BackgroundImageFix" result="effect1_dropShadow"/>
<feBlend mode="normal" in="SourceGraphic" in2="effect1_dropShadow" result="shape"/>
</filter>
<clipPath id="clip0">
<rect width="40" height="40" fill="white" transform="matrix(1.19249e-08 -1 -1 -1.19249e-08 40 40)"/>
</clipPath>
</defs>
</svg>
