<svg width="40" height="40" viewBox="0 0 40 40" fill="none" xmlns="http://www.w3.org/2000/svg">
<g filter="url(#filter0_d)">
<path d="M37.3913 17.6156V13.4782C37.3913 11.3206 35.6359 9.56517 33.4783 9.56517H28.4307L19.997 2.06861C19.5029 1.62931 18.758 1.62931 18.2639 2.06861L9.83016 9.56525H6.52172C2.92562 9.56525 0 12.4909 0 16.087V31.7392C0 35.3352 2.92562 38.2609 6.52172 38.2609H33.4782C35.6359 38.2609 37.3913 36.5055 37.3913 34.3478V30.2104C38.9095 29.672 39.9999 28.2221 39.9999 26.5217V21.3043C40 19.6039 38.9095 18.1541 37.3913 17.6156ZM19.1305 4.78861L24.5041 9.56525H13.7568L19.1305 4.78861ZM34.7826 34.3478C34.7826 35.067 34.1974 35.6522 33.4782 35.6522H6.52172C4.36406 35.6522 2.60867 33.8968 2.60867 31.7392V16.087C2.60867 13.9293 4.36406 12.1739 6.52172 12.1739H33.4782C34.1974 12.1739 34.7826 12.7591 34.7826 13.4783V17.3913H30.8695C27.2734 17.3913 24.3478 20.317 24.3478 23.9131C24.3478 27.5092 27.2734 30.4348 30.8695 30.4348H34.7826V34.3478ZM37.3913 26.5217C37.3913 27.241 36.8062 27.8261 36.087 27.8261H30.8695C28.7119 27.8261 26.9565 26.0707 26.9565 23.9131C26.9565 21.7554 28.7119 20 30.8695 20H36.087C36.8062 20 37.3913 20.5852 37.3913 21.3044V26.5217Z" fill="#FEAB00"/>
<path d="M30.8693 25.2175C31.5897 25.2175 32.1737 24.6335 32.1737 23.9131C32.1737 23.1927 31.5897 22.6087 30.8693 22.6087C30.1489 22.6087 29.5649 23.1927 29.5649 23.9131C29.5649 24.6335 30.1489 25.2175 30.8693 25.2175Z" fill="#FEAB00"/>
</g>
<defs>
<filter id="filter0_d" x="0" y="0" width="40" height="41" filterUnits="userSpaceOnUse" color-interpolation-filters="sRGB">
<feFlood flood-opacity="0" result="BackgroundImageFix"/>
<feColorMatrix in="SourceAlpha" type="matrix" values="0 0 0 0 0 0 0 0 0 0 0 0 0 0 0 0 0 0 127 0"/>
<feOffset dy="1"/>
<feColorMatrix type="matrix" values="0 0 0 0 0 0 0 0 0 0 0 0 0 0 0 0 0 0 0.25 0"/>
<feBlend mode="normal" in2="BackgroundImageFix" result="effect1_dropShadow"/>
<feBlend mode="normal" in="SourceGraphic" in2="effect1_dropShadow" result="shape"/>
</filter>
</defs>
</svg>
