<svg width="40" height="40" viewBox="0 0 40 40" fill="none" xmlns="http://www.w3.org/2000/svg">
<g filter="url(#filter0_d)">
<path d="M3.25569 36.6202H36.7131C37.4262 36.6202 37.9844 36.0621 37.9844 35.3489V6.97678C37.9844 6.26361 37.4262 5.70547 36.7131 5.70547H30.4185V4.62019C30.4185 3.90702 29.8603 3.34888 29.1472 3.34888C28.434 3.34888 27.8758 3.90702 27.8758 4.62019V5.70547H12.31V4.62019C12.31 3.90702 11.7518 3.34888 11.0386 3.34888C10.3255 3.34888 9.76732 3.90702 9.76732 4.62019V5.70547H3.25569C2.54251 5.70547 1.98438 6.26361 1.98438 6.97678V35.3799C1.98438 36.0621 2.57352 36.6202 3.25569 36.6202ZM4.52701 8.2481H9.76732V8.93027C9.76732 9.64345 10.3255 10.2016 11.0386 10.2016C11.7518 10.2016 12.31 9.64345 12.31 8.93027V8.2481H27.8758V8.93027C27.8758 9.64345 28.434 10.2016 29.1472 10.2016C29.8603 10.2016 30.4185 9.64345 30.4185 8.93027V8.2481H35.4727V11.5349H4.52701V8.2481ZM4.52701 14.0776H35.4417V34.1086H4.52701V14.0776Z" fill="#FEAB00"/>
<path d="M29.1469 19.907H10.8524C10.1392 19.907 9.58105 20.4651 9.58105 21.1783C9.58105 21.8915 10.1392 22.4496 10.8524 22.4496H29.1469C29.8601 22.4496 30.4183 21.8915 30.4183 21.1783C30.4183 20.4651 29.8601 19.907 29.1469 19.907Z" fill="#FEAB00"/>
<path d="M19.9997 26.0465H10.8524C10.1392 26.0465 9.58105 26.6046 9.58105 27.3178C9.58105 28.031 10.1392 28.5892 10.8524 28.5892H19.9997C20.7129 28.5892 21.271 28.031 21.271 27.3178C21.271 26.6046 20.7129 26.0465 19.9997 26.0465Z" fill="#FEAB00"/>
</g>
<defs>
<filter id="filter0_d" x="0" y="0" width="40" height="41" filterUnits="userSpaceOnUse" color-interpolation-filters="sRGB">
<feFlood flood-opacity="0" result="BackgroundImageFix"/>
<feColorMatrix in="SourceAlpha" type="matrix" values="0 0 0 0 0 0 0 0 0 0 0 0 0 0 0 0 0 0 127 0"/>
<feOffset dy="1"/>
<feColorMatrix type="matrix" values="0 0 0 0 0 0 0 0 0 0 0 0 0 0 0 0 0 0 0.25 0"/>
<feBlend mode="normal" in2="BackgroundImageFix" result="effect1_dropShadow"/>
<feBlend mode="normal" in="SourceGraphic" in2="effect1_dropShadow" result="shape"/>
</filter>
</defs>
</svg>
