<svg width="18" height="18" viewBox="0 0 18 18" fill="none" xmlns="http://www.w3.org/2000/svg">
<path d="M15.3639 2.63602C13.6641 0.936176 11.404 0 9 0C6.59598 0 4.33586 0.936176 2.63602 2.63602C0.936141 4.33589 0 6.59602 0 9C0 11.404 0.936141 13.6641 2.63602 15.3639C4.33589 17.0638 6.59598 18 9 18C11.404 18 13.6641 17.0638 15.3639 15.3639C17.0638 13.6641 18 11.404 18 9C18 6.59602 17.0638 4.33593 15.3639 2.63602ZM9 16.9453C4.61893 16.9453 1.05469 13.3811 1.05469 9C1.05469 4.61893 4.61893 1.05469 9 1.05469C13.3811 1.05469 16.9453 4.61893 16.9453 9C16.9453 13.3811 13.3811 16.9453 9 16.9453Z" fill="white"/>
<path d="M13.2997 6.11229C13.0938 5.90641 12.7599 5.90641 12.554 6.11232L7.89722 10.7691L5.44588 8.31774C5.23997 8.11183 4.90606 8.11183 4.70011 8.31774C4.49417 8.52366 4.49417 8.85757 4.70011 9.06351L7.52432 11.8877C7.62729 11.9907 7.76226 12.0422 7.89719 12.0422C8.03212 12.0422 8.16712 11.9907 8.27005 11.8877L13.2997 6.85806C13.5057 6.65215 13.5057 6.31823 13.2997 6.11229Z" fill="white"/>
</svg>
