<svg width="53" height="53" viewBox="0 0 53 53" fill="none" xmlns="http://www.w3.org/2000/svg">
<path d="M52.5288 11.2419C52.2344 11.0349 51.857 10.9841 51.5185 11.1093L42.517 14.383C41.401 14.7885 40.5124 15.6058 40.0153 16.684C39.9221 16.8862 39.861 17.0962 39.7997 17.306C38.254 16.8665 35.3814 15.9488 32.5267 14.4779C28.2129 12.2551 24.9172 13.353 22.0907 15.509C20.6584 15.5372 18.6844 15.7065 16.7439 15.8775C15.506 15.9867 14.3362 16.0873 13.3876 16.1451C13.3643 15.5754 13.231 15.01 12.985 14.4758C12.4879 13.3975 11.5994 12.5802 10.4833 12.1748L1.48162 8.9009C1.14416 8.77688 0.764566 8.82761 0.471307 9.0335C0.17577 9.24063 0 9.57809 0 9.93823V32.0215C0 32.6319 0.493873 33.1257 1.1042 33.1257H4.32933C5.70102 33.1257 6.97716 32.4788 7.80208 31.4341C8.2415 31.7682 8.76198 32.1595 9.30782 32.5693C10.5964 33.5388 12.0068 34.5965 12.6257 35.1152C16.7372 38.5571 21.6801 42.2739 22.6645 42.9209C23.5843 43.5247 25.2405 44.1674 26.5 44.1674C26.9927 44.1674 28.2339 44.1674 29.1052 43.4309C30.0034 43.7835 30.9717 43.7663 31.872 43.3694C32.7703 42.9737 33.497 42.2275 33.9197 41.3206C34.7823 41.4974 35.7732 41.368 36.6714 40.9173C37.5135 40.4957 38.1336 39.8573 38.4657 39.1112C39.2636 39.1845 40.1155 38.9247 40.8778 38.3413C41.967 37.5087 42.4657 36.2791 42.3246 35.0661L45.1255 33.5166C45.9457 34.6285 47.2494 35.3339 48.6706 35.3339H51.8957C52.506 35.3339 52.9999 34.84 52.9999 34.2297V12.1466C53 11.7864 52.8242 11.4489 52.5288 11.2419ZM6.39747 29.4844C6.07616 30.3416 5.24483 30.9174 4.32933 30.9174H2.2083V11.5147L9.7283 14.2492C10.2869 14.4531 10.7312 14.8617 10.9791 15.4008C11.2281 15.94 11.2498 16.5439 11.0416 17.0991L6.39747 29.4844ZM39.5376 36.5871C39.1634 36.8739 38.6394 37.0335 38.4065 36.8006C38.3946 36.7887 38.3761 36.7899 38.3639 36.7785C38.3428 36.7589 38.3324 36.7325 38.3095 36.7143C37.5202 36.091 33.9834 32.4723 31.7977 30.1928C31.3761 29.7518 30.6763 29.7356 30.2374 30.1594C29.7965 30.581 29.7813 31.2797 30.204 31.7197C30.717 32.2552 34.8353 36.5443 36.4836 38.0444C36.3605 38.5292 35.911 38.8286 35.6828 38.9431C34.9754 39.2978 34.2379 39.2385 33.9618 38.9819C33.9536 38.9743 33.9414 38.9747 33.9329 38.9672C33.9195 38.9552 33.9135 38.9383 33.8992 38.9269C32.575 37.8691 29.2529 34.3388 28.5013 33.5215C28.0882 33.0718 27.3907 33.0437 26.941 33.4557C26.4924 33.8688 26.4622 34.5675 26.8752 35.016C26.9115 35.0553 30.1673 38.5672 31.9959 40.1985C31.8162 40.7149 31.45 41.1425 30.9803 41.3498C30.6336 41.5039 30.0914 41.5828 29.4718 41.125C27.8862 39.7805 24.704 36.3932 24.0781 35.7233C23.6631 35.2769 22.9621 35.2543 22.5179 35.6706C22.0725 36.0868 22.0488 36.7855 22.4651 37.2308C23.2071 38.025 25.4003 40.3496 27.0675 41.9235C26.8812 41.9462 26.6857 41.9591 26.5 41.9591C25.7689 41.9591 24.5127 41.4923 23.8776 41.0749C23.1034 40.5659 18.2425 36.9386 14.0447 33.4233C13.4096 32.8906 11.9604 31.8005 10.6341 30.8042C9.92321 30.2706 9.26827 29.7785 8.78558 29.4072L12.9198 18.3812C13.9929 18.3343 15.4236 18.2106 16.9377 18.077C17.7941 18.0016 18.6514 17.928 19.4707 17.8642C18.2115 19.1568 16.3394 21.4719 16.5862 23.642C16.6995 24.6298 17.2397 25.4525 18.1508 26.0219C19.9548 27.1508 23.2943 26.2041 24.9031 24.2255C25.9414 24.0756 26.6435 23.8104 27.409 23.4308C28.7029 24.6471 30.4378 26.0769 32.2602 27.5789C35.4326 30.1927 39.0286 33.1558 39.9797 34.8175C40.5091 35.7417 39.7748 36.4059 39.5376 36.5871ZM41.4318 33.0361C39.9607 31.068 36.7715 28.4349 33.6641 25.8742C31.5928 24.1673 29.6367 22.5552 28.3848 21.3034C28.0398 20.9605 27.5103 20.8828 27.0833 21.1104C25.9586 21.7131 25.4519 21.9622 24.1817 22.0894C23.8431 22.1239 23.539 22.3116 23.3579 22.5994C22.492 23.9732 20.0852 24.6266 19.3218 24.15C18.8883 23.8783 18.8042 23.6022 18.7805 23.3919C18.6738 22.4527 19.6248 20.8267 21.2024 19.2481C25.1091 15.3414 27.9018 14.577 31.5151 16.4402C34.9481 18.2103 38.3363 19.2111 39.7586 19.5891C39.7997 19.7545 39.8295 19.9216 39.8902 20.0838L44.1775 31.5172L41.4318 33.0361ZM50.7917 33.1257H48.6707C47.7552 33.1257 46.9238 32.5499 46.6025 31.6927L41.9583 19.3086C41.7502 18.7522 41.7718 18.1484 42.0208 17.6091C42.2688 17.07 42.7131 16.6614 43.2716 16.4575L50.7916 13.723V33.1257H50.7917Z" fill="white"/>
</svg>
