<svg width="56" height="56" viewBox="0 0 56 56" fill="none" xmlns="http://www.w3.org/2000/svg">
<path d="M39.375 36.75C39.858 36.75 40.25 37.1429 40.25 37.625H42C42 36.4857 41.2659 35.5232 40.25 35.161V33.25H38.5V35.161C37.4841 35.5232 36.75 36.4857 36.75 37.625C36.75 39.0722 37.9277 40.25 39.375 40.25C39.858 40.25 40.25 40.6429 40.25 41.125C40.25 41.6071 39.858 42 39.375 42C38.892 42 38.5 41.6071 38.5 41.125H36.75C36.75 42.2642 37.4841 43.2268 38.5 43.589V45.5H40.25V43.589C41.2659 43.2268 42 42.2642 42 41.125C42 39.6778 40.8222 38.5 39.375 38.5C38.892 38.5 38.5 38.1071 38.5 37.625C38.5 37.1429 38.892 36.75 39.375 36.75Z" fill="white"/>
<path d="M39.375 29.75C34.0681 29.75 29.75 34.0681 29.75 39.375C29.75 44.6819 34.0681 49 39.375 49C44.6819 49 49 44.6819 49 39.375C49 34.0681 44.6819 29.75 39.375 29.75ZM39.375 47.25C35.0324 47.25 31.5 43.7168 31.5 39.375C31.5 35.0332 35.0324 31.5 39.375 31.5C43.7176 31.5 47.25 35.0332 47.25 39.375C47.25 43.7168 43.7176 47.25 39.375 47.25Z" fill="white"/>
<path d="M55.125 19.9229V13.328L51.8123 12.4469C51.6198 11.8703 51.3914 11.3129 51.128 10.7809L52.8447 7.82075L48.1801 3.157L45.22 4.87287C44.6898 4.6095 44.1324 4.38025 43.5549 4.18775L42.6729 0.875H36.078L35.196 4.18775C34.6185 4.38025 34.0611 4.6095 33.5309 4.87287L30.5707 3.157L25.9061 7.82075L27.6229 10.7809C27.3595 11.3129 27.1311 11.8703 26.9386 12.4469L23.625 13.3271V13.8276L22.47 14.4979C21.9398 14.2345 21.3824 14.0052 20.8049 13.8127L19.9229 10.5H13.328L12.446 13.8127C11.8685 14.0052 11.3111 14.2345 10.7809 14.4979L7.82075 12.782L3.15613 17.4457L4.87287 20.4059C4.6095 20.9379 4.38113 21.4953 4.18863 22.0719L0.875 22.9521V29.547L4.18775 30.4281C4.38025 31.0048 4.60862 31.5613 4.872 32.0933L3.15525 35.0542L7.81988 39.718L10.78 38.0021C11.3102 38.2655 11.8676 38.4948 12.4451 38.6873L13.3271 42H19.922L20.804 38.6873C21.3815 38.4948 21.9389 38.2655 22.4691 38.0021L23.625 38.6724V42.6729L26.9377 43.554C27.1302 44.1306 27.3586 44.6871 27.622 45.2191L25.9053 48.1801L30.5699 52.8439L33.53 51.128C34.0602 51.3914 34.6176 51.6206 35.1951 51.8131L36.0771 55.125H42.672L43.554 51.8123C44.1315 51.6198 44.6889 51.3905 45.2191 51.1271L48.1792 52.843L52.8439 48.1792L51.1271 45.2183C51.3905 44.6863 51.6189 44.1289 51.8114 43.5531L55.125 42.6729V36.078L51.8123 35.1969C51.6198 34.6202 51.3914 34.0629 51.128 33.5309L52.8447 30.5707L50.274 28L52.8447 25.4301L51.128 22.4691C51.3914 21.938 51.6198 21.3797 51.8123 20.804L55.125 19.9229ZM24.5 26.25C24.5 30.5917 20.9676 34.125 16.625 34.125C12.2824 34.125 8.75 30.5917 8.75 26.25C8.75 21.9083 12.2824 18.375 16.625 18.375C20.9676 18.375 24.5 21.9083 24.5 26.25ZM23.9347 20.0051L26.9377 20.804C27.1302 21.3806 27.3586 21.938 27.622 22.4691L26.1581 24.9944C25.9105 23.1044 25.1169 21.3868 23.9347 20.0051ZM23.625 36.6494L22.5059 36.0001L22.0736 36.2364C21.3824 36.6144 20.6299 36.9241 19.8354 37.1577L19.3637 37.2969L18.5771 40.25H14.672L13.8862 37.2969L13.4146 37.1577C12.621 36.9241 11.8676 36.6144 11.1764 36.2364L10.7441 36.0001L8.10512 37.5305L5.3445 34.769L6.874 32.13L6.63775 31.6978C6.25887 31.0048 5.94912 30.2514 5.71725 29.4604L5.57812 28.9879L2.625 28.2021V24.297L5.579 23.5113L5.71812 23.0387C5.95 22.2477 6.25975 21.4944 6.63863 20.8005L6.87488 20.3682L5.34538 17.7301L8.106 14.9686L10.745 16.499L11.1772 16.2628C11.8685 15.8848 12.621 15.575 13.4155 15.3414L13.8871 15.2023L14.6729 12.25H18.578L19.3637 15.2031L19.8354 15.3423C20.629 15.5759 21.3824 15.8856 22.0736 16.2636L22.5059 16.4999L23.625 15.8506V19.6639C21.868 17.7984 19.3839 16.625 16.625 16.625C11.3181 16.625 7 20.9431 7 26.25C7 31.5569 11.3181 35.875 16.625 35.875C21.9319 35.875 26.25 31.5569 26.25 26.25C26.25 26.0811 26.2334 25.9158 26.2246 25.7486L28.476 28L25.9053 30.5699L27.622 33.53C27.3586 34.062 27.1302 34.6194 26.9377 35.196L23.625 36.0771V36.6494ZM50.6555 30.856L49.126 33.4941L49.3623 33.9264C49.7411 34.6203 50.0509 35.3736 50.2827 36.1646L50.4219 36.6371L53.375 37.4229V41.328L50.421 42.1138L50.2819 42.5863C50.05 43.3772 49.7402 44.1306 49.3614 44.8236L49.1251 45.2559L50.6546 47.8949L47.894 50.6564L45.255 49.126L44.8228 49.3623C44.1315 49.7402 43.379 50.05 42.5845 50.2836L42.1129 50.4227L41.3271 53.375H37.422L36.6362 50.4219L36.1646 50.2827C35.371 50.0491 34.6176 49.7394 33.9264 49.3614L33.4941 49.1251L30.8551 50.6555L28.0945 47.894L29.624 45.255L29.3877 44.8228C29.0089 44.1298 28.6991 43.3764 28.4673 42.5854L28.3281 42.1129L25.375 41.3271V37.422L28.329 36.6362L28.4681 36.1637C28.7 35.3728 29.0098 34.6194 29.3886 33.9255L29.6249 33.4932L28.0954 30.8551L30.856 28.0936L33.495 29.624L33.9272 29.3877C34.6185 29.0097 35.371 28.7 36.1655 28.4664L36.6371 28.3273L37.4229 25.375H41.328L42.1138 28.3281L42.5854 28.4673C43.379 28.7009 44.1324 29.0106 44.8236 29.3886L45.2559 29.6249L47.8949 28.0945L50.6555 30.856ZM39.5623 10.5052C38.5875 10.4527 37.6696 10.794 36.9661 11.4607C36.2723 12.1187 35.875 13.0445 35.875 14V15.75C35.875 16.5296 36.1427 17.2856 36.6222 17.8981L35.2984 18.5596C34.1198 19.1494 33.3664 20.2956 33.2684 21.5941C32.1528 20.223 31.5 18.4853 31.5 16.625C31.5 12.2832 35.0324 8.75 39.375 8.75C43.7176 8.75 47.25 12.2832 47.25 16.625C47.25 18.4853 46.5973 20.223 45.4808 21.5941C45.3836 20.2965 44.6302 19.1494 43.4508 18.5596L42.1269 17.8981C42.6073 17.2856 42.875 16.5296 42.875 15.75V14.1488C42.875 12.2028 41.4199 10.6024 39.5623 10.5052ZM35 21.875C35 21.1286 35.4147 20.4584 36.0815 20.125L38.5 18.9158V17.304L38.2104 17.0433C37.8324 16.7029 37.625 16.2435 37.625 15.75V14C37.625 13.5153 37.8193 13.0646 38.171 12.7304C38.5228 12.3961 38.9961 12.2255 39.4695 12.2526C40.3821 12.3007 41.125 13.1512 41.125 14.1488V15.75C41.125 16.2435 40.9176 16.7029 40.5396 17.0433L40.25 17.304V18.9158L42.6685 20.125C43.3353 20.4584 43.75 21.1286 43.75 21.875V23.1648C43.5006 23.331 43.2442 23.4867 42.9747 23.625H42.6729H36.078H35.7761C35.5066 23.4867 35.2494 23.3301 35.0009 23.1648V21.875H35ZM50.6555 25.144L49.0368 26.7628L48.1801 25.9061L45.22 27.622C44.6898 27.3586 44.1324 27.1294 43.5549 26.9369L43.1637 25.4669C46.6856 23.9636 49 20.5082 49 16.625C49 11.3181 44.6819 7 39.375 7C34.0681 7 29.75 11.3181 29.75 16.625C29.75 20.5082 32.0644 23.9636 35.5871 25.4678L35.196 26.9377C34.6185 27.1302 34.0611 27.3595 33.5309 27.6229L30.5707 25.907L29.7141 26.7636L28.0954 25.1449L29.6249 22.5059L29.3886 22.0736C29.0098 21.3806 28.7 20.6273 28.4681 19.8363L28.329 19.3637L25.375 18.5771V14.672L28.329 13.8862L28.4681 13.4137C28.7 12.6228 29.0098 11.8694 29.3886 11.1755L29.6249 10.7432L28.0954 8.10512L30.856 5.34363L33.495 6.874L33.9272 6.63775C34.6185 6.25975 35.371 5.95 36.1655 5.71637L36.6371 5.57725L37.4229 2.625H41.328L42.1138 5.57812L42.5854 5.71725C43.379 5.95087 44.1324 6.26062 44.8236 6.63863L45.2559 6.87488L47.8949 5.3445L50.6555 8.106L49.126 10.7441L49.3623 11.1764C49.7411 11.8702 50.0509 12.6236 50.2827 13.4146L50.4219 13.8871L53.375 14.6729V18.578L50.421 19.3637L50.2819 19.8363C50.05 20.6273 49.7402 21.3806 49.3614 22.0736L49.1251 22.5059L50.6555 25.144Z" fill="white"/>
<path d="M20.125 26.25H18.375V28.875H16.625V24.5H14.875V28.875H13.125V22.75H11.375V30.625H21.875V28.875H20.125V26.25Z" fill="white"/>
</svg>
