<svg width="55" height="25" viewBox="0 0 55 25" fill="none" xmlns="http://www.w3.org/2000/svg">
<path d="M42.625 0.181641C39.325 0.181641 36.2084 1.46501 33.974 3.69939L27.5 9.42852L27.4885 9.41702L24.0166 12.4764L24.0395 12.4993L17.8635 17.9764C16.3969 19.4316 14.449 20.2338 12.375 20.2338C8.08962 20.2338 4.60625 16.7619 4.60625 12.4994C4.60625 8.23689 8.08962 4.76501 12.375 4.76501C14.449 4.76501 16.3969 5.56713 17.9666 7.12539L20.5676 9.42852L24.028 6.36914L21.129 3.80251C18.7915 1.4765 15.6863 0.193136 12.3749 0.193136C5.54587 0.181642 0 5.70463 0 12.4994C0 19.2941 5.54587 24.8171 12.375 24.8171C15.675 24.8171 18.7802 23.5338 21.026 21.3109L27.5 15.5703L27.5115 15.5817L30.9719 12.5109L30.9604 12.4994L37.1364 7.03376C38.6031 5.56713 40.551 4.76501 42.625 4.76501C46.9104 4.76501 50.3937 8.23689 50.3937 12.4994C50.3937 16.7619 46.9104 20.2338 42.625 20.2338C40.551 20.2338 38.6031 19.4316 37.0334 17.8848L34.4324 15.5816L30.9719 18.6525L33.8709 21.2191C36.2084 23.5451 39.3136 24.817 42.6136 24.817C49.4541 24.8171 55 19.2941 55 12.4994C55 5.70463 49.4541 0.181641 42.625 0.181641Z" fill="white"/>
</svg>
