<svg width="40" height="40" viewBox="0 0 40 40" fill="none" xmlns="http://www.w3.org/2000/svg">
<path d="M35.9553 30.1843L35.8125 30.144C33.7446 29.5873 33.0452 29.0551 32.1248 28.7048C28.8594 27.4609 28.0098 26.5637 27.7925 26.1401C27.7852 26.1254 27.7791 26.1084 27.7717 26.0937L27.7509 23.2397C29.4977 20.9014 30.7466 17.9834 30.7466 14.9602C30.7466 14.9602 31.9258 9.93523 29.1059 5.20617L29.1047 5.18484C29.1023 5.18547 29.0986 5.18547 29.0937 5.18609C28.4834 4.165 27.6862 3.15852 26.6486 2.21914C25.5634 1.23719 22.8864 0 19.6576 0C17.4469 0 14.9775 0.579844 12.5837 2.21922C7.94007 5.39977 8.40882 13.421 8.40882 13.421C8.40882 13.421 8.73351 13.5028 9.31828 13.5797C9.27554 14.0289 9.25359 14.4891 9.25359 14.9603C9.25359 17.9834 10.5023 20.9015 12.2492 23.2398L12.2284 26.0938C12.2211 26.1084 12.215 26.1255 12.2077 26.1402C11.9904 26.5637 11.1408 27.4609 7.87539 28.7048C6.955 29.0552 6.25554 29.5874 4.18765 30.1441L4.04484 30.1844C2.1625 30.807 0.896637 32.5525 0.896637 34.5227V40H15.8966H20.0006H24.2291H25.0629H33.3966H39.1034V34.5227C39.1034 32.5525 37.8376 30.8069 35.9553 30.1843ZM28.3039 7.28086C28.7629 8.32516 29.0717 9.45859 29.2206 10.6524C29.2438 10.8392 29.2634 11.0211 29.278 11.1993C29.0094 10.697 28.7153 10.2691 28.3844 9.895C28.0194 9.48117 27.6105 9.14242 27.165 8.88117C27.5019 8.06453 27.9267 7.57438 28.3039 7.28086ZM10.4048 9.25844C10.6477 8.03039 11.0066 6.94523 11.4753 6.03398C12.0173 4.97563 12.707 4.15469 13.5248 3.59437C15.3925 2.31508 17.4567 1.66688 19.6576 1.66688C22.497 1.66688 24.7663 2.76367 25.5305 3.45523C26.3069 4.15773 26.9697 4.94266 27.5141 5.79898C26.8525 6.24211 26.1201 7.00383 25.5964 8.31117C25.323 8.26414 25.041 8.24039 24.7529 8.24039C23.509 8.24039 22.1687 8.66094 20.655 9.52578C17.0087 11.6089 13.6359 12.0466 11.4484 12.0466C10.9248 12.0466 10.4645 12.0209 10.0825 11.9867C10.1155 11.2573 10.2009 10.293 10.4048 9.25844ZM16.1103 38.3325H2.56296V34.5227C2.56296 33.28 3.35765 32.1802 4.54171 31.7761L4.63453 31.7492C6.19336 31.3293 7.05398 30.9179 7.74609 30.5859C8.01343 30.4589 8.24414 30.3466 8.46875 30.2612C9.69921 29.7924 11.2348 29.1455 12.364 28.3227L15.9028 30.1734L16.5144 29.6558L16.9453 31.8091L16.1103 38.3325ZM13.5871 27.0813C13.6237 27.0214 13.6591 26.9616 13.6909 26.9006C13.7202 26.8433 13.7421 26.7945 13.7531 26.7652L13.8923 26.4575L13.8947 26.1047L13.902 25.1416C14.8005 26.0303 15.7563 26.77 16.6987 27.3145L15.6818 28.1763L13.5871 27.0813ZM20.0007 38.3325H17.79L18.537 32.5H21.4606L22.3041 38.3325H20.0007ZM17.9682 28.4253L18.3735 28.0811C18.9436 28.2691 19.4916 28.3692 20.0007 28.3692C20.5354 28.3692 21.1152 28.2569 21.7182 28.0506L22.0502 28.3326L21.5509 30.8325H18.4492L17.9682 28.4253ZM20.0007 26.7017C19.3098 26.7017 18.4028 26.3892 17.4458 25.8228C16.3752 25.1856 15.3034 24.275 14.3464 23.1837C12.1687 20.7026 10.9199 17.7052 10.9199 14.9604C10.9198 14.5343 10.9406 14.1163 10.9809 13.7066C11.1323 13.7109 11.2873 13.7127 11.4484 13.7127C13.8874 13.7127 17.5434 13.2232 21.4814 10.9729C22.8071 10.2155 23.8789 9.90664 24.7529 9.90664C26.8512 9.90664 27.8022 11.6877 28.3735 13.299C28.5688 13.8507 28.8142 14.231 29.0705 14.491C29.0766 14.646 29.0803 14.8029 29.0803 14.9604C29.0803 17.7052 27.8316 20.7026 25.6538 23.1837C24.6968 24.275 23.625 25.1869 22.5544 25.8228C21.5974 26.3892 20.6904 26.7017 20.0007 26.7017ZM26.4447 27.1314L24.4464 28.1763L23.377 27.2705C24.295 26.7298 25.224 26.0059 26.098 25.1416L26.1054 26.1048L26.1078 26.4576L26.2458 26.7652C26.258 26.7921 26.2787 26.8421 26.3092 26.9007C26.3495 26.9788 26.3959 27.0557 26.4447 27.1314ZM31.7292 38.3325H26.7292V36.6675H31.7292V38.3325ZM37.4372 38.3325H33.3966V35H30.8966C30.8966 34.5398 30.5231 34.1675 30.0629 34.1675H28.3966C27.9364 34.1675 27.5629 34.5398 27.5629 35H25.0629V38.3325H23.9887L23.0487 31.8384L23.5041 29.563L24.2255 30.1733L27.6898 28.3605C28.8141 29.1662 30.3217 29.801 31.5327 30.2624C31.756 30.3466 31.9867 30.459 32.2541 30.5859C32.9462 30.918 33.8068 31.3294 35.3656 31.7493L35.4584 31.7762C36.6437 32.1802 37.4372 33.2801 37.4372 34.5227V38.3325Z" fill="white"/>
</svg>
