<svg width="55" height="55" viewBox="0 0 55 55" fill="none" xmlns="http://www.w3.org/2000/svg">
<g clip-path="url(#clip0)">
<path d="M45.5096 20.8848L44.0122 21.9109C46.1167 24.9795 47.3162 28.578 47.474 32.2957H39.3135C39.2736 30.1043 39.0484 27.9199 38.6395 25.7661L36.8569 26.1111C37.2418 28.1514 37.4547 30.22 37.4928 32.2957H28.4365V21.3691C29.0857 21.3416 29.7345 21.2972 30.3699 21.2143L30.1358 19.4135C29.5762 19.4862 29.0077 19.527 28.4365 19.5528V12.3164C28.4365 11.8148 28.0299 11.4082 27.5284 11.4082C17.5072 11.4086 8.7778 18.2424 6.37172 27.9705C3.96521 37.6981 8.50242 47.8137 17.3676 52.4857C26.2331 57.1577 37.1416 55.1831 43.8064 47.6993C50.4712 40.2154 51.1741 29.1518 45.5096 20.8848ZM37.5061 34.112C37.4578 38.31 36.6015 42.4588 34.9843 46.333C32.8815 45.5681 30.6728 45.1336 28.4365 45.0453V34.112H37.5061ZM20.88 47.9693C22.7282 47.3184 24.6625 46.945 26.6202 46.8616V53.0923C24.4408 52.679 22.4427 50.802 20.88 47.9693ZM21.7673 52.3123C19.9949 51.7771 18.3063 50.9966 16.7503 49.9936C17.5165 49.5023 18.3156 49.0642 19.1417 48.6824C19.8419 50.0096 20.7257 51.2317 21.7673 52.3123ZM26.6202 45.0471C24.384 45.1353 22.1753 45.5699 20.0725 46.3348C18.4549 42.4601 17.5986 38.3104 17.5507 34.112H26.6202V45.0471ZM28.4365 53.0923V46.8616C30.3943 46.945 32.3286 47.3184 34.1768 47.9693C32.6141 50.802 30.616 52.679 28.4365 53.0923ZM35.9151 48.6815C36.7416 49.0633 37.5402 49.5014 38.3065 49.9927C36.7505 50.9958 35.0619 51.7762 33.2899 52.3114C34.3311 51.2312 35.2149 50.0096 35.9151 48.6824V48.6815ZM17.5507 32.2957C17.599 28.0982 18.4553 23.949 20.0725 20.0747C22.1753 20.84 24.384 21.2742 26.6202 21.3624V32.2957H17.5507ZM26.6202 13.3154V19.547C24.6625 19.4636 22.7282 19.0902 20.88 18.4393C22.4427 15.6057 24.4408 13.7287 26.6202 13.3154ZM19.1417 17.7262C18.3156 17.3445 17.5165 16.9063 16.7503 16.415C18.3063 15.412 19.9949 14.6315 21.7673 14.0963C20.7257 15.1765 19.8419 16.3982 19.1417 17.7254V17.7262ZM15.1774 17.5382C16.1814 18.2318 17.2416 18.8393 18.3471 19.3545C16.6479 23.459 15.7605 27.8538 15.7344 32.2957H7.59338C7.85634 26.508 10.6247 21.1212 15.1774 17.5382ZM7.59338 34.112H15.7344C15.761 38.5526 16.6479 42.9461 18.3462 47.0496C17.2403 47.5649 16.1805 48.1724 15.1765 48.8659C10.6251 45.2834 7.85723 39.8984 7.59338 34.112ZM39.8794 48.8695C38.8754 48.1764 37.8156 47.5685 36.7097 47.0532C38.4089 42.9488 39.2962 38.5539 39.3224 34.112H47.4634C47.2005 39.8997 44.4321 45.2865 39.8794 48.8695Z" fill="white"/>
<path d="M35.7017 25.0311C35.845 25.0311 35.986 24.9974 36.1132 24.9323C36.5726 24.6986 47.3796 19.1299 49.1116 12.6722C50.0761 9.21076 49.1081 5.49833 46.5756 2.94903C44.0432 0.400173 40.3365 -0.592232 36.8693 0.349621C33.4017 1.29192 30.7073 4.02391 29.8134 7.50398C28.0822 13.9617 34.6601 24.1873 34.9399 24.6196C35.108 24.8768 35.3944 25.0316 35.7017 25.0311ZM31.5667 7.97225C32.7352 3.61196 37.2174 1.02408 41.5781 2.19253C45.9384 3.36098 48.5263 7.84276 47.3578 12.2035C46.0745 16.9904 38.4453 21.5684 36.025 22.9195C34.6029 20.5387 30.2848 12.76 31.5667 7.97225Z" fill="white"/>
<path d="M38.7566 12.7184C40.6944 13.2377 42.6863 12.0879 43.206 10.1505C43.7252 8.21269 42.5754 6.22079 40.6381 5.70108C38.7002 5.18138 36.7083 6.33076 36.1886 8.26857C35.6685 10.2068 36.8188 12.1992 38.7566 12.7184ZM37.9393 8.74082C38.1522 7.9453 38.8741 7.39234 39.6975 7.39411C39.8563 7.39456 40.0146 7.4154 40.168 7.45575C41.1369 7.7156 41.7116 8.71111 41.4522 9.68002C41.1928 10.6489 40.1968 11.2241 39.2279 10.9646C38.259 10.7052 37.6839 9.70973 37.9429 8.74082H37.9393Z" fill="white"/>
</g>
<defs>
<clipPath id="clip0">
<rect width="55" height="55" fill="white"/>
</clipPath>
</defs>
</svg>
