<svg width="45" height="45" viewBox="0 0 45 45" fill="none" xmlns="http://www.w3.org/2000/svg">
<g clip-path="url(#clip0)">
<path d="M17.8348 34.588C17.9432 34.3221 17.9993 34.038 18 33.7509V32.2509C17.9982 31.6957 17.7894 31.161 17.4152 30.7509C17.7894 30.3407 17.9982 29.806 18 29.2509V27.7509C18 26.5083 16.9925 25.5009 15.75 25.5009H12.5856C16.4974 23.8016 18.6793 19.5906 17.8118 15.4147C16.9438 11.2391 13.2649 8.24609 9 8.24609C4.7351 8.24609 1.05615 11.2391 0.188227 15.4147C-0.679327 19.5906 1.50256 23.8016 5.41442 25.5009H2.24999C1.00744 25.5009 -5.54573e-06 26.5083 -5.54573e-06 27.7509V29.2509C0.0018255 29.806 0.210566 30.3407 0.584833 30.7509C0.210566 31.161 0.0018255 31.6957 -5.54573e-06 32.2509V33.7509C0.00438899 34.7645 0.685908 35.6504 1.66516 35.9137C1.55676 36.1796 1.50073 36.4637 1.49999 36.7509V38.2509C1.50073 38.538 1.55676 38.8221 1.66516 39.088C0.685908 39.3513 0.00438899 40.2372 -5.54573e-06 41.2509V42.7509C-5.54573e-06 43.9934 1.00744 45.0009 2.24999 45.0009H15.75C16.9925 45.0009 18 43.9934 18 42.7509V41.2509C17.9993 40.9637 17.9432 40.6796 17.8348 40.4137C18.8141 40.1504 19.4956 39.2645 19.5 38.2509V36.7509C19.4956 35.7372 18.8141 34.8513 17.8348 34.588ZM1.49999 17.2509C1.49999 13.1086 4.85778 9.75085 9 9.75085C13.1422 9.75085 16.5 13.1086 16.5 17.2509C16.5 21.3931 13.1422 24.7509 9 24.7509C4.85961 24.7465 1.50439 21.3912 1.49999 17.2509ZM1.49999 27.7509C1.49999 27.3367 1.83581 27.0009 2.24999 27.0009H15.75C16.1642 27.0009 16.5 27.3367 16.5 27.7509V29.2509C16.5 29.665 16.1642 30.0009 15.75 30.0009V28.5009H14.25V30.0009H12.75V28.5009H11.25V30.0009H9.75V28.5009H8.25V30.0009H6.75V28.5009H5.25V30.0009H3.74999V28.5009H2.24999V30.0009C1.83581 30.0009 1.49999 29.665 1.49999 29.2509V27.7509ZM1.49999 33.7509V32.2509C1.49999 31.8367 1.83581 31.5009 2.24999 31.5009H15.75C16.1642 31.5009 16.5 31.8367 16.5 32.2509V33.7509C16.5 34.165 16.1642 34.5009 15.75 34.5009V33.0009H14.25V34.5009H12.75V33.0009H11.25V34.5009H9.75V33.0009H8.25V34.5009H6.75V33.0009H5.25V34.5009H3.74999V33.0009H2.24999V34.5009C1.83581 34.5009 1.49999 34.165 1.49999 33.7509ZM16.5 42.7509C16.5 43.165 16.1642 43.5009 15.75 43.5009V42.0009H14.25V43.5009H12.75V42.0009H11.25V43.5009H9.75V42.0009H8.25V43.5009H6.75V42.0009H5.25V43.5009H3.74999V42.0009H2.24999V43.5009C1.83581 43.5009 1.49999 43.165 1.49999 42.7509V41.2509C1.49999 40.8367 1.83581 40.5009 2.24999 40.5009H15.75C16.1642 40.5009 16.5 40.8367 16.5 41.2509V42.7509ZM18 38.2509C18 38.665 17.6642 39.0009 17.25 39.0009V37.5009H15.75V39.0009H14.25V37.5009H12.75V39.0009H11.25V37.5009H9.75V39.0009H8.25V37.5009H6.75V39.0009H5.25V37.5009H3.74999V39.0009C3.33581 39.0009 2.99999 38.665 2.99999 38.2509V36.7509C2.99999 36.3367 3.33581 36.0009 3.74999 36.0009H17.25C17.6642 36.0009 18 36.3367 18 36.7509V38.2509Z" fill="white"/>
<path d="M9.75 22.5V20.9249C11.0559 20.6799 12 19.8171 12 18.75C12 17.4884 10.6824 16.5 9 16.5C8.08411 16.5 7.5 16.0562 7.5 15.75C7.5 15.4438 8.08411 15 9 15C9.91589 15 10.5 15.4438 10.5 15.75H12C12 14.6843 11.0559 13.8219 9.75 13.5751V12H8.25V13.5751C6.94409 13.8201 6 14.6829 6 15.75C6 17.0116 7.31763 18 9 18C9.91589 18 10.5 18.4438 10.5 18.75C10.5 19.0562 9.91589 19.5 9 19.5C8.08411 19.5 7.5 19.0562 7.5 18.75H6C6 19.8157 6.94409 20.6781 8.25 20.9249V22.5H9.75Z" fill="white"/>
<path d="M35.5605 0H10.5V7.5H12V1.5H34.5V10.5H43.5V43.5H19.5V45H45V9.43945L35.5605 0ZM36 2.56055L42.4395 9H36V2.56055Z" fill="white"/>
<path d="M39.75 37.5V24.75H35.25V37.5H33.75V27.75H29.25V37.5H27.75V30.75H23.25V37.5H21.75V39H41.25V37.5H39.75ZM24.75 37.5V32.25H26.25V37.5H24.75ZM36.75 26.25H38.25V37.5H36.75V26.25ZM30.75 29.25H32.25V37.5H30.75V29.25Z" fill="white"/>
<path d="M33.75 17.25V18.75H36.4394L32.25 22.9395L29.25 19.9395L23.4697 25.7197L24.5303 26.7803L29.25 22.0605L32.25 25.0605L37.5 19.8105V22.5H39V17.25H33.75Z" fill="white"/>
<path d="M19.5 6H21V7.5H19.5V6Z" fill="white"/>
<path d="M22.5 6H31.5V7.5H22.5V6Z" fill="white"/>
<path d="M19.5 9H21V10.5H19.5V9Z" fill="white"/>
<path d="M22.5 9H31.5V10.5H22.5V9Z" fill="white"/>
<path d="M19.5 12H21V13.5H19.5V12Z" fill="white"/>
<path d="M22.5 12H31.5V13.5H22.5V12Z" fill="white"/>
</g>
<defs>
<clipPath id="clip0">
<rect width="45" height="45" fill="white"/>
</clipPath>
</defs>
</svg>
