<svg xmlns="http://www.w3.org/2000/svg" width="32" height="32" viewBox="0 0 32 32">
  <metadata><?xpacket begin="﻿" id="W5M0MpCehiHzreSzNTczkc9d"?>
<x:xmpmeta xmlns:x="adobe:ns:meta/" x:xmptk="Adobe XMP Core 5.6-c138 79.159824, 2016/09/14-01:09:01        ">
   <rdf:RDF xmlns:rdf="http://www.w3.org/1999/02/22-rdf-syntax-ns#">
      <rdf:Description rdf:about=""/>
   </rdf:RDF>
</x:xmpmeta>
                                                                                                    
                                                                                                    
                                                                                                    
                                                                                                    
                                                                                                    
                                                                                                    
                                                                                                    
                                                                                                    
                                                                                                    
                                                                                                    
                                                                                                    
                                                                                                    
                                                                                                    
                                                                                                    
                                                                                                    
                                                                                                    
                                                                                                    
                                                                                                    
                                                                                                    
                                                                                                    
                           
<?xpacket end="w"?></metadata>
<defs>
    <style>
      .cls-1 {
        fill: #fdfdfd;
        fill-rule: evenodd;
      }
    </style>
  </defs>
  <path id="g_" data-name="g+ " class="cls-1" d="M2522.86,3834.65c-0.11-.07-0.21-0.14-0.33-0.22a3.753,3.753,0,0,0-1.02-.16h-0.04c-1.62,0-3.04.99-3.04,2.1,0,1.22,1.22,2.17,2.77,2.17,2.05,0,3.09-.7,3.09-2.09a1.915,1.915,0,0,0-.05-0.41A2.837,2.837,0,0,0,2522.86,3834.65Zm-1.15-4.25h0a1.25,1.25,0,0,0,.97-0.44,2.575,2.575,0,0,0,.47-1.98c-0.19-1.41-1.2-2.58-2.25-2.61h-0.04a1.224,1.224,0,0,0-.95.44,2.476,2.476,0,0,0-.46,1.94c0.19,1.41,1.21,2.62,2.24,2.65h0.02ZM2525,3816a16,16,0,1,0,15.99,16A16.021,16.021,0,0,0,2525,3816Zm-1.84,23.79a7.234,7.234,0,0,1-1.95.26,9.042,9.042,0,0,1-2.18-.26,4.226,4.226,0,0,1-2.77-1.79,2.308,2.308,0,0,1-.29-1.12,2.843,2.843,0,0,1,.28-1.21,5.212,5.212,0,0,1,4.76-2.59h0.06a1.866,1.866,0,0,1-.25-0.94,1.792,1.792,0,0,1,.07-0.51,3.81,3.81,0,0,1-3.89-3.82,4.073,4.073,0,0,1,2.94-3.59,4.8,4.8,0,0,1,1.57-.27h4.76a0.363,0.363,0,0,1,.35.26,0.351,0.351,0,0,1-.14.41l-1.06.77a0.341,0.341,0,0,1-.22.07h-0.38a3.716,3.716,0,0,1,.78,2.38,3.565,3.565,0,0,1-1.49,2.78c-0.74.57-.77,0.73-0.77,1.06a3.261,3.261,0,0,0,1.1,1.18,3.652,3.652,0,0,1,1.82,3.39A3.885,3.885,0,0,1,2523.16,3839.79Zm10.74-8.16a0.371,0.371,0,0,1-.38.37h-2.7v2.71a0.376,0.376,0,0,1-.37.37h-0.77a0.378,0.378,0,0,1-.38-0.37V3832h-2.7a0.363,0.363,0,0,1-.37-0.37v-0.77a0.363,0.363,0,0,1,.37-0.37h2.7v-2.71a0.378,0.378,0,0,1,.38-0.37h0.77a0.376,0.376,0,0,1,.37.37v2.71h2.7a0.371,0.371,0,0,1,.38.37v0.77Z" transform="translate(-2509 -3816)"/>
</svg>
