<svg xmlns="http://www.w3.org/2000/svg" width="32" height="32" viewBox="0 0 32 32">
  <metadata><?xpacket begin="﻿" id="W5M0MpCehiHzreSzNTczkc9d"?>
<x:xmpmeta xmlns:x="adobe:ns:meta/" x:xmptk="Adobe XMP Core 5.6-c138 79.159824, 2016/09/14-01:09:01        ">
   <rdf:RDF xmlns:rdf="http://www.w3.org/1999/02/22-rdf-syntax-ns#">
      <rdf:Description rdf:about=""/>
   </rdf:RDF>
</x:xmpmeta>
                                                                                                    
                                                                                                    
                                                                                                    
                                                                                                    
                                                                                                    
                                                                                                    
                                                                                                    
                                                                                                    
                                                                                                    
                                                                                                    
                                                                                                    
                                                                                                    
                                                                                                    
                                                                                                    
                                                                                                    
                                                                                                    
                                                                                                    
                                                                                                    
                                                                                                    
                                                                                                    
                           
<?xpacket end="w"?></metadata>
<defs>
    <style>
      .cls-1 {
        fill: #fff;
        fill-rule: evenodd;
      }
    </style>
  </defs>
  <path id="in" class="cls-1" d="M2610,3816a16,16,0,1,0,16,16A16,16,0,0,0,2610,3816Zm-4,23.75h-4v-14h4v14Zm-1.88-14.86a1.875,1.875,0,1,1,1.88-1.87A1.874,1.874,0,0,1,2604.12,3824.89Zm15.88,14.86h-4v-8.66c0-1.01-.29-1.72-1.54-1.72a2.4,2.4,0,0,0-2.46,1.72v8.66h-4v-14h4v1.34a6.668,6.668,0,0,1,4-1.34c1.3,0,4,.78,4,5.47v8.53Z" transform="translate(-2594 -3816)"/>
</svg>
