<?xml version="1.0" encoding="UTF-8"?>
<svg width="110px" height="26px" viewBox="0 0 110 26" version="1.1" xmlns="http://www.w3.org/2000/svg" xmlns:xlink="http://www.w3.org/1999/xlink">
    <!-- Generator: Sketch 58 (84663) - https://sketch.com -->
    <title>mc id check</title>
    <desc>Created with Sketch.</desc>
    <g id="Page-1" stroke="none" stroke-width="1" fill="none" fill-rule="evenodd">
        <g id="new-card" transform="translate(-796.000000, -620.000000)" fill-rule="nonzero">
            <g id="mc-id-check" transform="translate(796.000000, 620.000000)">
                <path d="M38.580292,25.6211679 L37.7639903,25.6211679 L37.7639903,16.2537713 L38.580292,16.2537713 L38.580292,25.6211679 Z M44.8029197,16.2537713 C45.5192984,16.2429768 46.2323469,16.3533726 46.9119221,16.580292 C47.5067442,16.7769713 48.0537708,17.0960701 48.5177616,17.5170316 C48.9531224,17.9291334 49.2929558,18.4315753 49.513382,18.9890511 C49.9866935,20.2421149 49.9866935,21.6247951 49.513382,22.8778589 C49.289394,23.4375403 48.944902,23.9410285 48.5043796,24.3525547 C48.0404359,24.7735805 47.493395,25.0926877 46.8985401,25.2892944 C46.2198149,25.5159157 45.5076965,25.6263076 44.7922141,25.6158151 L41.3824818,25.6158151 L41.3824818,16.2484185 L44.8029197,16.2537713 Z M42.2014599,17.029927 L42.2014599,24.8450122 L44.8029197,24.8450122 C45.4159427,24.8591007 46.026882,24.7685912 46.6094891,24.5773723 C47.09909,24.411082 47.5478824,24.1429011 47.9262774,23.7905109 C48.2837152,23.4462444 48.558265,23.0252681 48.7291971,22.5593674 C49.0916448,21.5194853 49.0916448,20.3875707 48.7291971,19.3476886 C48.5576239,18.8813298 48.2831898,18.4596161 47.9262774,18.1138686 C47.5490304,17.759953 47.0998895,17.491564 46.6094891,17.3270073 C46.0266319,17.1368484 45.4158746,17.0463659 44.8029197,17.0593674 L42.2014599,17.029927 Z M59.8924574,16.1467153 C60.2844325,16.1456507 60.6751798,16.1905642 61.056691,16.2805353 C61.4222917,16.3665283 61.7763032,16.4959132 62.1111922,16.6659367 C62.4329608,16.8285411 62.7324951,17.0318287 63.0024331,17.2708029 C63.2660297,17.504787 63.494933,17.7751453 63.6822384,18.0737226 L62.9997567,18.5287105 C62.8391589,18.2830116 62.6465486,18.0597997 62.4270073,17.8649635 C62.2057826,17.6689213 61.9612872,17.5008307 61.6990268,17.3644769 C61.4275415,17.2239175 61.1399392,17.1169654 60.8425791,17.0459854 C60.5322068,16.9721139 60.2141746,16.9352797 59.8951338,16.936253 C59.3630639,16.9319884 58.8351415,17.030122 58.340146,17.2253041 C57.8736086,17.4058625 57.4484458,17.6789863 57.0902676,18.0282238 C56.7302832,18.3892635 56.4463417,18.818816 56.2552311,19.2914842 C55.8491873,20.3420164 55.8491873,21.5061588 56.2552311,22.556691 C56.4467557,23.030574 56.7316434,23.4610913 57.092944,23.8226277 C57.4511222,24.1718653 57.876285,24.4449891 58.3428224,24.6255474 C58.8378179,24.8207296 59.3657403,24.9188632 59.8978102,24.9145985 C60.2149217,24.9154162 60.5310601,24.8794913 60.8399027,24.8075426 C61.1364644,24.7392639 61.4232928,24.6340635 61.693674,24.4944039 C61.9569687,24.3584031 62.2023918,24.1902928 62.4243309,23.9939173 C62.6450685,23.7982447 62.8377968,23.5730948 62.9970803,23.3248175 L63.66618,23.8145985 C63.4719286,24.1119316 63.2388015,24.381963 62.9729927,24.6175182 C62.7041769,24.8511832 62.4075269,25.0507478 62.089781,25.2116788 C61.7592954,25.3791469 61.409697,25.5058651 61.0486618,25.5890511 C60.0311186,25.8206322 58.9675493,25.7423327 57.9948905,25.3642336 C57.4265238,25.1398141 56.908755,24.8040379 56.4720195,24.3766423 C56.0377771,23.9458197 55.6954332,23.4313933 55.4656934,22.8644769 C54.9796395,21.6202363 54.9796395,20.2386445 55.4656934,18.9944039 C55.6949828,18.4264625 56.0373608,17.9110744 56.4720195,17.479562 C56.908755,17.0521665 57.4265238,16.7163902 57.9948905,16.4919708 C58.5985052,16.2563273 59.2418453,16.1391085 59.889781,16.1467153 L59.8924574,16.1467153 Z M66.4576642,20.4289538 C66.577439,20.2303248 66.7252751,20.050037 66.8965937,19.893674 C67.0567825,19.7452922 67.2369582,19.6200701 67.4318735,19.5216545 C67.627738,19.4258629 67.8344127,19.353976 68.0474453,19.3075426 C68.2584282,19.2612933 68.4737885,19.2379626 68.689781,19.2379562 C69.0541817,19.2342561 69.4164443,19.2940294 69.7603406,19.4145985 C70.0719727,19.5242691 70.3579394,19.6963956 70.6007299,19.920438 C70.8360378,20.1454519 71.0188076,20.4196066 71.1360097,20.7233577 C71.2668499,21.0592897 71.3313799,21.4173857 71.3260341,21.7778589 L71.3260341,25.6372263 L70.5632603,25.6372263 L70.5632603,21.9946472 C70.5673256,21.703657 70.5220791,21.4140797 70.4294404,21.1381995 C70.3471563,20.8963473 70.2118165,20.6759629 70.0333333,20.4931873 C69.8540599,20.3136305 69.6375173,20.1756646 69.3990268,20.0890511 C69.1244014,19.9906338 68.8342702,19.9425808 68.5425791,19.9472019 C68.2599393,19.9447297 67.9793682,19.9955775 67.7155718,20.0970803 C67.4658393,20.1930348 67.2382029,20.3387221 67.046472,20.5253041 C66.8547848,20.7145923 66.7028274,20.9402536 66.5995134,21.1890511 C66.4883638,21.456995 66.4328199,21.7447305 66.436253,22.0347932 L66.436253,25.6211679 L65.6734793,25.6211679 L65.6734793,15.9861314 L66.436253,15.9861314 L66.4576642,20.4289538 Z M76.3255474,19.2379562 C76.7269199,19.2346227 77.1245025,19.3157807 77.4924574,19.4761557 C77.8445115,19.6297421 78.1607776,19.8548652 78.4211679,20.1372263 C78.6901095,20.4337926 78.8999497,20.7789843 79.0394161,21.1542579 C79.1951548,21.5683815 79.2749392,22.0071953 79.2749392,22.449635 C79.2749392,22.5085158 79.2749392,22.5629359 79.2749392,22.6128954 C79.2749392,22.6628548 79.2749392,22.7128143 79.2749392,22.7627737 L73.9810219,22.7627737 C74.0004406,23.1007618 74.0830516,23.4321136 74.2245742,23.7396594 C74.3536328,24.0142369 74.5355229,24.2606979 74.759854,24.4649635 C74.9783958,24.6636751 75.2339535,24.8173735 75.5119221,24.9172749 C75.8029258,25.0217721 76.1100297,25.074315 76.4192214,25.0725061 C76.8263777,25.0792902 77.2301045,24.9970834 77.6021898,24.8316302 C77.9529268,24.6697988 78.2726648,24.4478843 78.5469586,24.1759124 L78.9564477,24.7111922 C78.7705219,24.90012 78.5650732,25.0687853 78.3435523,25.2143552 C78.1444479,25.3441987 77.9317498,25.4518939 77.7092457,25.5355231 C77.4964978,25.6152872 77.2757508,25.6718199 77.0508516,25.7041363 C76.8264672,25.7349577 76.6002133,25.7501606 76.3737226,25.749635 C75.938469,25.7540319 75.5065707,25.6731078 75.1024331,25.5114355 C74.7255219,25.3608531 74.3838186,25.1339621 74.0987835,24.8450122 C73.8101644,24.5478855 73.5860184,24.1943545 73.4403893,23.8065693 C73.2752437,23.3800155 73.1934736,22.9257371 73.1995134,22.4683698 C73.1949304,22.0209357 73.2757763,21.5767375 73.4377129,21.1596107 C73.5859658,20.7761425 73.8088431,20.4259069 74.0934307,20.1291971 C74.374296,19.8401334 74.7112822,19.6115292 75.0836983,19.4574209 C75.4768013,19.2969468 75.8983299,19.2177394 76.322871,19.2245742 L76.3255474,19.2379562 Z M76.3255474,19.9150852 C76.0241537,19.9110505 75.7249262,19.9665304 75.4450122,20.0783455 C75.185296,20.1841023 74.9481932,20.3385371 74.746472,20.5333333 C74.5417593,20.7327212 74.3749066,20.9675845 74.2540146,21.2265207 C74.1240393,21.5052436 74.0417141,21.8037857 74.0104623,22.1097324 L78.4987835,22.1097324 C78.4759547,21.8013203 78.4008366,21.4990375 78.2766423,21.2158151 C78.1643524,20.9573314 78.0045744,20.7222036 77.8055961,20.5226277 C77.4080705,20.1283953 76.8693247,19.9096202 76.3094891,19.9150852 L76.3255474,19.9150852 Z M83.9452555,19.2379562 C84.3912942,19.233981 84.8335978,19.3195294 85.2459854,19.4895377 C85.6364866,19.6508599 85.9851832,19.8988829 86.2656934,20.2148418 L85.7705596,20.7287105 C85.5325113,20.4884973 85.2521383,20.2943231 84.9435523,20.1559611 C84.6218085,20.0169715 84.2742913,19.9476505 83.9238443,19.9525547 C83.5939346,19.9494262 83.2668993,20.0141045 82.963017,20.1425791 C82.671892,20.26731 82.4088441,20.4493501 82.1895377,20.6778589 C81.9674302,20.9088325 81.7936403,21.1818009 81.6783455,21.4807786 C81.4327569,22.1347178 81.4327569,22.8555498 81.6783455,23.5094891 C81.9041118,24.1133729 82.3688471,24.5974722 82.963017,24.8476886 C83.2668993,24.9761632 83.5939346,25.0408415 83.9238443,25.0377129 C84.2796001,25.0414856 84.6319816,24.9684532 84.9569343,24.823601 C85.2655688,24.6848411 85.547332,24.492771 85.7892944,24.2562044 L86.2656934,24.7781022 C85.9821118,25.0929967 85.6319445,25.3407652 85.2406326,25.5034063 C84.8292658,25.6736941 84.3877783,25.7592607 83.9425791,25.7549878 C83.4969233,25.7604436 83.0546759,25.676726 82.6418491,25.5087591 C81.8687468,25.1944987 81.2589812,24.5760221 80.9557178,23.7985401 C80.638699,22.9677388 80.638699,22.0492929 80.9557178,21.2184915 C81.2578242,20.4396448 81.8678563,19.8199296 82.6418491,19.5055961 C83.0488984,19.3270914 83.4874589,19.2315543 83.9318735,19.2245742 L83.9452555,19.2379562 Z M88.8296837,21.9946472 L89.8520681,21.9946472 L92.5017032,19.3396594 L93.4652068,19.3396594 L90.4676399,22.3104623 L93.5187348,25.6345499 L92.5498783,25.6345499 L89.8520681,22.6905109 L88.8296837,22.6905109 L88.8296837,25.6345499 L88.053528,25.6345499 L88.053528,15.9995134 L88.8163017,15.9995134 L88.8296837,21.9946472 Z M47.7442822,12.9243309 L47.7442822,8.90973236 C47.7442822,7.39489051 46.7781022,6.37518248 45.2231144,6.36180049 C44.3211632,6.30348622 43.4588596,6.74027734 42.9722628,7.50194647 C42.5287748,6.76273054 41.716502,6.3252739 40.8552311,6.36180049 C40.1061599,6.32562317 39.3937269,6.68794626 38.9817518,7.31459854 L38.9817518,6.51167883 L37.5873479,6.51167883 L37.5873479,12.9189781 L38.9951338,12.9189781 L38.9951338,9.37274939 C38.9951338,8.2593674 39.6107056,7.67055961 40.5635036,7.67055961 C41.5163017,7.67055961 41.9579075,8.27274939 41.9579075,9.3593674 L41.9579075,12.9243309 L43.3656934,12.9243309 L43.3656934,9.37274939 C43.3656934,8.2593674 44.0080292,7.67055961 44.9340633,7.67055961 C45.8600973,7.67055961 46.3418491,8.27274939 46.3418491,9.3593674 L46.3418491,12.9243309 L47.7442822,12.9243309 Z M68.5746959,6.51703163 L66.2970803,6.51703163 L66.2970803,4.57396594 L64.9026764,4.57396594 L64.9026764,6.51703163 L63.6019465,6.51703163 L63.6019465,7.79099757 L64.9026764,7.79099757 L64.9026764,10.7136253 C64.9026764,12.2017032 65.4781022,13.0876083 67.126764,13.0876083 C67.742535,13.0895805 68.3463992,12.9179755 68.8690998,12.5924574 L68.4676399,11.3987835 C68.0935368,11.6216173 67.6690295,11.7459307 67.23382,11.7600973 C66.5379562,11.7600973 66.3077859,11.3318735 66.3077859,10.6895377 L66.3077859,7.79099757 L68.5854015,7.79099757 L68.5746959,6.51703163 Z M80.4659367,6.35644769 C79.7733388,6.33625876 79.1252437,6.69676809 78.777129,7.29586375 L78.777129,6.51703163 L77.3961071,6.51703163 L77.3961071,12.9243309 L78.7905109,12.9243309 L78.7905109,9.33260341 C78.7905109,8.2620438 79.2454988,7.68394161 80.1581509,7.68394161 C80.4567122,7.67962269 80.7531975,7.73419053 81.0306569,7.84452555 L81.4588808,6.53041363 C81.1401862,6.41643559 80.8043978,6.35760472 80.4659367,6.35644769 L80.4659367,6.35644769 Z M62.4939173,7.02822384 C61.7044433,6.55919378 60.7968023,6.32694171 59.8790754,6.35912409 C58.2571776,6.35912409 57.2026764,7.13527981 57.2026764,8.40924574 C57.2026764,9.45571776 57.9788321,10.0980535 59.413382,10.2987835 L60.0690998,10.3924574 C60.8318735,10.4995134 61.1958637,10.7002433 61.1958637,11.0615572 C61.1958637,11.556691 60.6873479,11.8377129 59.7345499,11.8377129 C58.965863,11.8621313 58.2114368,11.6263731 57.5934307,11.1686131 L56.9377129,12.2552311 C57.7497284,12.8229872 58.722696,13.1147837 59.7131387,13.0875912 C61.5625304,13.0875912 62.6357664,12.2150852 62.6357664,10.9973236 C62.6357664,9.87055961 61.7900243,9.28175182 60.3982968,9.0810219 L59.7425791,8.98734793 C59.1403893,8.90705596 58.6559611,8.786618 58.6559611,8.35839416 C58.6559611,7.89002433 59.1109489,7.60632603 59.876399,7.60632603 C60.5777245,7.61669095 61.2648541,7.80551343 61.8729927,8.15498783 L62.4939173,7.02822384 Z M99.8403893,6.35912409 C99.1477914,6.33893515 98.4996962,6.69944449 98.1515815,7.29854015 L98.1515815,6.51703163 L96.7705596,6.51703163 L96.7705596,12.9243309 L98.1649635,12.9243309 L98.1649635,9.33260341 C98.1649635,8.2620438 98.6199513,7.68394161 99.5326034,7.68394161 C99.8311648,7.67962269 100.12765,7.73419053 100.405109,7.84452555 L100.833333,6.53041363 C100.514639,6.41643559 100.17885,6.35760472 99.8403893,6.35644769 L99.8403893,6.35912409 Z M81.876399,9.72335766 C81.876399,11.6664234 83.2306569,13.0875912 85.2941606,13.0875912 C86.1308999,13.1289889 86.9528696,12.8559537 87.5985401,12.3221411 L86.9294404,11.1953771 C86.4434906,11.561771 85.8519041,11.7608445 85.243309,11.7627737 C84.129927,11.7627737 83.3136253,10.9437956 83.3136253,9.71265207 C83.3136253,8.48150852 84.1326034,7.67591241 85.243309,7.66253041 C85.8491499,7.6690775 86.4367184,7.87087816 86.9187348,8.2379562 L87.5878345,7.11119221 C86.942164,6.57737962 86.1201943,6.30434439 85.283455,6.34574209 C83.2199513,6.34574209 81.8656934,7.76690998 81.8656934,9.70997567 L81.876399,9.72335766 Z M94.9318735,9.72335766 L94.9318735,6.51167883 L93.540146,6.51167883 L93.540146,7.29051095 C93.0577491,6.66802295 92.3036145,6.317889 91.5167883,6.35109489 C89.7209246,6.35109489 88.3051095,7.75888078 88.3051095,9.71532847 C88.3051095,11.6717762 89.7128954,13.079562 91.5167883,13.079562 C92.3036145,13.1127679 93.0577491,12.762634 93.540146,12.140146 L93.540146,12.9163017 L94.9345499,12.9163017 L94.9318735,9.72335766 Z M89.7450122,9.72335766 C89.7450122,8.59659367 90.4810219,7.67323601 91.6880779,7.67323601 C92.8416058,7.67323601 93.6177616,8.55912409 93.6177616,9.72335766 C93.6177616,10.8875912 92.8416058,11.7734793 91.6880779,11.7734793 C90.4810219,11.7734793 89.7450122,10.8474453 89.7450122,9.72335766 Z M72.9318735,6.35644769 C71.0583942,6.35644769 69.7416058,7.72408759 69.7416058,9.72068127 C69.7416058,11.7574209 71.1092457,13.0849148 73.0255474,13.0849148 C73.9823816,13.118439 74.9180323,12.7982978 75.6537713,12.1856448 L74.9712895,11.1525547 C74.4389861,11.5784507 73.7794814,11.8139881 73.0978102,11.8216545 C72.1985401,11.8216545 71.3822384,11.4068127 71.1815085,10.2532847 L75.940146,10.2532847 C75.953528,10.0793187 75.96691,9.9053528 75.96691,9.71800487 C75.96691,7.72141119 74.719708,6.35377129 72.9238443,6.35377129 L72.9318735,6.35644769 Z M72.9051095,7.60364964 C73.8043796,7.60364964 74.3798054,8.16569343 74.5270073,9.15863747 L71.1895377,9.15863747 C71.3367397,8.23260341 71.8987835,7.60364964 72.8917275,7.60364964 L72.9051095,7.60364964 Z M107.880292,9.72068127 L107.880292,3.94501217 L106.485888,3.94501217 L106.485888,7.29586375 C106.003491,6.67337575 105.249357,6.3232418 104.46253,6.35644769 C102.666667,6.35644769 101.250852,7.76423358 101.250852,9.72068127 C101.250852,11.677129 102.658637,13.0849148 104.46253,13.0849148 C105.249357,13.1181207 106.003491,12.7679868 106.485888,12.1454988 L106.485888,12.9216545 L107.880292,12.9216545 L107.880292,9.72068127 Z M109.510219,12.3328436 C109.565363,12.3326304 109.619984,12.3435544 109.670803,12.3649635 C109.719712,12.3858401 109.764215,12.4158109 109.801946,12.4532847 C109.839342,12.490056 109.869326,12.5336686 109.890268,12.5817518 C109.933729,12.6825379 109.933729,12.7967809 109.890268,12.8975669 C109.869268,12.9456179 109.839291,12.9892201 109.801946,13.0260341 C109.764093,13.0633595 109.719621,13.0933103 109.670803,13.1143552 C109.62005,13.1359807 109.565385,13.1469137 109.510219,13.146472 C109.343387,13.1485548 109.191542,13.0504882 109.124818,12.8975669 C109.081672,12.796716 109.081672,12.6826027 109.124818,12.5817518 C109.166675,12.4834793 109.245504,12.4056119 109.344282,12.3649635 C109.392685,12.3448357 109.444427,12.3339426 109.496837,12.3328436 L109.510219,12.3328436 Z M109.510219,13.0554745 C109.55249,13.0561383 109.59443,13.0479326 109.633333,13.0313869 C109.670207,13.0154203 109.703788,12.9927307 109.73236,12.9644769 C109.85622,12.840188 109.85622,12.6391308 109.73236,12.5148418 C109.703911,12.4864392 109.6703,12.4637293 109.633333,12.4479319 C109.594384,12.4315359 109.552476,12.4233364 109.510219,12.4238443 C109.46709,12.4232729 109.424295,12.4314677 109.384428,12.4479319 C109.287525,12.4893073 109.217356,12.5759314 109.197001,12.6793138 C109.176646,12.7826962 109.208739,12.8894547 109.282725,12.9644769 C109.312009,12.9931121 109.34654,13.0158304 109.384428,13.0313869 C109.419933,13.0471453 109.45804,13.0562185 109.496837,13.0581509 L109.510219,13.0554745 Z M109.534307,12.5469586 C109.574383,12.5441506 109.614172,12.5555187 109.646715,12.5790754 C109.673435,12.6004147 109.688353,12.6332342 109.686861,12.6673966 C109.687839,12.6966874 109.676133,12.7249762 109.654745,12.7450122 C109.630205,12.7668419 109.599174,12.7800065 109.566423,12.7824818 L109.689538,12.9243309 L109.593187,12.9243309 L109.478102,12.7824818 L109.440633,12.7824818 L109.440633,12.9243309 L109.360341,12.9243309 L109.360341,12.5469586 L109.534307,12.5469586 Z M109.440633,12.616545 L109.440633,12.7182482 L109.534307,12.7182482 C109.550913,12.7230806 109.568552,12.7230806 109.585158,12.7182482 C109.597503,12.709874 109.604601,12.6956791 109.603893,12.6807786 C109.604601,12.6658781 109.597503,12.6516832 109.585158,12.643309 C109.568552,12.6384766 109.550913,12.6384766 109.534307,12.643309 L109.440633,12.616545 Z M102.693431,9.71800487 C102.693431,8.59124088 103.42944,7.66788321 104.636496,7.66788321 C105.790024,7.66788321 106.56618,8.55377129 106.56618,9.71800487 C106.56618,10.8822384 105.790024,11.7681265 104.636496,11.7681265 C103.42944,11.7681265 102.693431,10.8420925 102.693431,9.71800487 Z M55.6155718,9.71800487 L55.6155718,6.50632603 L54.1970803,6.50632603 L54.1970803,7.28515815 C53.7146834,6.66267016 52.9605488,6.3125362 52.1737226,6.34574209 C50.3778589,6.34574209 48.9620438,7.75352798 48.9620438,9.70997567 C48.9620438,11.6664234 50.3698297,13.0742092 52.1737226,13.0742092 C52.9605488,13.1074151 53.7146834,12.7572812 54.1970803,12.1347932 L54.1970803,12.9109489 L55.5914842,12.9109489 L55.6155718,9.71800487 Z M50.4287105,9.71800487 C50.4287105,8.59124088 51.1647202,7.66788321 52.3717762,7.66788321 C53.5253041,7.66788321 54.3014599,8.55377129 54.3014599,9.71800487 C54.3014599,10.8822384 53.5253041,11.7681265 52.3717762,11.7681265 C51.1486618,11.7627737 50.4126521,10.8474453 50.4126521,9.72068127 L50.4287105,9.71800487 Z M94.4875912,25.3053528 L94.3671533,25.3053528 L94.3671533,25.6211679 L94.3082725,25.6211679 L94.3082725,25.3053528 L94.1878345,25.3053528 L94.1878345,25.2491484 L94.4875912,25.2491484 L94.4875912,25.3053528 Z M94.9479319,25.6211679 L94.8783455,25.6211679 L94.8783455,25.3160584 L94.7686131,25.5836983 L94.7043796,25.5836983 L94.5946472,25.3160584 L94.5946472,25.6184915 L94.5357664,25.6184915 L94.5357664,25.246472 L94.626764,25.246472 L94.73382,25.5141119 L94.8408759,25.246472 L94.9318735,25.246472 L94.9479319,25.6211679 Z" id="Shape" fill="#ADB3C1"></path>
                <g id="_Group_" transform="translate(0.000000, -0.000000)">
                    <rect id="Rectangle" fill="#9EA4B0" x="11.3639903" y="2.10364964" width="8.43065693" height="15.1510949"></rect>
                    <path d="M11.9099757,9.68053528 C11.9076465,6.72445295 13.2646641,3.93146388 15.5900243,2.10632603 C11.6396033,-0.998282978 5.96664016,-0.546069828 2.55794104,3.14516224 C-0.850758073,6.8363943 -0.850758073,12.5273527 2.55794104,16.2185847 C5.96664016,19.9098168 11.6396033,20.3620299 15.5900243,17.2574209 C13.2639241,15.4317035 11.9068236,12.6375568 11.9099757,9.68053528 Z" id="_Path_" fill="#ADB3C1"></path>
                    <path d="M31.180049,9.68053528 C31.180049,13.3695179 29.0735676,16.7346266 25.7554576,18.3466869 C22.4373476,19.9587472 18.4900605,19.5347407 15.5900243,17.2547445 C17.9143699,15.4280572 19.2714897,12.6354395 19.2714897,9.67919708 C19.2714897,6.72295471 17.9143699,3.93033698 15.5900243,2.10364964 C18.4904401,-0.176645166 22.438341,-0.600440411 25.7566615,1.01229182 C29.074982,2.62502406 31.1809876,5.99106985 31.180049,9.68053528 Z" id="Path" fill="#D1D6E3"></path>
                </g>
            </g>
        </g>
    </g>
</svg>