<svg xmlns="http://www.w3.org/2000/svg" width="32" height="32" viewBox="0 0 32 32">
  <metadata><?xpacket begin="﻿" id="W5M0MpCehiHzreSzNTczkc9d"?>
<x:xmpmeta xmlns:x="adobe:ns:meta/" x:xmptk="Adobe XMP Core 5.6-c138 79.159824, 2016/09/14-01:09:01        ">
   <rdf:RDF xmlns:rdf="http://www.w3.org/1999/02/22-rdf-syntax-ns#">
      <rdf:Description rdf:about=""/>
   </rdf:RDF>
</x:xmpmeta>
                                                                                                    
                                                                                                    
                                                                                                    
                                                                                                    
                                                                                                    
                                                                                                    
                                                                                                    
                                                                                                    
                                                                                                    
                                                                                                    
                                                                                                    
                                                                                                    
                                                                                                    
                                                                                                    
                                                                                                    
                                                                                                    
                                                                                                    
                                                                                                    
                                                                                                    
                                                                                                    
                           
<?xpacket end="w"?></metadata>
<defs>
    <style>
      .cls-1 {
        fill: #fff;
        fill-rule: evenodd;
      }
    </style>
  </defs>
  <path id="twitter" class="cls-1" d="M2568,3816a16,16,0,1,0,15.99,16A16.021,16.021,0,0,0,2568,3816Zm7.13,12.34c0.01,0.16.02,0.32,0.02,0.48a10.476,10.476,0,0,1-16.12,8.82,8.3,8.3,0,0,0,.87.05,7.386,7.386,0,0,0,4.58-1.58,3.687,3.687,0,0,1-3.44-2.55,3.852,3.852,0,0,0,.69.06,3.443,3.443,0,0,0,.97-0.13,3.682,3.682,0,0,1-2.95-3.61v-0.04a3.709,3.709,0,0,0,1.66.46,3.7,3.7,0,0,1-1.63-3.07,3.634,3.634,0,0,1,.5-1.85,10.44,10.44,0,0,0,7.58,3.85,3.861,3.861,0,0,1-.09-0.84,3.686,3.686,0,0,1,6.37-2.52,7.612,7.612,0,0,0,2.34-.89,3.682,3.682,0,0,1-1.62,2.03,6.884,6.884,0,0,0,2.11-.58A7.426,7.426,0,0,1,2575.13,3828.34Z" transform="translate(-2552 -3816)"/>
</svg>
