<?xml version="1.0" encoding="UTF-8"?>
<svg width="40px" height="40px" viewBox="0 0 40 40" version="1.1" xmlns="http://www.w3.org/2000/svg" xmlns:xlink="http://www.w3.org/1999/xlink">
    <!-- Generator: Sketch 58 (84663) - https://sketch.com -->
    <title>visa secure</title>
    <desc>Created with Sketch.</desc>
    <g id="Page-1" stroke="none" stroke-width="1" fill="none" fill-rule="evenodd">
        <g id="new-card" transform="translate(-957.000000, -613.000000)" fill-rule="nonzero">
            <g id="visa-secure" transform="translate(957.000000, 613.000000)">
                <rect id="Rectangle" fill="#FFFFFF" x="0" y="0" width="40" height="40"></rect>
                <rect id="Rectangle" fill="#ADB3C1" x="0" y="20" width="40" height="20"></rect>
                <path d="M15.8141414,5.59191919 L12.0484848,14.5737374 L9.59191919,14.5737374 L7.73939394,7.40606061 C7.62626263,6.96565657 7.53737374,6.8 7.18787879,6.61616162 C6.45771567,6.27009357 5.68756287,6.0156378 4.89494949,5.85858586 L4.94949495,5.5979798 L8.90505051,5.5979798 C9.43869935,5.59751657 9.89312182,5.98591918 9.97575758,6.51313131 L10.9555556,11.7111111 L13.379798,5.5979798 L15.8141414,5.59191919 Z M25.4363636,11.6525253 C25.4545455,9.27070707 22.159596,9.13939394 22.1818182,8.08080808 C22.1818182,7.75959596 22.4969697,7.41616162 23.1676768,7.32929293 C23.9538255,7.2536826 24.7457343,7.39334905 25.4585859,7.73333333 L25.8626263,5.82626263 C25.1676737,5.56398158 24.4316714,5.42717817 23.6888889,5.42222222 C21.3919192,5.42222222 19.7757576,6.63434343 19.7636364,8.39191919 C19.7474747,9.68484848 20.9171717,10.4121212 21.7959596,10.8363636 C22.6747475,11.2606061 23.0080808,11.5575758 23.0080808,11.9515152 C23.0080808,12.5575758 22.2848485,12.820202 21.6181818,12.830303 C20.7873888,12.8486638 19.9658204,12.6531847 19.2323232,12.2626263 L18.8080808,14.2383838 C19.6318517,14.5578962 20.5083658,14.7196298 21.3919192,14.715242 C23.8323232,14.715242 25.4323232,13.5030303 25.4323232,11.6424242 L25.4363636,11.6525253 Z M31.4929293,14.5737374 L33.6424242,14.5737374 L31.7656566,5.59184477 L29.7838384,5.59184477 C29.3497717,5.58678035 28.9569033,5.84815813 28.7939394,6.25050505 L25.3070707,14.5737374 L27.7575758,14.5737374 L28.240404,13.2323232 L31.2222222,13.2323232 L31.4929293,14.5737374 Z M28.9090909,11.3919192 L30.1333333,8.01818182 L30.8363636,11.3919192 L28.9090909,11.3919192 Z M19.1333333,5.59191919 L17.2121212,14.5737374 L14.8888889,14.5737374 L16.810101,5.59191919 L19.1333333,5.59191919 Z" id="Shape" fill="#ADB3C1"></path>
                <path d="M9.31919192,31.0767677 C9.65428445,31.2648998 10.0318714,31.364338 10.4161616,31.3656566 C10.9393939,31.3656566 11.2363636,31.1171717 11.2363636,30.7474747 C11.2363636,30.3777778 11.0080808,30.2020202 10.4282828,29.9939394 C9.67474747,29.7313131 9.1979798,29.3272727 9.1979798,28.6808081 C9.1979798,27.9333333 9.81616162,27.3757576 10.8141414,27.3757576 C11.1872983,27.3663937 11.5576629,27.4424013 11.8969697,27.5979798 L11.6949495,28.2707071 C11.4133726,28.127516 11.1017509,28.0534193 10.7858586,28.0545455 C10.2606061,28.0545455 10.0383838,28.3313131 10.0383838,28.6 C10.0383838,28.9494949 10.3010101,29.1111111 10.9070707,29.3414141 C11.6949495,29.6444444 12.0707071,30.040404 12.0707071,30.6868687 C12.0707071,31.420202 11.5191919,32.0464646 10.3555556,32.0464646 C9.92825627,32.0504011 9.50605247,31.9535019 9.12323232,31.7636364 L9.31919192,31.0767677 Z" id="Path" fill="#FFFFFF"></path>
                <polygon id="Path" fill="#FFFFFF" points="15.2949495 29.9656566 13.5858586 29.9656566 13.5858586 31.2989899 15.4969697 31.2989899 15.4969697 31.9777778 12.7575758 31.9777778 12.7575758 27.4424242 15.3959596 27.4424242 15.3959596 28.1232323 13.5777778 28.1232323 13.5777778 29.2929293 15.2868687 29.2929293"></polygon>
                <path d="M19.4060606,31.8444444 C19.0308849,31.9897126 18.6304235,32.0584024 18.2282828,32.0464646 C16.789899,32.0464646 15.9151515,31.1434343 15.9151515,29.7636364 C15.9151515,28.2707071 16.9575758,27.3757576 18.3393939,27.3757576 C18.715441,27.3618366 19.0899469,27.4308063 19.4363636,27.5777778 L19.2606061,28.2363636 C18.9803047,28.1171222 18.6783294,28.0572775 18.3737374,28.0606061 C17.4505051,28.0606061 16.7858586,28.640404 16.7858586,29.7292929 C16.7858586,30.7272727 17.3636364,31.359596 18.3656566,31.359596 C18.6739782,31.3609478 18.9799725,31.3061837 19.2686869,31.1979798 L19.4060606,31.8444444 Z" id="Path" fill="#FFFFFF"></path>
                <path d="M20.8686869,27.4424242 L20.8686869,30.0868687 C20.8686869,30.9757576 21.2383838,31.3858586 21.7959596,31.3858586 C22.4020202,31.3858586 22.7515152,30.9818182 22.7515152,30.0868687 L22.7515152,27.4424242 L23.579798,27.4424242 L23.579798,30.0343434 C23.579798,31.4343434 22.8606061,32.0545455 21.7616162,32.0545455 C20.7111111,32.0545455 20.0323232,31.4686869 20.0323232,30.0343434 L20.0323232,27.4424242 L20.8686869,27.4424242 Z" id="Path" fill="#FFFFFF"></path>
                <path d="M24.4626263,27.5111111 C24.8756621,27.4405915 25.2941317,27.4067894 25.7131313,27.410101 C26.3656566,27.410101 26.8040404,27.5171717 27.1131313,27.7737374 C27.3749507,28.0040229 27.5183233,28.34054 27.5030303,28.6888889 C27.5014345,29.2046005 27.1678103,29.6605807 26.6767677,29.8181818 L26.6767677,29.8383838 C27.0060606,29.959596 27.2,30.2767677 27.3090909,30.7131313 C27.4033147,31.1411359 27.5220285,31.5633792 27.6646465,31.9777778 L26.8181818,31.9777778 C26.6820158,31.6324679 26.5805068,31.2744795 26.5151515,30.9090909 C26.379798,30.3171717 26.1717172,30.1272727 25.7070707,30.1151515 L25.2888889,30.1151515 L25.2888889,31.9777778 L24.4686869,31.9777778 L24.4626263,27.5111111 Z M25.2828283,29.5090909 L25.7737374,29.5090909 C26.3333333,29.5090909 26.6767677,29.2121212 26.6767677,28.7616162 C26.6767677,28.2707071 26.3333333,28.0343434 25.7939394,28.0343434 C25.6226099,28.0293188 25.4512402,28.0428658 25.2828283,28.0747475 L25.2828283,29.5090909 Z" id="Shape" fill="#FFFFFF"></path>
                <polygon id="Path" fill="#FFFFFF" points="30.7616162 29.9656566 29.0525253 29.9656566 29.0525253 31.2989899 30.9636364 31.2989899 30.9636364 31.9777778 28.2242424 31.9777778 28.2242424 27.4424242 30.8626263 27.4424242 30.8626263 28.1232323 29.0444444 28.1232323 29.0444444 29.2929293 30.7535354 29.2929293"></polygon>
            </g>
        </g>
    </g>
</svg>