<svg xmlns="http://www.w3.org/2000/svg" width="32" height="32" viewBox="0 0 32 32">
  <metadata><?xpacket begin="﻿" id="W5M0MpCehiHzreSzNTczkc9d"?>
<x:xmpmeta xmlns:x="adobe:ns:meta/" x:xmptk="Adobe XMP Core 5.6-c138 79.159824, 2016/09/14-01:09:01        ">
   <rdf:RDF xmlns:rdf="http://www.w3.org/1999/02/22-rdf-syntax-ns#">
      <rdf:Description rdf:about=""/>
   </rdf:RDF>
</x:xmpmeta>
                                                                                                    
                                                                                                    
                                                                                                    
                                                                                                    
                                                                                                    
                                                                                                    
                                                                                                    
                                                                                                    
                                                                                                    
                                                                                                    
                                                                                                    
                                                                                                    
                                                                                                    
                                                                                                    
                                                                                                    
                                                                                                    
                                                                                                    
                                                                                                    
                                                                                                    
                                                                                                    
                           
<?xpacket end="w"?></metadata>
<defs>
    <style>
      .cls-1 {
        fill: #fff;
        fill-rule: evenodd;
      }
    </style>
  </defs>
  <path id="vk" class="cls-1" d="M2652,3816a16,16,0,1,0,16,16A16,16,0,0,0,2652,3816Zm8.12,17.73a30.728,30.728,0,0,1,2.2,2.22,5.88,5.88,0,0,1,.79,1.13,0.825,0.825,0,0,1-.5,1.28l-3.28-.01a2.543,2.543,0,0,1-2.09-.85c-0.45-.46-0.87-0.95-1.31-1.43a2.685,2.685,0,0,0-.59-0.52,0.687,0.687,0,0,0-1.09.26,3.386,3.386,0,0,0-.34,1.53,0.869,0.869,0,0,1-1.05,1.01,8.42,8.42,0,0,1-4.69-1,10.353,10.353,0,0,1-3.15-2.96,39.325,39.325,0,0,1-4.16-7.41c-0.26-.58-0.07-0.89.58-0.9,1.06-.02,2.13-0.02,3.2,0a0.939,0.939,0,0,1,.9.66,19.34,19.34,0,0,0,2.17,4.03,3.568,3.568,0,0,0,.82.91,0.5,0.5,0,0,0,.85-0.25,2.76,2.76,0,0,0,.19-0.85,13.312,13.312,0,0,0-.05-2.96,1.226,1.226,0,0,0-1.06-1.13c-0.31-.06-0.26-0.18-0.11-0.36a1.171,1.171,0,0,1,1.01-.5h3.7a0.89,0.89,0,0,1,.79.97l0.01,4.11a1.183,1.183,0,0,0,.52,1.05,0.719,0.719,0,0,0,.74-0.36,12.794,12.794,0,0,0,2.09-3.2c0.25-.51.46-1.04,0.67-1.56a0.814,0.814,0,0,1,.84-0.58l3.56,0.01c0.11,0,.22,0,0.32.01a0.622,0.622,0,0,1,.58.95,8.766,8.766,0,0,1-1.42,2.46c-0.59.82-1.23,1.62-1.82,2.45A1.111,1.111,0,0,0,2660.12,3833.73Z" transform="translate(-2636 -3816)"/>
</svg>
