<svg width="26" height="26" viewBox="0 0 26 26" fill="none" xmlns="http://www.w3.org/2000/svg">
<path fill-rule="evenodd" clip-rule="evenodd" d="M25.3636 22.2909L19.7152 16.6427C19.6852 16.6126 19.65 16.5917 19.6186 16.5637C20.7301 14.8778 21.3787 12.8597 21.3787 10.6895C21.3787 4.78581 16.5929 0 10.6894 0C4.78581 0 0 4.78581 0 10.6894C0 16.5928 4.7857 21.3787 10.6893 21.3787C12.8596 21.3787 14.8776 20.7301 16.5635 19.6186C16.5915 19.6499 16.6123 19.6851 16.6424 19.7151L22.2908 25.3636C23.1393 26.212 24.515 26.212 25.3636 25.3636C26.212 24.5151 26.212 23.1394 25.3636 22.2909ZM10.6894 17.6731C6.83225 17.6731 3.70556 14.5464 3.70556 10.6894C3.70556 6.83225 6.83236 3.70556 10.6894 3.70556C14.5463 3.70556 17.6731 6.83236 17.6731 10.6894C17.6731 14.5464 14.5463 17.6731 10.6894 17.6731Z" fill="white"/>
</svg>
