<?xml version="1.0" encoding="UTF-8"?>
<svg xmlns="http://www.w3.org/2000/svg" xmlns:xlink="http://www.w3.org/1999/xlink" width="50pt" height="50pt" viewBox="0 0 50 50" version="1.1">
<g id="surface1">
<path style=" stroke:none;fill-rule:nonzero;fill:rgb(59.607843%,59.607843%,59.607843%);fill-opacity:1;" d="M 50 37.5 L 50 14.167969 C 49.996094 11.867188 48.132812 10.003906 45.832031 10 L 36.667969 10 L 36.667969 0 L 35 0 L 35 19.167969 C 35 19.625 35.375 20 35.832031 20 L 38.65625 20 L 25 28.195312 L 11.34375 20 L 14.167969 20 C 14.625 20 15 19.625 15 19.167969 L 15 0 L 13.332031 0 L 13.332031 10 L 4.167969 10 C 1.867188 10.003906 0.00390625 11.867188 0 14.167969 L 0 37.5 C 0.00390625 39.800781 1.867188 41.664062 4.167969 41.667969 L 17.816406 41.667969 L 16.152344 45 L 0.832031 45 C 0.375 45 0 45.375 0 45.832031 C 0 50 4.390625 50 5.832031 50 L 44.167969 50 C 45.609375 50 50 50 50 45.832031 C 50 45.375 49.625 45 49.167969 45 L 33.847656 45 L 32.183594 41.667969 L 45.832031 41.667969 C 48.132812 41.664062 49.996094 39.800781 50 37.5 Z M 13.332031 18.332031 L 8.332031 18.332031 C 7.875 18.332031 7.5 18.707031 7.5 19.167969 C 7.5 19.460938 7.652344 19.730469 7.90625 19.878906 L 24.570312 29.878906 C 24.835938 30.039062 25.167969 30.039062 25.429688 29.878906 L 42.09375 19.878906 C 42.492188 19.644531 42.617188 19.132812 42.378906 18.738281 C 42.230469 18.484375 41.957031 18.332031 41.667969 18.332031 L 36.667969 18.332031 L 36.667969 15 L 45 15 L 45 35 L 5 35 L 5 15 L 13.332031 15 Z M 48.230469 46.667969 C 47.941406 47.691406 46.9375 48.332031 44.167969 48.332031 L 5.832031 48.332031 C 3.0625 48.332031 2.058594 47.691406 1.765625 46.667969 Z M 18.015625 45 L 19.683594 41.667969 L 30.316406 41.667969 L 31.984375 45 Z M 4.167969 40 C 2.785156 40 1.667969 38.882812 1.667969 37.5 L 1.667969 14.167969 C 1.667969 12.785156 2.785156 11.667969 4.167969 11.667969 L 13.332031 11.667969 L 13.332031 13.332031 L 4.167969 13.332031 C 3.707031 13.332031 3.332031 13.707031 3.332031 14.167969 L 3.332031 35.832031 C 3.332031 36.292969 3.707031 36.667969 4.167969 36.667969 L 45.832031 36.667969 C 46.292969 36.667969 46.667969 36.292969 46.667969 35.832031 L 46.667969 14.167969 C 46.667969 13.707031 46.292969 13.332031 45.832031 13.332031 L 36.667969 13.332031 L 36.667969 11.667969 L 45.832031 11.667969 C 47.214844 11.667969 48.332031 12.785156 48.332031 14.167969 L 48.332031 37.5 C 48.332031 38.882812 47.214844 40 45.832031 40 Z M 4.167969 40 "/>
</g>
</svg>
