<svg width="60" height="60" viewBox="0 0 60 60" fill="none" xmlns="http://www.w3.org/2000/svg">
<path d="M60 45V17C59.9967 14.24 57.76 12.0033 55 12H44V0H42V23C42 23.5522 42.4478 24 43 24H46.39L30 33.834L13.61 24H17C17.5522 24 18 23.5522 18 23V0H16V12H5C2.24 12.0033 0.00325 14.24 0 17V45C0.00325 47.76 2.24 49.9967 5 50H21.382L19.382 54H1C0.44775 54 0 54.4478 0 55C0 60 5.269 60 7 60H53C54.731 60 60 60 60 55C60 54.4478 59.5522 54 59 54H40.618L38.618 50H55C57.76 49.9967 59.9967 47.76 60 45ZM16 22H10C9.44775 22.0001 9.00012 22.448 9.00037 23.0004C9.0005 23.3513 9.18437 23.6762 9.48512 23.8571L29.4851 35.8571C29.802 36.0475 30.1982 36.0475 30.5151 35.8571L50.5151 23.8571C50.9884 23.5725 51.1414 22.9581 50.8569 22.4848C50.6761 22.1841 50.351 22.0001 50.0001 22H44.0001V18H54.0001V42H6V18H16V22ZM57.879 56C57.53 57.231 56.323 58 53 58H7C3.677 58 2.47 57.231 2.121 56H57.879ZM21.618 54L23.618 50H36.382L38.382 54H21.618ZM5 48C3.34312 48 2 46.6569 2 45V17C2 15.3431 3.34312 14 5 14H16V16H5C4.44775 16 4 16.4478 4 17V43C4 43.5522 4.44775 44 5 44H55C55.5522 44 56 43.5522 56 43V17C56 16.4478 55.5522 16 55 16H44V14H55C56.6569 14 58 15.3431 58 17V45C58 46.6569 56.6569 48 55 48H5Z" fill="white"/>
<path d="M34.363 15.046C35.9231 13.8185 36.883 11.9818 37 10C37 3.388 33.193 2 30 2C26.807 2 23 3.388 23 10C23.1161 11.9827 24.0761 13.8207 25.637 15.049C22.9863 15.3756 20.9961 17.6291 21 20.3V24H23V20.3C23 18.4775 24.4775 17 26.3 17H33.7C35.5225 17 37 18.4775 37 20.3V24H39V20.3C39.0054 17.628 37.0149 15.3727 34.363 15.046ZM25.052 8.941C25.323 5.59 26.9 4 30 4C32.838 4 34.4 5.342 34.847 8.142L31.515 6.142C31.0414 5.85788 30.4271 6.0115 30.143 6.48513C30.1055 6.54763 30.075 6.61387 30.052 6.683C29.546 8.201 26.814 8.775 25.052 8.941ZM30 15C27.7696 14.6201 25.9143 13.0735 25.139 10.948V10.945C26.851 10.804 29.939 10.286 31.379 8.391L34.953 10.535C34.552 12.987 31.535 15 30 15Z" fill="white"/>
<path d="M50 36V34H48V36H46V38H48V40H50V38H52V36H50Z" fill="white"/>
</svg>
