<?xml version="1.0" encoding="UTF-8"?>
<svg xmlns="http://www.w3.org/2000/svg" xmlns:xlink="http://www.w3.org/1999/xlink" width="50pt" height="50pt" viewBox="0 0 50 50" version="1.1">
<g id="surface1">
<path style=" stroke:none;fill-rule:nonzero;fill:rgb(59.607843%,59.607843%,59.607843%);fill-opacity:1;" d="M 35 35.414062 L 38.332031 35.414062 L 38.332031 37.082031 L 35 37.082031 Z M 35 35.414062 "/>
<path style=" stroke:none;fill-rule:nonzero;fill:rgb(59.607843%,59.607843%,59.607843%);fill-opacity:1;" d="M 39.167969 7.917969 L 40.832031 7.917969 C 41.753906 7.917969 42.5 8.664062 42.5 9.585938 L 44.167969 9.585938 C 44.167969 7.742188 42.671875 6.25 40.832031 6.25 L 40.832031 4.585938 L 39.167969 4.585938 L 39.167969 6.25 C 37.328125 6.25 35.832031 7.742188 35.832031 9.585938 C 35.832031 11.425781 37.328125 12.917969 39.167969 12.917969 L 40.832031 12.917969 C 41.753906 12.917969 42.5 13.664062 42.5 14.585938 C 42.5 15.503906 41.753906 16.25 40.832031 16.25 L 39.167969 16.25 C 38.246094 16.25 37.5 15.503906 37.5 14.585938 L 35.832031 14.585938 C 35.832031 16.425781 37.328125 17.917969 39.167969 17.917969 L 39.167969 19.585938 L 40.832031 19.585938 L 40.832031 17.917969 C 42.671875 17.917969 44.167969 16.425781 44.167969 14.585938 C 44.167969 12.742188 42.671875 11.25 40.832031 11.25 L 39.167969 11.25 C 38.246094 11.25 37.5 10.503906 37.5 9.585938 C 37.5 8.664062 38.246094 7.917969 39.167969 7.917969 Z M 39.167969 7.917969 "/>
<path style=" stroke:none;fill-rule:nonzero;fill:rgb(59.607843%,59.607843%,59.607843%);fill-opacity:1;" d="M 50 12.082031 C 50.003906 7.214844 46.496094 3.050781 41.695312 2.226562 C 36.898438 1.402344 32.203125 4.15625 30.582031 8.75 L 21.667969 8.75 L 21.667969 10.417969 L 30.152344 10.417969 C 29.585938 13.609375 30.617188 16.878906 32.910156 19.171875 C 35.207031 21.464844 38.472656 22.496094 41.667969 21.933594 L 41.667969 32.082031 L 1.667969 32.082031 L 1.667969 11.25 C 1.667969 10.789062 2.039062 10.417969 2.5 10.417969 L 8.332031 10.417969 L 8.332031 8.75 L 2.5 8.75 C 1.117188 8.75 0 9.871094 0 11.25 L 0 37.917969 C 0 39.296875 1.117188 40.417969 2.5 40.417969 L 15.683594 40.417969 L 15.125 43.75 L 14.167969 43.75 C 13.707031 43.75 13.332031 44.125 13.332031 44.582031 L 13.332031 47.082031 L 11.667969 47.082031 L 11.667969 48.75 L 31.667969 48.75 L 31.667969 47.082031 L 30 47.082031 L 30 44.582031 C 30 44.125 29.625 43.75 29.167969 43.75 L 28.207031 43.75 L 27.648438 40.417969 L 40.832031 40.417969 C 42.214844 40.417969 43.332031 39.296875 43.332031 37.917969 L 43.332031 21.5 C 47.324219 20.085938 49.992188 16.316406 50 12.082031 Z M 28.332031 47.082031 L 15 47.082031 L 15 45.417969 L 28.332031 45.417969 Z M 26.515625 43.75 L 16.816406 43.75 L 17.375 40.417969 L 25.960938 40.417969 Z M 40.832031 38.75 L 2.5 38.75 C 2.039062 38.75 1.667969 38.375 1.667969 37.917969 L 1.667969 33.75 L 41.667969 33.75 L 41.667969 37.917969 C 41.667969 38.375 41.292969 38.75 40.832031 38.75 Z M 40 20.417969 C 35.398438 20.417969 31.667969 16.6875 31.667969 12.082031 C 31.667969 7.480469 35.398438 3.75 40 3.75 C 44.601562 3.75 48.332031 7.480469 48.332031 12.082031 C 48.328125 16.683594 44.597656 20.414062 40 20.417969 Z M 40 20.417969 "/>
<path style=" stroke:none;fill-rule:nonzero;fill:rgb(59.607843%,59.607843%,59.607843%);fill-opacity:1;" d="M 10 7.917969 L 10 8.75 C 10 11.511719 12.238281 13.75 15 13.75 C 17.761719 13.75 20 11.511719 20 8.75 L 20 7.917969 C 20.460938 7.917969 20.832031 7.542969 20.832031 7.082031 C 20.832031 3.863281 18.222656 1.25 15 1.25 C 11.777344 1.25 9.167969 3.863281 9.167969 7.082031 C 9.167969 7.542969 9.539062 7.917969 10 7.917969 Z M 18.332031 8.75 C 18.332031 10.589844 16.839844 12.082031 15 12.082031 C 13.160156 12.082031 11.667969 10.589844 11.667969 8.75 L 11.667969 7.710938 C 13.132812 7.535156 14.5625 7.101562 15.878906 6.429688 C 16.65625 6.898438 17.476562 7.289062 18.332031 7.59375 Z M 15 2.917969 C 16.914062 2.921875 18.578125 4.222656 19.046875 6.078125 C 18.078125 5.742188 17.152344 5.285156 16.292969 4.722656 C 15.964844 4.5 15.523438 4.546875 15.242188 4.828125 C 14.652344 5.414062 12.632812 5.894531 10.941406 6.132812 C 11.382812 4.25 13.066406 2.917969 15 2.917969 Z M 15 2.917969 "/>
<path style=" stroke:none;fill-rule:nonzero;fill:rgb(59.607843%,59.607843%,59.607843%);fill-opacity:1;" d="M 5 21.25 L 5 29.582031 C 5 30.042969 5.375 30.417969 5.832031 30.417969 L 24.167969 30.417969 C 24.625 30.417969 25 30.042969 25 29.582031 L 25 21.25 C 24.996094 17.109375 21.640625 13.753906 17.5 13.75 L 12.5 13.75 C 8.359375 13.753906 5.003906 17.109375 5 21.25 Z M 13.789062 19.027344 L 12.664062 19.304688 L 12.945312 17.34375 Z M 6.667969 21.25 C 6.671875 18.40625 8.722656 15.980469 11.527344 15.503906 L 10.84375 20.296875 C 10.804688 20.574219 10.902344 20.851562 11.109375 21.035156 C 11.3125 21.21875 11.597656 21.292969 11.867188 21.226562 L 14.167969 20.648438 L 14.167969 28.75 L 10 28.75 L 10 21.25 L 8.332031 21.25 L 8.332031 28.75 L 6.667969 28.75 Z M 23.332031 21.25 L 23.332031 28.75 L 21.667969 28.75 L 21.667969 21.25 L 20 21.25 L 20 28.75 L 15.832031 28.75 L 15.832031 20.648438 L 18.132812 21.226562 C 18.402344 21.292969 18.6875 21.21875 18.890625 21.035156 C 19.097656 20.851562 19.195312 20.574219 19.15625 20.296875 L 18.472656 15.503906 C 21.277344 15.980469 23.332031 18.40625 23.332031 21.25 Z M 17.054688 17.34375 L 17.335938 19.304688 L 16.210938 19.027344 Z M 16.152344 15.417969 L 15 17.71875 L 13.847656 15.417969 Z M 16.152344 15.417969 "/>
</g>
</svg>
