<svg width="60" height="60" viewBox="0 0 60 60" fill="none" xmlns="http://www.w3.org/2000/svg">
<path d="M42 42.5H46V44.5H42V42.5Z" fill="white"/>
<path d="M47 9.5H49C50.1045 9.5 51 10.3955 51 11.5H53C53 9.29102 51.209 7.5 49 7.5V5.5H47V7.5C44.791 7.5 43 9.29102 43 11.5C43 13.709 44.791 15.5 47 15.5H49C50.1045 15.5 51 16.3955 51 17.5C51 18.6045 50.1045 19.5 49 19.5H47C45.8955 19.5 45 18.6045 45 17.5H43C43 19.709 44.791 21.5 47 21.5V23.5H49V21.5C51.209 21.5 53 19.709 53 17.5C53 15.291 51.209 13.5 49 13.5H47C45.8955 13.5 45 12.6045 45 11.5C45 10.3955 45.8955 9.5 47 9.5Z" fill="white"/>
<path d="M60 14.5011C60.0039 8.65781 55.7959 3.66269 50.0371 2.67392C44.2783 1.68564 38.645 4.9913 36.7002 10.5011H26V12.5011H36.1811C35.5054 16.3341 36.7417 20.2555 39.4936 23.0074C42.2456 25.7594 46.167 26.9957 50 26.3199V38.5011H2V13.5011C2 12.9488 2.44775 12.5011 3 12.5011H10V10.5011H3C1.34326 10.5011 0 11.8443 0 13.5011V45.5011C0 47.1578 1.34326 48.5011 3 48.5011H18.8198L18.1528 52.5011H17C16.4478 52.5011 16 52.9488 16 53.5011V56.5011H14V58.5011H38V56.5011H36V53.5011C36 52.9488 35.5522 52.5011 35 52.5011H33.8472L33.1802 48.5011H49C50.6567 48.5011 52 47.1578 52 45.5011V25.8009C56.7881 24.1051 59.9912 19.5807 60 14.5011ZM34 56.5011H18V54.5011H34V56.5011ZM31.8188 52.5011H20.1811L20.8472 48.5011H31.1528L31.8188 52.5011ZM49 46.5011H3C2.44775 46.5011 2 46.0533 2 45.5011V40.5011H50V45.5011C50 46.0533 49.5522 46.5011 49 46.5011ZM48 24.5011C42.477 24.5011 38 20.024 38 14.5011C38 8.97812 42.477 4.50107 48 4.50107C53.5229 4.50107 58 8.97812 58 14.5011C57.9941 20.0216 53.5205 24.4952 48 24.5011Z" fill="white"/>
<path d="M12 9.5V10.5C12 13.8135 14.6865 16.5 18 16.5C21.3135 16.5 24 13.8135 24 10.5V9.5C24.5522 9.5 25 9.05225 25 8.5C25 4.63379 21.8662 1.5 18 1.5C14.1338 1.5 11 4.63379 11 8.5C11 9.05225 11.4478 9.5 12 9.5ZM22 10.5C22 12.709 20.209 14.5 18 14.5C15.791 14.5 14 12.709 14 10.5V9.25391C15.7622 9.04248 17.4727 8.521 19.0532 7.71289C19.9854 8.27881 20.9727 8.74854 22 9.11523V10.5ZM18 3.5C20.2959 3.50293 22.2959 5.06592 22.853 7.29297C21.6899 6.88965 20.5815 6.34375 19.5532 5.66699C19.1563 5.40283 18.6279 5.45557 18.291 5.79297C17.585 6.49902 15.1572 7.0708 13.1289 7.35889C13.6616 5.09912 15.6782 3.50146 18 3.5Z" fill="white"/>
<path d="M6 25.5V35.5C6 36.0522 6.44775 36.5 7 36.5H29C29.5522 36.5 30 36.0522 30 35.5V25.5C29.9946 20.5317 25.9683 16.5054 21 16.5H15C10.0317 16.5054 6.00537 20.5317 6 25.5ZM16.5479 22.832L15.2002 23.1689L15.5371 20.811L16.5479 22.832ZM8 25.5C8.00586 22.0884 10.4688 19.1772 13.832 18.606L13.0098 24.3579C12.9629 24.6875 13.0825 25.019 13.3301 25.2422C13.5771 25.4653 13.9189 25.5508 14.2422 25.4702L17 24.7808V34.5H12V25.5H10V34.5H8V25.5ZM28 25.5V34.5H26V25.5H24V34.5H19V24.7808L21.7578 25.4702C22.0811 25.5508 22.4229 25.4653 22.6699 25.2422C22.9175 25.019 23.0371 24.6875 22.9902 24.3579L22.168 18.606C25.5322 19.1753 27.9961 22.0879 28 25.5ZM20.4629 20.811L20.7998 23.1689L19.4521 22.832L20.4629 20.811ZM19.3818 18.5L18 21.2642L16.6182 18.5H19.3818Z" fill="white"/>
</svg>
