<?xml version="1.0" encoding="UTF-8"?>
<svg xmlns="http://www.w3.org/2000/svg" xmlns:xlink="http://www.w3.org/1999/xlink" width="50pt" height="50pt" viewBox="0 0 50 50" version="1.1">
<g id="surface1">
<path style=" stroke:none;fill-rule:nonzero;fill:rgb(59.607843%,59.607843%,59.607843%);fill-opacity:1;" d="M 41.910156 33.363281 C 41.113281 32.988281 40.199219 32.949219 39.371094 33.253906 L 34.191406 35.136719 C 33.714844 34.214844 32.835938 33.566406 31.8125 33.382812 L 20.515625 31.386719 C 20.371094 31.359375 20.226562 31.375 20.085938 31.421875 L 14.65625 33.402344 L 14.375 32.621094 C 14.21875 32.1875 13.742188 31.960938 13.3125 32.117188 L 7.0625 34.394531 C 6.628906 34.550781 6.40625 35.027344 6.5625 35.460938 L 1.097656 37.453125 C 0.664062 37.609375 0.441406 38.089844 0.597656 38.519531 L 4.582031 49.453125 C 4.738281 49.886719 5.214844 50.109375 5.648438 49.953125 L 11.113281 47.960938 C 11.1875 48.167969 11.34375 48.335938 11.542969 48.429688 C 11.742188 48.519531 11.972656 48.53125 12.179688 48.457031 L 18.429688 46.183594 C 18.859375 46.027344 19.082031 45.550781 18.925781 45.117188 L 18.640625 44.335938 L 19.148438 44.152344 L 23.914062 45.761719 C 24.09375 45.820312 24.289062 45.816406 24.464844 45.753906 L 26.808594 44.898438 L 41.644531 39.5 C 42.90625 39.039062 43.769531 37.863281 43.828125 36.519531 C 43.886719 35.179688 43.132812 33.933594 41.914062 33.363281 Z M 10.542969 46.398438 L 5.859375 48.101562 L 2.449219 38.734375 L 7.132812 37.027344 Z M 12.390625 46.609375 L 8.414062 35.675781 L 13.101562 33.96875 L 17.082031 44.902344 Z M 42.015625 37.082031 C 41.828125 37.476562 41.492188 37.789062 41.078125 37.941406 L 24.167969 44.089844 L 19.402344 42.476562 C 19.222656 42.417969 19.03125 42.421875 18.851562 42.484375 L 18.070312 42.769531 L 15.230469 34.957031 L 20.445312 33.054688 L 31.523438 35.015625 C 32.109375 35.117188 32.597656 35.523438 32.800781 36.085938 C 32.824219 36.152344 32.84375 36.222656 32.855469 36.292969 C 32.855469 36.324219 32.863281 36.351562 32.871094 36.378906 C 32.90625 36.5625 32.910156 36.753906 32.875 36.9375 C 32.714844 37.84375 31.855469 38.445312 30.949219 38.292969 L 21.589844 36.644531 L 21.300781 38.28125 L 30.660156 39.929688 C 32.46875 40.242188 34.191406 39.03125 34.511719 37.222656 C 34.535156 37.074219 34.542969 36.925781 34.546875 36.777344 L 39.9375 34.816406 C 40.570312 34.582031 41.28125 34.753906 41.734375 35.25 C 42.191406 35.746094 42.300781 36.46875 42.015625 37.082031 Z M 42.015625 37.082031 "/>
<path style=" stroke:none;fill-rule:nonzero;fill:rgb(59.607843%,59.607843%,59.607843%);fill-opacity:1;" d="M 13.851562 24.933594 C 17.523438 24.933594 20.5 21.957031 20.5 18.285156 C 20.5 14.613281 17.523438 11.636719 13.851562 11.636719 C 10.179688 11.636719 7.199219 14.613281 7.199219 18.285156 C 7.203125 21.957031 10.179688 24.929688 13.851562 24.933594 Z M 13.851562 13.296875 C 16.605469 13.296875 18.835938 15.53125 18.835938 18.285156 C 18.835938 21.039062 16.605469 23.273438 13.851562 23.273438 C 11.097656 23.273438 8.863281 21.039062 8.863281 18.285156 C 8.863281 15.53125 11.097656 13.304688 13.851562 13.296875 Z M 13.851562 13.296875 "/>
<path style=" stroke:none;fill-rule:nonzero;fill:rgb(59.607843%,59.607843%,59.607843%);fill-opacity:1;" d="M 13.019531 22.4375 L 14.679688 22.4375 L 14.679688 21.609375 C 15.601562 21.609375 16.34375 20.863281 16.34375 19.945312 L 16.34375 19.117188 C 16.34375 18.199219 15.601562 17.453125 14.679688 17.453125 L 13.019531 17.453125 L 13.019531 16.621094 L 16.34375 16.621094 L 16.34375 14.957031 L 14.679688 14.957031 L 14.679688 14.128906 L 13.019531 14.128906 L 13.019531 14.957031 C 12.101562 14.957031 11.359375 15.703125 11.359375 16.621094 L 11.359375 17.453125 C 11.359375 18.371094 12.101562 19.117188 13.019531 19.117188 L 14.679688 19.117188 L 14.679688 19.945312 L 11.359375 19.945312 L 11.359375 21.609375 L 13.019531 21.609375 Z M 13.019531 22.4375 "/>
<path style=" stroke:none;fill-rule:nonzero;fill:rgb(59.607843%,59.607843%,59.607843%);fill-opacity:1;" d="M 42.941406 4.984375 C 39.269531 4.984375 36.289062 7.964844 36.289062 11.636719 C 36.289062 15.308594 39.269531 18.285156 42.941406 18.285156 C 46.609375 18.285156 49.585938 15.308594 49.585938 11.636719 C 49.585938 7.964844 46.609375 4.992188 42.941406 4.984375 Z M 42.941406 16.621094 C 40.1875 16.621094 37.953125 14.390625 37.953125 11.636719 C 37.953125 8.882812 40.1875 6.648438 42.941406 6.648438 C 45.691406 6.648438 47.925781 8.882812 47.925781 11.636719 C 47.921875 14.390625 45.691406 16.617188 42.941406 16.621094 Z M 42.941406 16.621094 "/>
<path style=" stroke:none;fill-rule:nonzero;fill:rgb(59.607843%,59.607843%,59.607843%);fill-opacity:1;" d="M 43.769531 7.480469 L 42.105469 7.480469 L 42.105469 8.308594 C 41.191406 8.308594 40.445312 9.054688 40.445312 9.972656 L 40.445312 10.804688 C 40.445312 11.722656 41.191406 12.46875 42.105469 12.46875 L 43.769531 12.46875 L 43.769531 13.296875 L 40.445312 13.296875 L 40.445312 14.960938 L 42.105469 14.960938 L 42.105469 15.789062 L 43.769531 15.789062 L 43.769531 14.960938 C 44.691406 14.960938 45.433594 14.214844 45.433594 13.296875 L 45.433594 12.46875 C 45.433594 11.550781 44.691406 10.804688 43.769531 10.804688 L 42.105469 10.804688 L 42.105469 9.972656 L 45.433594 9.972656 L 45.433594 8.308594 L 43.769531 8.308594 Z M 43.769531 7.480469 "/>
<path style=" stroke:none;fill-rule:nonzero;fill:rgb(59.607843%,59.607843%,59.607843%);fill-opacity:1;" d="M 23.824219 24.933594 C 23.824219 28.605469 26.800781 31.582031 30.472656 31.582031 C 34.144531 31.582031 37.121094 28.605469 37.121094 24.933594 C 37.121094 21.261719 34.144531 18.285156 30.472656 18.285156 C 26.800781 18.289062 23.828125 21.265625 23.824219 24.933594 Z M 35.460938 24.933594 C 35.460938 27.6875 33.226562 29.917969 30.472656 29.917969 C 27.71875 29.917969 25.484375 27.6875 25.484375 24.933594 C 25.484375 22.179688 27.71875 19.945312 30.472656 19.945312 C 33.226562 19.953125 35.457031 22.179688 35.460938 24.933594 Z M 35.460938 24.933594 "/>
<path style=" stroke:none;fill-rule:nonzero;fill:rgb(59.607843%,59.607843%,59.607843%);fill-opacity:1;" d="M 29.640625 20.777344 L 29.640625 21.609375 C 28.722656 21.609375 27.980469 22.355469 27.980469 23.273438 L 27.980469 24.101562 C 27.980469 25.019531 28.722656 25.765625 29.640625 25.765625 L 31.304688 25.765625 L 31.304688 26.59375 L 27.980469 26.59375 L 27.980469 28.257812 L 29.640625 28.257812 L 29.640625 29.089844 L 31.304688 29.089844 L 31.304688 28.257812 C 32.222656 28.257812 32.964844 27.511719 32.964844 26.59375 L 32.964844 25.765625 C 32.964844 24.847656 32.222656 24.101562 31.304688 24.101562 L 29.640625 24.101562 L 29.640625 23.273438 L 32.964844 23.273438 L 32.964844 21.609375 L 31.304688 21.609375 L 31.304688 20.777344 Z M 29.640625 20.777344 "/>
<path style=" stroke:none;fill-rule:nonzero;fill:rgb(59.607843%,59.607843%,59.607843%);fill-opacity:1;" d="M 13.851562 9.976562 C 14.070312 9.976562 14.28125 9.886719 14.4375 9.730469 L 16.929688 7.238281 L 15.757812 6.0625 L 14.683594 7.136719 L 14.683594 3.324219 L 13.019531 3.324219 L 13.019531 7.136719 L 11.945312 6.0625 L 10.769531 7.238281 L 13.265625 9.730469 C 13.417969 9.886719 13.628906 9.976562 13.851562 9.976562 Z M 13.851562 9.976562 "/>
<path style=" stroke:none;fill-rule:nonzero;fill:rgb(59.607843%,59.607843%,59.607843%);fill-opacity:1;" d="M 13.019531 0 L 14.679688 0 L 14.679688 1.664062 L 13.019531 1.664062 Z M 13.019531 0 "/>
<path style=" stroke:none;fill-rule:nonzero;fill:rgb(59.607843%,59.607843%,59.607843%);fill-opacity:1;" d="M 24.652344 15.789062 C 24.875 15.789062 25.085938 15.703125 25.242188 15.546875 L 27.734375 13.050781 L 26.558594 11.878906 L 25.484375 12.953125 L 25.484375 9.140625 L 23.824219 9.140625 L 23.824219 12.953125 L 22.75 11.878906 L 21.574219 13.050781 L 24.066406 15.546875 C 24.222656 15.703125 24.433594 15.789062 24.652344 15.789062 Z M 24.652344 15.789062 "/>
<path style=" stroke:none;fill-rule:nonzero;fill:rgb(59.607843%,59.607843%,59.607843%);fill-opacity:1;" d="M 23.824219 5.816406 L 25.484375 5.816406 L 25.484375 7.480469 L 23.824219 7.480469 Z M 23.824219 5.816406 "/>
<path style=" stroke:none;fill-rule:nonzero;fill:rgb(59.607843%,59.607843%,59.607843%);fill-opacity:1;" d="M 32.132812 10.804688 C 32.355469 10.804688 32.566406 10.71875 32.722656 10.5625 L 35.214844 8.070312 L 34.039062 6.894531 L 32.964844 7.96875 L 32.964844 4.15625 L 31.304688 4.15625 L 31.304688 7.96875 L 30.230469 6.894531 L 29.054688 8.070312 L 31.546875 10.5625 C 31.703125 10.71875 31.914062 10.804688 32.132812 10.804688 Z M 32.132812 10.804688 "/>
<path style=" stroke:none;fill-rule:nonzero;fill:rgb(59.607843%,59.607843%,59.607843%);fill-opacity:1;" d="M 31.304688 0.828125 L 32.964844 0.828125 L 32.964844 2.492188 L 31.304688 2.492188 Z M 31.304688 0.828125 "/>
</g>
</svg>
