<svg width="60" height="60" viewBox="0 0 60 60" fill="none" xmlns="http://www.w3.org/2000/svg">
<g clip-path="url(#clip0)">
<path d="M50.295 40.0385C49.3371 39.5871 48.2384 39.5384 47.244 39.9026L41.0277 42.1656C40.4569 41.0563 39.4016 40.2766 38.1734 40.0575L24.6182 37.6639C24.4463 37.6328 24.2691 37.6489 24.105 37.7097L17.5911 40.0804L17.2502 39.1429C17.0627 38.6248 16.4905 38.3564 15.9723 38.5444L8.47423 41.274C7.95608 41.4615 7.68823 42.0337 7.87621 42.5518L1.31556 44.9453C0.797407 45.1328 0.529565 45.705 0.717054 46.2227L5.49827 59.345C5.68575 59.8631 6.25796 60.131 6.77611 59.9435L13.3363 57.55C13.4264 57.7988 13.6119 58.0019 13.8515 58.1139C14.0916 58.2264 14.3662 58.2386 14.6151 58.148L22.1122 55.4184C22.6304 55.2309 22.8982 54.6587 22.7107 54.1411L22.3693 53.2041L22.9791 52.982L28.6967 54.9139C28.9115 54.9855 29.1448 54.9826 29.3581 54.9056L32.1694 53.8815L49.975 47.3988C51.4895 46.846 52.5224 45.4362 52.5926 43.8258C52.6632 42.2148 51.7574 40.7203 50.2969 40.0375L50.295 40.0385ZM12.6545 55.6765L7.03129 57.7233L2.93819 46.4793L8.5614 44.4316L12.6545 55.6765ZM14.8703 55.9322L10.0949 42.8109L15.722 40.7636L20.4984 53.8844L14.8703 55.9322ZM50.4187 44.4954C50.1947 44.975 49.7895 45.3461 49.2918 45.5268L29.0016 52.907L23.2829 50.9752C23.0687 50.9031 22.8354 50.9055 22.6226 50.9835L21.6851 51.3243L18.2743 41.9494L24.5369 39.6694L37.8272 42.021C38.5324 42.1403 39.1177 42.6307 39.3593 43.3037C39.3904 43.3841 39.4138 43.4678 39.4279 43.5531C39.4279 43.5871 39.4372 43.6207 39.444 43.6529C39.4888 43.8749 39.4912 44.1038 39.4518 44.3269C39.258 45.4119 38.2251 46.1365 37.1391 45.9505L25.9068 43.9738L25.561 45.9378L36.7899 47.9184C38.9633 48.2919 41.0296 46.8392 41.4138 44.6682C41.4392 44.4905 41.4533 44.3118 41.4557 44.1326L47.9263 41.7765C48.6855 41.4985 49.5372 41.7054 50.0836 42.301C50.63 42.8971 50.7625 43.7634 50.4196 44.4954H50.4187Z" fill="white"/>
<path d="M16.6194 29.9223C21.0261 29.9223 24.5981 26.3503 24.5981 21.9436C24.5981 17.5369 21.0261 13.9648 16.6194 13.9648C12.2131 13.9648 8.64062 17.5369 8.64062 21.9436C8.64598 26.3479 12.2151 29.9175 16.6194 29.9223ZM16.6194 15.9595C19.9245 15.9595 22.6034 18.6389 22.6034 21.9436C22.6034 25.2483 19.9245 27.9277 16.6194 27.9277C13.3147 27.9277 10.6353 25.2483 10.6353 21.9436C10.6387 18.6399 13.3162 15.9629 16.6194 15.9595Z" fill="white"/>
<path d="M15.6226 26.9266H17.6173V25.9292C18.7194 25.9292 19.612 25.0361 19.612 23.9345V22.9372C19.612 21.8356 18.7194 20.9425 17.6173 20.9425H15.6226V19.9452H19.612V17.9505H17.6173V16.9531H15.6226V17.9505C14.5211 17.9505 13.6279 18.8436 13.6279 19.9452V20.9425C13.6279 22.0441 14.5211 22.9372 15.6226 22.9372H17.6173V23.9345H13.6279V25.9292H15.6226V26.9266Z" fill="white"/>
<path d="M51.5266 5.98438C47.1204 5.98438 43.5479 9.5564 43.5479 13.9631C43.5479 18.3698 47.1204 21.9419 51.5266 21.9419C55.9333 21.9419 59.5053 18.3698 59.5053 13.9631C59.5005 9.55884 55.9314 5.98924 51.5266 5.98438ZM51.5266 19.9472C48.2219 19.9472 45.5425 17.2678 45.5425 13.9631C45.5425 10.6585 48.2219 7.97906 51.5266 7.97906C54.8318 7.97906 57.5107 10.6585 57.5107 13.9631C57.5077 17.2668 54.8303 19.9438 51.5266 19.9472Z" fill="white"/>
<path d="M52.5245 8.97656H50.5298V9.97391C49.4283 9.97391 48.5352 10.867 48.5352 11.9686V12.9659C48.5352 14.0675 49.4283 14.9606 50.5298 14.9606H52.5245V15.958H48.5352V17.9527H50.5298V18.95H52.5245V17.9527C53.6266 17.9527 54.5192 17.0595 54.5192 15.958V14.9606C54.5192 13.8591 53.6266 12.9659 52.5245 12.9659H50.5298V11.9686H54.5192V9.97391H52.5245V8.97656Z" fill="white"/>
<path d="M28.5879 29.9202C28.5879 34.3269 32.1604 37.8989 36.5666 37.8989C40.9734 37.8989 44.5454 34.3269 44.5454 29.9202C44.5454 25.5134 40.9734 21.9414 36.5666 21.9414C32.1624 21.9463 28.5932 25.5159 28.5879 29.9202ZM42.5507 29.9202C42.5507 33.2248 39.8718 35.9042 36.5666 35.9042C33.262 35.9042 30.5826 33.2248 30.5826 29.9202C30.5826 26.6155 33.262 23.9361 36.5666 23.9361C39.8703 23.9395 42.5478 26.6165 42.5507 29.9202Z" fill="white"/>
<path d="M35.5699 24.9336V25.9309C34.4683 25.9309 33.5752 26.8241 33.5752 27.9256V28.923C33.5752 30.0245 34.4683 30.9177 35.5699 30.9177H37.5646V31.915H33.5752V33.9097H35.5699V34.907H37.5646V33.9097C38.6666 33.9097 39.5593 33.0166 39.5593 31.915V30.9177C39.5593 29.8161 38.6666 28.923 37.5646 28.923H35.5699V27.9256H39.5593V25.9309H37.5646V24.9336H35.5699Z" fill="white"/>
<path d="M16.6205 11.9709C16.8854 11.9709 17.1387 11.8657 17.3257 11.6787L20.3177 8.68671L18.9079 7.27641L17.6179 8.56594V3.99219H15.6232V8.56594L14.3336 7.27641L12.9238 8.68671L15.9159 11.6787C16.1029 11.8657 16.3561 11.9709 16.6205 11.9709Z" fill="white"/>
<path d="M15.623 0H17.6177V1.99469H15.623V0Z" fill="white"/>
<path d="M29.5854 18.9475C29.8503 18.9475 30.1035 18.8423 30.2905 18.6553L33.2826 15.6633L31.8727 14.253L30.5827 15.5425V10.9688H28.588V15.5425L27.2985 14.253L25.8887 15.6633L28.8807 18.6553C29.0677 18.8423 29.3209 18.9475 29.5854 18.9475Z" fill="white"/>
<path d="M28.5879 6.98047H30.5826V8.97515H28.5879V6.98047Z" fill="white"/>
<path d="M38.5619 12.967C38.8268 12.967 39.0801 12.8618 39.2671 12.6748L42.2591 9.68281L40.8493 8.2725L39.5593 9.56204V4.98828H37.5646V9.56204L36.2751 8.2725L34.8652 9.68281L37.8573 12.6748C38.0443 12.8618 38.2975 12.967 38.5619 12.967Z" fill="white"/>
<path d="M37.5645 0.996094H39.5591V2.99078H37.5645V0.996094Z" fill="white"/>
</g>
<defs>
<clipPath id="clip0">
<rect width="60" height="60" fill="white"/>
</clipPath>
</defs>
</svg>
