<?xml version="1.0" encoding="UTF-8"?>
<svg xmlns="http://www.w3.org/2000/svg" xmlns:xlink="http://www.w3.org/1999/xlink" width="50pt" height="50pt" viewBox="0 0 50 50" version="1.1">
<g id="surface1">
<path style=" stroke:none;fill-rule:nonzero;fill:rgb(59.607843%,59.607843%,59.607843%);fill-opacity:1;" d="M 32.082031 13.332031 C 32.082031 9.652344 29.097656 6.664062 25.417969 6.664062 C 21.734375 6.664062 18.75 9.652344 18.75 13.332031 C 18.75 17.015625 21.734375 20 25.417969 20 C 29.097656 19.996094 32.082031 17.015625 32.082031 13.332031 Z M 25.417969 18.332031 C 22.65625 18.332031 20.417969 16.09375 20.417969 13.332031 C 20.417969 10.570312 22.65625 8.332031 25.417969 8.332031 C 28.179688 8.332031 30.417969 10.570312 30.417969 13.332031 C 30.414062 16.09375 28.175781 18.328125 25.417969 18.332031 Z M 25.417969 18.332031 "/>
<path style=" stroke:none;fill-rule:nonzero;fill:rgb(59.607843%,59.607843%,59.607843%);fill-opacity:1;" d="M 26.25 9.164062 L 24.582031 9.164062 L 24.582031 10 C 23.664062 10 22.917969 10.746094 22.917969 11.664062 L 22.917969 12.5 C 22.917969 13.421875 23.664062 14.164062 24.582031 14.164062 L 26.25 14.164062 L 26.25 15 L 22.917969 15 L 22.917969 16.664062 L 24.582031 16.664062 L 24.582031 17.5 L 26.25 17.5 L 26.25 16.664062 C 27.171875 16.664062 27.917969 15.921875 27.917969 15 L 27.917969 14.164062 C 27.917969 13.246094 27.171875 12.5 26.25 12.5 L 24.582031 12.5 L 24.582031 11.664062 L 27.917969 11.664062 L 27.917969 10 L 26.25 10 Z M 26.25 9.164062 "/>
<path style=" stroke:none;fill-rule:nonzero;fill:rgb(59.607843%,59.607843%,59.607843%);fill-opacity:1;" d="M 36.730469 24.347656 C 36.582031 24.230469 36.402344 24.167969 36.214844 24.167969 L 35.417969 24.167969 L 35.417969 7.5 C 35.417969 7.234375 35.289062 6.980469 35.074219 6.824219 L 25.90625 0.160156 C 25.617188 -0.0546875 25.21875 -0.0546875 24.925781 0.160156 L 15.757812 6.824219 C 15.542969 6.980469 15.417969 7.234375 15.417969 7.5 L 15.417969 24.167969 L 14.621094 24.167969 C 14.433594 24.167969 14.25 24.230469 14.105469 24.347656 L 9.898438 27.6875 C 9.652344 27.882812 9.535156 28.203125 9.601562 28.511719 L 12.101562 40.171875 C 12.183594 40.558594 12.523438 40.832031 12.917969 40.832031 L 14.582031 40.832031 C 15.042969 40.832031 15.417969 40.460938 15.417969 40 L 15.417969 32.5 C 15.417969 32.960938 15.789062 33.332031 16.25 33.332031 L 16.484375 33.332031 L 17.125 35.265625 C 17.242188 35.601562 17.558594 35.832031 17.917969 35.832031 L 22.917969 35.832031 L 22.917969 40 C 22.917969 40.460938 23.292969 40.832031 23.75 40.832031 L 27.082031 40.832031 C 27.542969 40.832031 27.917969 40.460938 27.917969 40 L 27.917969 35.832031 L 32.917969 35.832031 C 33.277344 35.832031 33.59375 35.601562 33.707031 35.265625 L 34.351562 33.332031 L 34.585938 33.332031 C 35.042969 33.332031 35.417969 32.960938 35.417969 32.5 L 35.417969 40 C 35.417969 40.460938 35.792969 40.832031 36.25 40.832031 L 37.917969 40.832031 C 38.3125 40.832031 38.648438 40.558594 38.734375 40.171875 L 41.234375 28.511719 C 41.296875 28.203125 41.183594 27.882812 40.933594 27.6875 Z M 14.582031 29.167969 C 14.125 29.167969 13.75 29.539062 13.75 30 L 13.75 39.167969 L 13.589844 39.167969 L 11.339844 28.667969 L 14.917969 25.832031 L 15.417969 25.832031 L 15.417969 29.167969 Z M 18.519531 34.167969 L 18.238281 33.332031 L 22.917969 33.332031 L 22.917969 34.167969 Z M 26.25 39.167969 L 24.582031 39.167969 L 24.582031 25.832031 L 26.25 25.832031 Z M 23.75 24.167969 C 23.292969 24.167969 22.917969 24.539062 22.917969 25 L 22.917969 31.667969 L 17.082031 31.667969 L 17.082031 7.925781 L 25.417969 1.863281 L 33.75 7.925781 L 33.75 31.667969 L 27.917969 31.667969 L 27.917969 25 C 27.917969 24.539062 27.542969 24.167969 27.082031 24.167969 Z M 32.316406 34.167969 L 27.917969 34.167969 L 27.917969 33.332031 L 32.59375 33.332031 Z M 37.242188 39.167969 L 37.085938 39.167969 L 37.085938 30 C 37.085938 29.539062 36.710938 29.167969 36.25 29.167969 L 35.417969 29.167969 L 35.417969 25.832031 L 35.917969 25.832031 L 39.488281 28.667969 Z M 37.242188 39.167969 "/>
<path style=" stroke:none;fill-rule:nonzero;fill:rgb(59.607843%,59.607843%,59.607843%);fill-opacity:1;" d="M 27.195312 48.335938 L 26.25 48.335938 L 26.25 42.503906 L 24.582031 42.503906 L 24.582031 48.335938 L 23.640625 48.335938 L 22.074219 37.382812 L 20.425781 37.621094 L 22.09375 49.285156 C 22.152344 49.699219 22.503906 50.003906 22.917969 50.003906 L 27.917969 50.003906 C 28.332031 50.003906 28.683594 49.699219 28.742188 49.285156 L 30.40625 37.621094 L 28.757812 37.382812 Z M 27.195312 48.335938 "/>
<path style=" stroke:none;fill-rule:nonzero;fill:rgb(59.607843%,59.607843%,59.607843%);fill-opacity:1;" d="M 7.082031 0 L 5.417969 0 L 5.417969 0.832031 C 4.496094 0.832031 3.75 1.578125 3.75 2.5 L 3.75 3.332031 C 3.75 4.253906 4.496094 5 5.417969 5 L 7.082031 5 L 7.082031 5.832031 L 3.75 5.832031 L 3.75 7.5 L 5.417969 7.5 L 5.417969 8.332031 L 7.082031 8.332031 L 7.082031 7.5 C 8.003906 7.5 8.75 6.753906 8.75 5.832031 L 8.75 5 C 8.75 4.078125 8.003906 3.332031 7.082031 3.332031 L 5.417969 3.332031 L 5.417969 2.5 L 8.75 2.5 L 8.75 0.832031 L 7.082031 0.832031 Z M 7.082031 0 "/>
<path style=" stroke:none;fill-rule:nonzero;fill:rgb(59.607843%,59.607843%,59.607843%);fill-opacity:1;" d="M 47.917969 18.332031 L 47.917969 17.5 C 47.917969 16.578125 47.171875 15.832031 46.25 15.832031 L 44.582031 15.832031 L 44.582031 15 L 47.917969 15 L 47.917969 13.332031 L 46.25 13.332031 L 46.25 12.5 L 44.582031 12.5 L 44.582031 13.332031 C 43.660156 13.332031 42.917969 14.078125 42.917969 15 L 42.917969 15.832031 C 42.917969 16.753906 43.660156 17.5 44.582031 17.5 L 46.25 17.5 L 46.25 18.332031 L 42.917969 18.332031 L 42.917969 20 L 44.582031 20 L 44.582031 20.832031 L 46.25 20.832031 L 46.25 20 C 47.171875 20 47.917969 19.253906 47.917969 18.332031 Z M 47.917969 18.332031 "/>
<path style=" stroke:none;fill-rule:nonzero;fill:rgb(59.607843%,59.607843%,59.607843%);fill-opacity:1;" d="M 1.25 10 L 2.917969 10 L 2.917969 18.332031 L 1.25 18.332031 Z M 1.25 10 "/>
<path style=" stroke:none;fill-rule:nonzero;fill:rgb(59.607843%,59.607843%,59.607843%);fill-opacity:1;" d="M 1.25 20 L 2.917969 20 L 2.917969 21.667969 L 1.25 21.667969 Z M 1.25 20 "/>
<path style=" stroke:none;fill-rule:nonzero;fill:rgb(59.607843%,59.607843%,59.607843%);fill-opacity:1;" d="M 1.25 23.332031 L 2.917969 23.332031 L 2.917969 25 L 1.25 25 Z M 1.25 23.332031 "/>
<path style=" stroke:none;fill-rule:nonzero;fill:rgb(59.607843%,59.607843%,59.607843%);fill-opacity:1;" d="M 5.417969 33.335938 L 7.082031 33.335938 L 7.082031 40 L 5.417969 40 Z M 5.417969 33.335938 "/>
<path style=" stroke:none;fill-rule:nonzero;fill:rgb(59.607843%,59.607843%,59.607843%);fill-opacity:1;" d="M 5.417969 41.664062 L 7.082031 41.664062 L 7.082031 43.332031 L 5.417969 43.332031 Z M 5.417969 41.664062 "/>
<path style=" stroke:none;fill-rule:nonzero;fill:rgb(59.607843%,59.607843%,59.607843%);fill-opacity:1;" d="M 2.082031 37.5 L 3.75 37.5 L 3.75 39.167969 L 2.082031 39.167969 Z M 2.082031 37.5 "/>
<path style=" stroke:none;fill-rule:nonzero;fill:rgb(59.607843%,59.607843%,59.607843%);fill-opacity:1;" d="M 2.082031 40.835938 L 3.75 40.835938 L 3.75 42.5 L 2.082031 42.5 Z M 2.082031 40.835938 "/>
<path style=" stroke:none;fill-rule:nonzero;fill:rgb(59.607843%,59.607843%,59.607843%);fill-opacity:1;" d="M 2.082031 44.164062 L 3.75 44.164062 L 3.75 47.5 L 2.082031 47.5 Z M 2.082031 44.164062 "/>
<path style=" stroke:none;fill-rule:nonzero;fill:rgb(59.607843%,59.607843%,59.607843%);fill-opacity:1;" d="M 43.75 26.664062 L 45.417969 26.664062 L 45.417969 33.332031 L 43.75 33.332031 Z M 43.75 26.664062 "/>
<path style=" stroke:none;fill-rule:nonzero;fill:rgb(59.607843%,59.607843%,59.607843%);fill-opacity:1;" d="M 43.75 35 L 45.417969 35 L 45.417969 36.667969 L 43.75 36.667969 Z M 43.75 35 "/>
<path style=" stroke:none;fill-rule:nonzero;fill:rgb(59.607843%,59.607843%,59.607843%);fill-opacity:1;" d="M 47.082031 30.835938 L 48.75 30.835938 L 48.75 32.5 L 47.082031 32.5 Z M 47.082031 30.835938 "/>
<path style=" stroke:none;fill-rule:nonzero;fill:rgb(59.607843%,59.607843%,59.607843%);fill-opacity:1;" d="M 47.082031 34.164062 L 48.75 34.164062 L 48.75 35.832031 L 47.082031 35.832031 Z M 47.082031 34.164062 "/>
<path style=" stroke:none;fill-rule:nonzero;fill:rgb(59.607843%,59.607843%,59.607843%);fill-opacity:1;" d="M 47.082031 37.5 L 48.75 37.5 L 48.75 40.832031 L 47.082031 40.832031 Z M 47.082031 37.5 "/>
<path style=" stroke:none;fill-rule:nonzero;fill:rgb(59.607843%,59.607843%,59.607843%);fill-opacity:1;" d="M 10.417969 5.835938 L 12.082031 5.835938 L 12.082031 9.167969 L 10.417969 9.167969 Z M 10.417969 5.835938 "/>
<path style=" stroke:none;fill-rule:nonzero;fill:rgb(59.607843%,59.607843%,59.607843%);fill-opacity:1;" d="M 10.417969 10.832031 L 12.082031 10.832031 L 12.082031 12.5 L 10.417969 12.5 Z M 10.417969 10.832031 "/>
<path style=" stroke:none;fill-rule:nonzero;fill:rgb(59.607843%,59.607843%,59.607843%);fill-opacity:1;" d="M 10.417969 14.164062 L 12.082031 14.164062 L 12.082031 15.832031 L 10.417969 15.832031 Z M 10.417969 14.164062 "/>
<path style=" stroke:none;fill-rule:nonzero;fill:rgb(59.607843%,59.607843%,59.607843%);fill-opacity:1;" d="M 6.25 17.5 L 7.917969 17.5 L 7.917969 20.832031 L 6.25 20.832031 Z M 6.25 17.5 "/>
<path style=" stroke:none;fill-rule:nonzero;fill:rgb(59.607843%,59.607843%,59.607843%);fill-opacity:1;" d="M 37.917969 0 L 39.582031 0 L 39.582031 5 L 37.917969 5 Z M 37.917969 0 "/>
<path style=" stroke:none;fill-rule:nonzero;fill:rgb(59.607843%,59.607843%,59.607843%);fill-opacity:1;" d="M 37.917969 6.664062 L 39.582031 6.664062 L 39.582031 8.332031 L 37.917969 8.332031 Z M 37.917969 6.664062 "/>
<path style=" stroke:none;fill-rule:nonzero;fill:rgb(59.607843%,59.607843%,59.607843%);fill-opacity:1;" d="M 42.082031 3.335938 L 43.75 3.335938 L 43.75 6.667969 L 42.082031 6.667969 Z M 42.082031 3.335938 "/>
<path style=" stroke:none;fill-rule:nonzero;fill:rgb(59.607843%,59.607843%,59.607843%);fill-opacity:1;" d="M 42.082031 8.332031 L 43.75 8.332031 L 43.75 10 L 42.082031 10 Z M 42.082031 8.332031 "/>
</g>
</svg>
