<svg width="60" height="60" viewBox="0 0 60 60" fill="none" xmlns="http://www.w3.org/2000/svg">
<g clip-path="url(#clip0)">
<path d="M38.5 16C38.5 11.582 34.9185 8 30.5 8C26.082 8 22.5 11.582 22.5 16C22.5 20.4185 26.082 24 30.5 24C34.9165 23.9951 38.4951 20.4165 38.5 16ZM30.5 22C27.1865 22 24.5 19.314 24.5 16C24.5 12.6865 27.1865 10 30.5 10C33.814 10 36.5 12.6865 36.5 16C36.4966 19.3125 33.8125 21.9971 30.5 22Z" fill="white"/>
<path d="M31.5 11H29.5V12C28.3955 12 27.5 12.8955 27.5 14V15C27.5 16.1045 28.3955 17 29.5 17H31.5V18H27.5V20H29.5V21H31.5V20C32.6045 20 33.5 19.1045 33.5 18V17C33.5 15.8955 32.6045 15 31.5 15H29.5V14H33.5V12H31.5V11Z" fill="white"/>
<path d="M44.0764 29.2172C43.8997 29.0765 43.6804 28.9999 43.4544 28.9999H42.5003V8.99988C42.5003 8.68005 42.3474 8.37927 42.0881 8.1908L31.0881 0.190796C30.7376 -0.0635986 30.263 -0.0635986 29.9124 0.190796L18.9124 8.1908C18.6536 8.37927 18.5003 8.68005 18.5003 8.99988V28.9999H17.5462C17.3206 28.9999 17.1013 29.0765 16.9241 29.2172L11.8782 33.224C11.5803 33.4603 11.4426 33.8451 11.5222 34.2172L14.5222 48.2089C14.6209 48.6703 15.0286 48.9999 15.5003 48.9999H17.5003C18.0525 48.9999 18.5003 48.5521 18.5003 47.9999V38.9999C18.5003 39.5521 18.948 39.9999 19.5003 39.9999H19.7805L20.5525 42.3158C20.6882 42.724 21.0701 42.9999 21.5003 42.9999H27.5003V47.9999C27.5003 48.5521 27.948 48.9999 28.5003 48.9999H32.5003C33.0525 48.9999 33.5003 48.5521 33.5003 47.9999V42.9999H39.5003C39.9304 42.9999 40.3123 42.724 40.4485 42.3158L41.2205 39.9999H41.5003C42.0525 39.9999 42.5003 39.5521 42.5003 38.9999V47.9999C42.5003 48.5521 42.948 48.9999 43.5003 48.9999H45.5003C45.9719 48.9999 46.3797 48.6703 46.4783 48.2089L49.4783 34.2172C49.5579 33.8451 49.4202 33.4603 49.1223 33.224L44.0764 29.2172ZM17.5003 34.9999C16.948 34.9999 16.5003 35.4476 16.5003 35.9999V46.9999H16.3093L13.6091 34.3998L17.9002 30.9999H18.5003V34.9999H17.5003ZM22.2214 40.9999L21.8884 39.9999H27.5003V40.9999H22.2214ZM31.5003 46.9999H29.5003V30.9999H31.5003V46.9999ZM28.5003 28.9999C27.948 28.9999 27.5003 29.4476 27.5003 29.9999V37.9999H20.5003V9.50916L30.5003 2.23621L40.5003 9.50916V37.9999H33.5003V29.9999C33.5003 29.4476 33.0525 28.9999 32.5003 28.9999H28.5003ZM38.7796 40.9999H33.5003V39.9999H39.1126L38.7796 40.9999ZM44.6912 46.9999H44.5003V35.9999C44.5003 35.4476 44.0525 34.9999 43.5003 34.9999H42.5003V30.9999H43.1004L47.3884 34.3998L44.6912 46.9999Z" fill="white"/>
<path d="M32.6338 58.0015H31.5005V51.0015H29.5005V58.0015H28.3677L26.4907 44.8594L24.5107 45.1436L26.5107 59.1436C26.5811 59.6362 27.0029 60.0015 27.5005 60.0015H33.5005C33.998 60.0015 34.4199 59.6362 34.4907 59.1436L36.4907 45.1436L34.5107 44.8594L32.6338 58.0015Z" fill="white"/>
<path d="M8.5 0H6.5V1C5.39551 1 4.5 1.89551 4.5 3V4C4.5 5.10449 5.39551 6 6.5 6H8.5V7H4.5V9H6.5V10H8.5V9C9.60449 9 10.5 8.10449 10.5 7V6C10.5 4.89551 9.60449 4 8.5 4H6.5V3H10.5V1H8.5V0Z" fill="white"/>
<path d="M57.5 22V21C57.5 19.8955 56.6045 19 55.5 19H53.5V18H57.5V16H55.5V15H53.5V16C52.3955 16 51.5 16.8955 51.5 18V19C51.5 20.1045 52.3955 21 53.5 21H55.5V22H51.5V24H53.5V25H55.5V24C56.6045 24 57.5 23.1045 57.5 22Z" fill="white"/>
<path d="M1.5 12H3.5V22H1.5V12Z" fill="white"/>
<path d="M1.5 24H3.5V26H1.5V24Z" fill="white"/>
<path d="M1.5 28H3.5V30H1.5V28Z" fill="white"/>
<path d="M6.5 40H8.5V48H6.5V40Z" fill="white"/>
<path d="M6.5 50H8.5V52H6.5V50Z" fill="white"/>
<path d="M2.5 45H4.5V47H2.5V45Z" fill="white"/>
<path d="M2.5 49H4.5V51H2.5V49Z" fill="white"/>
<path d="M2.5 53H4.5V57H2.5V53Z" fill="white"/>
<path d="M52.5 32H54.5V40H52.5V32Z" fill="white"/>
<path d="M52.5 42H54.5V44H52.5V42Z" fill="white"/>
<path d="M56.5 37H58.5V39H56.5V37Z" fill="white"/>
<path d="M56.5 41H58.5V43H56.5V41Z" fill="white"/>
<path d="M56.5 45H58.5V49H56.5V45Z" fill="white"/>
<path d="M12.5 7H14.5V11H12.5V7Z" fill="white"/>
<path d="M12.5 13H14.5V15H12.5V13Z" fill="white"/>
<path d="M12.5 17H14.5V19H12.5V17Z" fill="white"/>
<path d="M7.5 21H9.5V25H7.5V21Z" fill="white"/>
<path d="M45.5 0H47.5V6H45.5V0Z" fill="white"/>
<path d="M45.5 8H47.5V10H45.5V8Z" fill="white"/>
<path d="M50.5 4H52.5V8H50.5V4Z" fill="white"/>
<path d="M50.5 10H52.5V12H50.5V10Z" fill="white"/>
</g>
<defs>
<clipPath id="clip0">
<rect width="60" height="60" fill="white"/>
</clipPath>
</defs>
</svg>
