<svg width="17" height="12" viewBox="0 0 17 12" fill="none" xmlns="http://www.w3.org/2000/svg">
<path d="M16.3133 5.25647H0.686707C0.307461 5.25647 0 5.53227 0 5.87246C0 6.21268 0.307461 6.48844 0.686707 6.48844H16.3133C16.6926 6.48844 17 6.21268 17 5.87246C17 5.53227 16.6926 5.25647 16.3133 5.25647Z" fill="white"/>
<path d="M1.65789 5.87247L7.03223 1.05155C7.30041 0.810982 7.30041 0.420964 7.03223 0.1804C6.76405 -0.0601334 6.32926 -0.0601334 6.06107 0.1804L0.201136 5.43688C-0.0670452 5.67744 -0.0670452 6.06746 0.201136 6.30802L6.06107 11.5645C6.19515 11.6848 6.37092 11.7449 6.54667 11.7449C6.72241 11.7449 6.89819 11.6848 7.03226 11.5645C7.30044 11.3239 7.30044 10.9339 7.03226 10.6934L1.65789 5.87247Z" fill="white"/>
</svg>
