<svg width="50" height="50" viewBox="0 0 50 50" fill="none" xmlns="http://www.w3.org/2000/svg">
<path d="M46.6667 0H3.33333C1.4924 0 0 1.4924 0 3.33333V46.6667C0 48.5076 1.4924 50 3.33333 50H46.6667C48.5076 50 50 48.5076 50 46.6667V3.33333C50 1.4924 48.5076 0 46.6667 0ZM48.3333 46.6667C48.3333 47.5872 47.5872 48.3333 46.6667 48.3333H3.33333C2.41281 48.3333 1.66667 47.5872 1.66667 46.6667V8.33333H48.3333V46.6667ZM48.3333 6.66667H1.66667V3.33333C1.66667 2.41281 2.41281 1.66667 3.33333 1.66667H46.6667C47.5872 1.66667 48.3333 2.41281 48.3333 3.33333V6.66667Z" fill="#E52525"/>
<path d="M4.99992 3.33334H3.33325V5.00001H4.99992V3.33334Z" fill="#E52525"/>
<path d="M8.33317 3.33334H6.6665V5.00001H8.33317V3.33334Z" fill="#E52525"/>
<path d="M11.6667 3.33334H10V5.00001H11.6667V3.33334Z" fill="#E52525"/>
<path d="M39.0948 23.5392L36.7798 22.5642L35.9165 20.4917L36.8665 18.1583C36.9928 17.8479 36.9209 17.492 36.684 17.255L33.969 14.5392C33.732 14.3022 33.376 14.2303 33.0656 14.3567L30.7323 15.3067L28.6665 14.4483L27.6915 12.1325C27.5614 11.8233 27.2585 11.6224 26.9231 11.6225H23.0831C22.7477 11.6224 22.4449 11.8233 22.3148 12.1325L21.3331 14.4483L19.2598 15.3075L16.9265 14.3575C16.616 14.2311 16.2601 14.303 16.0231 14.54L13.3081 17.2558C13.0711 17.4928 12.9993 17.8487 13.1256 18.1592L14.0756 20.4925L13.2156 22.565L10.9006 23.54C10.5915 23.6701 10.3905 23.9729 10.3906 24.3083V28.1483C10.3904 28.4835 10.5909 28.7863 10.8998 28.9167L13.2156 29.8917L14.0831 31.9642L13.1331 34.2975C13.0068 34.6079 13.0786 34.9639 13.3156 35.2008L16.0273 37.9167C16.2643 38.1536 16.6202 38.2255 16.9306 38.0992L19.264 37.15L21.3373 38.0083L22.3123 40.325C22.4433 40.6343 22.7472 40.8347 23.0831 40.8333H26.9165C27.2517 40.8335 27.5544 40.633 27.6848 40.3242L28.6598 38.0075L30.7331 37.1483L33.0665 38.0983C33.3769 38.2247 33.7328 38.1528 33.9698 37.9158L36.6848 35.2C36.9226 34.9635 36.9955 34.6076 36.8698 34.2967L35.9198 31.9633L36.7798 29.89L39.0956 28.915C39.4045 28.7846 39.605 28.4819 39.6048 28.1467V24.3075C39.6049 23.9721 39.404 23.6693 39.0948 23.5392ZM37.9381 27.5942L35.8165 28.4883C35.6146 28.5736 35.4544 28.735 35.3706 28.9375H35.3698L34.2498 31.6433C34.166 31.8458 34.166 32.0733 34.2498 32.2758L35.1181 34.4167L33.1848 36.3492L31.0481 35.4792C30.8451 35.3967 30.6178 35.3967 30.4148 35.4792L27.709 36.6008C27.5065 36.6846 27.3451 36.8448 27.2598 37.0467L26.3665 39.1667H23.6331L22.7398 37.045C22.6547 36.8428 22.4933 36.6823 22.2906 36.5983L19.5831 35.4775C19.3805 35.3944 19.1532 35.3944 18.9506 35.4775L16.814 36.3467L14.8815 34.4167L15.7498 32.2758C15.8335 32.0733 15.8335 31.8458 15.7498 31.6433L14.629 28.9375C14.5452 28.735 14.385 28.5736 14.1831 28.4883L12.0615 27.5942V24.8608L14.1823 23.9683C14.3845 23.8832 14.545 23.7219 14.629 23.5192L15.7498 20.8133C15.8331 20.6104 15.8331 20.3829 15.7498 20.18L14.8798 18.0425L16.8131 16.11L18.9498 16.98C19.1524 17.0646 19.3805 17.0646 19.5831 16.98L22.289 15.8583C22.4915 15.7746 22.6528 15.6144 22.7381 15.4125L23.6315 13.2908H26.3648L27.2581 15.4125C27.3434 15.6144 27.5048 15.7746 27.7073 15.8583L30.4165 16.9783C30.6192 17.0625 30.8471 17.0625 31.0498 16.9783L33.1865 16.1083L35.1198 18.0408L34.2498 20.18C34.1665 20.3829 34.1665 20.6104 34.2498 20.8133L35.3706 23.5192C35.4546 23.7219 35.6151 23.8832 35.8173 23.9683L37.9381 24.8608V27.5942Z" fill="#E52525"/>
<path d="M25.0001 17.895C20.3977 17.895 16.6667 21.6259 16.6667 26.2283C16.6667 30.8307 20.3977 34.5617 25.0001 34.5617C29.6025 34.5617 33.3334 30.8307 33.3334 26.2283C33.3284 21.628 29.6004 17.9001 25.0001 17.895ZM25.0001 32.895C21.3182 32.895 18.3334 29.9102 18.3334 26.2283C18.3334 22.5465 21.3182 19.5617 25.0001 19.5617C28.682 19.5617 31.6667 22.5465 31.6667 26.2283C31.6626 29.9085 28.6803 32.8908 25.0001 32.895Z" fill="#E52525"/>
<path d="M25.8332 25.395H24.1665V27.0617H25.8332V25.395Z" fill="#E52525"/>
<path d="M22.4999 25.395H20.8333V27.0617H22.4999V25.395Z" fill="#E52525"/>
<path d="M29.1667 25.395H27.5V27.0617H29.1667V25.395Z" fill="#E52525"/>
<path d="M5.83341 40.8333H4.16675V42.5H5.83341V40.8333Z" fill="#E52525"/>
<path d="M15 40.8333H7.5V42.5H15V40.8333Z" fill="#E52525"/>
<path d="M11.6667 44.1667H4.16675V45.8333H11.6667V44.1667Z" fill="#E52525"/>
<path d="M36.6667 40.8333H35V42.5H36.6667V40.8333Z" fill="#E52525"/>
<path d="M45.8335 40.8333H38.3335V42.5H45.8335V40.8333Z" fill="#E52525"/>
<path d="M42.5 44.1667H35V45.8333H42.5V44.1667Z" fill="#E52525"/>
</svg>
