<?xml version="1.0" encoding="UTF-8"?>
<svg xmlns="http://www.w3.org/2000/svg" xmlns:xlink="http://www.w3.org/1999/xlink" width="20pt" height="20pt" viewBox="0 0 20 20" version="1.1">
<g id="surface1">
<path style=" stroke:none;fill-rule:nonzero;fill:rgb(89.803922%,14.509804%,14.509804%);fill-opacity:1;" d="M 18.667969 0 L 1.332031 0 C 0.597656 0 0 0.597656 0 1.332031 L 0 18.667969 C 0 19.402344 0.597656 20 1.332031 20 L 18.667969 20 C 19.402344 20 20 19.402344 20 18.667969 L 20 1.332031 C 20 0.597656 19.402344 0 18.667969 0 Z M 19.332031 18.667969 C 19.332031 19.035156 19.035156 19.332031 18.667969 19.332031 L 1.332031 19.332031 C 0.964844 19.332031 0.667969 19.035156 0.667969 18.667969 L 0.667969 3.332031 L 19.332031 3.332031 Z M 19.332031 2.667969 L 0.667969 2.667969 L 0.667969 1.332031 C 0.667969 0.964844 0.964844 0.667969 1.332031 0.667969 L 18.667969 0.667969 C 19.035156 0.667969 19.332031 0.964844 19.332031 1.332031 Z M 19.332031 2.667969 "/>
<path style=" stroke:none;fill-rule:nonzero;fill:rgb(89.803922%,14.509804%,14.509804%);fill-opacity:1;" d="M 2 1.332031 L 1.332031 1.332031 L 1.332031 2 L 2 2 Z M 2 1.332031 "/>
<path style=" stroke:none;fill-rule:nonzero;fill:rgb(89.803922%,14.509804%,14.509804%);fill-opacity:1;" d="M 3.332031 1.332031 L 2.667969 1.332031 L 2.667969 2 L 3.332031 2 Z M 3.332031 1.332031 "/>
<path style=" stroke:none;fill-rule:nonzero;fill:rgb(89.803922%,14.509804%,14.509804%);fill-opacity:1;" d="M 4.667969 1.332031 L 4 1.332031 L 4 2 L 4.667969 2 Z M 4.667969 1.332031 "/>
<path style=" stroke:none;fill-rule:nonzero;fill:rgb(89.803922%,14.509804%,14.509804%);fill-opacity:1;" d="M 15.636719 9.414062 L 14.710938 9.027344 L 14.367188 8.195312 L 14.746094 7.261719 C 14.796875 7.140625 14.769531 6.996094 14.671875 6.902344 L 13.585938 5.816406 C 13.492188 5.722656 13.351562 5.691406 13.226562 5.742188 L 12.292969 6.121094 L 11.464844 5.78125 L 11.078125 4.851562 C 11.023438 4.730469 10.902344 4.648438 10.769531 4.648438 L 9.234375 4.648438 C 9.097656 4.648438 8.976562 4.730469 8.925781 4.851562 L 8.535156 5.78125 L 7.703125 6.121094 L 6.769531 5.742188 C 6.644531 5.691406 6.503906 5.722656 6.410156 5.816406 L 5.324219 6.902344 C 5.226562 6.996094 5.199219 7.140625 5.25 7.265625 L 5.628906 8.195312 L 5.285156 9.027344 L 4.359375 9.414062 C 4.238281 9.46875 4.15625 9.589844 4.15625 9.722656 L 4.15625 11.257812 C 4.15625 11.394531 4.238281 11.515625 4.359375 11.566406 L 5.285156 11.957031 L 5.632812 12.785156 L 5.253906 13.71875 C 5.203125 13.84375 5.230469 13.984375 5.328125 14.082031 L 6.410156 15.167969 C 6.503906 15.261719 6.648438 15.289062 6.773438 15.238281 L 7.707031 14.859375 L 8.535156 15.203125 L 8.925781 16.128906 C 8.976562 16.253906 9.097656 16.332031 9.234375 16.332031 L 10.765625 16.332031 C 10.902344 16.332031 11.023438 16.253906 11.074219 16.128906 L 11.464844 15.203125 L 12.292969 14.859375 L 13.226562 15.238281 C 13.351562 15.289062 13.492188 15.261719 13.589844 15.167969 L 14.675781 14.078125 C 14.769531 13.984375 14.796875 13.84375 14.746094 13.71875 L 14.367188 12.785156 L 14.710938 11.957031 L 15.636719 11.566406 C 15.761719 11.515625 15.84375 11.394531 15.84375 11.257812 L 15.84375 9.722656 C 15.84375 9.589844 15.761719 9.46875 15.636719 9.414062 Z M 15.175781 11.039062 L 14.328125 11.394531 C 14.246094 11.429688 14.183594 11.492188 14.148438 11.574219 L 13.699219 12.65625 C 13.667969 12.738281 13.667969 12.828125 13.699219 12.910156 L 14.046875 13.765625 L 13.273438 14.539062 L 12.417969 14.191406 C 12.339844 14.160156 12.246094 14.160156 12.164062 14.191406 L 11.082031 14.640625 C 11.003906 14.675781 10.9375 14.738281 10.902344 14.820312 L 10.546875 15.667969 L 9.453125 15.667969 L 9.097656 14.816406 C 9.0625 14.738281 8.996094 14.671875 8.917969 14.640625 L 7.832031 14.191406 C 7.753906 14.15625 7.660156 14.15625 7.582031 14.191406 L 6.726562 14.539062 L 5.953125 13.765625 L 6.300781 12.910156 C 6.332031 12.828125 6.332031 12.738281 6.300781 12.65625 L 5.851562 11.574219 C 5.816406 11.492188 5.753906 11.429688 5.671875 11.394531 L 4.824219 11.039062 L 4.824219 9.945312 L 5.671875 9.585938 C 5.753906 9.554688 5.816406 9.488281 5.851562 9.40625 L 6.300781 8.324219 C 6.332031 8.246094 6.332031 8.152344 6.300781 8.070312 L 5.953125 7.21875 L 6.726562 6.445312 L 7.578125 6.792969 C 7.660156 6.824219 7.753906 6.824219 7.832031 6.792969 L 8.914062 6.34375 C 8.996094 6.308594 9.0625 6.246094 9.09375 6.164062 L 9.453125 5.316406 L 10.546875 5.316406 L 10.902344 6.164062 C 10.9375 6.246094 11 6.308594 11.082031 6.34375 L 12.167969 6.792969 C 12.246094 6.824219 12.339844 6.824219 12.417969 6.792969 L 13.273438 6.441406 L 14.046875 7.214844 L 13.699219 8.070312 C 13.667969 8.152344 13.667969 8.246094 13.699219 8.324219 L 14.148438 9.40625 C 14.183594 9.488281 14.246094 9.554688 14.328125 9.585938 L 15.175781 9.945312 Z M 15.175781 11.039062 "/>
<path style=" stroke:none;fill-rule:nonzero;fill:rgb(89.803922%,14.509804%,14.509804%);fill-opacity:1;" d="M 10 7.15625 C 8.160156 7.15625 6.667969 8.648438 6.667969 10.492188 C 6.667969 12.332031 8.160156 13.824219 10 13.824219 C 11.839844 13.824219 13.332031 12.332031 13.332031 10.492188 C 13.332031 8.652344 11.839844 7.160156 10 7.15625 Z M 10 13.15625 C 8.527344 13.15625 7.332031 11.964844 7.332031 10.492188 C 7.332031 9.019531 8.527344 7.824219 10 7.824219 C 11.472656 7.824219 12.667969 9.019531 12.667969 10.492188 C 12.664062 11.964844 11.472656 13.15625 10 13.15625 Z M 10 13.15625 "/>
<path style=" stroke:none;fill-rule:nonzero;fill:rgb(89.803922%,14.509804%,14.509804%);fill-opacity:1;" d="M 10.332031 10.15625 L 9.667969 10.15625 L 9.667969 10.824219 L 10.332031 10.824219 Z M 10.332031 10.15625 "/>
<path style=" stroke:none;fill-rule:nonzero;fill:rgb(89.803922%,14.509804%,14.509804%);fill-opacity:1;" d="M 9 10.15625 L 8.332031 10.15625 L 8.332031 10.824219 L 9 10.824219 Z M 9 10.15625 "/>
<path style=" stroke:none;fill-rule:nonzero;fill:rgb(89.803922%,14.509804%,14.509804%);fill-opacity:1;" d="M 11.667969 10.15625 L 11 10.15625 L 11 10.824219 L 11.667969 10.824219 Z M 11.667969 10.15625 "/>
<path style=" stroke:none;fill-rule:nonzero;fill:rgb(89.803922%,14.509804%,14.509804%);fill-opacity:1;" d="M 2.332031 16.332031 L 1.667969 16.332031 L 1.667969 17 L 2.332031 17 Z M 2.332031 16.332031 "/>
<path style=" stroke:none;fill-rule:nonzero;fill:rgb(89.803922%,14.509804%,14.509804%);fill-opacity:1;" d="M 6 16.332031 L 3 16.332031 L 3 17 L 6 17 Z M 6 16.332031 "/>
<path style=" stroke:none;fill-rule:nonzero;fill:rgb(89.803922%,14.509804%,14.509804%);fill-opacity:1;" d="M 4.667969 17.667969 L 1.667969 17.667969 L 1.667969 18.332031 L 4.667969 18.332031 Z M 4.667969 17.667969 "/>
<path style=" stroke:none;fill-rule:nonzero;fill:rgb(89.803922%,14.509804%,14.509804%);fill-opacity:1;" d="M 14.667969 16.332031 L 14 16.332031 L 14 17 L 14.667969 17 Z M 14.667969 16.332031 "/>
<path style=" stroke:none;fill-rule:nonzero;fill:rgb(89.803922%,14.509804%,14.509804%);fill-opacity:1;" d="M 18.332031 16.332031 L 15.332031 16.332031 L 15.332031 17 L 18.332031 17 Z M 18.332031 16.332031 "/>
<path style=" stroke:none;fill-rule:nonzero;fill:rgb(89.803922%,14.509804%,14.509804%);fill-opacity:1;" d="M 17 17.667969 L 14 17.667969 L 14 18.332031 L 17 18.332031 Z M 17 17.667969 "/>
</g>
</svg>
