<svg width="50" height="50" viewBox="0 0 50 50" fill="none" xmlns="http://www.w3.org/2000/svg">
<path d="M32.5001 38.3333H17.5001C17.0399 38.3333 16.6667 38.7064 16.6667 39.1666V43.3333C16.6667 43.7935 17.0399 44.1666 17.5001 44.1666H32.5001C32.9603 44.1666 33.3334 43.7935 33.3334 43.3333V39.1666C33.3334 38.7064 32.9603 38.3333 32.5001 38.3333ZM31.6667 42.5H18.3334V40H31.6667V42.5Z" fill="#E52525"/>
<path d="M47.5001 2.5H40.0001V0.833333C40.0001 0.373125 39.627 0 39.1667 0H10.8334C10.3732 0 10.0001 0.373125 10.0001 0.833333V2.5H2.50008C2.03987 2.5 1.66675 2.87312 1.66675 3.33333V7.39667C1.68091 15.267 7.3931 21.9689 15.1617 23.23C16.3282 24.913 17.6707 26.4668 19.1667 27.865V30C19.1667 30.4602 19.5399 30.8333 20.0001 30.8333H20.8334V32.5833C19.1982 32.9204 17.9205 34.1981 17.5834 35.8333H14.1667C13.7065 35.8333 13.3334 36.2065 13.3334 36.6667V45H11.6667C11.2065 45 10.8334 45.3731 10.8334 45.8333V49.1667C10.8334 49.6269 11.2065 50 11.6667 50H38.3334C38.7936 50 39.1667 49.6269 39.1667 49.1667V45.8333C39.1667 45.3731 38.7936 45 38.3334 45H36.6667V36.6667C36.6667 36.2065 36.2936 35.8333 35.8334 35.8333H32.4167C32.0797 34.1981 30.802 32.9204 29.1667 32.5833V30.8333H30.0001C30.4603 30.8333 30.8334 30.4602 30.8334 30V27.865C32.3295 26.4666 33.6721 24.9125 34.8384 23.2292C42.6067 21.9681 48.3188 15.2667 48.3334 7.39667V3.33333C48.3334 2.87312 47.9603 2.5 47.5001 2.5ZM3.33341 7.39667V4.16667H10.0001V6.77833C10.0059 11.8642 11.3553 16.8583 13.9117 21.255C7.67331 19.5357 3.34675 13.8677 3.33341 7.39667ZM37.5001 46.6667V48.3333H12.5001V46.6667H37.5001ZM31.6667 37.5H35.0001V45H15.0001V37.5H31.6667ZM30.6909 35.8333H19.3092C19.6637 34.8352 20.6076 34.1679 21.6667 34.1667H28.3334C29.3926 34.1679 30.3364 34.8352 30.6909 35.8333ZM22.5001 32.5V30.8333H27.5001V32.5H22.5001ZM29.4392 26.8833C29.2656 27.0414 29.1666 27.2652 29.1667 27.5V29.1667H20.8334V27.5C20.8335 27.2652 20.7346 27.0414 20.5609 26.8833C14.9019 21.7299 11.6735 14.4323 11.6667 6.77833V1.66667H38.3334V6.77833C38.3266 14.4323 35.0983 21.7299 29.4392 26.8833ZM46.6667 7.39667C46.6534 13.8677 42.3269 19.5357 36.0884 21.255C38.6449 16.8583 39.9942 11.8642 40.0001 6.77833V4.16667H46.6667V7.39667Z" fill="#E52525"/>
</svg>
