<?xml version="1.0" encoding="UTF-8"?>
<svg xmlns="http://www.w3.org/2000/svg" xmlns:xlink="http://www.w3.org/1999/xlink" width="20pt" height="20pt" viewBox="0 0 20 20" version="1.1">
<g id="surface1">
<path style=" stroke:none;fill-rule:nonzero;fill:rgb(89.803922%,14.509804%,14.509804%);fill-opacity:1;" d="M 13 15.332031 L 7 15.332031 C 6.816406 15.332031 6.667969 15.484375 6.667969 15.667969 L 6.667969 17.332031 C 6.667969 17.515625 6.816406 17.667969 7 17.667969 L 13 17.667969 C 13.183594 17.667969 13.332031 17.515625 13.332031 17.332031 L 13.332031 15.667969 C 13.332031 15.484375 13.183594 15.332031 13 15.332031 Z M 12.667969 17 L 7.332031 17 L 7.332031 16 L 12.667969 16 Z M 12.667969 17 "/>
<path style=" stroke:none;fill-rule:nonzero;fill:rgb(89.803922%,14.509804%,14.509804%);fill-opacity:1;" d="M 19 1 L 16 1 L 16 0.332031 C 16 0.148438 15.851562 0 15.667969 0 L 4.332031 0 C 4.148438 0 4 0.148438 4 0.332031 L 4 1 L 1 1 C 0.816406 1 0.667969 1.148438 0.667969 1.332031 L 0.667969 2.957031 C 0.671875 6.105469 2.957031 8.789062 6.066406 9.292969 C 6.53125 9.964844 7.066406 10.585938 7.667969 11.144531 L 7.667969 12 C 7.667969 12.183594 7.816406 12.332031 8 12.332031 L 8.332031 12.332031 L 8.332031 13.035156 C 7.679688 13.167969 7.167969 13.679688 7.035156 14.332031 L 5.667969 14.332031 C 5.484375 14.332031 5.332031 14.484375 5.332031 14.667969 L 5.332031 18 L 4.667969 18 C 4.484375 18 4.332031 18.148438 4.332031 18.332031 L 4.332031 19.667969 C 4.332031 19.851562 4.484375 20 4.667969 20 L 15.332031 20 C 15.515625 20 15.667969 19.851562 15.667969 19.667969 L 15.667969 18.332031 C 15.667969 18.148438 15.515625 18 15.332031 18 L 14.667969 18 L 14.667969 14.667969 C 14.667969 14.484375 14.515625 14.332031 14.332031 14.332031 L 12.964844 14.332031 C 12.832031 13.679688 12.320312 13.167969 11.667969 13.035156 L 11.667969 12.332031 L 12 12.332031 C 12.183594 12.332031 12.332031 12.183594 12.332031 12 L 12.332031 11.144531 C 12.933594 10.585938 13.46875 9.964844 13.933594 9.292969 C 17.042969 8.789062 19.328125 6.105469 19.332031 2.957031 L 19.332031 1.332031 C 19.332031 1.148438 19.183594 1 19 1 Z M 1.332031 2.957031 L 1.332031 1.667969 L 4 1.667969 L 4 2.710938 C 4.003906 4.746094 4.542969 6.742188 5.566406 8.503906 C 3.070312 7.8125 1.339844 5.546875 1.332031 2.957031 Z M 15 18.667969 L 15 19.332031 L 5 19.332031 L 5 18.667969 Z M 12.667969 15 L 14 15 L 14 18 L 6 18 L 6 15 Z M 12.277344 14.332031 L 7.722656 14.332031 C 7.867188 13.933594 8.242188 13.667969 8.667969 13.667969 L 11.332031 13.667969 C 11.757812 13.667969 12.132812 13.933594 12.277344 14.332031 Z M 9 13 L 9 12.332031 L 11 12.332031 L 11 13 Z M 11.777344 10.753906 C 11.707031 10.816406 11.667969 10.90625 11.667969 11 L 11.667969 11.667969 L 8.332031 11.667969 L 8.332031 11 C 8.332031 10.90625 8.292969 10.816406 8.222656 10.753906 C 5.960938 8.691406 4.667969 5.773438 4.667969 2.710938 L 4.667969 0.667969 L 15.332031 0.667969 L 15.332031 2.710938 C 15.332031 5.773438 14.039062 8.691406 11.777344 10.753906 Z M 18.667969 2.957031 C 18.660156 5.546875 16.929688 7.8125 14.433594 8.503906 C 15.457031 6.742188 15.996094 4.746094 16 2.710938 L 16 1.667969 L 18.667969 1.667969 Z M 18.667969 2.957031 "/>
</g>
</svg>
