<svg width="50" height="50" viewBox="0 0 50 50" fill="none" xmlns="http://www.w3.org/2000/svg">
<path d="M43.9219 47.0625V3.93756H45.9999V0.937485H3.99994V3.93756H5.54689V47.0625H0V49.0625H50V47.0625H43.9219ZM24.7109 37.4375C23.1579 37.4375 21.8989 38.6685 21.8989 40.1876H21.898V46.9375H7.54694V4.75056H41.9218V46.9385H27.5229V40.1885C27.523 38.6694 26.265 37.4375 24.7109 37.4375ZM12.749 9.95342H17.306V14.5104H12.749C12.749 14.5106 12.749 9.95342 12.749 9.95342ZM22.456 9.95342H27.013V14.5104H22.456C22.456 14.5106 22.456 9.95342 22.456 9.95342ZM36.7199 14.5106H32.1639V9.95342H36.7199V14.5106ZM12.749 18.7504H17.306V23.3065H12.749V18.7504ZM22.456 18.7504H27.013V23.3065H22.456V18.7504ZM36.7199 23.3065H32.1639V18.7504H36.7199V23.3065ZM12.749 27.5965H17.306V32.1534H12.749V27.5965ZM22.456 27.5965H27.013V32.1534H22.456V27.5965ZM36.7199 32.1525H32.1639V27.5955H36.7199V32.1525ZM12.749 36.2405H17.306V40.7975H12.749V36.2405ZM36.7199 40.7975H32.1639V36.2405H36.7199V40.7975Z" fill="#E52525"/>
</svg>
