<?xml version="1.0" encoding="UTF-8"?>
<svg xmlns="http://www.w3.org/2000/svg" xmlns:xlink="http://www.w3.org/1999/xlink" width="20pt" height="20pt" viewBox="0 0 20 20" version="1.1">
<g id="surface1">
<path style=" stroke:none;fill-rule:nonzero;fill:rgb(89.803922%,14.509804%,14.509804%);fill-opacity:1;" d="M 6.332031 10.332031 L 8.714844 10.332031 C 8.863281 10.90625 9.378906 11.332031 10 11.332031 C 10.734375 11.332031 11.332031 10.734375 11.332031 10 C 11.332031 9.378906 10.90625 8.863281 10.332031 8.714844 L 10.332031 5.332031 C 10.332031 5.148438 10.183594 5 10 5 C 9.816406 5 9.667969 5.148438 9.667969 5.332031 L 9.667969 8.714844 C 9.199219 8.835938 8.835938 9.199219 8.714844 9.667969 L 6.332031 9.667969 C 6.148438 9.667969 6 9.816406 6 10 C 6 10.183594 6.148438 10.332031 6.332031 10.332031 Z M 10 9.332031 C 10.367188 9.332031 10.667969 9.632812 10.667969 10 C 10.667969 10.367188 10.367188 10.667969 10 10.667969 C 9.632812 10.667969 9.332031 10.367188 9.332031 10 C 9.332031 9.632812 9.632812 9.332031 10 9.332031 Z M 10 9.332031 "/>
<path style=" stroke:none;fill-rule:nonzero;fill:rgb(89.803922%,14.509804%,14.509804%);fill-opacity:1;" d="M 10 3.332031 C 10.183594 3.332031 10.332031 3.183594 10.332031 3 L 10.332031 2.667969 C 10.332031 2.480469 10.183594 2.332031 10 2.332031 C 9.816406 2.332031 9.667969 2.480469 9.667969 2.667969 L 9.667969 3 C 9.667969 3.183594 9.816406 3.332031 10 3.332031 Z M 10 3.332031 "/>
<path style=" stroke:none;fill-rule:nonzero;fill:rgb(89.803922%,14.509804%,14.509804%);fill-opacity:1;" d="M 10 16.667969 C 9.816406 16.667969 9.667969 16.816406 9.667969 17 L 9.667969 17.332031 C 9.667969 17.519531 9.816406 17.667969 10 17.667969 C 10.183594 17.667969 10.332031 17.519531 10.332031 17.332031 L 10.332031 17 C 10.332031 16.816406 10.183594 16.667969 10 16.667969 Z M 10 16.667969 "/>
<path style=" stroke:none;fill-rule:nonzero;fill:rgb(89.803922%,14.509804%,14.509804%);fill-opacity:1;" d="M 17 9.667969 C 16.816406 9.667969 16.667969 9.816406 16.667969 10 C 16.667969 10.183594 16.816406 10.332031 17 10.332031 L 17.332031 10.332031 C 17.515625 10.332031 17.667969 10.183594 17.667969 10 C 17.667969 9.816406 17.515625 9.667969 17.332031 9.667969 Z M 17 9.667969 "/>
<path style=" stroke:none;fill-rule:nonzero;fill:rgb(89.803922%,14.509804%,14.509804%);fill-opacity:1;" d="M 2.667969 10.332031 L 3 10.332031 C 3.183594 10.332031 3.332031 10.183594 3.332031 10 C 3.332031 9.816406 3.183594 9.667969 3 9.667969 L 2.667969 9.667969 C 2.484375 9.667969 2.332031 9.816406 2.332031 10 C 2.332031 10.183594 2.484375 10.332031 2.667969 10.332031 Z M 2.667969 10.332031 "/>
<path style=" stroke:none;fill-rule:nonzero;fill:rgb(89.803922%,14.509804%,14.509804%);fill-opacity:1;" d="M 16.765625 3.570312 C 16.851562 3.570312 16.933594 3.535156 17 3.472656 L 17.234375 3.234375 C 17.367188 3.105469 17.367188 2.894531 17.234375 2.765625 C 17.105469 2.632812 16.894531 2.632812 16.765625 2.765625 L 16.527344 3 C 16.398438 3.128906 16.398438 3.339844 16.527344 3.472656 C 16.59375 3.535156 16.679688 3.570312 16.765625 3.570312 Z M 16.765625 3.570312 "/>
<path style=" stroke:none;fill-rule:nonzero;fill:rgb(89.803922%,14.509804%,14.509804%);fill-opacity:1;" d="M 3.046875 16.480469 L 2.8125 16.714844 C 2.683594 16.84375 2.683594 17.054688 2.8125 17.1875 C 2.878906 17.25 2.964844 17.285156 3.046875 17.285156 C 3.132812 17.285156 3.21875 17.25 3.285156 17.1875 L 3.519531 16.949219 C 3.648438 16.820312 3.648438 16.609375 3.519531 16.480469 C 3.390625 16.347656 3.179688 16.351562 3.046875 16.480469 Z M 3.046875 16.480469 "/>
<path style=" stroke:none;fill-rule:nonzero;fill:rgb(89.803922%,14.509804%,14.509804%);fill-opacity:1;" d="M 16.714844 17.1875 C 16.78125 17.253906 16.867188 17.285156 16.949219 17.285156 C 17.035156 17.285156 17.121094 17.253906 17.1875 17.1875 C 17.316406 17.058594 17.316406 16.847656 17.1875 16.714844 L 16.949219 16.480469 C 16.820312 16.351562 16.609375 16.351562 16.480469 16.480469 C 16.347656 16.609375 16.347656 16.820312 16.480469 16.953125 Z M 16.714844 17.1875 "/>
<path style=" stroke:none;fill-rule:nonzero;fill:rgb(89.803922%,14.509804%,14.509804%);fill-opacity:1;" d="M 2.929688 3.402344 C 2.996094 3.46875 3.082031 3.5 3.167969 3.5 C 3.253906 3.5 3.335938 3.46875 3.402344 3.402344 C 3.53125 3.273438 3.53125 3.0625 3.402344 2.929688 L 3.167969 2.695312 C 3.035156 2.566406 2.824219 2.566406 2.695312 2.695312 C 2.566406 2.824219 2.566406 3.035156 2.695312 3.167969 Z M 2.929688 3.402344 "/>
<path style=" stroke:none;fill-rule:nonzero;fill:rgb(89.803922%,14.509804%,14.509804%);fill-opacity:1;" d="M 0 0 L 0 20 L 20 20 L 20 0 Z M 19.332031 19.332031 L 0.667969 19.332031 L 0.667969 0.667969 L 19.332031 0.667969 Z M 19.332031 19.332031 "/>
</g>
</svg>
