<?xml version="1.0" encoding="UTF-8"?>
<svg xmlns="http://www.w3.org/2000/svg" xmlns:xlink="http://www.w3.org/1999/xlink" width="20pt" height="20pt" viewBox="0 0 20 20" version="1.1">
<g id="surface1">
<path style=" stroke:none;fill-rule:nonzero;fill:rgb(89.803922%,14.509804%,14.509804%);fill-opacity:1;" d="M 17.570312 18.824219 L 17.570312 1.574219 L 18.398438 1.574219 L 18.398438 0.375 L 1.601562 0.375 L 1.601562 1.574219 L 2.21875 1.574219 L 2.21875 18.824219 L 0 18.824219 L 0 19.625 L 20 19.625 L 20 18.824219 Z M 9.882812 14.976562 C 9.261719 14.976562 8.757812 15.46875 8.757812 16.074219 L 8.757812 18.773438 L 3.019531 18.773438 L 3.019531 1.898438 L 16.769531 1.898438 L 16.769531 18.777344 L 11.007812 18.777344 L 11.007812 16.074219 C 11.007812 15.46875 10.507812 14.976562 9.882812 14.976562 Z M 5.097656 3.980469 L 6.921875 3.980469 L 6.921875 5.804688 L 5.097656 5.804688 C 5.097656 5.804688 5.097656 3.980469 5.097656 3.980469 Z M 8.980469 3.980469 L 10.804688 3.980469 L 10.804688 5.804688 L 8.980469 5.804688 C 8.980469 5.804688 8.980469 3.980469 8.980469 3.980469 Z M 14.6875 5.804688 L 12.867188 5.804688 L 12.867188 3.980469 L 14.6875 3.980469 Z M 5.097656 7.5 L 6.921875 7.5 L 6.921875 9.324219 L 5.097656 9.324219 Z M 8.980469 7.5 L 10.804688 7.5 L 10.804688 9.324219 L 8.980469 9.324219 Z M 14.6875 9.324219 L 12.867188 9.324219 L 12.867188 7.5 L 14.6875 7.5 Z M 5.097656 11.039062 L 6.921875 11.039062 L 6.921875 12.863281 L 5.097656 12.863281 Z M 8.980469 11.039062 L 10.804688 11.039062 L 10.804688 12.863281 L 8.980469 12.863281 Z M 14.6875 12.859375 L 12.867188 12.859375 L 12.867188 11.039062 L 14.6875 11.039062 Z M 5.097656 14.496094 L 6.921875 14.496094 L 6.921875 16.320312 L 5.097656 16.320312 Z M 14.6875 16.320312 L 12.867188 16.320312 L 12.867188 14.496094 L 14.6875 14.496094 Z M 14.6875 16.320312 "/>
</g>
</svg>
