<svg width="50" height="50" viewBox="0 0 50 50" fill="none" xmlns="http://www.w3.org/2000/svg">
<path d="M15.8333 25.8333H21.785C22.1575 27.2667 23.4517 28.3333 25 28.3333C26.8383 28.3333 28.3333 26.8383 28.3333 25C28.3333 23.4508 27.2667 22.1575 25.8333 21.785V13.3333C25.8333 12.8725 25.46 12.5 25 12.5C24.54 12.5 24.1667 12.8725 24.1667 13.3333V21.785C23.0008 22.0883 22.0883 23.0008 21.785 24.1667H15.8333C15.3733 24.1667 15 24.5392 15 25C15 25.4608 15.3733 25.8333 15.8333 25.8333ZM25 23.3333C25.9192 23.3333 26.6667 24.0808 26.6667 25C26.6667 25.9192 25.9192 26.6667 25 26.6667C24.0808 26.6667 23.3333 25.9192 23.3333 25C23.3333 24.0808 24.0808 23.3333 25 23.3333Z" fill="#E52525"/>
<path d="M25.0001 8.33333C25.4601 8.33333 25.8334 7.96083 25.8334 7.49999V6.66666C25.8334 6.20583 25.4601 5.83333 25.0001 5.83333C24.5401 5.83333 24.1667 6.20583 24.1667 6.66666V7.49999C24.1667 7.96083 24.5401 8.33333 25.0001 8.33333Z" fill="#E52525"/>
<path d="M25.0001 41.6667C24.5401 41.6667 24.1667 42.0392 24.1667 42.5V43.3333C24.1667 43.7942 24.5401 44.1667 25.0001 44.1667C25.4601 44.1667 25.8334 43.7942 25.8334 43.3333V42.5C25.8334 42.0392 25.4601 41.6667 25.0001 41.6667Z" fill="#E52525"/>
<path d="M42.5001 24.1667C42.0401 24.1667 41.6667 24.5392 41.6667 25C41.6667 25.4608 42.0401 25.8333 42.5001 25.8333H43.3334C43.7934 25.8333 44.1667 25.4608 44.1667 25C44.1667 24.5392 43.7934 24.1667 43.3334 24.1667H42.5001Z" fill="#E52525"/>
<path d="M6.66659 25.8333H7.49992C7.95992 25.8333 8.33325 25.4608 8.33325 25C8.33325 24.5392 7.95992 24.1667 7.49992 24.1667H6.66659C6.20659 24.1667 5.83325 24.5392 5.83325 25C5.83325 25.4608 6.20659 25.8333 6.66659 25.8333Z" fill="#E52525"/>
<path d="M41.9109 8.9225C42.1243 8.9225 42.3376 8.84083 42.5001 8.67833L43.0893 8.08917C43.4151 7.76333 43.4151 7.23667 43.0893 6.91083C42.7634 6.585 42.2368 6.585 41.9109 6.91083L41.3218 7.5C40.9959 7.82583 40.9959 8.3525 41.3218 8.67833C41.4843 8.84083 41.6976 8.9225 41.9109 8.9225Z" fill="#E52525"/>
<path d="M7.62138 41.1992L7.03222 41.7883C6.70638 42.1142 6.70638 42.6408 7.03222 42.9667C7.19472 43.1292 7.40805 43.2108 7.62138 43.2108C7.83472 43.2108 8.04805 43.1292 8.21055 42.9667L8.79972 42.3775C9.12555 42.0517 9.12555 41.525 8.79972 41.1992C8.47388 40.8733 7.94722 40.8742 7.62138 41.1992Z" fill="#E52525"/>
<path d="M41.7881 42.9675C41.9506 43.13 42.164 43.2117 42.3773 43.2117C42.5906 43.2117 42.804 43.13 42.9665 42.9675C43.2923 42.6417 43.2923 42.115 42.9665 41.7892L42.3773 41.2C42.0515 40.8742 41.5248 40.8742 41.199 41.2C40.8731 41.5258 40.8731 42.0525 41.199 42.3783L41.7881 42.9675Z" fill="#E52525"/>
<path d="M7.32768 8.50583C7.49018 8.66833 7.70352 8.75 7.91685 8.75C8.13018 8.75 8.34352 8.66833 8.50602 8.50583C8.83185 8.18 8.83185 7.65333 8.50602 7.3275L7.91685 6.73833C7.59102 6.4125 7.06435 6.4125 6.73852 6.73833C6.41268 7.06417 6.41268 7.59083 6.73852 7.91667L7.32768 8.50583Z" fill="#E52525"/>
<path d="M0 0V50H50V0H0ZM48.3333 48.3333H1.66667V1.66667H48.3333V48.3333Z" fill="#E52525"/>
</svg>
