<svg width="56" height="50" viewBox="0 0 56 50" fill="none" xmlns="http://www.w3.org/2000/svg">
<path d="M51.4975 0H5.57467C3.51546 0 1.84104 1.67995 1.84104 3.74596V10.2044C0.792567 10.4141 0 11.3432 0 12.456V20.7921C0 21.905 0.792567 22.8341 1.84104 23.0437V26.8285C0.792567 27.0381 0 27.9672 0 29.0801V37.4162C0 38.529 0.792567 39.4581 1.84104 39.6678V46.1262C1.84104 48.1922 3.51546 49.8722 5.57467 49.8722H51.4985C53.5567 49.8722 55.2312 48.1922 55.2312 46.1262V3.74596C55.2312 1.67995 53.5567 0 51.4975 0ZM1.84104 12.456C1.84104 12.2076 2.04171 12.0063 2.28841 12.0063H6.44364H7.36416C7.87228 12.0063 8.28468 12.4209 8.28468 12.9298V20.3183C8.28468 20.8272 7.87228 21.2419 7.36416 21.2419H6.44364H2.28841C2.04171 21.2419 1.84104 21.0405 1.84104 20.7921V12.456ZM3.68208 23.089H6.44364V26.7832H3.68208V23.089ZM8.28468 39.6678C9.33315 39.4581 10.1257 38.529 10.1257 37.4162V36.9424V29.5539V29.0801C10.1257 27.9672 9.33315 27.0381 8.28468 26.8285V23.0437C9.33315 22.8341 10.1257 21.905 10.1257 20.7921V20.3183V12.9298V12.456C10.1257 11.3432 9.33315 10.4141 8.28468 10.2044V6.46491H48.7875V43.4073H8.28468V39.6678ZM1.84104 29.0801C1.84104 28.8317 2.04171 28.6303 2.28841 28.6303H6.44364H7.36416C7.87228 28.6303 8.28468 29.045 8.28468 29.5539V36.9424C8.28468 37.4512 7.87228 37.8659 7.36416 37.8659H6.44364H2.28841C2.04171 37.8659 1.84104 37.6646 1.84104 37.4162V29.0801ZM53.3901 46.1262C53.3901 47.1736 52.5414 48.0251 51.4975 48.0251H5.57467C4.5308 48.0251 3.68208 47.1736 3.68208 46.1262V39.713H6.44364V45.2544H50.6286V4.6178H6.44364V10.1592H3.68208V3.74596C3.68208 2.69864 4.5308 1.84712 5.57467 1.84712H51.4985C52.5414 1.84712 53.3901 2.69864 53.3901 3.74596V46.1262Z" fill="white"/>
<path d="M32.6838 17.1282C32.6755 17.1198 32.6727 17.1078 32.6645 17.0995C32.6562 17.0912 32.6442 17.0884 32.6359 17.0801C30.6375 15.0871 27.887 13.8532 24.8539 13.8532C21.8207 13.8532 19.0702 15.0871 17.0718 17.0801C17.0635 17.0884 17.0515 17.0912 17.0432 17.0995C17.035 17.1078 17.0322 17.1198 17.0239 17.1282C15.0374 19.1332 13.8076 21.8928 13.8076 24.9359C13.8076 27.979 15.0374 30.7386 17.0239 32.7437C17.0322 32.752 17.035 32.764 17.0432 32.7723C17.0515 32.7806 17.0635 32.7834 17.0718 32.7917C19.0702 34.7848 21.8207 36.0186 24.8539 36.0186C27.887 36.0186 30.6375 34.7848 32.6359 32.7917C32.6442 32.7834 32.6562 32.7806 32.6645 32.7723C32.6727 32.764 32.6755 32.752 32.6838 32.7437C34.6703 30.7386 35.9001 27.979 35.9001 24.9359C35.9001 21.8928 34.6703 19.1332 32.6838 17.1282ZM32.218 25.8595H34.0121C33.828 27.714 33.0934 29.4078 31.9768 30.7765L30.712 29.5075C30.3521 29.1464 29.7703 29.1464 29.4104 29.5075C29.0505 29.8677 29.0505 30.4523 29.4104 30.8134L30.6752 32.0824C29.311 33.2027 27.6228 33.9397 25.7744 34.1244V32.3244C25.7744 31.8146 25.3629 31.4008 24.8539 31.4008C24.3448 31.4008 23.9333 31.8146 23.9333 32.3244V34.1244C22.0849 33.9397 20.3958 33.2027 19.0325 32.0824L20.2973 30.8134C20.6572 30.4523 20.6572 29.8677 20.2973 29.5075C19.9374 29.1464 19.3556 29.1464 18.9957 29.5075L17.7309 30.7765C16.6143 29.4078 15.8797 27.714 15.6956 25.8595H17.4897C17.9987 25.8595 18.4102 25.4457 18.4102 24.9359C18.4102 24.4261 17.9987 24.0124 17.4897 24.0124H15.6956C15.8797 22.1579 16.6143 20.464 17.7309 19.0953L18.9957 20.3643C19.1752 20.5444 19.4108 20.6349 19.6465 20.6349C19.8821 20.6349 20.1178 20.5444 20.2973 20.3643C20.6572 20.0041 20.6572 19.4195 20.2973 19.0584L19.0325 17.7894C20.3967 16.6691 22.0849 15.9321 23.9333 15.7474V17.5474C23.9333 18.0573 24.3448 18.471 24.8539 18.471C25.3629 18.471 25.7744 18.0573 25.7744 17.5474V15.7474C27.6228 15.9321 29.3119 16.6691 30.6752 17.7894L29.4104 19.0584C29.0505 19.4195 29.0505 20.0041 29.4104 20.3643C29.5899 20.5444 29.8256 20.6349 30.0612 20.6349C30.2969 20.6349 30.5325 20.5444 30.712 20.3643L31.9768 19.0953C33.0934 20.464 33.828 22.1579 34.0121 24.0124H32.218C31.709 24.0124 31.2975 24.4261 31.2975 24.9359C31.2975 25.4457 31.709 25.8595 32.218 25.8595Z" fill="white"/>
<path d="M24.8536 20.3181C22.3157 20.3181 20.251 22.3896 20.251 24.9358C20.251 27.4821 22.3157 29.5536 24.8536 29.5536C27.3914 29.5536 29.4562 27.4821 29.4562 24.9358C29.4562 22.3896 27.3914 20.3181 24.8536 20.3181ZM24.8536 27.7065C23.331 27.7065 22.092 26.4634 22.092 24.9358C22.092 23.4083 23.331 22.1652 24.8536 22.1652C26.3761 22.1652 27.6151 23.4083 27.6151 24.9358C27.6151 26.4634 26.3761 27.7065 24.8536 27.7065Z" fill="white"/>
<path d="M46.9466 13.853C46.9466 13.3432 46.5351 12.9294 46.026 12.9294H43.7247C41.9481 12.9294 40.5029 14.3794 40.5029 16.1619V33.7095C40.5029 35.492 41.9481 36.942 43.7247 36.942H46.026C46.5351 36.942 46.9466 36.5282 46.9466 36.0184C46.9466 35.5086 46.5351 35.0949 46.026 35.0949H43.7247C42.9635 35.0949 42.344 34.4733 42.344 33.7095V16.1619C42.344 15.3981 42.9635 14.7766 43.7247 14.7766H46.026C46.5351 14.7766 46.9466 14.3628 46.9466 13.853Z" fill="white"/>
<path d="M44.1846 16.6236V33.2476C44.1846 33.7574 44.596 34.1712 45.1051 34.1712C45.6141 34.1712 46.0256 33.7574 46.0256 33.2476V16.6236C46.0256 16.1138 45.6141 15.7 45.1051 15.7C44.596 15.7 44.1846 16.1138 44.1846 16.6236Z" fill="white"/>
</svg>
