<svg width="44" height="51" viewBox="0 0 44 51" fill="none" xmlns="http://www.w3.org/2000/svg">
<path d="M41.4589 8.62515L26.3012 0.346437C24.8633 -0.439134 22.8863 0.165151 22.1074 1.61544L13.2405 18.2333H2.45638C1.07841 18.2333 0 19.321 0 20.7109V25.0617V47.6016C0 48.9914 1.07841 50.0791 2.45638 50.0791H36.9056C38.2836 50.0791 39.362 48.9914 39.362 47.6016V41.317H40.3805C40.9197 41.317 41.339 40.894 41.339 40.3501V33.1591C41.339 32.6153 40.9197 32.1923 40.3805 32.1923H39.362V25.1221C39.362 23.974 38.5232 22.9467 37.4448 22.705L42.717 12.8551C43.4959 11.3444 42.9567 9.47115 41.4589 8.62515ZM30.6748 4.93901L21.2087 22.6446H18.5127L28.6378 3.85129L30.6748 4.93901ZM23.8448 2.52186C24.1444 1.97801 24.8633 1.73629 25.4025 2.03844L26.9003 2.88444L16.3559 22.6446H13.0607L23.8448 2.52186ZM1.85726 20.6504C1.85726 20.4691 2.09691 20.167 2.39647 20.167H12.1621L10.844 22.5841H2.39647C2.21673 22.5841 2.037 22.5841 1.85726 22.6446V20.6504ZM37.3849 47.6016C37.3849 47.9037 37.1452 48.1454 36.8457 48.1454H2.39647C2.09691 48.1454 1.85726 47.9037 1.85726 47.6016V25.1221C1.85726 24.82 2.09691 24.5783 2.39647 24.5783H11.4431H15.2775H22.2871H35.7673H36.7858C37.0853 24.5783 37.325 24.82 37.325 25.1221V32.1923H33.6704C32.0527 32.1923 30.7946 33.5217 30.7946 35.0928V38.4164C30.7946 40.048 32.1127 41.317 33.6704 41.317H37.3849V47.6016ZM39.302 34.126H39.362V39.3833H39.302H33.6704C33.1311 39.3833 32.7118 38.9603 32.7118 38.4164V35.0928C32.7118 34.549 33.1311 34.126 33.6704 34.126H39.302ZM40.9796 11.8883L35.2281 22.6446H23.3655L32.3523 5.90586L40.5003 10.3776C41.0994 10.6193 41.2791 11.3444 40.9796 11.8883Z" fill="white"/>
<path d="M37.3254 10.9818L36.8461 10.7401C35.6478 10.0754 34.0302 10.5588 33.3712 11.7674L32.7721 12.9155C32.4725 13.5198 32.3527 14.245 32.5923 14.9097C32.7721 15.5744 33.2514 16.1183 33.8505 16.4204L34.3298 16.6621C34.6892 16.8434 35.1086 16.9643 35.528 16.9643C36.4866 16.9643 37.3253 16.4204 37.8046 15.6348L38.4038 14.4867C39.0029 13.2177 38.5236 11.6465 37.3254 10.9818ZM36.6663 13.5803L36.0672 14.7284C35.8875 15.0305 35.4681 15.1514 35.1685 14.9701L34.6892 14.668C34.5694 14.6075 34.4496 14.4263 34.3897 14.3054C34.3298 14.1241 34.3298 13.9428 34.4496 13.822L35.0487 12.6738C35.1685 12.4925 35.4082 12.3113 35.6478 12.3113C35.7676 12.3113 35.8276 12.3113 35.9474 12.3717L36.4267 12.6134C36.6663 12.8551 36.7861 13.2177 36.6663 13.5803Z" fill="white"/>
</svg>
