<svg width="49" height="49" viewBox="0 0 49 49" fill="none" xmlns="http://www.w3.org/2000/svg">
<path d="M39.9027 15.0755L47.9483 6.9935C48.3137 6.62997 48.3166 6.03773 47.9547 5.67058C47.7874 5.50092 47.562 5.40188 47.3244 5.39393L47.3523 5.45006L42.9757 5.30039L42.8267 0.903923C42.8093 0.387572 42.3786 -0.0168798 41.8646 0.000542374C41.627 0.00861036 41.4014 0.107531 41.2343 0.277192L33.198 8.31244C33.0166 8.49578 32.9189 8.74635 32.9279 9.00465V9.94006C23.3732 3.32818 10.2918 5.74892 3.7097 15.3468C-2.87241 24.9446 -0.462683 38.0853 9.09208 44.6972C18.6467 51.3091 31.7282 48.8883 38.3103 39.2905C43.254 32.0818 43.254 22.5556 38.3103 15.3468H39.2415C39.489 15.3482 39.7269 15.2506 39.9027 15.0755ZM40.182 27.3295C40.196 37.9615 31.6272 46.5917 21.0431 46.6058C10.459 46.6198 1.86754 38.0122 1.85358 27.3802C1.83961 16.7483 10.4085 8.11799 20.9925 8.10396C25.3749 8.09811 29.6268 9.60133 33.0397 12.3628L33.0862 13.9249L29.3614 17.6666C24.0627 13.0016 16.0026 13.5348 11.3585 18.8574C6.71447 24.1801 7.24526 32.2767 12.5439 36.9417C17.8426 41.6068 25.9028 41.0736 30.5468 35.7509C34.7193 30.9686 34.7697 23.8362 30.6651 18.9949L34.3899 15.2532L35.9264 15.3094C38.6651 18.713 40.1662 22.9531 40.182 27.3295ZM20.4218 27.9562C20.785 28.3189 21.3717 28.3189 21.7348 27.9562L23.5972 26.0854C23.7787 26.4617 23.8742 26.8739 23.8766 27.2921C23.8766 28.8419 22.6259 30.0983 21.083 30.0983C19.5401 30.0983 18.2894 28.8419 18.2894 27.2921C18.2894 25.7422 19.5401 24.4858 21.083 24.4858C21.4992 24.4883 21.9097 24.5842 22.2842 24.7664L20.4218 26.6373C20.0608 27.0021 20.0608 27.5914 20.4218 27.9562ZM23.6438 23.3914C21.4995 21.9658 18.6106 22.5563 17.1915 24.7103C15.7723 26.8644 16.3601 29.7663 18.5045 31.1918C20.6488 32.6174 23.5377 32.0269 24.9568 29.8729C25.9879 28.3078 25.9879 26.2753 24.9568 24.7103L29.3707 20.2764C33.2402 24.8918 32.6523 31.7843 28.0577 35.6713C23.4632 39.5583 16.6017 38.9677 12.7322 34.3524C8.86265 29.737 9.45059 22.8445 14.0452 18.9575C18.0938 15.5325 24.0091 15.5325 28.0577 18.9575L23.6438 23.3914ZM34.9673 13.345L34.8369 9.3601L41.076 3.0928L41.1784 6.20775C41.1784 6.72433 41.5954 7.14316 42.1096 7.14316L45.2105 7.24606L38.9342 13.4759L34.9673 13.345Z" fill="white"/>
</svg>
