<svg width="45" height="45" viewBox="0 0 45 45" fill="none" xmlns="http://www.w3.org/2000/svg">
<path d="M26.5225 15.8403C21.4048 13.4745 15.3461 15.7225 12.99 20.8615C10.634 26.0003 12.8727 32.0841 17.9905 34.4499C18.3253 34.5965 18.5431 34.9268 18.547 35.2935V38.1804V41.9052C18.547 43.4481 19.7926 44.6989 21.3291 44.6989H23.1839C24.7204 44.6989 25.9661 43.4481 25.9661 41.9052V38.1803V38.1802V35.2954C25.9692 34.928 26.1871 34.5968 26.5225 34.4499C28.7322 33.4283 30.5057 31.6475 31.523 29.4287C33.879 24.2898 31.6402 18.2061 26.5225 15.8403ZM23.1839 42.8364H21.3291C20.817 42.8364 20.4017 42.4195 20.4017 41.9052H24.1113C24.1112 42.4195 23.6961 42.8364 23.1839 42.8364ZM20.4016 40.0428V39.1115H24.1112V40.0428H20.4016ZM25.7453 32.7569C24.7554 33.211 24.1178 34.2007 24.1112 35.2935V37.2491H23.1838V27.0056H25.0386C26.5752 27.0056 27.8208 25.7548 27.8208 24.2119V23.2807H25.9661V24.2119C25.9661 24.7262 25.5508 25.1432 25.0386 25.1432H22.2565H19.4743C18.9621 25.1432 18.5469 24.7262 18.5469 24.2119V23.2807H16.6921V24.2119C16.6921 25.7548 17.9378 27.0056 19.4743 27.0056H21.329V37.249H20.4016V35.2935C20.3947 34.2022 19.7584 33.2139 18.7703 32.7596C16.1174 31.5374 14.2931 29.0122 13.9593 26.1006C13.4321 21.5023 16.7171 17.3455 21.2965 16.8161C23.6683 16.5314 26.047 17.2899 27.8207 18.8965C28.6735 19.6624 29.3603 20.5961 29.8385 21.6398C31.7655 25.8447 29.9329 30.822 25.7453 32.7569Z" fill="white"/>
<path d="M9.27383 0C4.1603 0 0 3.76028 0 8.381C0 13.0017 4.1603 16.762 9.27392 16.762C14.3875 16.762 18.5478 13.0017 18.5478 8.381C18.5478 3.76028 14.3875 0 9.27383 0ZM9.27392 14.8996C5.18326 14.8996 1.85475 11.9755 1.85475 8.381C1.85475 4.78651 5.18318 1.86242 9.27383 1.86242C13.3645 1.86242 16.693 4.78651 16.693 8.381C16.693 11.9755 13.3646 14.8996 9.27392 14.8996Z" fill="white"/>
<path d="M41.732 0.00012207H25.039C23.5025 0.00012207 22.2568 1.2509 22.2568 2.79379V13.0372H24.1116V2.79379C24.1116 2.27949 24.5268 1.86254 25.039 1.86254H41.732C42.2442 1.86254 42.6594 2.27949 42.6594 2.79379V20.487C42.6594 21.0013 42.2442 21.4183 41.732 21.4183H34.3129V23.2807H41.732C43.2685 23.2807 44.5142 22.0299 44.5142 20.487V2.79379C44.5142 1.2509 43.2685 0.00012207 41.732 0.00012207Z" fill="white"/>
<path d="M12.7102 33.797L9.00056 30.072L7.6892 31.3888L9.81573 33.5241H6.49018C5.978 33.5241 5.56276 33.1071 5.56276 32.5928V17.6933H3.70801V32.5929C3.70801 34.1358 4.95364 35.3866 6.49018 35.3866H9.81582L7.68929 37.5219L9.00065 38.8387L12.7102 35.1137C13.0723 34.7501 13.0723 34.1607 12.7102 33.797Z" fill="white"/>
<path d="M40.5325 24.4845C40.1703 24.1211 39.5833 24.1211 39.2211 24.4846L35.5115 28.2095L36.8228 29.5263L38.9494 27.3909V35.3864C38.9463 37.9567 36.872 40.0394 34.3124 40.0425H31.5303V41.905H34.3124C37.896 41.9009 40.8001 38.9848 40.8042 35.3864V27.3909L42.9307 29.5262L44.2421 28.2095L40.5325 24.4845Z" fill="white"/>
<path d="M37.4783 9.31231L35.8953 7.72272C35.5332 7.35919 34.9461 7.35919 34.5839 7.72272L30.6027 11.7205L28.4762 9.58513C28.3023 9.41053 28.0664 9.31231 27.8206 9.31231H25.9658V11.1747H27.4366L29.9471 13.6956C30.121 13.8702 30.3569 13.9684 30.6027 13.9684C30.8487 13.9683 31.0845 13.8702 31.2584 13.6956L35.2397 9.69784L36.4388 10.9019C36.6127 11.0765 36.8485 11.1747 37.0944 11.1747H40.804V9.31231H37.4783Z" fill="white"/>
<path d="M29.676 40.0432H27.8213V41.9056H29.676V40.0432Z" fill="white"/>
<path d="M10.2005 7.44946H8.3457V9.31188H10.2005V7.44946Z" fill="white"/>
<path d="M13.9094 7.44946H12.0547V9.31188H13.9094V7.44946Z" fill="white"/>
<path d="M6.49244 7.44946H4.6377V9.31188H6.49244V7.44946Z" fill="white"/>
</svg>
