<svg width="51" height="51" viewBox="0 0 51 51" fill="none" xmlns="http://www.w3.org/2000/svg">
<path d="M24.0202 24.6682C23.8376 24.4838 23.5842 24.3793 23.3259 24.3793C23.0676 24.3793 22.8142 24.4838 22.6315 24.6682C22.4479 24.8517 22.3438 25.1061 22.3438 25.3655C22.3438 25.6248 22.4479 25.8783 22.6315 26.0627C22.8142 26.246 23.0676 26.3517 23.3259 26.3517C23.5842 26.3517 23.8376 26.2461 24.0202 26.0627C24.2029 25.8783 24.308 25.6248 24.308 25.3655C24.308 25.1061 24.2029 24.8517 24.0202 24.6682Z" fill="white"/>
<path d="M33.786 36.9312C32.81 36.9312 32.016 36.2485 32.016 35.4093C32.016 34.5702 32.81 33.8874 33.786 33.8874C34.7621 33.8874 35.556 34.5702 35.556 35.4093C35.556 35.9539 35.9957 36.3955 36.5381 36.3955C37.0806 36.3955 37.5203 35.9539 37.5203 35.4093C37.5203 33.8007 36.3521 32.4432 34.7681 32.0386V31.762C34.7681 31.2174 34.3284 30.7758 33.786 30.7758C33.2436 30.7758 32.8039 31.2174 32.8039 31.762V32.0386C31.2199 32.4433 30.0518 33.8007 30.0518 35.4093C30.0518 37.3361 31.727 38.9036 33.786 38.9036C34.7621 38.9036 35.556 39.5863 35.556 40.4254C35.556 41.2646 34.7621 41.9473 33.786 41.9473C32.81 41.9473 32.016 41.2646 32.016 40.4254C32.016 39.8808 31.5763 39.4392 31.0339 39.4392C30.4915 39.4392 30.0518 39.8808 30.0518 40.4254C30.0518 42.0341 31.2199 43.3916 32.8039 43.7961V43.9768C32.8039 44.5214 33.2436 44.963 33.786 44.963C34.3284 44.963 34.7681 44.5214 34.7681 43.9768V43.7961C36.3521 43.3916 37.5203 42.0341 37.5203 40.4254C37.5203 38.4988 35.8451 36.9312 33.786 36.9312Z" fill="white"/>
<path d="M33.8633 25.2465L33.7858 25.2463C33.2434 25.2463 32.8037 25.688 32.8037 26.2325C32.8037 26.7771 33.2434 27.2187 33.7858 27.2187L33.8557 27.2189C33.857 27.2189 33.8582 27.2189 33.8596 27.2189C34.4002 27.2189 34.8396 26.78 34.8416 26.2366C34.8437 25.692 34.4058 25.2486 33.8633 25.2465Z" fill="white"/>
<path d="M38.7308 26.2611C38.232 26.0467 37.6549 26.2789 37.4414 26.7793C37.2279 27.28 37.459 27.8597 37.9575 28.0742C41.8665 29.7554 44.3923 33.6003 44.3923 37.8698C44.3923 43.7427 39.634 48.5206 33.7853 48.5206C30.067 48.5206 26.7899 46.5891 24.8955 43.6731C24.8461 43.5238 24.7626 43.3903 24.6535 43.2823C24.1013 42.3465 23.6875 41.3193 23.441 40.2287C23.4529 40.1674 23.4596 40.1043 23.4596 40.0394C23.4596 39.8434 23.402 39.6614 23.3039 39.5079C23.2213 38.9738 23.1783 38.4268 23.1783 37.8698C23.1783 33.7065 25.617 29.9 29.3912 28.1727C29.8848 27.9468 30.1026 27.3619 29.8776 26.8663C29.6526 26.3708 29.07 26.1522 28.5766 26.378C24.1039 28.4249 21.214 32.9358 21.214 37.8698C21.214 38.2689 21.2335 38.6634 21.2697 39.0532H7.37462L10.8184 16.7653H21.0028L21.7196 21.405C21.8027 21.9433 22.3044 22.3114 22.8407 22.2284C23.3768 22.1448 23.7438 21.6409 23.6607 21.1026L22.9905 16.7653H25.1425C26.6589 16.7653 27.8925 15.5265 27.8925 14.0039V12.7807C28.788 12.5975 29.4639 11.8007 29.4639 10.8481V1.97238C29.4639 0.884811 28.5828 0 27.4997 0H23.964C22.8809 0 21.9997 0.884811 21.9997 1.97238V5.32543H19.6426V1.97238C19.6426 0.884811 18.7614 0 17.6784 0H14.1427C13.0596 0 12.1784 0.884811 12.1784 1.97238V5.32543H9.81522V1.97238C9.81522 0.884811 8.93405 0 7.85096 0H4.32138C3.23828 0 2.35711 0.884811 2.35711 1.97238V10.8481C2.35711 11.8007 3.03302 12.5975 3.92852 12.7807V14.0039C3.92852 15.5265 5.16218 16.7653 6.67849 16.7653H8.83053L5.38679 39.0532H5.10708C3.59077 39.0532 2.35711 40.2919 2.35711 41.8145V42.998H0.982131C0.4397 42.998 0 43.4396 0 43.9841V49.5068C0 50.0514 0.4397 50.493 0.982131 50.493H33.7853C40.7172 50.493 46.3566 44.8302 46.3566 37.8698C46.3566 32.81 43.3632 28.2534 38.7308 26.2611ZM4.32138 10.8481V1.97238H7.85096V6.31163C7.85096 6.8562 8.29066 7.29782 8.83309 7.29782H13.1606C13.703 7.29782 14.1427 6.8562 14.1427 6.31163V1.97238H17.6784V6.31163C17.6784 6.8562 18.1181 7.29782 18.6605 7.29782H22.9819C23.5243 7.29782 23.964 6.8562 23.964 6.31163V1.97238H27.4997V10.8481H4.32138ZM6.67849 14.7929C6.24527 14.7929 5.89278 14.4389 5.89278 14.0039V12.8205H25.9283V14.0039C25.9283 14.4389 25.5758 14.7929 25.1425 14.7929H6.67849ZM4.32138 41.8145C4.32138 41.3795 4.67386 41.0256 5.10708 41.0256H6.227C6.22779 41.0256 6.22867 41.0257 6.22946 41.0257C6.23015 41.0257 6.23083 41.0256 6.23152 41.0256H21.6117C21.787 41.7069 22.0182 42.366 22.2992 42.998H4.32138V41.8145ZM1.96426 48.5206V44.9703H23.3969C24.3602 46.3869 25.6029 47.5973 27.0448 48.5206H1.96426Z" fill="white"/>
<path d="M27.2165 37.2204C27.0329 37.037 26.7805 36.9315 26.5222 36.9315C26.2639 36.9315 26.0105 37.037 25.8268 37.2204C25.6441 37.4038 25.54 37.6573 25.54 37.9176C25.54 38.177 25.6441 38.4315 25.8268 38.6148C26.0105 38.7982 26.2639 38.9038 26.5222 38.9038C26.7805 38.9038 27.0329 38.7983 27.2165 38.6148C27.3992 38.4315 27.5043 38.177 27.5043 37.9176C27.5043 37.6572 27.3992 37.4038 27.2165 37.2204Z" fill="white"/>
<path d="M41.7439 37.2204C41.5612 37.037 41.3088 36.9315 41.0495 36.9315C40.7912 36.9315 40.5378 37.0369 40.3551 37.2204C40.1725 37.4038 40.0674 37.6573 40.0674 37.9176C40.0674 38.177 40.1725 38.4315 40.3551 38.6148C40.5378 38.7982 40.7912 38.9038 41.0495 38.9038C41.3088 38.9037 41.5612 38.7982 41.7439 38.6148C41.9275 38.4315 42.0326 38.177 42.0326 37.9176C42.0326 37.6582 41.9275 37.4038 41.7439 37.2204Z" fill="white"/>
<path d="M49.3027 5.32501H45.8326C45.2902 5.32501 44.8505 5.76663 44.8505 6.3112C44.8505 6.85578 45.2902 7.2974 45.8326 7.2974H46.933L38.4292 15.8363L34.8506 12.2429C34.4671 11.8579 33.8452 11.8579 33.4616 12.2429L26.9849 18.7464C26.6014 19.1315 26.6014 19.756 26.9849 20.1412C27.1767 20.3337 27.428 20.43 27.6794 20.43C27.9307 20.43 28.1821 20.3337 28.3738 20.1412L34.156 14.3351L37.7346 17.9284C38.1182 18.3135 38.7401 18.3135 39.1236 17.9284L48.3206 8.69345V9.79571C48.3206 10.3403 48.7603 10.7819 49.3027 10.7819C49.8452 10.7819 50.2849 10.3403 50.2849 9.79571V6.3112C50.2849 5.76663 49.8452 5.32501 49.3027 5.32501Z" fill="white"/>
</svg>
