<svg width="51" height="54" viewBox="0 0 51 54" fill="none" xmlns="http://www.w3.org/2000/svg">
<path d="M48.4571 8.67174C48.3325 8.19728 47.8505 7.91427 47.3799 8.03909C32.3357 12.03 26.3024 2.054 25.534 0.640945C25.5102 0.564719 25.477 0.491725 25.4351 0.42384C25.2599 0.176704 24.9772 0.0300903 24.676 0.0300903C24.3747 0.0300903 24.0921 0.176704 23.9168 0.42384C23.8657 0.505906 23.8287 0.59621 23.8075 0.69079C22.9306 2.2782 16.8628 11.9863 1.98889 8.03992C1.51829 7.9151 1.03632 8.19811 0.911741 8.67257C0.830585 8.98227 -6.8516 39.7882 24.2972 53.2958C24.4231 53.3586 24.5616 53.3912 24.7021 53.391C24.8744 53.3908 25.0427 53.3397 25.1865 53.2442C56.2046 39.7117 48.5383 8.98133 48.4571 8.67174ZM24.6845 51.5224C-2.21477 39.6618 1.38368 14.9788 2.42206 9.98156C15.7442 13.1253 22.5054 5.70057 24.6845 2.58175C26.8635 5.70057 33.6212 13.1254 46.9469 9.98156V9.98427C47.9851 14.9788 51.5837 39.6618 24.6845 51.5224Z" fill="white"/>
<path d="M45.3051 12.4064C45.1162 12.2606 44.8771 12.198 44.6418 12.2326C43.3363 12.4263 42.0188 12.5254 40.6993 12.5289C40.2121 12.5289 39.8171 12.9273 39.8171 13.4187C39.8171 13.9102 40.2121 14.3085 40.6993 14.3085V14.3076C41.7984 14.3056 42.8965 14.2402 43.9881 14.1119C44.7054 21.7715 43.7941 38.4238 24.6838 47.6104C22.8706 46.7459 21.12 45.7533 19.4453 44.6402C19.0398 44.3788 18.5014 44.4934 18.2352 44.8979C17.969 45.3023 18.0733 45.8472 18.4696 46.1227C20.3332 47.3611 22.2859 48.4572 24.3115 49.4017C24.4284 49.4555 24.5553 49.4835 24.6838 49.4836C24.8124 49.4837 24.9395 49.4554 25.0561 49.4008C46.3657 39.3884 46.5528 20.613 45.6449 13.0067C45.6165 12.7686 45.494 12.5522 45.3051 12.4064Z" fill="white"/>
<path d="M5.97298 24.7972C5.27484 21.284 5.08316 17.6876 5.40396 14.1192C6.48752 14.2459 7.57728 14.3103 8.66807 14.3123C14.6171 14.4338 20.373 12.1808 24.6836 8.0435C27.111 10.3977 30.0438 12.1559 33.2541 13.1813C33.7184 13.3304 34.2147 13.0717 34.3626 12.6034C34.5104 12.1351 34.2539 11.6345 33.7896 11.4854C30.5707 10.4551 27.659 8.62787 25.3205 6.17037C24.9669 5.8226 24.4029 5.8226 24.0492 6.17037C20.0205 10.3534 14.4476 12.6569 8.66714 12.5282C7.35449 12.5247 6.04369 12.4266 4.74489 12.2346C4.50856 12.1979 4.26778 12.2624 4.08055 12.4126C3.89178 12.5594 3.76989 12.777 3.7427 13.0159C3.2813 17.0645 3.45064 21.161 4.24462 25.1568C5.36602 30.9486 8.06152 36.312 12.0301 40.6479C12.2444 40.8811 12.5658 40.9813 12.8732 40.9106C13.1805 40.84 13.4272 40.6093 13.5203 40.3054C13.6133 40.0016 13.5386 39.6708 13.3242 39.4377C9.57578 35.3392 7.03059 30.2704 5.97298 24.7972Z" fill="white"/>
<path d="M6.17538 44.4918H4.41104V42.7121C4.41104 42.2206 4.01612 41.8223 3.52888 41.8223C3.04163 41.8223 2.64671 42.2206 2.64671 42.7121V44.4918H0.882168C0.394923 44.4918 0 44.8901 0 45.3816C0 45.873 0.394923 46.2714 0.882168 46.2714H2.64661V48.051C2.64661 48.5425 3.04153 48.9408 3.52877 48.9408C4.01602 48.9408 4.41094 48.5425 4.41094 48.051V46.2714H6.17538C6.66262 46.2714 7.05755 45.873 7.05755 45.3816C7.05755 44.8901 6.66262 44.4918 6.17538 44.4918Z" fill="white"/>
<path d="M49.4029 48.9404H47.6385V47.1607C47.6385 46.6693 47.2436 46.2709 46.7563 46.2709C46.2691 46.2709 45.8741 46.6694 45.8741 47.1607V48.9404H44.1097C43.6225 48.9404 43.2275 49.3388 43.2275 49.8302C43.2275 50.3217 43.6225 50.72 44.1097 50.72H45.8741V52.4997C45.8741 52.9912 46.2691 53.3895 46.7563 53.3895C47.2436 53.3895 47.6385 52.9912 47.6385 52.4997V50.7201H49.4029C49.8902 50.7201 50.2851 50.3218 50.2851 49.8303C50.2851 49.3389 49.8902 48.9404 49.4029 48.9404Z" fill="white"/>
<path d="M42.346 3.55935H43.2282V4.44914C43.2282 4.9406 43.6231 5.33894 44.1104 5.33894C44.5976 5.33894 44.9926 4.94071 44.9926 4.44925V3.55945H45.8748C46.3621 3.55945 46.757 3.16101 46.757 2.66966C46.757 2.1783 46.3621 1.77986 45.8748 1.77986H44.9926V0.889857C44.9926 0.398399 44.5977 6.10352e-05 44.1105 6.10352e-05C43.6232 6.10352e-05 43.2283 0.398399 43.2283 0.889857V1.77965H42.346C41.8588 1.77965 41.4639 2.17799 41.4639 2.66945C41.4639 3.16091 41.8588 3.55935 42.346 3.55935Z" fill="white"/>
<path d="M28.654 40.9324C32.0628 40.928 34.8251 38.1418 34.8294 34.7036V24.9154C34.8294 23.9325 34.0395 23.1357 33.065 23.1357H32.1828V20.4662C32.1828 16.5347 29.023 13.3475 25.1252 13.3475C21.2273 13.3475 18.0675 16.5347 18.0675 20.4662V23.1357H17.1853C16.2108 23.1357 15.4209 23.9325 15.4209 24.9154V34.7036C15.4252 38.1418 18.1875 40.928 21.5963 40.9324H28.654ZM19.8319 20.4663C19.8319 17.5177 22.2018 15.1273 25.1252 15.1273C28.0485 15.1273 30.4184 17.5177 30.4184 20.4663V23.1358H19.8319V20.4663ZM17.2736 35.5934H18.9498C19.437 35.5934 19.8319 35.1949 19.8319 34.7036C19.8319 34.2121 19.437 33.8138 18.9498 33.8138H17.1853V32.0341H18.9498C19.437 32.0341 19.8319 31.6357 19.8319 31.1443C19.8319 30.6528 19.437 30.2545 18.9498 30.2545H17.1853V28.4748H18.9498C19.437 28.4748 19.8319 28.0765 19.8319 27.585C19.8319 27.0935 19.437 26.6952 18.9498 26.6952H17.1853V24.9155H33.065V26.6951H31.3005C30.8133 26.6951 30.4184 27.0934 30.4184 27.5849C30.4184 28.0764 30.8133 28.4747 31.3005 28.4747H33.065V30.2544H31.3005C30.8133 30.2544 30.4184 30.6527 30.4184 31.1442C30.4184 31.6356 30.8133 32.034 31.3005 32.034H33.065V33.8137H31.3005C30.8133 33.8137 30.4184 34.2121 30.4184 34.7035C30.4184 35.1949 30.8133 35.5933 31.3005 35.5933H32.9767C32.5546 37.6634 30.7492 39.1499 28.6539 39.1526H21.5963C19.501 39.1501 17.6956 37.6635 17.2736 35.5934Z" fill="white"/>
<path d="M24.243 32.7597V34.7032C24.243 35.1946 24.6379 35.593 25.1251 35.593C25.6124 35.593 26.0073 35.1945 26.0073 34.7032V32.7597C27.2217 32.3284 27.9505 31.0763 27.7324 29.7964C27.5142 28.5165 26.4127 27.582 25.1251 27.5845C23.8376 27.582 22.7361 28.5166 22.5179 29.7964C22.2998 31.0763 23.0285 32.3284 24.243 32.7597ZM25.1251 29.3642C25.6124 29.3642 26.0073 29.7625 26.0073 30.254C26.0073 30.7454 25.6124 31.1438 25.1251 31.1438C24.6379 31.1438 24.243 30.7454 24.243 30.254C24.243 29.7625 24.638 29.3642 25.1251 29.3642Z" fill="white"/>
</svg>
