<svg xmlns="http://www.w3.org/2000/svg" viewBox="0 0 95.31 31.13"><defs><style>.cls-1{fill:#fff;}.cls-2{opacity:0.5;}</style></defs><title>mt4-5</title><g id="Layer_2" data-name="Layer 2"><g id="Layer_1-2" data-name="Layer 1"><path class="cls-1" d="M21.88,27.13l0-19.79L12.16,24.06h-.82L1.65,7.4V27.13H0V4H1.42L11.77,21.88,22.11,4H23.5l0,23.13Z"/><path class="cls-1" d="M36,5.52H27.7V4H46V5.52H37.72V27.13H36Z"/><path class="cls-1" d="M95.31,20.38c0,3.86-2.67,6.84-8.09,6.84-3.37,0-6.51-1.26-8.13-3.11L80,22.82a9.73,9.73,0,0,0,7.23,2.84c4.27,0,6.45-2.14,6.45-5.22,0-3.3-2-5.32-8.3-5.32H80.64l1.22-11.2H94.12V5.44H83.28l-.89,8.16H85.7C92.74,13.6,95.31,16.28,95.31,20.38Z"/><g class="cls-2"><path class="cls-1" d="M76.26,0h1.52L66.88,31.13H65.36Z"/></g><path class="cls-1" d="M65.24,20.72H60.38v6.41H58.72V20.72H45.54V19.5L58.1,4H60L47.65,19.23H58.76V13.58h1.62v5.65h4.86Z"/></g></g></svg>