<svg width="48" height="48" viewBox="0 0 48 48" fill="none" xmlns="http://www.w3.org/2000/svg">
<path d="M16.823 34.0998C16.7561 34.0806 16.6876 34.0698 16.6186 34.0661C17.6327 32.9959 18.2572 31.5501 18.2572 29.9597V25.069C18.2572 25.0243 18.253 24.9807 18.247 24.9377C18.2531 24.8494 18.2572 24.7605 18.2572 24.6707V21.5765C18.2572 21.063 17.8428 20.6469 17.3315 20.6469H11.1221C8.50724 20.6469 6.38001 22.783 6.38001 25.4086V29.9597C6.38001 31.5501 7.00444 32.9959 8.01862 34.0661C7.94974 34.0698 7.88124 34.0806 7.8144 34.0998C3.4395 34.4976 0 38.2002 0 42.6951V46.6667C0 47.1801 0.414466 47.5963 0.925767 47.5963H23.7114C24.2227 47.5963 24.6372 47.1801 24.6372 46.6667V42.6951C24.6372 38.2003 21.1978 34.4976 16.823 34.0998ZM8.23155 26.5874V25.4085C8.23155 23.8081 9.52827 22.506 11.1221 22.506H16.4057V24.6706C16.4057 25.7604 15.5228 26.647 14.4375 26.647H8.23155V26.5874ZM8.23155 28.5062H14.4375C15.157 28.5062 15.8305 28.3052 16.4057 27.9564V29.9596C16.4057 32.2225 14.5722 34.0636 12.3186 34.0636C10.065 34.0636 8.23155 32.2225 8.23155 29.9596V28.5062ZM14.3336 35.9229L12.3186 37.9463L10.3037 35.9229H14.3336ZM22.7857 45.7371H1.85153V43.8779H5.69347C6.20477 43.8779 6.61923 43.4617 6.61923 42.9483C6.61923 42.4349 6.20477 42.0187 5.69347 42.0187H1.88532C2.19629 38.8844 4.64466 36.3744 7.74126 35.9792L11.664 39.9182C11.8376 40.0925 12.0731 40.1904 12.3186 40.1904C12.5641 40.1904 12.7996 40.0925 12.9732 39.9182L16.896 35.9792C20.2124 36.4024 22.7857 39.2517 22.7857 42.6951V45.7371Z" fill="white"/>
<path d="M39.585 13.4532C39.5181 13.434 39.4495 13.4233 39.3804 13.4195C40.3945 12.3493 41.0189 10.9035 41.0189 9.31312V4.4223C41.0189 4.37759 41.0147 4.33399 41.0087 4.29104C41.0148 4.20273 41.0189 4.11386 41.0189 4.02406V0.929785C41.0189 0.416366 40.6045 0.000183105 40.0932 0.000183105H33.8838C31.269 0.000183105 29.1417 2.13632 29.1417 4.76188V9.31303C29.1417 10.9034 29.7662 12.3492 30.7802 13.4195C30.7113 13.4232 30.6426 13.434 30.5757 13.4531C26.2009 13.8511 22.7617 17.5538 22.7617 22.0484V26.0199C22.7617 26.5334 23.1762 26.9495 23.6875 26.9495H31.1362C31.6475 26.9495 32.062 26.5334 32.062 26.0199C32.062 25.5065 31.6475 25.0903 31.1362 25.0903H24.6133V22.0485C24.6133 18.6051 27.1864 15.7558 30.5029 15.3326L34.4256 19.2716C34.6064 19.4531 34.8433 19.5439 35.0802 19.5439C35.3172 19.5439 35.5541 19.4531 35.7349 19.2716L39.6576 15.3326C42.9743 15.7559 45.5474 18.6051 45.5474 22.0485V25.0904H38.7276C38.2163 25.0904 37.8018 25.5066 37.8018 26.02C37.8018 26.5334 38.2163 26.9496 38.7276 26.9496H46.4732C46.9845 26.9496 47.399 26.5334 47.399 26.02V22.0485C47.399 17.5539 43.9596 13.8512 39.585 13.4532ZM35.0804 17.2996L33.0655 15.2763H37.0954L35.0804 17.2996ZM39.1675 9.31303C39.1675 11.576 37.334 13.417 35.0804 13.417C32.8268 13.417 30.9934 11.5761 30.9934 9.31312V7.8596H37.1993C37.9188 7.8596 38.5923 7.65852 39.1675 7.30983V9.31303ZM39.1675 4.02406C39.1675 5.11383 38.2846 6.00039 37.1993 6.00039H30.9934V5.94081V4.76188C30.9934 3.16148 32.2901 1.85939 33.8839 1.85939H39.1675V4.02406Z" fill="white"/>
<path d="M35.7346 25.3625C35.5624 25.1896 35.3235 25.0901 35.0801 25.0901C34.8357 25.0901 34.5977 25.1896 34.4255 25.3625C34.2524 25.5354 34.1543 25.7753 34.1543 26.0198C34.1543 26.2652 34.2524 26.5041 34.4255 26.677C34.5977 26.8508 34.8357 26.9494 35.0801 26.9494C35.3235 26.9494 35.5624 26.8508 35.7346 26.677C35.9068 26.5041 36.0058 26.2652 36.0058 26.0198C36.0058 25.7753 35.9068 25.5354 35.7346 25.3625Z" fill="white"/>
<path d="M24.7564 13.0078L20.8848 9.12014V4.64801C20.8848 2.0851 18.8083 0 16.256 0H4.62981C2.07747 0 0.000976562 2.0851 0.000976562 4.64801V12.8285C0.000976562 15.3914 2.07747 17.4765 4.62981 17.4765H16.2559C18.1698 17.4765 19.8388 16.3232 20.539 14.5948H24.1017C24.4761 14.5948 24.8137 14.3682 24.9571 14.0209C25.1004 13.6736 25.0211 13.2737 24.7564 13.0078ZM19.8637 12.7355C19.4324 12.7355 19.0582 13.0346 18.9614 13.4567C18.67 14.7288 17.5575 15.6173 16.2559 15.6173H4.62981C3.09841 15.6173 1.85251 14.3663 1.85251 12.8285V4.64801C1.85251 3.11026 3.09841 1.8592 4.62981 1.8592H16.2559C17.7873 1.8592 19.0332 3.11026 19.0332 4.64801V9.50518C19.0332 9.75171 19.1307 9.9882 19.3043 10.1625L21.8668 12.7355H19.8637Z" fill="white"/>
<path d="M42.7698 30.1194H31.1438C29.2298 30.1194 27.5609 31.2727 26.8606 33.0012H23.2979C22.9235 33.0012 22.5859 33.2277 22.4426 33.575C22.2993 33.9223 22.3785 34.3222 22.6432 34.5881L26.5148 38.4758V42.9479C26.5148 45.5108 28.5913 47.5959 31.1437 47.5959H42.7698C45.3222 47.5959 47.3986 45.5108 47.3986 42.9479V34.7674C47.3986 32.2045 45.3222 30.1194 42.7698 30.1194ZM45.5471 42.9479C45.5471 44.4856 44.3012 45.7367 42.7698 45.7367H31.1438C29.6124 45.7367 28.3665 44.4856 28.3665 42.9479V38.0907C28.3665 37.8442 28.2689 37.6077 28.0953 37.4334L25.5329 34.8604H27.536C27.9673 34.8604 28.3415 34.5613 28.4382 34.1392C28.7296 32.8671 29.8421 31.9786 31.1438 31.9786H42.7698C44.3012 31.9786 45.5471 33.2296 45.5471 34.7674V42.9479Z" fill="white"/>
<path d="M41.1189 36.3836C40.7575 36.0206 40.1713 36.0206 39.8098 36.3836L37.3488 38.8547L36.2045 37.7057C35.843 37.3427 35.2568 37.3427 34.8952 37.7057C34.5336 38.0687 34.5336 38.6573 34.8952 39.0204L36.6941 40.8268C36.8749 41.0084 37.1118 41.0991 37.3487 41.0991C37.5856 41.0991 37.8226 41.0084 38.0033 40.8268L41.1189 37.6983C41.4804 37.3353 41.4804 36.7467 41.1189 36.3836Z" fill="white"/>
<path d="M14.651 6.16009C14.5416 4.5661 13.262 3.28121 11.6746 3.17133C10.7745 3.10914 9.91647 3.41405 9.25917 4.03019C8.61105 4.63768 8.23926 5.49663 8.23926 6.38664C8.23935 6.90015 8.65382 7.31633 9.16512 7.31633C9.67642 7.31633 10.0909 6.90015 10.0909 6.38673C10.0909 6.00457 10.2442 5.65039 10.5227 5.38936C10.8007 5.1287 11.165 4.9993 11.5474 5.02626C12.2176 5.07264 12.7577 5.61506 12.8039 6.288C12.8507 6.96838 12.4065 7.56965 11.7478 7.71764C11.0268 7.87958 10.5233 8.50901 10.5233 9.24823V9.74417C10.5233 10.2576 10.9378 10.6738 11.4491 10.6738C11.9604 10.6738 12.3748 10.2576 12.3748 9.74417V9.47366C13.8092 9.044 14.7558 7.68613 14.651 6.16009Z" fill="white"/>
<path d="M12.1027 12.6447C11.9306 12.4718 11.6917 12.3723 11.4482 12.3723C11.2038 12.3723 10.9659 12.4718 10.7937 12.6447C10.6206 12.8176 10.5225 13.0574 10.5225 13.3019C10.5225 13.5464 10.6206 13.7862 10.7937 13.9591C10.9659 14.1321 11.2038 14.2315 11.4482 14.2315C11.6917 14.2315 11.9306 14.1321 12.1027 13.9591C12.2749 13.7862 12.374 13.5464 12.374 13.3019C12.374 13.0574 12.2749 12.8176 12.1027 12.6447Z" fill="white"/>
<path d="M10.051 42.2907C9.87879 42.1178 9.63995 42.0183 9.39647 42.0183C9.15299 42.0183 8.91415 42.1178 8.74195 42.2907C8.56976 42.4636 8.4707 42.7034 8.4707 42.9479C8.4707 43.1924 8.56976 43.4322 8.74195 43.6051C8.91415 43.778 9.15299 43.8775 9.39647 43.8775C9.63995 43.8775 9.87879 43.778 10.051 43.6051C10.2232 43.4322 10.3222 43.1924 10.3222 42.9479C10.3222 42.7034 10.2232 42.4636 10.051 42.2907Z" fill="white"/>
</svg>
