<?xml version="1.0" encoding="UTF-8" standalone="no"?>
<svg
   xmlns:dc="http://purl.org/dc/elements/1.1/"
   xmlns:cc="http://creativecommons.org/ns#"
   xmlns:rdf="http://www.w3.org/1999/02/22-rdf-syntax-ns#"
   xmlns:svg="http://www.w3.org/2000/svg"
   xmlns="http://www.w3.org/2000/svg"
   id="svg842"
   version="1.1"
   viewBox="0 0 15 15"
   height="15pt"
   width="15pt">
  <metadata
     id="metadata848">
    <rdf:RDF>
      <cc:Work
         rdf:about="">
        <dc:format>image/svg+xml</dc:format>
        <dc:type
           rdf:resource="http://purl.org/dc/dcmitype/StillImage" />
        <dc:title></dc:title>
      </cc:Work>
    </rdf:RDF>
  </metadata>
  <defs
     id="defs846" />
  <g
     style="fill:#ffffff;fill-opacity:1"
     id="surface1">
    <path
       id="path839"
       d="M 14.785156 3.816406 L 14.292969 3.324219 C 14.136719 3.164062 13.933594 3.082031 13.710938 3.082031 C 13.492188 3.082031 13.285156 3.164062 13.128906 3.324219 L 7.515625 8.9375 L 1.894531 3.316406 C 1.738281 3.160156 1.535156 3.078125 1.3125 3.078125 C 1.09375 3.078125 0.886719 3.160156 0.734375 3.316406 L 0.238281 3.804688 C -0.0820312 4.128906 -0.0820312 4.648438 0.238281 4.96875 L 6.933594 11.6875 C 7.085938 11.839844 7.292969 11.949219 7.515625 11.949219 L 7.519531 11.949219 C 7.738281 11.949219 7.945312 11.839844 8.097656 11.6875 L 14.785156 4.988281 C 14.9375 4.832031 15.023438 4.621094 15.023438 4.402344 C 15.023438 4.179688 14.9375 3.972656 14.785156 3.816406 Z M 14.785156 3.816406 "
       style="stroke:none;fill-rule:nonzero;fill:#ffffff;fill-opacity:1" />
  </g>
</svg>
