<?xml version="1.0" encoding="utf-8"?>
<!-- Generator: Adobe Illustrator 22.0.1, SVG Export Plug-In . SVG Version: 6.00 Build 0)  -->
<svg version="1.0" id="Layer_1" xmlns="http://www.w3.org/2000/svg" xmlns:xlink="http://www.w3.org/1999/xlink" x="0px" y="0px"
	 viewBox="0 0 67.2 12.9" enable-background="new 0 0 67.2 12.9" xml:space="preserve">
<g>
	<g>
		<path fill="#CCCCCC" d="M39.9,5c0-0.1-0.1-0.2-0.3-0.2l-3.9-0.6l-1.8-3.5c-0.1-0.1-0.2-0.2-0.3-0.2l0,0c-0.1,0-0.3,0.1-0.3,0.2
			l-1.7,3.6l-3.9,0.6c-0.1,0-0.2,0.1-0.3,0.2c0,0.1,0,0.3,0.1,0.4l2.8,2.8L29.6,12c0,0.1,0,0.3,0.1,0.3c0.1,0,0.1,0.1,0.2,0.1
			c0.1,0,0.1,0,0.2,0l3.5-1.9l3.5,1.8c0.1,0,0.1,0,0.2,0l0,0c0.2,0,0.3-0.2,0.3-0.3c0,0,0-0.1,0-0.1L37,8.1l2.8-2.8
			C39.9,5.2,39.9,5.1,39.9,5z M36.4,7.7c-0.1,0.1-0.1,0.2-0.1,0.3l0.6,3.4l-3.1-1.6c-0.1-0.1-0.2-0.1-0.3,0l-3,1.6L31,8
			c0-0.1,0-0.2-0.1-0.3l-2.5-2.4l3.4-0.5c0.1,0,0.2-0.1,0.3-0.2l1.5-3.1l1.5,3.1c0.1,0.1,0.1,0.2,0.3,0.2l3.4,0.5L36.4,7.7z"/>
	</g>
	<g>
		<path fill="#CCCCCC" d="M26.9,5c0-0.1-0.1-0.2-0.3-0.2l-3.9-0.6l-1.8-3.5c-0.1-0.1-0.2-0.2-0.3-0.2l0,0c-0.1,0-0.3,0.1-0.3,0.2
			l-1.7,3.6l-3.9,0.6c-0.1,0-0.2,0.1-0.3,0.2c0,0.1,0,0.3,0.1,0.4l2.8,2.8L16.6,12c0,0.1,0,0.3,0.1,0.3c0.1,0,0.1,0.1,0.2,0.1
			c0.1,0,0.1,0,0.2,0l3.5-1.9l3.5,1.8c0.1,0,0.1,0,0.2,0l0,0c0.2,0,0.3-0.2,0.3-0.3c0,0,0-0.1,0-0.1L24,8.1l2.8-2.8
			C26.9,5.2,26.9,5.1,26.9,5z M23.4,7.7c-0.1,0.1-0.1,0.2-0.1,0.3l0.6,3.4l-3.1-1.6c-0.1-0.1-0.2-0.1-0.3,0l-3,1.6L18,8
			c0-0.1,0-0.2-0.1-0.3l-2.5-2.4l3.4-0.5c0.1,0,0.2-0.1,0.3-0.2l1.5-3.1l1.5,3.1c0.1,0.1,0.1,0.2,0.3,0.2l3.4,0.5L23.4,7.7z"/>
	</g>
	<g>
		<path fill="#CCCCCC" d="M65.9,5c0-0.1-0.1-0.2-0.3-0.2l-3.9-0.6l-1.8-3.5c-0.1-0.1-0.2-0.2-0.3-0.2l0,0c-0.1,0-0.3,0.1-0.3,0.2
			l-1.7,3.6l-3.9,0.6c-0.1,0-0.2,0.1-0.3,0.2s0,0.3,0.1,0.4l2.8,2.8L55.6,12c0,0.1,0,0.3,0.1,0.3c0.1,0,0.1,0.1,0.2,0.1
			c0.1,0,0.1,0,0.2,0l3.5-1.9l3.5,1.8c0.1,0,0.1,0,0.2,0l0,0c0.2,0,0.3-0.2,0.3-0.3c0,0,0-0.1,0-0.1L63,8.1l2.8-2.8
			C65.9,5.2,65.9,5.1,65.9,5z M62.4,7.7c-0.1,0.1-0.1,0.2-0.1,0.3l0.6,3.4l-3.1-1.6c-0.1-0.1-0.2-0.1-0.3,0l-3,1.6L57,8
			c0-0.1,0-0.2-0.1-0.3l-2.5-2.4l3.4-0.5c0.1,0,0.2-0.1,0.3-0.2l1.5-3.1l1.5,3.1c0.1,0.1,0.1,0.2,0.3,0.2l3.4,0.5L62.4,7.7z"/>
	</g>
	<g>
		<path fill="#CCCCCC" d="M52.9,5c0-0.1-0.1-0.2-0.3-0.2l-3.9-0.6l-1.8-3.5c-0.1-0.1-0.2-0.2-0.3-0.2l0,0c-0.1,0-0.3,0.1-0.3,0.2
			l-1.7,3.6l-3.9,0.6c-0.1,0-0.2,0.1-0.3,0.2s0,0.3,0.1,0.4l2.8,2.8L42.6,12c0,0.1,0,0.3,0.1,0.3c0.1,0,0.1,0.1,0.2,0.1
			c0.1,0,0.1,0,0.2,0l3.5-1.9l3.5,1.8c0.1,0,0.1,0,0.2,0l0,0c0.2,0,0.3-0.2,0.3-0.3c0,0,0-0.1,0-0.1L50,8.1l2.8-2.8
			C52.9,5.2,52.9,5.1,52.9,5z M49.4,7.7c-0.1,0.1-0.1,0.2-0.1,0.3l0.6,3.4l-3.1-1.6c-0.1-0.1-0.2-0.1-0.3,0l-3,1.6L44,8
			c0-0.1,0-0.2-0.1-0.3l-2.5-2.4l3.4-0.5c0.1,0,0.2-0.1,0.3-0.2l1.5-3.1l1.5,3.1c0.1,0.1,0.1,0.2,0.3,0.2l3.4,0.5L49.4,7.7z"/>
	</g>
	<g>
		<path fill="#CCCCCC" d="M13.9,5c0-0.1-0.1-0.2-0.3-0.2L9.7,4.2L7.9,0.6C7.9,0.5,7.7,0.4,7.6,0.4l0,0c-0.1,0-0.3,0.1-0.3,0.2
			L5.6,4.2L1.6,4.8C1.5,4.8,1.4,4.9,1.4,5c0,0.1,0,0.3,0.1,0.4l2.8,2.8L3.6,12c0,0.1,0,0.3,0.1,0.3c0.1,0,0.1,0.1,0.2,0.1
			c0.1,0,0.1,0,0.2,0l3.5-1.9l3.5,1.8c0.1,0,0.1,0,0.2,0l0,0c0.2,0,0.3-0.2,0.3-0.3c0,0,0-0.1,0-0.1L11,8.1l2.8-2.8
			C13.9,5.2,13.9,5.1,13.9,5z M10.4,7.7c-0.1,0.1-0.1,0.2-0.1,0.3l0.6,3.4L7.8,9.8c-0.1-0.1-0.2-0.1-0.3,0l-3,1.6L5,8
			c0-0.1,0-0.2-0.1-0.3L2.4,5.3l3.4-0.5c0.1,0,0.2-0.1,0.3-0.2l1.5-3.1l1.5,3.1c0.1,0.1,0.1,0.2,0.3,0.2l3.4,0.5L10.4,7.7z"/>
	</g>
</g>
<g>
</g>
<g>
</g>
<g>
</g>
<g>
</g>
<g>
</g>
<g>
</g>
<g>
</g>
<g>
</g>
<g>
</g>
<g>
</g>
<g>
</g>
<g>
</g>
<g>
</g>
<g>
</g>
<g>
</g>
</svg>
