<svg width="9" height="37" viewBox="0 0 9 37" fill="none" xmlns="http://www.w3.org/2000/svg">
<path fill-rule="evenodd" clip-rule="evenodd" d="M7.10093 32.2262H8.28125V3.62117C8.28125 2.62107 7.4888 1.81073 6.51077 1.81073H5.24659C4.94949 0.633525 3.84294 -0.133794 2.66348 0.019434C1.48431 0.172662 0.600511 1.19841 0.600511 2.41421C0.600511 3.62972 1.48431 4.65576 2.66348 4.80869C3.84294 4.96192 4.94949 4.1946 5.24659 3.01769H6.51077C6.83668 3.01769 7.10093 3.2879 7.10093 3.62117V32.2262ZM2.9698 1.20724C2.31797 1.20724 1.78948 1.74767 1.78948 2.41421C1.78948 3.08075 2.31797 3.62117 2.9698 3.62117C3.62163 3.62117 4.15012 3.08075 4.15012 2.41421C4.15012 1.74767 3.62163 1.20724 2.9698 1.20724Z" fill="white"/>
<path fill-rule="evenodd" clip-rule="evenodd" d="M8.28125 32.5883V32.2262H7.10093V32.5883C7.10093 32.9216 6.83668 33.1918 6.51077 33.1918H5.24659C4.94949 32.0146 3.84294 31.2473 2.66348 31.4005C1.48431 31.5537 0.600511 32.5795 0.600511 33.7953C0.600511 35.0108 1.48431 36.0368 2.66348 36.1898C3.84294 36.343 4.94949 35.5757 5.24659 34.3988H6.51077C7.4888 34.3988 8.28125 33.5881 8.28125 32.5883ZM2.9698 32.5883C2.31797 32.5883 1.78948 33.1287 1.78948 33.7953C1.78948 34.4618 2.31797 35.0022 2.9698 35.0022C3.62163 35.0022 4.15012 34.4618 4.15012 33.7953C4.15012 33.1287 3.62163 32.5883 2.9698 32.5883Z" fill="white"/>
</svg>
