<?xml version="1.0" encoding="UTF-8"?>
<svg xmlns="http://www.w3.org/2000/svg" xmlns:xlink="http://www.w3.org/1999/xlink" width="3pt" height="13pt" viewBox="0 0 3 13" version="1.1">
<g id="surface1">
<path style=" stroke:none;fill-rule:evenodd;fill:rgb(100%,100%,100%);fill-opacity:1;" d="M 0.441406 11.324219 L 0 11.324219 L 0 1.273438 C 0 0.921875 0.296875 0.636719 0.664062 0.636719 L 1.136719 0.636719 C 1.25 0.222656 1.664062 -0.046875 2.105469 0.0078125 C 2.550781 0.0625 2.878906 0.421875 2.878906 0.847656 C 2.878906 1.273438 2.550781 1.636719 2.105469 1.691406 C 1.664062 1.742188 1.25 1.472656 1.136719 1.058594 L 0.664062 1.058594 C 0.542969 1.058594 0.441406 1.15625 0.441406 1.273438 Z M 1.992188 0.425781 C 2.234375 0.425781 2.433594 0.613281 2.433594 0.847656 C 2.433594 1.082031 2.234375 1.273438 1.992188 1.273438 C 1.746094 1.273438 1.550781 1.082031 1.550781 0.847656 C 1.550781 0.613281 1.746094 0.425781 1.992188 0.425781 Z M 1.992188 0.425781 "/>
<path style=" stroke:none;fill-rule:evenodd;fill:rgb(100%,100%,100%);fill-opacity:1;" d="M 0 11.449219 L 0 11.324219 L 0.441406 11.324219 L 0.441406 11.449219 C 0.441406 11.566406 0.542969 11.660156 0.664062 11.660156 L 1.136719 11.660156 C 1.25 11.25 1.664062 10.980469 2.105469 11.03125 C 2.550781 11.085938 2.878906 11.445312 2.878906 11.875 C 2.878906 12.300781 2.550781 12.660156 2.105469 12.714844 C 1.664062 12.769531 1.25 12.5 1.136719 12.085938 L 0.664062 12.085938 C 0.296875 12.085938 0 11.800781 0 11.449219 Z M 1.992188 11.449219 C 2.234375 11.449219 2.433594 11.640625 2.433594 11.875 C 2.433594 12.109375 2.234375 12.296875 1.992188 12.296875 C 1.746094 12.296875 1.550781 12.109375 1.550781 11.875 C 1.550781 11.640625 1.746094 11.449219 1.992188 11.449219 Z M 1.992188 11.449219 "/>
</g>
</svg>
