<?xml version="1.0" encoding="UTF-8"?>
<svg xmlns="http://www.w3.org/2000/svg" xmlns:xlink="http://www.w3.org/1999/xlink" width="4pt" height="16pt" viewBox="0 0 4 16" version="1.1">
<g id="surface1">
<path style=" stroke:none;fill-rule:evenodd;fill:rgb(100%,100%,100%);fill-opacity:1;" d="M 3.15625 13.9375 L 3.679688 13.9375 L 3.679688 1.566406 C 3.679688 1.132812 3.328125 0.78125 2.894531 0.78125 L 2.332031 0.78125 C 2.199219 0.273438 1.707031 -0.0585938 1.183594 0.0078125 C 0.660156 0.0742188 0.265625 0.519531 0.265625 1.042969 C 0.265625 1.570312 0.660156 2.011719 1.183594 2.078125 C 1.707031 2.144531 2.199219 1.8125 2.332031 1.304688 L 2.894531 1.304688 C 3.039062 1.304688 3.15625 1.421875 3.15625 1.566406 Z M 1.320312 0.523438 C 1.03125 0.523438 0.796875 0.753906 0.796875 1.042969 C 0.796875 1.332031 1.03125 1.566406 1.320312 1.566406 C 1.609375 1.566406 1.84375 1.332031 1.84375 1.042969 C 1.84375 0.753906 1.609375 0.523438 1.320312 0.523438 Z M 1.320312 0.523438 "/>
<path style=" stroke:none;fill-rule:evenodd;fill:rgb(100%,100%,100%);fill-opacity:1;" d="M 3.679688 14.09375 L 3.679688 13.9375 L 3.15625 13.9375 L 3.15625 14.09375 C 3.15625 14.238281 3.039062 14.351562 2.894531 14.351562 L 2.332031 14.351562 C 2.199219 13.84375 1.707031 13.511719 1.183594 13.578125 C 0.660156 13.644531 0.265625 14.089844 0.265625 14.613281 C 0.265625 15.140625 0.660156 15.582031 1.183594 15.648438 C 1.707031 15.714844 2.199219 15.382812 2.332031 14.875 L 2.894531 14.875 C 3.328125 14.875 3.679688 14.523438 3.679688 14.09375 Z M 1.320312 14.09375 C 1.03125 14.09375 0.796875 14.324219 0.796875 14.613281 C 0.796875 14.902344 1.03125 15.136719 1.320312 15.136719 C 1.609375 15.136719 1.84375 14.902344 1.84375 14.613281 C 1.84375 14.324219 1.609375 14.09375 1.320312 14.09375 Z M 1.320312 14.09375 "/>
</g>
</svg>
