<svg width="7" height="33" viewBox="0 0 7 33" fill="none" xmlns="http://www.w3.org/2000/svg">
<path fill-rule="evenodd" clip-rule="evenodd" d="M1.07571 29.37H0V3.30023C0 2.38876 0.72222 1.65024 1.61357 1.65024H2.7657C3.03647 0.577376 4.04495 -0.121936 5.11987 0.0177116C6.19453 0.157359 7 1.09219 7 2.20024C7 3.30802 6.19453 4.24312 5.11987 4.3825C4.04495 4.52215 3.03647 3.82283 2.7657 2.75024H1.61357C1.31654 2.75024 1.07571 2.9965 1.07571 3.30023V29.37ZM4.8407 1.10025C5.43476 1.10025 5.91641 1.59277 5.91641 2.20024C5.91641 2.80771 5.43476 3.30023 4.8407 3.30023C4.24664 3.30023 3.76499 2.80771 3.76499 2.20024C3.76499 1.59277 4.24664 1.10025 4.8407 1.10025Z" fill="#5E5E5E"/>
<path fill-rule="evenodd" clip-rule="evenodd" d="M0 29.7V29.37H1.07571V29.7C1.07571 30.0038 1.31654 30.25 1.61357 30.25H2.7657C3.03647 29.1772 4.04495 28.4779 5.11987 28.6175C6.19453 28.7571 7 29.692 7 30.8C7 31.9078 6.19453 32.8429 5.11987 32.9823C4.04495 33.1219 3.03647 32.4226 2.7657 31.35H1.61357C0.72222 31.35 0 30.6112 0 29.7ZM4.8407 29.7C5.43476 29.7 5.91641 30.1926 5.91641 30.8C5.91641 31.4075 5.43476 31.9 4.8407 31.9C4.24664 31.9 3.76499 31.4075 3.76499 30.8C3.76499 30.1926 4.24664 29.7 4.8407 29.7Z" fill="#5E5E5E"/>
</svg>
