<svg width="8" height="37" viewBox="0 0 8 37" fill="none" xmlns="http://www.w3.org/2000/svg">
<path fill-rule="evenodd" clip-rule="evenodd" d="M1.18032 32.2262H0V3.62117C0 2.62107 0.792454 1.81073 1.77048 1.81073H3.03466C3.33176 0.633525 4.43831 -0.133794 5.61777 0.019434C6.79694 0.172662 7.68074 1.19841 7.68074 2.41421C7.68074 3.62972 6.79694 4.65576 5.61777 4.80869C4.43831 4.96192 3.33176 4.1946 3.03466 3.01769H1.77048C1.44457 3.01769 1.18032 3.2879 1.18032 3.62117V32.2262ZM5.31145 1.20724C5.96328 1.20724 6.49177 1.74767 6.49177 2.41421C6.49177 3.08075 5.96328 3.62117 5.31145 3.62117C4.65962 3.62117 4.13113 3.08075 4.13113 2.41421C4.13113 1.74767 4.65962 1.20724 5.31145 1.20724Z" fill="white"/>
<path fill-rule="evenodd" clip-rule="evenodd" d="M0 32.5883V32.2262H1.18032V32.5883C1.18032 32.9216 1.44457 33.1918 1.77048 33.1918H3.03466C3.33176 32.0146 4.43831 31.2473 5.61777 31.4005C6.79694 31.5537 7.68074 32.5795 7.68074 33.7953C7.68074 35.0108 6.79694 36.0368 5.61777 36.1898C4.43831 36.343 3.33176 35.5757 3.03466 34.3988H1.77048C0.792454 34.3988 0 33.5881 0 32.5883ZM5.31145 32.5883C5.96328 32.5883 6.49177 33.1287 6.49177 33.7953C6.49177 34.4618 5.96328 35.0022 5.31145 35.0022C4.65962 35.0022 4.13113 34.4618 4.13113 33.7953C4.13113 33.1287 4.65962 32.5883 5.31145 32.5883Z" fill="white"/>
</svg>
