<svg width="7" height="33" viewBox="0 0 7 33" fill="none" xmlns="http://www.w3.org/2000/svg">
<path fill-rule="evenodd" clip-rule="evenodd" d="M5.92429 29.37H7V3.30023C7 2.38876 6.27778 1.65024 5.38643 1.65024H4.2343C3.96353 0.577376 2.95505 -0.121936 1.88013 0.0177116C0.805469 0.157359 0 1.09219 0 2.20024C0 3.30802 0.805469 4.24312 1.88013 4.3825C2.95505 4.52215 3.96353 3.82283 4.2343 2.75024H5.38643C5.68346 2.75024 5.92429 2.9965 5.92429 3.30023V29.37ZM2.1593 1.10025C1.56524 1.10025 1.08359 1.59277 1.08359 2.20024C1.08359 2.80771 1.56524 3.30023 2.1593 3.30023C2.75336 3.30023 3.23501 2.80771 3.23501 2.20024C3.23501 1.59277 2.75336 1.10025 2.1593 1.10025Z" fill="#5E5E5E"/>
<path fill-rule="evenodd" clip-rule="evenodd" d="M7 29.7V29.37H5.92429V29.7C5.92429 30.0038 5.68346 30.25 5.38643 30.25H4.2343C3.96353 29.1772 2.95505 28.4779 1.88013 28.6175C0.805469 28.7571 0 29.692 0 30.8C0 31.9078 0.805469 32.8429 1.88013 32.9823C2.95505 33.1219 3.96353 32.4226 4.2343 31.35H5.38643C6.27778 31.35 7 30.6112 7 29.7ZM2.1593 29.7C1.56524 29.7 1.08359 30.1926 1.08359 30.8C1.08359 31.4075 1.56524 31.9 2.1593 31.9C2.75336 31.9 3.23501 31.4075 3.23501 30.8C3.23501 30.1926 2.75336 29.7 2.1593 29.7Z" fill="#5E5E5E"/>
</svg>
