<svg width="50" height="50" viewBox="0 0 50 50" fill="none" xmlns="http://www.w3.org/2000/svg">
<path fill-rule="evenodd" clip-rule="evenodd" d="M25 48C37.7025 48 48 37.7025 48 25C48 12.2975 37.7025 2 25 2C12.2975 2 2 12.2975 2 25C2 37.7025 12.2975 48 25 48ZM25 50C38.8071 50 50 38.8071 50 25C50 11.1929 38.8071 0 25 0C11.1929 0 0 11.1929 0 25C0 38.8071 11.1929 50 25 50Z" fill="white"/>
<path d="M33.9529 18.3651C33.9529 19.2631 33.2912 19.8092 32.8081 20.2099C32.6251 20.3617 32.2845 20.6387 32.2855 20.7422C32.2888 21.148 31.9585 21.4721 31.5477 21.4721C31.5456 21.4721 31.5436 21.4721 31.5415 21.4721C31.1336 21.4721 30.8012 21.158 30.7979 20.7542C30.7913 19.9583 31.3792 19.4816 31.8516 19.0898C32.2222 18.7823 32.4653 18.5659 32.4653 18.3678C32.4653 17.967 32.1352 17.6409 31.7295 17.6409C31.3236 17.6409 30.9935 17.967 30.9935 18.3678C30.9935 18.7738 30.6605 19.1028 30.2497 19.1028C29.8388 19.1028 29.5059 18.7738 29.5059 18.3678C29.5059 17.1565 30.5033 16.171 31.7293 16.171C32.9555 16.1709 33.9529 17.1537 33.9529 18.3651ZM31.5621 22.1505C31.1512 22.1505 30.8347 22.4795 30.8347 22.8854V22.8911C30.8347 23.297 31.1513 23.6232 31.5621 23.6232C31.9728 23.6232 32.3059 23.2913 32.3059 22.8854C32.3059 22.4795 31.9729 22.1505 31.5621 22.1505ZM16.5696 27.2698C16.1588 27.2698 15.8258 27.5988 15.8258 28.0047C15.8258 28.4107 16.1588 28.7397 16.5696 28.7397H16.6316C17.0424 28.7397 17.3754 28.4107 17.3754 28.0047C17.3754 27.5988 17.0424 27.2698 16.6316 27.2698H16.5696ZM19.1546 27.2698C18.7438 27.2698 18.4108 27.5988 18.4108 28.0047C18.4108 28.4107 18.7438 28.7397 19.1546 28.7397H19.2165C19.6274 28.7397 19.9603 28.4107 19.9603 28.0047C19.9603 27.5988 19.6274 27.2698 19.2165 27.2698H19.1546ZM41 15.5317V23.8037C41 25.7622 39.4106 27.3515 37.4283 27.3515H27.7823C27.5937 27.3515 27.4384 27.3504 27.3085 27.3477C27.1724 27.345 27.0192 27.3439 26.9594 27.3504C26.8972 27.3913 26.7446 27.5293 26.5976 27.6632C26.5393 27.7162 26.4734 27.7745 26.4022 27.8387L23.6731 30.2964C23.4555 30.4926 23.1334 30.5434 22.8638 30.426C22.5942 30.3084 22.405 30.0447 22.405 29.7536V21.9621H14.6132C13.4511 21.9621 12.4876 22.9031 12.4876 24.0512V32.3231C12.4876 33.4713 13.4512 34.374 14.6132 34.374H25.3879C25.5735 34.374 25.747 34.4582 25.884 34.5818L28.1074 36.6072V29.6224C28.1074 29.2164 28.4404 28.8875 28.8512 28.8875C29.2621 28.8875 29.595 29.2164 29.595 29.6224V38.2729C29.595 38.564 29.4264 38.8239 29.1568 38.9414C29.0603 38.9834 28.9635 39 28.8621 39C28.6799 39 28.5002 38.9261 28.3605 38.8L25.0996 35.8437H14.6132C12.6309 35.8437 11 34.2816 11 32.323V24.0512C11 22.0926 12.6309 20.4923 14.6132 20.4923H22.405V15.5317C22.405 13.5731 24.0483 12 26.0307 12H37.4284C39.4106 12 41 13.5731 41 15.5317ZM39.5124 15.5317C39.5124 14.3836 38.5903 13.4698 37.4283 13.4698H26.0307C24.8686 13.4698 23.8926 14.3836 23.8926 15.5317V21.2341V28.0879L25.388 26.7525C25.4573 26.6901 25.5349 26.6329 25.5915 26.5813C26.2744 25.9596 26.4491 25.8602 27.3398 25.8783C27.4613 25.8808 27.606 25.8817 27.7823 25.8817H37.4283C38.5903 25.8817 39.5124 24.9518 39.5124 23.8037V15.5317Z" fill="white"/>
</svg>
