<svg width="52" height="52" viewBox="0 0 52 52" fill="none" xmlns="http://www.w3.org/2000/svg">
<g clip-path="url(#clip0)">
<path d="M48.7506 0H3.25095C1.45605 0 0.000976562 1.45507 0.000976562 3.24997V40.0831C0.000976562 41.878 1.45605 43.333 3.25095 43.333H29.2507V41.1664H3.25095C2.65265 41.1664 2.16759 40.6814 2.16759 40.0831V3.24997C2.16759 2.65167 2.65265 2.16662 3.25095 2.16662H48.7506C49.3489 2.16662 49.8339 2.65167 49.8339 3.24997V40.0831C49.8339 40.6814 49.3489 41.1664 48.7506 41.1664H46.584V43.333H48.7506C50.5455 43.333 52.0006 41.878 52.0006 40.0831V3.24997C52.0006 1.45507 50.5455 0 48.7506 0Z" fill="#5E5E5E"/>
<path d="M45.4991 10.8332C43.1059 10.8332 41.1657 8.89306 41.1657 6.49986C41.1657 5.90156 40.6807 5.4165 40.0824 5.4165H11.9161C11.3178 5.4165 10.8327 5.90156 10.8327 6.49986C10.8327 8.89306 8.89257 10.8332 6.49937 10.8332C5.90107 10.8332 5.41602 11.3183 5.41602 11.9166V31.4164C5.41602 32.0147 5.90107 32.4998 6.49937 32.4998C8.89257 32.4998 10.8327 34.4399 10.8327 36.8331C10.8327 37.4314 11.3178 37.9164 11.9161 37.9164H25.9993V35.7496H12.9094C12.4435 33.0239 10.3084 30.8889 7.58273 30.4229V12.9099C10.3084 12.444 12.4435 10.3089 12.9094 7.58322H39.0891C39.5551 10.3089 41.6901 12.444 44.4158 12.9099V21.6665H46.5824V11.9166C46.5824 11.3182 46.0974 10.8332 45.4991 10.8332Z" fill="#5E5E5E"/>
<path d="M37.9169 22.75C32.5322 22.75 28.167 27.1152 28.167 32.4999C28.167 37.8846 32.5322 42.2498 37.9169 42.2498C43.299 42.2432 47.6602 37.882 47.6668 32.4999C47.6668 27.1152 43.3016 22.75 37.9169 22.75ZM37.9169 40.0832C33.7288 40.0832 30.3336 36.6881 30.3336 32.4999C30.3336 28.3118 33.7287 24.9166 37.9169 24.9166C42.1031 24.9214 45.4954 28.3138 45.5002 32.4999C45.5001 36.688 42.105 40.0832 37.9169 40.0832Z" fill="#5E5E5E"/>
<path d="M42.2502 38.9995V48.6617L38.594 45.7367C38.1982 45.4198 37.6356 45.4198 37.2398 45.7367L33.5836 48.6617V38.9995H31.417V50.9161C31.4169 51.1623 31.5007 51.4013 31.6546 51.5936C32.0286 52.0607 32.7104 52.1361 33.1774 51.7622L37.9169 47.9706L42.6565 51.7622C42.8487 51.9158 43.0876 51.9995 43.3336 51.9994C43.9319 51.9994 44.417 51.5144 44.417 50.9161V38.9995H42.2502Z" fill="#5E5E5E"/>
<path d="M36.8328 10.833H15.1664C14.5681 10.833 14.083 11.3181 14.083 11.9164V16.2496C14.083 16.8479 14.5681 17.333 15.1664 17.333H36.8328C37.4311 17.333 37.9162 16.8479 37.9162 16.2496V11.9163C37.9162 11.318 37.4311 10.833 36.8328 10.833ZM35.7495 15.1662H16.2496V12.9996H35.7495V15.1662Z" fill="#5E5E5E"/>
<path d="M15.1666 20.583H13V22.7496H15.1666V20.583Z" fill="#5E5E5E"/>
<path d="M19.5006 20.583H17.334V22.7496H19.5006V20.583Z" fill="#5E5E5E"/>
<path d="M25.9999 24.9165H13V27.0831H25.9999V24.9165Z" fill="#5E5E5E"/>
<path d="M37.9166 27.0835C34.9251 27.0835 32.5 29.5086 32.5 32.5001C32.5 35.4916 34.9251 37.9167 37.9166 37.9167C40.9067 37.9131 43.3296 35.4901 43.3332 32.5001C43.3332 29.5086 40.9081 27.0835 37.9166 27.0835ZM37.9166 35.7501C36.1217 35.7501 34.6666 34.295 34.6666 32.5001C34.6666 30.7052 36.1217 29.2501 37.9166 29.2501C39.7115 29.2501 41.1666 30.7052 41.1666 32.5001C41.1666 34.295 39.7115 35.7501 37.9166 35.7501Z" fill="#5E5E5E"/>
<path d="M7.58361 35.7495H5.41699V37.9161H7.58361V35.7495Z" fill="#5E5E5E"/>
<path d="M46.5826 5.4165H44.416V7.58312H46.5826V5.4165Z" fill="#5E5E5E"/>
<path d="M7.58361 5.4165H5.41699V7.58312H7.58361V5.4165Z" fill="#5E5E5E"/>
</g>
<defs>
<clipPath id="clip0">
<rect width="52" height="52" fill="white"/>
</clipPath>
</defs>
</svg>
