<?xml version="1.0" encoding="UTF-8"?>
<svg xmlns="http://www.w3.org/2000/svg" xmlns:xlink="http://www.w3.org/1999/xlink" width="20pt" height="20pt" viewBox="0 0 20 20" version="1.1">
<g id="surface1">
<path style=" stroke:none;fill-rule:nonzero;fill:rgb(36.862745%,36.862745%,36.862745%);fill-opacity:1;" d="M 18.222656 0 L 1.214844 0 C 0.542969 0 0 0.542969 0 1.214844 L 0 14.984375 C 0 15.652344 0.542969 16.199219 1.214844 16.199219 L 10.933594 16.199219 L 10.933594 15.386719 L 1.214844 15.386719 C 0.992188 15.386719 0.808594 15.207031 0.808594 14.984375 L 0.808594 1.214844 C 0.808594 0.988281 0.992188 0.808594 1.214844 0.808594 L 18.222656 0.808594 C 18.445312 0.808594 18.628906 0.988281 18.628906 1.214844 L 18.628906 14.984375 C 18.628906 15.207031 18.445312 15.386719 18.222656 15.386719 L 17.414062 15.386719 L 17.414062 16.199219 L 18.222656 16.199219 C 18.894531 16.199219 19.4375 15.652344 19.4375 14.984375 L 19.4375 1.214844 C 19.4375 0.542969 18.894531 0 18.222656 0 Z M 18.222656 0 "/>
<path style=" stroke:none;fill-rule:nonzero;fill:rgb(36.862745%,36.862745%,36.862745%);fill-opacity:1;" d="M 17.007812 4.050781 C 16.113281 4.050781 15.386719 3.324219 15.386719 2.429688 C 15.386719 2.203125 15.207031 2.023438 14.984375 2.023438 L 4.453125 2.023438 C 4.234375 2.023438 4.050781 2.203125 4.050781 2.429688 C 4.050781 3.324219 3.324219 4.050781 2.429688 4.050781 C 2.203125 4.050781 2.023438 4.234375 2.023438 4.453125 L 2.023438 11.742188 C 2.023438 11.96875 2.203125 12.148438 2.429688 12.148438 C 3.324219 12.148438 4.050781 12.871094 4.050781 13.769531 C 4.050781 13.992188 4.234375 14.171875 4.453125 14.171875 L 9.71875 14.171875 L 9.71875 13.363281 L 4.824219 13.363281 C 4.652344 12.34375 3.851562 11.546875 2.835938 11.371094 L 2.835938 4.824219 C 3.851562 4.652344 4.652344 3.855469 4.824219 2.835938 L 14.609375 2.835938 C 14.785156 3.855469 15.582031 4.652344 16.601562 4.824219 L 16.601562 8.097656 L 17.414062 8.097656 L 17.414062 4.453125 C 17.414062 4.234375 17.230469 4.050781 17.007812 4.050781 Z M 17.007812 4.050781 "/>
<path style=" stroke:none;fill-rule:nonzero;fill:rgb(36.862745%,36.862745%,36.862745%);fill-opacity:1;" d="M 14.171875 8.503906 C 12.160156 8.503906 10.527344 10.136719 10.527344 12.148438 C 10.527344 14.160156 12.160156 15.792969 14.171875 15.792969 C 16.183594 15.789062 17.816406 14.160156 17.816406 12.148438 C 17.816406 10.136719 16.1875 8.503906 14.171875 8.503906 Z M 14.171875 14.984375 C 12.609375 14.984375 11.339844 13.714844 11.339844 12.148438 C 11.339844 10.582031 12.609375 9.3125 14.171875 9.3125 C 15.738281 9.316406 17.003906 10.582031 17.007812 12.148438 C 17.007812 13.714844 15.738281 14.984375 14.171875 14.984375 Z M 14.171875 14.984375 "/>
<path style=" stroke:none;fill-rule:nonzero;fill:rgb(36.862745%,36.862745%,36.862745%);fill-opacity:1;" d="M 15.792969 14.578125 L 15.792969 18.191406 L 14.425781 17.09375 C 14.277344 16.980469 14.066406 16.980469 13.921875 17.09375 L 12.554688 18.191406 L 12.554688 14.578125 L 11.742188 14.578125 L 11.742188 19.03125 C 11.742188 19.125 11.773438 19.210938 11.835938 19.285156 C 11.972656 19.460938 12.226562 19.488281 12.402344 19.351562 L 14.171875 17.929688 L 15.945312 19.351562 C 16.019531 19.40625 16.105469 19.4375 16.199219 19.4375 C 16.421875 19.4375 16.601562 19.257812 16.601562 19.03125 L 16.601562 14.578125 Z M 15.792969 14.578125 "/>
<path style=" stroke:none;fill-rule:nonzero;fill:rgb(36.862745%,36.862745%,36.862745%);fill-opacity:1;" d="M 13.769531 4.050781 L 5.667969 4.050781 C 5.445312 4.050781 5.265625 4.234375 5.265625 4.453125 L 5.265625 6.074219 C 5.265625 6.300781 5.445312 6.480469 5.667969 6.480469 L 13.769531 6.480469 C 13.992188 6.480469 14.171875 6.300781 14.171875 6.074219 L 14.171875 4.453125 C 14.171875 4.234375 13.992188 4.050781 13.769531 4.050781 Z M 13.363281 5.667969 L 6.074219 5.667969 L 6.074219 4.859375 L 13.363281 4.859375 Z M 13.363281 5.667969 "/>
<path style=" stroke:none;fill-rule:nonzero;fill:rgb(36.862745%,36.862745%,36.862745%);fill-opacity:1;" d="M 5.667969 7.695312 L 4.859375 7.695312 L 4.859375 8.503906 L 5.667969 8.503906 Z M 5.667969 7.695312 "/>
<path style=" stroke:none;fill-rule:nonzero;fill:rgb(36.862745%,36.862745%,36.862745%);fill-opacity:1;" d="M 7.289062 7.695312 L 6.480469 7.695312 L 6.480469 8.503906 L 7.289062 8.503906 Z M 7.289062 7.695312 "/>
<path style=" stroke:none;fill-rule:nonzero;fill:rgb(36.862745%,36.862745%,36.862745%);fill-opacity:1;" d="M 9.71875 9.3125 L 4.859375 9.3125 L 4.859375 10.125 L 9.71875 10.125 Z M 9.71875 9.3125 "/>
<path style=" stroke:none;fill-rule:nonzero;fill:rgb(36.862745%,36.862745%,36.862745%);fill-opacity:1;" d="M 14.171875 10.125 C 13.054688 10.125 12.148438 11.03125 12.148438 12.148438 C 12.148438 13.269531 13.054688 14.171875 14.171875 14.171875 C 15.289062 14.171875 16.195312 13.269531 16.199219 12.148438 C 16.199219 11.03125 15.289062 10.125 14.171875 10.125 Z M 14.171875 13.363281 C 13.503906 13.363281 12.957031 12.820312 12.957031 12.148438 C 12.957031 11.476562 13.503906 10.933594 14.171875 10.933594 C 14.84375 10.933594 15.386719 11.476562 15.386719 12.148438 C 15.386719 12.820312 14.84375 13.363281 14.171875 13.363281 Z M 14.171875 13.363281 "/>
<path style=" stroke:none;fill-rule:nonzero;fill:rgb(36.862745%,36.862745%,36.862745%);fill-opacity:1;" d="M 2.835938 13.363281 L 2.023438 13.363281 L 2.023438 14.171875 L 2.835938 14.171875 Z M 2.835938 13.363281 "/>
<path style=" stroke:none;fill-rule:nonzero;fill:rgb(36.862745%,36.862745%,36.862745%);fill-opacity:1;" d="M 17.414062 2.023438 L 16.601562 2.023438 L 16.601562 2.835938 L 17.414062 2.835938 Z M 17.414062 2.023438 "/>
<path style=" stroke:none;fill-rule:nonzero;fill:rgb(36.862745%,36.862745%,36.862745%);fill-opacity:1;" d="M 2.835938 2.023438 L 2.023438 2.023438 L 2.023438 2.835938 L 2.835938 2.835938 Z M 2.835938 2.023438 "/>
</g>
</svg>
