<?xml version="1.0" encoding="UTF-8"?>
<svg xmlns="http://www.w3.org/2000/svg" xmlns:xlink="http://www.w3.org/1999/xlink" width="7pt" height="15pt" viewBox="0 0 7 15" version="1.1">
<g id="surface1">
<path style=" stroke:none;fill-rule:nonzero;fill:rgb(100%,100%,100%);fill-opacity:1;" d="M 4.199219 4.582031 C 4.199219 4.582031 5.101562 4.035156 5.167969 2.992188 C 5.238281 1.949219 4.296875 1.300781 4.296875 1.300781 C 4.296875 1.300781 3.519531 1.910156 3.449219 2.976562 C 3.375 4.046875 4.199219 4.582031 4.199219 4.582031 Z M 4.199219 4.582031 "/>
<path style=" stroke:none;fill-rule:nonzero;fill:rgb(100%,100%,100%);fill-opacity:1;" d="M 2.707031 5.519531 C 2.707031 5.519531 2.863281 4.613281 1.972656 3.910156 C 1.078125 3.207031 0.0585938 3.285156 0.0585938 3.285156 C 0.0585938 3.285156 -0.0898438 4.351562 0.78125 5.035156 C 1.648438 5.722656 2.707031 5.519531 2.707031 5.519531 Z M 2.707031 5.519531 "/>
<path style=" stroke:none;fill-rule:nonzero;fill:rgb(100%,100%,100%);fill-opacity:1;" d="M 3.46875 8.347656 C 3.46875 8.347656 3.75 7.464844 2.964844 6.664062 C 2.183594 5.859375 1.160156 5.816406 1.160156 5.816406 C 1.160156 5.816406 0.859375 6.855469 1.621094 7.636719 C 2.382812 8.421875 3.46875 8.347656 3.46875 8.347656 Z M 3.46875 8.347656 "/>
<path style=" stroke:none;fill-rule:nonzero;fill:rgb(100%,100%,100%);fill-opacity:1;" d="M 0.863281 8.039062 C 0.863281 8.039062 0.457031 9.046875 1.136719 9.890625 C 1.8125 10.734375 2.898438 10.753906 2.898438 10.753906 C 2.898438 10.753906 3.269531 9.902344 2.574219 9.035156 C 1.875 8.167969 0.863281 8.039062 0.863281 8.039062 Z M 0.863281 8.039062 "/>
<path style=" stroke:none;fill-rule:nonzero;fill:rgb(100%,100%,100%);fill-opacity:1;" d="M 0.347656 12.042969 C 0.730469 13.027344 1.765625 13.328125 1.765625 13.328125 C 1.765625 13.328125 2.394531 12.609375 2 11.597656 C 1.609375 10.589844 0.675781 10.199219 0.675781 10.199219 C 0.675781 10.199219 -0.0351562 11.058594 0.347656 12.042969 Z M 0.347656 12.042969 "/>
<path style=" stroke:none;fill-rule:nonzero;fill:rgb(100%,100%,100%);fill-opacity:1;" d="M 2.265625 3.074219 C 2.265625 3.074219 2.683594 2.164062 2.105469 1.261719 C 1.527344 0.359375 0.347656 0.292969 0.347656 0.292969 C 0.347656 0.292969 0.0703125 1.191406 0.664062 2.117188 C 1.257812 3.042969 2.265625 3.074219 2.265625 3.074219 Z M 2.265625 3.074219 "/>
<path style=" stroke:none;fill-rule:nonzero;fill:rgb(100%,100%,100%);fill-opacity:1;" d="M 6.046875 3.59375 C 6.046875 3.59375 5.109375 3.96875 4.691406 4.96875 C 4.277344 5.972656 4.886719 6.703125 4.886719 6.703125 C 4.886719 6.703125 5.929688 6.421875 6.332031 5.445312 C 6.734375 4.46875 6.046875 3.59375 6.046875 3.59375 Z M 6.046875 3.59375 "/>
<path style=" stroke:none;fill-rule:nonzero;fill:rgb(100%,100%,100%);fill-opacity:1;" d="M 5.066406 7.355469 C 4.414062 8.246094 4.832031 9.085938 4.832031 9.085938 C 4.832031 9.085938 5.914062 9.019531 6.546875 8.148438 C 7.179688 7.277344 6.722656 6.289062 6.722656 6.289062 C 6.722656 6.289062 5.714844 6.460938 5.066406 7.355469 Z M 5.066406 7.355469 "/>
<path style=" stroke:none;fill-rule:nonzero;fill:rgb(100%,100%,100%);fill-opacity:1;" d="M 5.054688 9.609375 C 4.140625 10.285156 4.253906 11.195312 4.253906 11.195312 C 4.253906 11.195312 5.308594 11.429688 6.203125 10.777344 C 7.097656 10.117188 6.992188 9.050781 6.992188 9.050781 C 6.992188 9.050781 5.972656 8.9375 5.054688 9.609375 Z M 5.054688 9.609375 "/>
<path style=" stroke:none;fill-rule:nonzero;fill:rgb(100%,100%,100%);fill-opacity:1;" d="M 2.988281 13.5625 C 2.988281 13.5625 4.003906 13.914062 4.976562 13.359375 C 5.949219 12.804688 5.984375 11.730469 5.984375 11.730469 C 5.984375 11.730469 4.988281 11.507812 3.988281 12.074219 C 2.992188 12.644531 2.988281 13.5625 2.988281 13.5625 Z M 2.988281 13.5625 "/>
<path style=" stroke:none;fill-rule:nonzero;fill:rgb(100%,100%,100%);fill-opacity:1;" d="M 2.761719 3.355469 L 2.347656 3.699219 C 2.503906 3.855469 6.132812 7.609375 1.148438 14.566406 L 1.621094 14.84375 C 6.855469 7.539062 2.804688 3.394531 2.761719 3.355469 Z M 2.761719 3.355469 "/>
</g>
</svg>
