<svg width="18" height="41" viewBox="0 0 18 41" fill="none" xmlns="http://www.w3.org/2000/svg">
<path d="M10.7937 12.5271C10.7937 12.5271 13.1158 11.0303 13.2932 8.18044C13.4718 5.33278 11.053 3.55663 11.053 3.55663C11.053 3.55663 9.04898 5.21734 8.86856 8.14027C8.68084 11.0613 10.7937 12.5271 10.7937 12.5271Z" fill="white"/>
<path d="M6.9629 15.0852C6.9629 15.0852 7.35861 12.6057 5.06932 10.684C2.77538 8.76491 0.147831 8.98206 0.147831 8.98206C0.147831 8.98206 -0.234497 11.8912 2.00413 13.7634C4.23447 15.6372 6.9629 15.0852 6.9629 15.0852Z" fill="white"/>
<path d="M8.9166 22.8121C8.9166 22.8121 9.63947 20.4024 7.62836 18.2118C5.61825 16.0178 2.98283 15.9034 2.98283 15.9034C2.98283 15.9034 2.21334 18.74 4.17246 20.8789C6.12661 23.0145 8.9166 22.8121 8.9166 22.8121Z" fill="white"/>
<path d="M2.21686 21.975C2.21686 21.975 1.17227 24.731 2.91799 27.0348C4.66139 29.3398 7.45138 29.393 7.45138 29.393C7.45138 29.393 8.41089 27.0612 6.62215 24.6949C4.82511 22.3302 2.21686 21.975 2.21686 21.975Z" fill="white"/>
<path d="M0.896319 32.917C1.88227 35.6118 4.54199 36.4351 4.54199 36.4351C4.54199 36.4351 6.15287 34.4674 5.14512 31.7044C4.13372 28.9404 1.73691 27.8744 1.73691 27.8744C1.73691 27.8744 -0.0869883 30.2267 0.896319 32.917Z" fill="white"/>
<path d="M5.82948 8.40536C5.82948 8.40536 6.90092 5.91394 5.41203 3.45112C3.92282 0.982537 0.890944 0.800781 0.890944 0.800781C0.890944 0.800781 0.178964 3.25506 1.70756 5.78522C3.23747 8.31763 5.82948 8.40536 5.82948 8.40536Z" fill="white"/>
<path d="M15.5526 9.82722C15.5526 9.82722 13.1353 10.8443 12.0645 13.582C11 16.3252 12.5658 18.3237 12.5658 18.3237C12.5658 18.3237 15.2461 17.5544 16.2859 14.8842C17.3198 12.2143 15.5526 9.82722 15.5526 9.82722Z" fill="white"/>
<path d="M13.0274 20.103C11.3546 22.5446 12.4206 24.8327 12.4206 24.8327C12.4206 24.8327 15.2072 24.6559 16.8356 22.2744C18.4639 19.8929 17.287 17.1873 17.287 17.1873C17.287 17.1873 14.6952 17.6582 13.0274 20.103Z" fill="white"/>
<path d="M12.998 26.266C10.6426 28.108 10.9395 30.599 10.9395 30.599C10.9395 30.599 13.6551 31.246 15.9535 29.4532C18.2505 27.6581 17.976 24.7357 17.976 24.7357C17.976 24.7357 15.3547 24.4262 12.998 26.266Z" fill="white"/>
<path d="M7.68335 37.0738C7.68335 37.0738 10.2955 38.0303 12.7987 36.5172C15.3005 35.0019 15.3905 32.0663 15.3905 32.0663C15.3905 32.0663 12.8253 31.4555 10.2584 33.0066C7.69416 34.5622 7.68335 37.0738 7.68335 37.0738Z" fill="white"/>
<path d="M7.10303 9.16751L6.03686 10.1134C6.43917 10.5401 15.7698 20.8006 2.95782 39.8148L4.16903 40.5755C17.6251 20.6038 7.20998 9.2811 7.10303 9.16751Z" fill="white"/>
</svg>
