<svg width="17" height="37" viewBox="0 0 17 37" fill="none" xmlns="http://www.w3.org/2000/svg">
<path d="M6.56679 10.6865C6.56679 10.6865 4.45045 9.32244 4.28882 6.72512C4.12598 4.12984 6.33039 2.51111 6.33039 2.51111C6.33039 2.51111 8.15683 4.02463 8.32127 6.68851C8.49235 9.35062 6.56679 10.6865 6.56679 10.6865Z" fill="#5E5E5E"/>
<path d="M10.058 13.0179C10.058 13.0179 9.69739 10.7581 11.7838 9.0068C13.8744 7.25778 16.2691 7.45569 16.2691 7.45569C16.2691 7.45569 16.6175 10.107 14.5773 11.8133C12.5446 13.521 10.058 13.0179 10.058 13.0179Z" fill="#5E5E5E"/>
<path d="M8.27748 20.06C8.27748 20.06 7.61868 17.8638 9.45155 15.8674C11.2835 13.8678 13.6853 13.7636 13.6853 13.7636C13.6853 13.7636 14.3866 16.3488 12.6012 18.2981C10.8202 20.2445 8.27748 20.06 8.27748 20.06Z" fill="#5E5E5E"/>
<path d="M14.3834 19.297C14.3834 19.297 15.3354 21.8088 13.7444 23.9084C12.1556 26.0092 9.61284 26.0576 9.61284 26.0576C9.61284 26.0576 8.73837 23.9325 10.3686 21.7759C12.0063 19.6208 14.3834 19.297 14.3834 19.297Z" fill="#5E5E5E"/>
<path d="M15.5869 29.2693C14.6884 31.7252 12.2644 32.4756 12.2644 32.4756C12.2644 32.4756 10.7963 30.6823 11.7147 28.1641C12.6365 25.6451 14.8208 24.6736 14.8208 24.6736C14.8208 24.6736 16.4831 26.8174 15.5869 29.2693Z" fill="#5E5E5E"/>
<path d="M11.091 6.9301C11.091 6.9301 10.1145 4.65949 11.4714 2.41495C12.8287 0.165158 15.5918 -0.000488281 15.5918 -0.000488281C15.5918 -0.000488281 16.2407 2.23627 14.8476 4.54219C13.4533 6.85014 11.091 6.9301 11.091 6.9301Z" fill="#5E5E5E"/>
<path d="M2.22961 8.22594C2.22961 8.22594 4.43271 9.15286 5.40857 11.648C6.37869 14.148 4.95173 15.9694 4.95173 15.9694C4.95173 15.9694 2.50898 15.2683 1.5613 12.8347C0.619067 10.4015 2.22961 8.22594 2.22961 8.22594Z" fill="#5E5E5E"/>
<path d="M4.53104 17.591C6.0556 19.8162 5.08404 21.9015 5.08404 21.9015C5.08404 21.9015 2.54438 21.7404 1.06038 19.57C-0.423625 17.3995 0.648984 14.9337 0.648984 14.9337C0.648984 14.9337 3.01101 15.3628 4.53104 17.591Z" fill="#5E5E5E"/>
<path d="M4.5578 23.2077C6.70445 24.8865 6.43386 27.1568 6.43386 27.1568C6.43386 27.1568 3.95891 27.7463 1.86429 26.1125C-0.229119 24.4765 0.0210254 21.813 0.0210254 21.813C0.0210254 21.813 2.40995 21.531 4.5578 23.2077Z" fill="#5E5E5E"/>
<path d="M9.40143 33.0577C9.40143 33.0577 7.02081 33.9294 4.73947 32.5504C2.45934 31.1694 2.37738 28.494 2.37738 28.494C2.37738 28.494 4.71519 27.9373 7.05459 29.351C9.39158 30.7687 9.40143 33.0577 9.40143 33.0577Z" fill="#5E5E5E"/>
<path d="M9.93032 7.6247L10.902 8.48674C10.5353 8.87568 2.03167 18.2267 13.7081 35.5557L12.6043 36.249C0.340786 18.0474 9.83285 7.72822 9.93032 7.6247Z" fill="#5E5E5E"/>
</svg>
