<svg width="18" height="41" viewBox="0 0 18 41" fill="none" xmlns="http://www.w3.org/2000/svg">
<path d="M7.27066 12.5281C7.27066 12.5281 4.94852 11.0313 4.77117 8.18142C4.5925 5.33376 7.01128 3.5576 7.01128 3.5576C7.01128 3.5576 9.01534 5.21832 9.19576 8.14125C9.38348 11.0622 7.27066 12.5281 7.27066 12.5281Z" fill="white"/>
<path d="M11.1014 15.0862C11.1014 15.0862 10.7057 12.6067 12.995 10.685C15.2889 8.76588 17.9165 8.98304 17.9165 8.98304C17.9165 8.98304 18.2988 11.8921 16.0602 13.7644C13.8298 15.6382 11.1014 15.0862 11.1014 15.0862Z" fill="white"/>
<path d="M9.14772 22.8131C9.14772 22.8131 8.42485 20.4033 10.436 18.2128C12.4461 16.0187 15.0815 15.9043 15.0815 15.9043C15.0815 15.9043 15.851 18.741 13.8919 20.8799C11.9377 23.0155 9.14772 22.8131 9.14772 22.8131Z" fill="white"/>
<path d="M15.8475 21.9759C15.8475 21.9759 16.892 24.732 15.1463 27.0358C13.4029 29.3408 10.6129 29.394 10.6129 29.394C10.6129 29.394 9.65343 27.0622 11.4422 24.6959C13.2392 22.3312 15.8475 21.9759 15.8475 21.9759Z" fill="white"/>
<path d="M17.168 32.918C16.182 35.6127 13.5223 36.436 13.5223 36.436C13.5223 36.436 11.9115 34.4684 12.9192 31.7054C13.9306 28.9413 16.3274 27.8754 16.3274 27.8754C16.3274 27.8754 18.1513 30.2277 17.168 32.918Z" fill="white"/>
<path d="M12.2348 8.40633C12.2348 8.40633 11.1634 5.91491 12.6523 3.4521C14.1415 0.983513 17.1734 0.801758 17.1734 0.801758C17.1734 0.801758 17.8854 3.25604 16.3568 5.7862C14.8268 8.3186 12.2348 8.40633 12.2348 8.40633Z" fill="white"/>
<path d="M2.5117 9.82819C2.5117 9.82819 4.92906 10.8453 5.99981 13.583C7.06428 16.3262 5.49854 18.3247 5.49854 18.3247C5.49854 18.3247 2.81824 17.5554 1.77841 14.8852C0.744537 12.2153 2.5117 9.82819 2.5117 9.82819Z" fill="white"/>
<path d="M5.03694 20.104C6.70977 22.5456 5.64372 24.8337 5.64372 24.8337C5.64372 24.8337 2.85708 24.6569 1.22876 22.2754C-0.399555 19.8939 0.777364 17.1882 0.777364 17.1882C0.777364 17.1882 3.36909 17.6591 5.03694 20.104Z" fill="white"/>
<path d="M5.06631 26.2669C7.42171 28.109 7.12481 30.6 7.12481 30.6C7.12481 30.6 4.40917 31.2469 2.11086 29.4541C-0.186134 27.6591 0.0883367 24.7366 0.0883367 24.7366C0.0883367 24.7366 2.70958 24.4272 5.06631 26.2669Z" fill="white"/>
<path d="M10.381 37.0748C10.381 37.0748 7.76884 38.0313 5.26564 36.5182C2.76377 35.0029 2.67384 32.0673 2.67384 32.0673C2.67384 32.0673 5.239 31.4565 7.8059 33.0076C10.3702 34.5632 10.381 37.0748 10.381 37.0748Z" fill="white"/>
<path d="M10.9613 9.16848L12.0275 10.1144C11.6252 10.5411 2.29451 20.8016 15.1065 39.8157L13.8953 40.5765C0.439194 20.6048 10.8543 9.28207 10.9613 9.16848Z" fill="white"/>
</svg>
