<svg width="17" height="37" viewBox="0 0 17 37" fill="none" xmlns="http://www.w3.org/2000/svg">
<path d="M10.4339 10.6865C10.4339 10.6865 12.5502 9.32244 12.7118 6.72512C12.8747 4.12984 10.6703 2.51111 10.6703 2.51111C10.6703 2.51111 8.84382 4.02463 8.67938 6.68851C8.5083 9.35062 10.4339 10.6865 10.4339 10.6865Z" fill="#5E5E5E"/>
<path d="M6.94263 13.0179C6.94263 13.0179 7.30327 10.7581 5.21687 9.0068C3.12624 7.25778 0.731572 7.45569 0.731572 7.45569C0.731572 7.45569 0.383129 10.107 2.42335 11.8133C4.45602 13.521 6.94263 13.0179 6.94263 13.0179Z" fill="#5E5E5E"/>
<path d="M8.72317 20.06C8.72317 20.06 9.38197 17.8638 7.5491 15.8674C5.71715 13.8678 3.31531 13.7636 3.31531 13.7636C3.31531 13.7636 2.61401 16.3488 4.3995 18.2981C6.18045 20.2445 8.72317 20.06 8.72317 20.06Z" fill="#5E5E5E"/>
<path d="M2.61722 19.297C2.61722 19.297 1.66522 21.8088 3.25622 23.9084C4.8451 26.0092 7.38782 26.0576 7.38782 26.0576C7.38782 26.0576 8.26228 23.9325 6.63207 21.7759C4.99431 19.6208 2.61722 19.297 2.61722 19.297Z" fill="#5E5E5E"/>
<path d="M1.41372 29.2693C2.31229 31.7252 4.73627 32.4756 4.73627 32.4756C4.73627 32.4756 6.20439 30.6823 5.28595 28.1641C4.36419 25.6451 2.17981 24.6736 2.17981 24.6736C2.17981 24.6736 0.517564 26.8174 1.41372 29.2693Z" fill="#5E5E5E"/>
<path d="M5.90966 6.9301C5.90966 6.9301 6.88614 4.65949 5.52921 2.41495C4.17198 0.165158 1.40882 -0.000488281 1.40882 -0.000488281C1.40882 -0.000488281 0.759946 2.23627 2.15306 4.54219C3.54738 6.85014 5.90966 6.9301 5.90966 6.9301Z" fill="#5E5E5E"/>
<path d="M14.771 8.22594C14.771 8.22594 12.5679 9.15286 11.5921 11.648C10.622 14.148 12.0489 15.9694 12.0489 15.9694C12.0489 15.9694 14.4917 15.2683 15.4393 12.8347C16.3816 10.4015 14.771 8.22594 14.771 8.22594Z" fill="#5E5E5E"/>
<path d="M12.4696 17.591C10.945 19.8162 11.9166 21.9015 11.9166 21.9015C11.9166 21.9015 14.4563 21.7404 15.9403 19.57C17.4243 17.3995 16.3517 14.9337 16.3517 14.9337C16.3517 14.9337 13.9896 15.3628 12.4696 17.591Z" fill="#5E5E5E"/>
<path d="M12.4429 23.2077C10.2962 24.8865 10.5668 27.1568 10.5668 27.1568C10.5668 27.1568 13.0417 27.7463 15.1364 26.1125C17.2298 24.4765 16.9796 21.813 16.9796 21.813C16.9796 21.813 14.5907 21.531 12.4429 23.2077Z" fill="#5E5E5E"/>
<path d="M7.59923 33.0577C7.59923 33.0577 9.97984 33.9294 12.2612 32.5504C14.5413 31.1694 14.6233 28.494 14.6233 28.494C14.6233 28.494 12.2855 27.9373 9.94606 29.351C7.60908 30.7687 7.59923 33.0577 7.59923 33.0577Z" fill="#5E5E5E"/>
<path d="M7.07033 7.6247L6.09866 8.48674C6.46531 8.87568 14.969 18.2267 3.29251 35.5557L4.39638 36.249C16.6599 18.0474 7.16781 7.72822 7.07033 7.6247Z" fill="#5E5E5E"/>
</svg>
