<?xml version="1.0" encoding="UTF-8"?>
<svg xmlns="http://www.w3.org/2000/svg" xmlns:xlink="http://www.w3.org/1999/xlink" width="7pt" height="15pt" viewBox="0 0 7 15" version="1.1">
<g id="surface1">
<path style=" stroke:none;fill-rule:nonzero;fill:rgb(100%,100%,100%);fill-opacity:1;" d="M 2.828125 4.582031 C 2.828125 4.582031 1.925781 4.035156 1.855469 2.992188 C 1.785156 1.953125 2.726562 1.300781 2.726562 1.300781 C 2.726562 1.300781 3.507812 1.910156 3.574219 2.976562 C 3.648438 4.046875 2.828125 4.582031 2.828125 4.582031 Z M 2.828125 4.582031 "/>
<path style=" stroke:none;fill-rule:nonzero;fill:rgb(100%,100%,100%);fill-opacity:1;" d="M 4.316406 5.519531 C 4.316406 5.519531 4.164062 4.613281 5.054688 3.910156 C 5.945312 3.207031 6.96875 3.285156 6.96875 3.285156 C 6.96875 3.285156 7.117188 4.351562 6.246094 5.035156 C 5.378906 5.722656 4.316406 5.519531 4.316406 5.519531 Z M 4.316406 5.519531 "/>
<path style=" stroke:none;fill-rule:nonzero;fill:rgb(100%,100%,100%);fill-opacity:1;" d="M 3.558594 8.347656 C 3.558594 8.347656 3.277344 7.464844 4.058594 6.664062 C 4.839844 5.859375 5.863281 5.820312 5.863281 5.820312 C 5.863281 5.820312 6.164062 6.855469 5.402344 7.640625 C 4.640625 8.421875 3.558594 8.347656 3.558594 8.347656 Z M 3.558594 8.347656 "/>
<path style=" stroke:none;fill-rule:nonzero;fill:rgb(100%,100%,100%);fill-opacity:1;" d="M 6.164062 8.039062 C 6.164062 8.039062 6.570312 9.046875 5.890625 9.890625 C 5.210938 10.734375 4.128906 10.753906 4.128906 10.753906 C 4.128906 10.753906 3.753906 9.902344 4.449219 9.035156 C 5.148438 8.171875 6.164062 8.039062 6.164062 8.039062 Z M 6.164062 8.039062 "/>
<path style=" stroke:none;fill-rule:nonzero;fill:rgb(100%,100%,100%);fill-opacity:1;" d="M 6.675781 12.042969 C 6.292969 13.027344 5.257812 13.332031 5.257812 13.332031 C 5.257812 13.332031 4.632812 12.609375 5.023438 11.597656 C 5.417969 10.589844 6.347656 10.199219 6.347656 10.199219 C 6.347656 10.199219 7.058594 11.058594 6.675781 12.042969 Z M 6.675781 12.042969 "/>
<path style=" stroke:none;fill-rule:nonzero;fill:rgb(100%,100%,100%);fill-opacity:1;" d="M 4.757812 3.074219 C 4.757812 3.074219 4.339844 2.164062 4.921875 1.261719 C 5.5 0.359375 6.679688 0.292969 6.679688 0.292969 C 6.679688 0.292969 6.957031 1.191406 6.359375 2.117188 C 5.765625 3.042969 4.757812 3.074219 4.757812 3.074219 Z M 4.757812 3.074219 "/>
<path style=" stroke:none;fill-rule:nonzero;fill:rgb(100%,100%,100%);fill-opacity:1;" d="M 0.976562 3.59375 C 0.976562 3.59375 1.917969 3.96875 2.332031 4.96875 C 2.746094 5.972656 2.136719 6.703125 2.136719 6.703125 C 2.136719 6.703125 1.097656 6.421875 0.691406 5.445312 C 0.289062 4.46875 0.976562 3.59375 0.976562 3.59375 Z M 0.976562 3.59375 "/>
<path style=" stroke:none;fill-rule:nonzero;fill:rgb(100%,100%,100%);fill-opacity:1;" d="M 1.957031 7.355469 C 2.609375 8.25 2.195312 9.085938 2.195312 9.085938 C 2.195312 9.085938 1.109375 9.019531 0.476562 8.148438 C -0.15625 7.277344 0.300781 6.289062 0.300781 6.289062 C 0.300781 6.289062 1.308594 6.460938 1.957031 7.355469 Z M 1.957031 7.355469 "/>
<path style=" stroke:none;fill-rule:nonzero;fill:rgb(100%,100%,100%);fill-opacity:1;" d="M 1.96875 9.609375 C 2.886719 10.285156 2.769531 11.195312 2.769531 11.195312 C 2.769531 11.195312 1.714844 11.433594 0.820312 10.777344 C -0.0742188 10.121094 0.0351562 9.050781 0.0351562 9.050781 C 0.0351562 9.050781 1.054688 8.9375 1.96875 9.609375 Z M 1.96875 9.609375 "/>
<path style=" stroke:none;fill-rule:nonzero;fill:rgb(100%,100%,100%);fill-opacity:1;" d="M 4.035156 13.5625 C 4.035156 13.5625 3.019531 13.914062 2.046875 13.359375 C 1.074219 12.804688 1.039062 11.730469 1.039062 11.730469 C 1.039062 11.730469 2.039062 11.507812 3.035156 12.074219 C 4.03125 12.644531 4.035156 13.5625 4.035156 13.5625 Z M 4.035156 13.5625 "/>
<path style=" stroke:none;fill-rule:nonzero;fill:rgb(100%,100%,100%);fill-opacity:1;" d="M 4.261719 3.355469 L 4.675781 3.699219 C 4.519531 3.855469 0.890625 7.609375 5.875 14.566406 L 5.402344 14.84375 C 0.171875 7.539062 4.222656 3.394531 4.261719 3.355469 Z M 4.261719 3.355469 "/>
</g>
</svg>
