<svg width="18" height="21" viewBox="0 0 18 21" fill="none" xmlns="http://www.w3.org/2000/svg">
<g clip-path="url(#clip0)">
<path d="M13.6577 0H4.34239C3.71401 0 3.20284 0.596407 3.20284 1.32952V19.6705C3.20284 20.4036 3.71405 21 4.34243 21H13.6577C14.2861 21 14.7973 20.4036 14.7973 19.6705V1.32952C14.7973 0.596407 14.2861 0 13.6577 0ZM3.77389 3.34162H14.2263V17.2297H3.77389V3.34162ZM4.34239 0.666228H13.6577C13.9712 0.666228 14.2263 0.963766 14.2263 1.32952V2.89747H3.77389V1.32952C3.77389 0.963766 4.02892 0.666228 4.34239 0.666228ZM13.6577 20.3338H4.34239C4.02892 20.3338 3.77385 20.0362 3.77385 19.6705V17.6738H14.2262V19.6705C14.2262 20.0362 13.9712 20.3338 13.6577 20.3338Z" fill="#E52525"/>
<path d="M9.0001 17.9683C8.48444 17.9683 8.06494 18.4577 8.06494 19.0593C8.06494 19.6609 8.48447 20.1503 9.0001 20.1503C9.51572 20.1503 9.93526 19.6609 9.93526 19.0593C9.93526 18.4578 9.51576 17.9683 9.0001 17.9683ZM9.0001 19.7062C8.69435 19.7062 8.44564 19.416 8.44564 19.0593C8.44564 18.7026 8.69435 18.4124 9.0001 18.4124C9.30584 18.4124 9.55455 18.7026 9.55455 19.0593C9.55455 19.416 9.30584 19.7062 9.0001 19.7062Z" fill="#E52525"/>
<path d="M7.70569 2.11652H10.2945C10.3996 2.11652 10.4848 2.01707 10.4848 1.89444C10.4848 1.77181 10.3996 1.67236 10.2945 1.67236H7.70569C7.60054 1.67236 7.51534 1.77181 7.51534 1.89444C7.51534 2.01707 7.60054 2.11652 7.70569 2.11652Z" fill="#E52525"/>
<path d="M7.02048 2.11652C7.07035 2.11652 7.11946 2.09298 7.15487 2.05167C7.19027 2.00992 7.21083 1.95307 7.21083 1.89444C7.21083 1.83581 7.19027 1.77896 7.15487 1.73721C7.11942 1.6959 7.07031 1.67236 7.02048 1.67236C6.97023 1.67236 6.92146 1.6959 6.88571 1.73721C6.85031 1.77852 6.83013 1.83581 6.83013 1.89444C6.83013 1.95307 6.85031 2.00992 6.88571 2.05167C6.92112 2.09298 6.97023 2.11652 7.02048 2.11652Z" fill="#E52525"/>
</g>
<defs>
<clipPath id="clip0">
<rect width="18" height="21" fill="white"/>
</clipPath>
</defs>
</svg>
