<svg width="27" height="20" viewBox="0 0 27 20" fill="none" xmlns="http://www.w3.org/2000/svg">
<path d="M24.643 1.25H1.528C1.37459 1.25 1.25018 1.37441 1.25018 1.52782V15.6131C1.25018 15.7665 1.37459 15.8909 1.528 15.8909H24.643C24.7964 15.8909 24.9208 15.7665 24.9208 15.6131V1.52782C24.9208 1.37435 24.7964 1.25 24.643 1.25ZM24.3651 15.3353H1.80583V1.80565H24.3651V15.3353Z" fill="#E52525"/>
<path d="M24.9517 0H1.21943C0.547036 0 0 0.547036 0 1.21937V15.9219C0 16.5943 0.547036 17.1413 1.21943 17.1413H9.46208L9.02256 18.2057H7.25715C7.027 18.2057 6.84042 18.3923 6.84042 18.6224C6.84042 18.8526 7.027 19.0392 7.25715 19.0392H18.9141C19.1443 19.0392 19.3308 18.8526 19.3308 18.6224C19.3308 18.3923 19.1443 18.2057 18.9141 18.2057H17.1487L16.7091 17.1413H24.9518C25.6242 17.1413 26.1711 16.5943 26.1711 15.9219V1.21937C26.171 0.547036 25.624 0 24.9517 0ZM16.2468 18.2058H9.92421L10.3638 17.1414H15.8073L16.2468 18.2058ZM25.3376 15.922C25.3376 16.1348 25.1645 16.3079 24.9517 16.3079H1.21943C1.00661 16.3079 0.833472 16.1347 0.833472 15.922V1.21937C0.833472 1.00656 1.00661 0.833417 1.21943 0.833417H24.9517C25.1645 0.833417 25.3376 1.00656 25.3376 1.21937V15.922Z" fill="#E52525"/>
</svg>
