<svg width="23" height="21" viewBox="0 0 23 21" fill="none" xmlns="http://www.w3.org/2000/svg">
<path d="M19.3085 0H3.69154C2.94141 0 2.3311 0.557236 2.3311 1.24213V19.7579C2.3311 20.4428 2.94136 21 3.69154 21H19.3085C20.0586 21 20.6689 20.4428 20.6689 19.7579V1.24213C20.6689 0.557236 20.0586 0 19.3085 0ZM19.8919 19.7579C19.8919 20.0515 19.6301 20.2905 19.3085 20.2905H3.69154C3.36988 20.2905 3.10817 20.0515 3.10817 19.7579V1.24213C3.10817 0.94845 3.36988 0.709493 3.69154 0.709493H19.3085C19.6301 0.709493 19.8919 0.94845 19.8919 1.24213V19.7579Z" fill="#E52525"/>
<path d="M19.1149 2.26611H3.88525C3.74222 2.26611 3.62623 2.37202 3.62623 2.50261V18.4976C3.62623 18.6282 3.74222 18.7341 3.88525 18.7341H19.1149C19.258 18.7341 19.3739 18.6282 19.3739 18.4976V2.50261C19.3739 2.37197 19.258 2.26611 19.1149 2.26611ZM18.8559 18.2611H4.14427V2.73911H18.8559V18.2611Z" fill="#E52525"/>
<path d="M11.5003 19.2261C11.3977 19.2261 11.2977 19.2639 11.2252 19.3301C11.1532 19.3959 11.1117 19.4876 11.1117 19.5808C11.1117 19.674 11.1532 19.7658 11.2252 19.8315C11.2977 19.8977 11.3977 19.9356 11.5003 19.9356C11.6023 19.9356 11.7028 19.8977 11.7748 19.8315C11.8474 19.7658 11.8888 19.674 11.8888 19.5808C11.8888 19.4876 11.8474 19.3959 11.7748 19.3301C11.7023 19.2639 11.6023 19.2261 11.5003 19.2261Z" fill="#E52525"/>
<path d="M11.5002 1.76157C11.5681 1.76157 11.6349 1.7365 11.6831 1.69251C11.7312 1.64852 11.7592 1.58751 11.7592 1.52507C11.7592 1.46264 11.7312 1.40209 11.6831 1.35763C11.6349 1.31364 11.5681 1.28857 11.5002 1.28857C11.4318 1.28857 11.365 1.31364 11.3168 1.35763C11.2686 1.40162 11.2412 1.46264 11.2412 1.52507C11.2412 1.58751 11.2686 1.64852 11.3168 1.69251C11.365 1.7365 11.4318 1.76157 11.5002 1.76157Z" fill="#E52525"/>
</svg>
