<svg width="20" height="21" viewBox="0 0 20 21" fill="none" xmlns="http://www.w3.org/2000/svg">
<g clip-path="url(#clip0)">
<path d="M15.1753 0H4.82489C4.12668 0 3.55871 0.596407 3.55871 1.32952V19.6705C3.55871 20.4036 4.12672 21 4.82493 21H15.1753C15.8735 21 16.4415 20.4036 16.4415 19.6705V1.32952C16.4415 0.596407 15.8735 0 15.1753 0ZM4.19322 3.34162H15.807V17.2297H4.19322V3.34162ZM4.82489 0.666228H15.1753C15.5236 0.666228 15.807 0.963766 15.807 1.32952V2.89747H4.19322V1.32952C4.19322 0.963766 4.47659 0.666228 4.82489 0.666228ZM15.1753 20.3338H4.82489C4.47659 20.3338 4.19318 20.0362 4.19318 19.6705V17.6738H15.8069V19.6705C15.8069 20.0362 15.5236 20.3338 15.1753 20.3338Z" fill="#E52525"/>
<path d="M10.0001 17.9683C9.42718 17.9683 8.96107 18.4577 8.96107 19.0593C8.96107 19.6609 9.42722 20.1503 10.0001 20.1503C10.5731 20.1503 11.0392 19.6609 11.0392 19.0593C11.0392 18.4578 10.5731 17.9683 10.0001 17.9683ZM10.0001 19.7062C9.66043 19.7062 9.38408 19.416 9.38408 19.0593C9.38408 18.7026 9.66043 18.4124 10.0001 18.4124C10.3399 18.4124 10.6162 18.7026 10.6162 19.0593C10.6162 19.416 10.3399 19.7062 10.0001 19.7062Z" fill="#E52525"/>
<path d="M8.56191 2.11652H11.4383C11.5551 2.11652 11.6498 2.01707 11.6498 1.89444C11.6498 1.77181 11.5551 1.67236 11.4383 1.67236H8.56191C8.44507 1.67236 8.3504 1.77181 8.3504 1.89444C8.3504 2.01707 8.44507 2.11652 8.56191 2.11652Z" fill="#E52525"/>
<path d="M7.80052 2.11652C7.85594 2.11652 7.9105 2.09298 7.94984 2.05167C7.98918 2.00992 8.01203 1.95307 8.01203 1.89444C8.01203 1.83581 7.98918 1.77896 7.94984 1.73721C7.91046 1.6959 7.8559 1.67236 7.80052 1.67236C7.74469 1.67236 7.6905 1.6959 7.65078 1.73721C7.61144 1.77852 7.58902 1.83581 7.58902 1.89444C7.58902 1.95307 7.61144 2.00992 7.65078 2.05167C7.69012 2.09298 7.74469 2.11652 7.80052 2.11652Z" fill="#E52525"/>
</g>
<defs>
<clipPath id="clip0">
<rect width="20" height="21" fill="white"/>
</clipPath>
</defs>
</svg>
