<svg width="50" height="50" viewBox="0 0 50 50" fill="none" xmlns="http://www.w3.org/2000/svg">
<path fill-rule="evenodd" clip-rule="evenodd" d="M25 48C37.7025 48 48 37.7025 48 25C48 12.2975 37.7025 2 25 2C12.2975 2 2 12.2975 2 25C2 37.7025 12.2975 48 25 48ZM25 50C38.8071 50 50 38.8071 50 25C50 11.1929 38.8071 0 25 0C11.1929 0 0 11.1929 0 25C0 38.8071 11.1929 50 25 50Z" fill="white"/>
<path d="M32.5593 28.106C32.0262 27.5518 31.3833 27.2555 30.7018 27.2555C30.0259 27.2555 29.3774 27.5463 28.8224 28.1005L27.0858 29.8291C26.9429 29.7523 26.8 29.6809 26.6626 29.6096C26.4648 29.5108 26.2779 29.4175 26.1186 29.3188C24.4919 28.2871 23.0136 26.9427 21.5958 25.2032C20.9088 24.3361 20.4472 23.6063 20.112 22.8655C20.5626 22.4539 20.9803 22.0259 21.3869 21.6143C21.5408 21.4607 21.6947 21.3016 21.8486 21.1479C23.0026 19.9955 23.0026 18.503 21.8486 17.3506L20.3483 15.8525C20.1779 15.6824 20.0021 15.5068 19.8372 15.3312C19.5075 14.991 19.1613 14.6398 18.8041 14.3105C18.271 13.7837 17.6335 13.5039 16.9631 13.5039C16.2926 13.5039 15.6441 13.7837 15.0946 14.3105C15.0891 14.316 15.0891 14.316 15.0836 14.3215L13.2151 16.2037C12.5117 16.9061 12.1105 17.7621 12.0226 18.7554C11.8907 20.3577 12.3633 21.8503 12.726 22.8271C13.6163 25.2251 14.9462 27.4475 16.9301 29.8291C19.3371 32.699 22.2332 34.9654 25.5415 36.5622C26.8055 37.1603 28.4926 37.8682 30.3776 37.9889C30.493 37.9944 30.6139 37.9999 30.7238 37.9999C31.9933 37.9999 33.0594 37.5445 33.8947 36.639C33.9002 36.6281 33.9112 36.6226 33.9167 36.6116C34.2024 36.2659 34.5322 35.9531 34.8784 35.6184C35.1147 35.3934 35.3565 35.1574 35.5928 34.9105C36.1369 34.3453 36.4226 33.6868 36.4226 33.0118C36.4226 32.3314 36.1314 31.6784 35.5763 31.1296L32.5593 28.106ZM34.5267 33.8843C34.5212 33.8843 34.5212 33.8898 34.5267 33.8843C34.3124 34.1148 34.0925 34.3233 33.8562 34.5538C33.499 34.894 33.1363 35.2507 32.7956 35.6513C32.2406 36.2439 31.5866 36.5238 30.7293 36.5238C30.6469 36.5238 30.5589 36.5238 30.4765 36.5183C28.8443 36.414 27.3276 35.7775 26.19 35.2342C23.0796 33.7307 20.3483 31.5961 18.0787 28.8907C16.2047 26.6354 14.9517 24.5501 14.1219 22.3113C13.6108 20.9449 13.424 19.8803 13.5064 18.8761C13.5614 18.2341 13.8087 17.7018 14.2648 17.2463L16.1387 15.3751C16.408 15.1227 16.6938 14.9855 16.9741 14.9855C17.3203 14.9855 17.6005 15.194 17.7764 15.3696C17.7819 15.3751 17.7874 15.3806 17.7929 15.3861C18.1281 15.6989 18.4469 16.0226 18.7821 16.3683C18.9524 16.5439 19.1283 16.7195 19.3041 16.9006L20.8044 18.3987C21.3869 18.9804 21.3869 19.5181 20.8044 20.0998C20.6451 20.2589 20.4912 20.4181 20.3318 20.5717C19.8702 21.0437 19.4305 21.4827 18.9524 21.9107C18.9414 21.9216 18.9305 21.9271 18.925 21.9381C18.4523 22.41 18.5403 22.871 18.6392 23.1838C18.6447 23.2002 18.6502 23.2167 18.6557 23.2332C19.0459 24.177 19.5954 25.066 20.4307 26.125L20.4362 26.1305C21.953 27.9963 23.5522 29.4505 25.3162 30.5644C25.5415 30.7071 25.7724 30.8223 25.9922 30.9321C26.19 31.0308 26.3769 31.1241 26.5362 31.2229C26.5582 31.2339 26.5802 31.2503 26.6022 31.2613C26.789 31.3546 26.9649 31.3985 27.1462 31.3985C27.6024 31.3985 27.8881 31.1132 27.9815 31.0199L29.861 29.1432C30.0478 28.9566 30.3446 28.7316 30.6908 28.7316C31.0315 28.7316 31.3118 28.9456 31.4822 29.1322C31.4877 29.1377 31.4877 29.1377 31.4932 29.1432L34.5212 32.1667C35.0872 32.7265 35.0872 33.3027 34.5267 33.8843Z" fill="white"/>
<path d="M26.0521 18.1849C27.4919 18.4263 28.7998 19.1068 29.844 20.1494C30.8881 21.192 31.5641 22.498 31.8114 23.9357C31.8718 24.2979 32.1851 24.5503 32.5423 24.5503C32.5862 24.5503 32.6247 24.5448 32.6687 24.5394C33.0753 24.4735 33.3446 24.0894 33.2787 23.6833C32.9819 21.9438 32.1576 20.3579 30.8991 19.1013C29.6406 17.8446 28.0524 17.0215 26.3104 16.7252C25.9037 16.6594 25.5245 16.9282 25.4531 17.3288C25.3816 17.7294 25.6454 18.119 26.0521 18.1849Z" fill="white"/>
<path d="M37.9887 23.4691C37.4996 20.6047 36.1477 17.9981 34.0704 15.9239C31.9931 13.8496 29.3827 12.4997 26.5141 12.0113C26.1129 11.94 25.7337 12.2143 25.6623 12.6149C25.5963 13.021 25.8656 13.3996 26.2723 13.471C28.8332 13.9045 31.1688 15.1172 33.0262 16.9665C34.8837 18.8212 36.0927 21.1534 36.5269 23.7106C36.5873 24.0727 36.9006 24.3252 37.2578 24.3252C37.3017 24.3252 37.3402 24.3197 37.3842 24.3142C37.7853 24.2538 38.0601 23.8697 37.9887 23.4691Z" fill="white"/>
</svg>
