<svg width="70" height="70" viewBox="0 0 70 70" fill="none" xmlns="http://www.w3.org/2000/svg">
<path d="M70 0H0V70H70V0Z" fill="#E52525"/>
<path d="M35.0005 31.1114C42.3984 31.1114 48.3956 25.1142 48.3956 17.7164C48.3956 10.3185 42.3984 4.32129 35.0005 4.32129C27.6026 4.32129 21.6055 10.3185 21.6055 17.7164C21.6055 25.1142 27.6026 31.1114 35.0005 31.1114Z" fill="white"/>
<path d="M8.64209 25.9813H14.7408C14.7408 25.9813 20.8325 39.2232 35.3724 39.2232C50.3766 39.2232 55.3639 25.9258 55.3639 25.9258L62.2223 26.0437V44.1343H44.4537L44.3974 61.3579L26.2278 61.3024L26.1716 43.9609L8.69837 43.9054L8.64209 25.9813Z" fill="white"/>
</svg>
