<svg width="43" height="53" viewBox="0 0 43 53" fill="none" xmlns="http://www.w3.org/2000/svg">
<path d="M39.4939 0H3.50698C1.77843 0 0.37207 1.40636 0.37207 3.13491V49.8651C0.37207 51.5936 1.77831 53 3.50698 53H39.4939C41.2224 53 42.6288 51.5936 42.6288 49.8651V3.13491C42.6288 1.40636 41.2224 0 39.4939 0ZM40.8382 49.8651C40.8382 50.6063 40.2351 51.2094 39.4939 51.2094H3.50698C2.76578 51.2094 2.1627 50.6063 2.1627 49.8651V3.13491C2.1627 2.39371 2.76578 1.79063 3.50698 1.79063H39.4939C40.2351 1.79063 40.8382 2.39371 40.8382 3.13491V49.8651Z" fill="#E52525"/>
<path d="M39.0478 5.71875H3.95332C3.62373 5.71875 3.35645 5.98603 3.35645 6.31563V46.6838C3.35645 47.0134 3.62373 47.2807 3.95332 47.2807H39.0478C39.3774 47.2807 39.6447 47.0134 39.6447 46.6838V6.31563C39.6447 5.98591 39.3774 5.71875 39.0478 5.71875ZM38.4509 46.087H4.5502V6.9125H38.4509V46.087Z" fill="#E52525"/>
<path d="M21.5008 48.5232C21.2644 48.5232 21.034 48.6187 20.8669 48.7858C20.701 48.9518 20.6055 49.1833 20.6055 49.4185C20.6055 49.6537 20.701 49.8853 20.8669 50.0512C21.034 50.2183 21.2644 50.3138 21.5008 50.3138C21.7359 50.3138 21.9675 50.2183 22.1335 50.0512C22.3006 49.8853 22.3961 49.6537 22.3961 49.4185C22.3961 49.1833 22.3006 48.9518 22.1335 48.7858C21.9663 48.6187 21.7359 48.5232 21.5008 48.5232Z" fill="#E52525"/>
<path d="M21.5012 4.44619C21.6576 4.44619 21.8115 4.38292 21.9226 4.2719C22.0336 4.16089 22.098 4.00689 22.098 3.84932C22.098 3.69174 22.0336 3.53894 21.9226 3.42673C21.8115 3.31571 21.6576 3.25244 21.5012 3.25244C21.3436 3.25244 21.1896 3.31571 21.0786 3.42673C20.9676 3.53775 20.9043 3.69174 20.9043 3.84932C20.9043 4.00689 20.9676 4.16089 21.0786 4.2719C21.1896 4.38292 21.3436 4.44619 21.5012 4.44619Z" fill="#E52525"/>
</svg>
