<svg width="62" height="46" viewBox="0 0 62 46" fill="none" xmlns="http://www.w3.org/2000/svg">
<path d="M58.3802 3.40967H3.62009C3.25664 3.40967 2.96191 3.7044 2.96191 4.06784V37.4364C2.96191 37.7998 3.25664 38.0945 3.62009 38.0945H58.3802C58.7438 38.0945 59.0384 37.7998 59.0384 37.4364V4.06784C59.0384 3.70427 58.7438 3.40967 58.3802 3.40967ZM57.722 36.7782H4.27826V4.72602H57.722V36.7782Z" fill="#E52525"/>
<path d="M59.1113 0.447998H2.88886C1.29594 0.447998 0 1.74394 0 3.33672V38.1676C0 39.7605 1.29594 41.0563 2.88886 41.0563H22.416L21.3747 43.5779H17.1924C16.6472 43.5779 16.2052 44.0199 16.2052 44.5652C16.2052 45.1104 16.6472 45.5524 17.1924 45.5524H44.8081C45.3535 45.5524 45.7954 45.1104 45.7954 44.5652C45.7954 44.0199 45.3535 43.5779 44.8081 43.5779H40.6258L39.5844 41.0563H59.1115C60.7044 41.0563 62.0003 39.7603 62.0003 38.1676V3.33672C62 1.74394 60.7042 0.447998 59.1113 0.447998ZM38.4892 43.578H23.5108L24.5521 41.0564H37.448L38.4892 43.578ZM60.0255 38.1677C60.0255 38.6719 59.6154 39.0819 59.1113 39.0819H2.88886C2.3847 39.0819 1.97452 38.6717 1.97452 38.1677V3.33672C1.97452 2.83256 2.3847 2.42239 2.88886 2.42239H59.1113C59.6154 2.42239 60.0255 2.83256 60.0255 3.33672V38.1677Z" fill="#E52525"/>
</svg>
