<svg width="29" height="49" viewBox="0 0 29 49" fill="none" xmlns="http://www.w3.org/2000/svg">
<path d="M26.1441 0H2.85572C1.28476 0 0.00683594 1.39162 0.00683594 3.10223V45.8979C0.00683594 47.6084 1.28485 49.0001 2.85582 49.0001H26.1441C27.7151 49.0001 28.9931 47.6085 28.9931 45.8979V3.10223C28.993 1.39162 27.7151 0 26.1441 0ZM1.43447 7.79712H27.5655V40.2026H1.43447V7.79712ZM2.85572 1.55453H26.1441C26.9278 1.55453 27.5655 2.24879 27.5655 3.10223V6.76077H1.43447V3.10223C1.43447 2.24879 2.07205 1.55453 2.85572 1.55453ZM26.1441 47.4455H2.85572C2.07205 47.4455 1.43437 46.7512 1.43437 45.8978V41.2388H27.5654V45.8978C27.5654 46.7512 26.9278 47.4455 26.1441 47.4455Z" fill="#E52525"/>
<path d="M14.5 41.926C13.2109 41.926 12.1621 43.0681 12.1621 44.4718C12.1621 45.8756 13.2109 47.0175 14.5 47.0175C15.7891 47.0175 16.8379 45.8755 16.8379 44.4718C16.8379 43.0682 15.7892 41.926 14.5 41.926ZM14.5 45.9812C13.7356 45.9812 13.1139 45.304 13.1139 44.4718C13.1139 43.6395 13.7356 42.9624 14.5 42.9624C15.2644 42.9624 15.8861 43.6395 15.8861 44.4718C15.8861 45.304 15.2644 45.9812 14.5 45.9812Z" fill="#E52525"/>
<path d="M11.264 4.93821H17.7359C17.9988 4.93821 18.2118 4.70617 18.2118 4.42003C18.2118 4.1339 17.9988 3.90186 17.7359 3.90186H11.264C11.0011 3.90186 10.7881 4.1339 10.7881 4.42003C10.7881 4.70617 11.0011 4.93821 11.264 4.93821Z" fill="#E52525"/>
<path d="M9.55107 4.93821C9.67575 4.93821 9.79853 4.88328 9.88704 4.7869C9.97555 4.68949 10.0269 4.55683 10.0269 4.42003C10.0269 4.28323 9.97555 4.15058 9.88704 4.05316C9.79843 3.95678 9.67566 3.90186 9.55107 3.90186C9.42544 3.90186 9.30352 3.95678 9.21415 4.05316C9.12564 4.14954 9.0752 4.28323 9.0752 4.42003C9.0752 4.55683 9.12564 4.68949 9.21415 4.7869C9.30267 4.88328 9.42544 4.93821 9.55107 4.93821Z" fill="#E52525"/>
</svg>
