<?xml version="1.0" encoding="UTF-8"?>
<svg xmlns="http://www.w3.org/2000/svg" xmlns:xlink="http://www.w3.org/1999/xlink" width="15pt" height="15pt" viewBox="0 0 15 15" version="1.1">
<g id="surface1">
<path style=" stroke:none;fill-rule:nonzero;fill:rgb(36.862745%,36.862745%,36.862745%);fill-opacity:1;" d="M 14.519531 13.664062 L 10.949219 9.949219 C 11.867188 8.859375 12.371094 7.484375 12.371094 6.054688 C 12.371094 2.71875 9.65625 0 6.316406 0 C 2.976562 0 0.257812 2.71875 0.257812 6.054688 C 0.257812 9.394531 2.976562 12.113281 6.316406 12.113281 C 7.570312 12.113281 8.761719 11.734375 9.785156 11.015625 L 13.382812 14.757812 C 13.53125 14.914062 13.734375 15 13.953125 15 C 14.15625 15 14.351562 14.921875 14.5 14.78125 C 14.8125 14.476562 14.824219 13.976562 14.519531 13.664062 Z M 6.316406 1.578125 C 8.785156 1.578125 10.792969 3.589844 10.792969 6.054688 C 10.792969 8.523438 8.785156 10.53125 6.316406 10.53125 C 3.847656 10.53125 1.839844 8.523438 1.839844 6.054688 C 1.839844 3.589844 3.847656 1.578125 6.316406 1.578125 Z M 6.316406 1.578125 "/>
</g>
</svg>
