<svg width="52" height="52" viewBox="0 0 52 52" fill="none" xmlns="http://www.w3.org/2000/svg">
<path d="M26 0C11.664 0 0 11.663 0 26C0 40.337 11.664 52 26 52C40.336 52 52 40.337 52 26C52 11.663 40.336 0 26 0ZM26 50C12.767 50 2 39.233 2 26C2 12.767 12.767 2 26 2C39.233 2 50 12.767 50 26C50 39.233 39.233 50 26 50Z" fill="#5E5E5E"/>
<path d="M38.2519 15.336L22.8829 32.626L13.6239 25.219C13.1939 24.874 12.5629 24.945 12.2189 25.375C11.8739 25.807 11.9439 26.436 12.3749 26.781L22.3749 34.781C22.5589 34.928 22.7799 35 22.9999 35C23.2759 35 23.5509 34.886 23.7479 34.664L39.7479 16.664C40.1149 16.252 40.0779 15.619 39.6649 15.253C39.2509 14.885 38.6199 14.922 38.2519 15.336Z" fill="#5E5E5E"/>
</svg>
