<?xml version="1.0" encoding="UTF-8"?>
<svg xmlns="http://www.w3.org/2000/svg" xmlns:xlink="http://www.w3.org/1999/xlink" width="14pt" height="15pt" viewBox="0 0 14 15" version="1.1">
<g id="surface1">
<path style=" stroke:none;fill-rule:nonzero;fill:rgb(99.607843%,67.058824%,0%);fill-opacity:1;" d="M 13.351562 0.90625 C 13.289062 0.585938 12.996094 0.351562 12.648438 0.351562 L 11.109375 0.351562 C 10.988281 0.140625 10.753906 0 10.484375 0 L 2.953125 0 C 2.683594 0 2.453125 0.140625 2.328125 0.351562 L 0.789062 0.351562 C 0.445312 0.351562 0.148438 0.585938 0.0898438 0.90625 C 0.0820312 0.949219 -0.113281 2.035156 0.257812 3.226562 C 0.523438 4.085938 1.125 5.125 2.445312 5.769531 C 2.230469 6.285156 1.964844 6.847656 1.636719 7.472656 C 1.566406 7.601562 1.589844 7.757812 1.691406 7.867188 C 2.699219 8.910156 3.839844 9.621094 5.054688 9.957031 C 5.050781 9.984375 5.046875 10.007812 5.046875 10.035156 L 5.046875 10.078125 C 5.046875 10.417969 5.25 10.710938 5.546875 10.863281 C 5.59375 11.40625 5.460938 12.300781 5.152344 13.007812 L 3.808594 13.007812 C 3.507812 13.007812 3.265625 13.234375 3.265625 13.515625 L 3.265625 14.632812 C 3.265625 14.917969 3.507812 15.144531 3.808594 15.144531 L 9.628906 15.144531 C 9.925781 15.144531 10.171875 14.917969 10.171875 14.632812 L 10.171875 13.515625 C 10.171875 13.234375 9.925781 13.007812 9.628906 13.007812 L 8.285156 13.007812 C 7.980469 12.300781 7.84375 11.40625 7.890625 10.863281 C 8.1875 10.710938 8.390625 10.417969 8.390625 10.078125 L 8.390625 10.035156 C 8.390625 10.007812 8.386719 9.984375 8.382812 9.957031 C 9.597656 9.621094 10.738281 8.910156 11.746094 7.867188 C 11.84375 7.757812 11.871094 7.601562 11.800781 7.472656 C 11.476562 6.847656 11.207031 6.285156 10.988281 5.769531 C 12.3125 5.125 12.914062 4.085938 13.179688 3.226562 C 13.550781 2.035156 13.355469 0.949219 13.351562 0.90625 Z M 1.632812 2.886719 C 1.488281 2.449219 1.453125 2.019531 1.449219 1.691406 L 2.328125 1.691406 C 2.453125 1.898438 2.683594 2.042969 2.953125 2.042969 C 3.078125 2.042969 3.195312 2.011719 3.296875 1.957031 C 3.296875 1.964844 3.296875 1.96875 3.296875 1.976562 C 3.359375 2.496094 3.3125 3.292969 2.929688 4.484375 C 2.296875 4.121094 1.859375 3.589844 1.632812 2.886719 Z M 4.511719 8.335938 C 3.957031 8.46875 3.367188 8.003906 3.0625 7.621094 C 2.984375 7.527344 2.921875 7.433594 2.953125 7.308594 C 2.972656 7.238281 3.027344 7.179688 3.070312 7.117188 C 3.257812 6.847656 3.410156 6.5625 3.550781 6.269531 C 3.832031 5.65625 4.050781 5.019531 4.214844 4.363281 C 4.332031 3.871094 4.410156 3.375 4.511719 2.878906 C 4.652344 3.699219 4.617188 4.546875 4.445312 5.359375 C 4.378906 5.671875 4.289062 5.980469 4.175781 6.28125 C 4.035156 6.65625 3.863281 7.050781 3.625 7.386719 C 3.871094 7.738281 4.15625 8.082031 4.511719 8.335938 Z M 11.804688 2.886719 C 11.578125 3.589844 11.140625 4.125 10.503906 4.488281 C 10.125 3.300781 10.074219 2.496094 10.140625 1.957031 C 10.242188 2.011719 10.359375 2.042969 10.484375 2.042969 C 10.753906 2.042969 10.988281 1.898438 11.109375 1.691406 L 11.984375 1.691406 C 11.984375 2.019531 11.949219 2.449219 11.804688 2.886719 Z M 11.804688 2.886719 "/>
</g>
</svg>
