<svg width="24" height="24" viewBox="0 0 24 24" fill="none" xmlns="http://www.w3.org/2000/svg">
<path d="M14.9793 5.93487L13.4442 5.93237C11.7196 5.93237 10.6051 7.09151 10.6051 8.88559V10.2472H9.06169C8.92832 10.2472 8.82031 10.3568 8.82031 10.492V12.4649C8.82031 12.6001 8.92844 12.7096 9.06169 12.7096H10.6051V17.6877C10.6051 17.8229 10.7131 17.9324 10.8465 17.9324H12.8603C12.9936 17.9324 13.1016 17.8228 13.1016 17.6877V12.7096H14.9063C15.0397 12.7096 15.1477 12.6001 15.1477 12.4649L15.1484 10.492C15.1484 10.4271 15.1229 10.3649 15.0777 10.319C15.0325 10.2731 14.9709 10.2472 14.9069 10.2472H13.1016V9.09295C13.1016 8.53816 13.2321 8.25652 13.945 8.25652L14.9791 8.25615C15.1123 8.25615 15.2203 8.14654 15.2203 8.01146V6.17956C15.2203 6.0446 15.1124 5.93512 14.9793 5.93487Z" fill="white"/>
<path fill-rule="evenodd" clip-rule="evenodd" d="M12 23C18.0751 23 23 18.0751 23 12C23 5.92487 18.0751 1 12 1C5.92487 1 1 5.92487 1 12C1 18.0751 5.92487 23 12 23ZM12 24C18.6274 24 24 18.6274 24 12C24 5.37258 18.6274 0 12 0C5.37258 0 0 5.37258 0 12C0 18.6274 5.37258 24 12 24Z" fill="white"/>
</svg>
