<svg width="24" height="24" viewBox="0 0 24 24" fill="none" xmlns="http://www.w3.org/2000/svg">
<path d="M14.7313 5.76245H9.18341C7.29938 5.76245 5.7666 7.29422 5.7666 9.17692V14.7209C5.7666 16.6036 7.29938 18.1353 9.18341 18.1353H14.7313C16.6154 18.1353 18.1482 16.6036 18.1482 14.7209V9.17692C18.1483 7.29422 16.6154 5.76245 14.7313 5.76245ZM17.0497 14.7209C17.0497 15.9983 16.0097 17.0375 14.7313 17.0375H9.18341C7.90513 17.0376 6.86516 15.9983 6.86516 14.7209V9.17692C6.86516 7.89954 7.90513 6.86023 9.18341 6.86023H14.7313C16.0096 6.86023 17.0497 7.89954 17.0497 9.17692V14.7209H17.0497Z" fill="white"/>
<path d="M11.958 8.76074C10.1988 8.76074 8.76758 10.1909 8.76758 11.9489C8.76758 13.7068 10.1988 15.137 11.958 15.137C13.7172 15.137 15.1484 13.7068 15.1484 11.9489C15.1484 10.1909 13.7172 8.76074 11.958 8.76074ZM11.958 14.0391C10.8046 14.0391 9.86614 13.1014 9.86614 11.9488C9.86614 10.7962 10.8045 9.85845 11.958 9.85845C13.1115 9.85845 14.0499 10.7962 14.0499 11.9488C14.0499 13.1014 13.1114 14.0391 11.958 14.0391Z" fill="white"/>
<path d="M15.2812 7.82983C15.0695 7.82983 14.8616 7.91546 14.7121 8.06549C14.5619 8.21479 14.4756 8.42264 14.4756 8.63487C14.4756 8.84645 14.562 9.05423 14.7121 9.20426C14.8615 9.35356 15.0695 9.43991 15.2812 9.43991C15.4936 9.43991 15.7008 9.35356 15.851 9.20426C16.0011 9.05423 16.0868 8.84638 16.0868 8.63487C16.0868 8.42264 16.0011 8.21479 15.851 8.06549C15.7016 7.91546 15.4936 7.82983 15.2812 7.82983Z" fill="white"/>
<path fill-rule="evenodd" clip-rule="evenodd" d="M12 23C18.0751 23 23 18.0751 23 12C23 5.92487 18.0751 1 12 1C5.92487 1 1 5.92487 1 12C1 18.0751 5.92487 23 12 23ZM12 24C18.6274 24 24 18.6274 24 12C24 5.37258 18.6274 0 12 0C5.37258 0 0 5.37258 0 12C0 18.6274 5.37258 24 12 24Z" fill="white"/>
</svg>
