<svg width="24" height="24" viewBox="0 0 24 24" fill="none" xmlns="http://www.w3.org/2000/svg">
<path d="M17.47 12.3068V16.3725H15.1071V12.579C15.1071 11.6261 14.7653 10.9758 13.91 10.9758C13.2571 10.9758 12.8685 11.414 12.6976 11.838C12.6352 11.9896 12.6192 12.2005 12.6192 12.4127V16.3725H10.2554C10.2554 16.3725 10.2873 9.94765 10.2554 9.28199H12.619V10.287C12.6142 10.2946 12.608 10.3027 12.6034 10.3099H12.619V10.287C12.933 9.8046 13.4938 9.11541 14.749 9.11541C16.3042 9.11539 17.47 10.1288 17.47 12.3068ZM7.78286 5.86401C6.97423 5.86401 6.44531 6.39309 6.44531 7.08885C6.44531 7.76944 6.95893 8.31457 7.75149 8.31457H7.76728C8.59158 8.31457 9.10422 7.76954 9.10422 7.08885C9.08868 6.39309 8.59158 5.86401 7.78286 5.86401ZM6.5857 16.3725H8.94855V9.28199H6.5857V16.3725Z" fill="white"/>
<path fill-rule="evenodd" clip-rule="evenodd" d="M12 23C18.0751 23 23 18.0751 23 12C23 5.92487 18.0751 1 12 1C5.92487 1 1 5.92487 1 12C1 18.0751 5.92487 23 12 23ZM12 24C18.6274 24 24 18.6274 24 12C24 5.37258 18.6274 0 12 0C5.37258 0 0 5.37258 0 12C0 18.6274 5.37258 24 12 24Z" fill="white"/>
</svg>
