<svg width="24" height="24" viewBox="0 0 24 24" fill="none" xmlns="http://www.w3.org/2000/svg">
<path fill-rule="evenodd" clip-rule="evenodd" d="M12 23C18.0751 23 23 18.0751 23 12C23 5.92487 18.0751 1 12 1C5.92487 1 1 5.92487 1 12C1 18.0751 5.92487 23 12 23ZM12 24C18.6274 24 24 18.6274 24 12C24 5.37258 18.6274 0 12 0C5.37258 0 0 5.37258 0 12C0 18.6274 5.37258 24 12 24Z" fill="white"/>
<path d="M17.1225 7.07233L5.60702 11.5526C4.82113 11.871 4.82568 12.3133 5.46283 12.5106L8.41932 13.4411L15.2598 9.08669C15.5832 8.88814 15.8787 8.99495 15.6358 9.21251L10.0937 14.2589L9.88977 17.3342C10.1885 17.3342 10.3204 17.1959 10.488 17.0327L11.924 15.6239L14.911 17.8499C15.4618 18.1559 15.8573 17.9986 15.9944 17.3355L17.9552 8.01201C18.1559 7.20011 17.648 6.83249 17.1225 7.07233Z" fill="white"/>
</svg>
