<svg width="24" height="24" viewBox="0 0 24 24" fill="none" xmlns="http://www.w3.org/2000/svg">
<path d="M18.4878 8.30181C18.0383 8.50259 17.5561 8.63875 17.0493 8.69954C17.5667 8.3872 17.9628 7.89179 18.1505 7.30328C17.6652 7.59252 17.1295 7.80255 16.5586 7.91641C16.1015 7.42484 15.4514 7.11865 14.7302 7.11865C13.3467 7.11865 12.2249 8.24951 12.2249 9.64346C12.2249 9.84116 12.2471 10.0343 12.2898 10.2189C10.2081 10.1135 8.36211 9.10804 7.12664 7.58021C6.91067 7.95256 6.78781 8.38642 6.78781 8.84955C6.78781 9.72577 7.23042 10.4989 7.90196 10.9512C7.4914 10.9374 7.10527 10.8235 6.76722 10.6343V10.6658C6.76722 11.889 7.63106 12.9098 8.77648 13.1422C8.56662 13.1991 8.34533 13.2306 8.11639 13.2306C7.95462 13.2306 7.79818 13.2145 7.64479 13.1837C7.96376 14.1876 8.88866 14.9177 9.98449 14.9377C9.12752 15.6147 8.04695 16.017 6.8733 16.017C6.67108 16.017 6.4719 16.0047 6.27579 15.9824C7.38459 16.7002 8.70095 17.1187 10.1158 17.1187C14.7242 17.1187 17.2432 13.2707 17.2432 9.93349L17.2348 9.60655C17.727 9.25265 18.1528 8.80801 18.4878 8.30181Z" fill="white"/>
<path fill-rule="evenodd" clip-rule="evenodd" d="M12 23C18.0751 23 23 18.0751 23 12C23 5.92487 18.0751 1 12 1C5.92487 1 1 5.92487 1 12C1 18.0751 5.92487 23 12 23ZM12 24C18.6274 24 24 18.6274 24 12C24 5.37258 18.6274 0 12 0C5.37258 0 0 5.37258 0 12C0 18.6274 5.37258 24 12 24Z" fill="white"/>
</svg>
