<svg width="74" height="47" viewBox="0 0 74 47" fill="none" xmlns="http://www.w3.org/2000/svg">
<path d="M13.9966 7.70341C14.9123 7.99382 15.6385 8.48293 16.1751 9.17073C16.7119 9.84325 16.9803 10.6839 16.9803 11.6927C16.9803 13.0836 16.4278 14.1611 15.3227 14.9254C14.2177 15.6743 12.6074 16.0488 10.492 16.0488H2.25135V0H10.0184C11.9759 0 13.4836 0.374471 14.5412 1.12341C15.599 1.85707 16.1278 2.87349 16.1278 4.17268C16.1278 4.96747 15.9383 5.67057 15.5595 6.28195C15.1806 6.89333 14.6596 7.36716 13.9966 7.70341ZM5.32975 2.33854V6.76341H9.68687C10.7604 6.76341 11.5812 6.58 12.1495 6.21318C12.7337 5.83105 13.0257 5.28082 13.0257 4.56244C13.0257 3.82878 12.7337 3.27854 12.1495 2.91171C11.5812 2.5296 10.7604 2.33854 9.68687 2.33854H5.32975ZM10.3026 13.7102C12.6863 13.7102 13.8782 12.9384 13.8782 11.3946C13.8782 9.8509 12.6863 9.07902 10.3026 9.07902H5.32975V13.7102H10.3026Z" fill="#737373"/>
<path d="M31.0165 12.3346H22.7285L21.0945 16.0488H17.9214L25.3806 0H28.4117L35.8946 16.0488H32.6741L31.0165 12.3346ZM29.9982 9.99609L26.8725 2.98048L23.7704 9.99609H29.9982Z" fill="#737373"/>
<path d="M52.7316 0V16.0488H50.1978L41.0574 5.18146V16.0488H38.0026V0H40.5364L49.6769 10.8673V0H52.7316Z" fill="#737373"/>
<path d="M62.8801 9.33122L60.2516 11.9448V16.0488H57.1732V0H60.2516V8.23073L68.4449 0H71.9022L64.9402 7.17609L72.3284 16.0488H68.729L62.8801 9.33122Z" fill="#737373"/>
<path fill-rule="evenodd" clip-rule="evenodd" d="M74 22.3536H0V47H74V22.3536ZM24.9038 41.8412L29.8483 27.3973H27.2056L23.3907 38.4365L19.6185 27.3973H17.0611L13.2037 38.3746L9.49531 27.3973H6.61818L11.5626 41.8412H14.5249L18.2758 31.1527L21.9629 41.8412H24.9038ZM34.8759 27.3973H32.1053V41.8412H34.8759V27.3973ZM48.672 41.8412L45.6243 37.6112C45.4965 37.625 45.3046 37.6318 45.0489 37.6318H41.6816V41.8412H38.911V27.3973H45.0489C46.3418 27.3973 47.4643 27.6037 48.4162 28.0163C49.3824 28.429 50.1211 29.0205 50.6326 29.7908C51.1441 30.5612 51.3998 31.4759 51.3998 32.5352C51.3998 33.6219 51.1228 34.5573 50.5686 35.3414C50.0288 36.1255 49.2473 36.7101 48.2243 37.0953L51.6556 41.8412H48.672ZM48.608 32.5352C48.608 31.6135 48.2954 30.9051 47.6702 30.4099C47.0451 29.9146 46.1288 29.6671 44.921 29.6671H41.6816V35.4239H44.921C46.1288 35.4239 47.0451 35.1764 47.6702 34.6811C48.2954 34.1721 48.608 33.4568 48.608 32.5352ZM65.6884 41.8412V39.592H57.2702V35.6097H64.4736V33.4018H57.2702V29.6464H65.39V27.3973H54.4996V41.8412H65.6884Z" fill="#737373"/>
</svg>
