<svg width="48" height="49" viewBox="0 0 48 49" fill="none" xmlns="http://www.w3.org/2000/svg">
<path d="M23.926 48.426C37.14 48.426 47.852 37.714 47.852 24.5C47.852 11.286 37.14 0.574005 23.926 0.574005C10.712 0.574005 0 11.286 0 24.5C0 37.714 10.712 48.426 23.926 48.426Z" fill="#737373"/>
<path d="M33.9991 25.2092C33.3303 24.3439 32.3209 23.7498 30.9708 23.4268C32.6884 22.5501 33.444 21.0614 33.2377 18.9606C33.1688 18.2007 32.9582 17.5403 32.6059 16.9796C32.2506 16.4171 31.7594 15.9531 31.1777 15.6304C30.5642 15.2841 29.9069 15.022 29.2235 14.8511C28.4274 14.657 27.6171 14.5269 26.8003 14.4619V10.1008H24.1336V14.3406C23.6727 14.3406 22.9692 14.3522 22.023 14.3756V10.1008H19.3572V14.4619C18.9772 14.4733 18.4175 14.479 17.6782 14.479L14.0092 14.4619V17.3004H15.93C16.8072 17.3004 17.3207 17.6926 17.4705 18.477V30.4188C17.3788 31.0078 17.0441 31.302 16.4666 31.3015H14.5457L14.0092 34.4689H17.4714C17.6904 34.4689 18.0071 34.4689 18.4232 34.477C18.8393 34.4852 19.1495 34.486 19.3572 34.486V38.8993H22.023V34.5381C22.5072 34.5495 23.211 34.5552 24.1344 34.5552V38.8993H26.7994V34.486C27.6434 34.4509 28.4845 34.3641 29.3179 34.2263C30.038 34.1043 30.7428 33.9053 31.4203 33.6327C32.0346 33.3955 32.6027 33.053 33.0993 32.6206C33.5707 32.1869 33.9504 31.663 34.2156 31.08C34.5256 30.3964 34.7156 29.6645 34.7775 28.9165C34.9284 27.3108 34.6689 26.075 33.9991 25.2092ZM22.0743 17.4901C22.1547 17.4901 22.3827 17.4871 22.7583 17.4811C23.1337 17.4754 23.4447 17.4697 23.6931 17.464C23.9414 17.4583 24.2753 17.473 24.697 17.5072C25.0541 17.5335 25.4094 17.5797 25.7613 17.6456C26.086 17.7142 26.4043 17.8098 26.7131 17.9314C27.0182 18.0408 27.2999 18.2065 27.5437 18.42C27.7636 18.6271 27.9426 18.8738 28.0713 19.1471C28.2205 19.4633 28.2946 19.8097 28.2879 20.1592C28.2917 20.4606 28.2389 20.76 28.1324 21.0419C28.0342 21.2994 27.8736 21.5286 27.665 21.7087C27.4647 21.8821 27.2504 22.0384 27.0242 22.1761C26.7623 22.325 26.4792 22.4329 26.1847 22.4961C25.8454 22.577 25.5485 22.6403 25.2939 22.6859C24.9803 22.737 24.6637 22.7675 24.3461 22.777C23.9661 22.795 23.6776 22.8066 23.4805 22.8121C23.2835 22.8175 23.0153 22.8175 22.6761 22.8121C22.3357 22.8061 22.1365 22.8031 22.0784 22.8031V17.4901H22.0743ZM29.3521 29.2764C29.2502 29.5289 29.1071 29.7628 28.9287 29.9685C28.734 30.1814 28.5022 30.3571 28.2447 30.4872C27.9803 30.6294 27.7054 30.7511 27.4223 30.8512C27.1088 30.9563 26.788 31.038 26.4623 31.0955C26.0867 31.1649 25.7577 31.2138 25.4755 31.242C25.1932 31.2702 24.8555 31.2933 24.4625 31.3112C24.0709 31.3283 23.7647 31.3373 23.5457 31.3373C23.3266 31.3373 23.0498 31.3373 22.7151 31.3283C22.3805 31.3194 22.1663 31.3202 22.0743 31.3202V25.469C22.1661 25.469 22.4402 25.463 22.8967 25.4511C23.3527 25.4397 23.724 25.434 24.0131 25.434C24.3021 25.434 24.6995 25.4511 25.2076 25.4861C25.6374 25.5108 26.0652 25.5627 26.4884 25.6416C26.8732 25.7218 27.2519 25.8287 27.6218 25.9616C27.9814 26.0789 28.318 26.2574 28.6168 26.4892C28.8809 26.7096 29.0984 26.9803 29.2569 27.2856C29.4099 27.5927 29.4974 27.9282 29.5138 28.271C29.5302 28.6137 29.4751 28.9561 29.3521 29.2764Z" fill="#272727"/>
</svg>
