<svg width="128" height="25" viewBox="0 0 128 25" fill="none" xmlns="http://www.w3.org/2000/svg">
<g clip-path="url(#clip0)">
<path d="M127.71 4.99234C126.017 5.01931 124.325 5.03497 122.632 5.0393C122.377 5.0393 122.283 5.12456 122.214 5.35647C121.782 6.82094 121.341 8.28035 120.901 9.74121C120.441 11.2685 119.98 12.7951 119.515 14.3355C119.39 14.2105 119.371 14.0602 119.327 13.9273C118.34 11.0908 117.355 8.25314 116.373 5.41427C116.295 5.18597 116.201 5.09855 115.948 5.10144C114.147 5.12456 112.346 5.12817 110.545 5.13828C110.095 5.13828 110.095 5.14262 110.291 5.5631C112.35 9.97168 114.411 14.38 116.474 18.7881C116.529 18.8923 116.559 19.008 116.561 19.1258C116.563 19.2437 116.538 19.3604 116.486 19.4665C115.974 20.676 115.033 21.1412 113.771 21.1492C108.189 21.1848 102.607 21.2286 97.0252 21.2807C92.4881 21.3168 87.9495 21.3505 83.4094 21.3818C83.1349 21.3818 83.011 21.4497 82.9563 21.7366C82.7726 22.704 82.5745 23.6699 82.3468 24.6265C82.2683 24.9595 82.3908 24.9769 82.653 24.9704C83.529 24.9501 84.405 24.9444 85.281 24.9371C91.0443 24.889 96.8076 24.8408 102.571 24.7926C106.749 24.758 110.928 24.7245 115.106 24.6922C115.814 24.6907 116.522 24.6425 117.223 24.5477C119.063 24.2905 120.49 23.425 121.377 21.7452C121.635 21.2701 121.867 20.7809 122.07 20.28C124.027 15.292 125.986 10.3045 127.947 5.31746C128.061 5.02919 127.994 4.98512 127.71 4.99234ZM83.1609 18.0375C84.6435 19.395 86.3775 19.8176 88.2693 19.6334C90.6128 19.4066 92.3677 18.2607 93.3266 16.0687C94.1083 14.2798 94.1191 12.3963 93.7718 10.5056C93.4923 8.98838 92.8418 7.64746 91.7352 6.56374C90.5105 5.36225 88.984 4.97428 87.3104 5.02485C85.7169 5.0747 84.3359 5.60284 83.2293 6.78554C83.0535 6.97338 82.8468 7.13233 82.599 7.35341C82.599 6.77542 82.5932 6.22634 82.599 5.6787C82.6026 5.47568 82.5615 5.37309 82.3245 5.37959C81.4967 5.40127 80.6675 5.40416 79.8412 5.41355C79.8628 5.5985 80.0372 5.60284 80.1531 5.66642C81.107 6.19021 81.4708 6.92064 81.3 7.96246C81.2028 8.58096 81.0233 9.18359 80.7662 9.75421C80.1856 11.02 79.6136 12.2916 78.9969 13.5407C78.0928 15.3831 77.1166 17.195 76.2197 19.041C76.1419 19.2021 76.036 19.3545 76.0439 19.5467C75.621 21.2604 75.2018 22.9756 74.7695 24.6879C74.7097 24.9227 74.7277 25.0043 74.9964 25.0007C77.0717 24.9742 79.1477 24.9557 81.2244 24.9451C81.4405 24.9451 81.5349 24.883 81.5846 24.6561C81.9066 23.2509 82.2467 21.85 82.5809 20.4484C82.7704 19.6601 82.9606 18.8712 83.1609 18.0375ZM83.2941 10.6732C83.6407 9.63645 84.5361 8.98766 85.634 8.9761C86.6599 8.96526 87.5727 9.61839 87.8954 10.6602C88.2474 11.7936 88.2444 13.008 87.8868 14.1397C87.7571 14.5563 87.506 14.9243 87.1656 15.1963C86.8253 15.4683 86.4115 15.6318 85.9777 15.6655C84.8582 15.7313 83.9836 15.3173 83.4476 14.3051C83.1191 13.6845 83.0586 13.0003 83.0737 12.3075C83.0523 11.754 83.1269 11.201 83.2941 10.6732ZM105.046 9.9659C103.314 10.5966 101.503 10.8993 99.7066 11.2599C98.5424 11.4939 97.3724 11.702 96.2997 12.2497C94.6759 13.0783 93.9159 14.8202 94.4483 16.5708C94.8964 18.0425 95.9813 18.8546 97.3955 19.2714C98.6922 19.6551 100.028 19.6327 101.358 19.4817C102.92 19.3025 104.332 18.7527 105.522 17.6914C105.581 17.6379 105.628 17.5563 105.752 17.5678C105.847 18.0678 105.982 18.5598 106.264 19.0012C106.298 19.0691 106.352 19.125 106.418 19.1618C106.485 19.1987 106.561 19.2147 106.636 19.2079C108.28 19.1852 109.924 19.1686 111.569 19.158C111.779 19.158 111.864 19.1205 111.738 18.9044C111.218 18.0114 111.103 17.0325 111.1 16.0188C111.095 13.9843 111.073 11.9498 111.034 9.91532C111.029 8.83514 110.682 7.78452 110.043 6.91486C109.211 5.78779 107.997 5.3189 106.669 5.12311C104.677 4.82978 102.674 4.82111 100.672 4.98873C99.6569 5.07398 98.6461 5.22932 97.6909 5.61656C96.165 6.23573 95.1593 7.31728 94.7818 8.94648C94.7465 9.0982 94.6378 9.27882 94.9411 9.30772C96.6259 9.44932 98.3107 9.59743 99.9955 9.75204C100.212 9.77155 100.312 9.70291 100.395 9.50351C100.657 8.86484 101.115 8.43568 101.797 8.26951C102.527 8.09106 103.263 8.02098 104.009 8.13802C104.891 8.27602 105.203 8.60908 105.327 9.49484C105.362 9.73832 105.313 9.86836 105.046 9.9659ZM105.363 12.8276C105.347 13.0191 105.363 13.2127 105.363 13.4056C105.363 15.4062 103.884 16.7355 101.846 16.5636C101.618 16.5551 101.392 16.5197 101.173 16.4581C100.629 16.2768 100.252 15.935 100.164 15.3484C100.075 14.7256 100.368 14.2762 100.889 13.9757C101.393 13.6867 101.947 13.5241 102.503 13.3782C103.373 13.1506 104.245 12.9353 105.097 12.6427C105.288 12.5748 105.383 12.5907 105.363 12.8276Z" fill="#565656"/>
<path d="M28.1328 9.61511C28.8532 9.62812 29.5736 9.60283 30.2941 9.61005C30.4929 9.61005 30.593 9.54286 30.6824 9.37236C31.2738 8.24384 31.8696 7.1175 32.4783 5.99909C32.6282 5.72383 32.5806 5.66242 32.2759 5.6682C31.4993 5.68482 30.7234 5.67398 29.8913 5.67398C30.1341 5.20581 30.3524 4.77015 30.66 4.38652C31.1362 3.79192 31.7406 3.44729 32.5165 3.43646C33.0208 3.42779 33.5251 3.42923 34.0236 3.52099C34.2549 3.56289 34.4163 3.52099 34.5675 3.30424C35.1972 2.40909 35.852 1.53272 36.4918 0.645512C36.5638 0.54581 36.687 0.463447 36.6661 0.292941C35.1489 0.129661 33.6353 -0.0206152 32.1102 -0.000385764C27.9088 0.0624701 10.652 0.23442 10.6203 0.408538L26.5364 2.08036C26.3484 2.28482 26.1956 2.42209 26.0782 2.5861C25.9341 2.78478 25.7598 2.83535 25.5249 2.83752C22.3551 2.86208 4.53067 3.01525 4.40316 3.01525V3.08099L24.2865 5.17619C24.1943 5.61907 23.9746 5.79174 23.546 5.75417C23.0806 5.71805 22.6094 5.76212 22.1426 5.75417C21.9373 5.74912 21.8141 5.8098 21.7219 6.00198C21.5454 6.36973 21.3228 6.71652 21.1571 7.08571C21.0404 7.34869 20.8783 7.41516 20.6031 7.4166C16.8944 7.43611 9.22056 7.4968 9.09665 7.4968V7.55387L21.92 9.67941C21.8493 9.80158 21.7867 9.92829 21.7327 10.0587C21.6095 10.4301 21.3725 10.5348 20.9784 10.5356C17.6904 10.5421 0.176501 10.6923 0 10.6923C0 10.7111 0 10.7292 0 10.7472L0.666381 10.8115C0.666381 10.8115 0.666381 10.8079 0.666381 10.8115C1.79887 10.9344 17.0133 12.5455 19.8769 12.8345C20.2371 12.8706 20.1852 12.9718 20.0577 13.2095C19.1995 14.8066 18.3489 16.4084 17.506 18.0147C17.403 18.2105 17.2856 18.282 17.063 18.2827C14.0264 18.2993 6.25678 18.3333 5.71359 18.4113C5.73232 18.4641 5.77483 18.4763 5.82453 18.4836C7.09102 18.5768 19.5952 19.5254 22.0072 19.7233C22.304 19.7479 22.448 19.6583 22.5835 19.3953C24.2505 16.2395 25.9341 13.0924 27.604 9.93806C27.7301 9.7047 27.867 9.60861 28.1328 9.61511ZM59.6444 11.029C58.8058 10.7191 57.9284 10.5868 57.0509 10.4633C56.1144 10.3311 55.162 10.2935 54.2449 10.0349C53.531 9.8333 53.4085 9.41282 53.8926 8.85C53.9538 8.77579 54.022 8.70779 54.0965 8.64699C55.0546 7.91439 56.1237 7.82986 57.2346 8.16654C57.7209 8.31103 57.9031 8.64121 57.8412 9.14261C57.808 9.40776 57.9248 9.38319 58.0933 9.36658C59.7162 9.20619 61.3398 9.04604 62.964 8.88613C63.6434 8.81821 63.6391 8.81388 63.6412 8.10657C63.6412 7.20347 63.392 6.41958 62.6132 5.8835C62.0434 5.49119 61.3928 5.33586 60.7192 5.25855C59.0478 5.07323 57.3609 5.07614 55.69 5.26722C53.7644 5.48397 51.9633 6.05473 50.382 7.21792C49.2539 8.04516 48.3526 9.06097 47.9218 10.4236C47.491 11.7862 48.0659 12.9038 49.4138 13.359C50.5773 13.7528 51.7912 13.929 52.9914 14.1501C53.616 14.265 54.2471 14.3546 54.8472 14.5735C55.3514 14.7585 55.471 15.0915 55.2124 15.5676C55.0465 15.8631 54.8037 16.1078 54.51 16.2757C53.5994 16.8247 52.6088 16.9981 51.5686 16.8471C50.6551 16.712 50.3439 16.3154 50.4 15.4022C50.4152 15.1681 50.341 15.1443 50.1501 15.163C49.6011 15.2194 49.0514 15.2642 48.5018 15.314C47.2 15.4332 45.8982 15.5546 44.5964 15.6695C44.4444 15.6832 44.3594 15.728 44.3227 15.8862C44.1836 16.4917 44.1166 17.095 44.2996 17.704C44.6173 18.7646 45.4292 19.2378 46.4205 19.4893C47.6286 19.7956 48.862 19.8454 50.0996 19.8505C51.132 19.8597 52.1635 19.7872 53.1844 19.6338C55.1591 19.3332 56.9983 18.675 58.5991 17.4511C59.6797 16.6253 60.6162 15.6637 61.1292 14.3661C61.7393 12.8186 61.1997 11.6041 59.6444 11.029ZM47.2533 8.56679C47.5645 7.01635 46.9867 6.05978 45.4638 5.62702C45.233 5.56261 44.9981 5.51433 44.7607 5.48252C42.9142 5.23495 41.0462 5.19207 39.1904 5.35464C37.7453 5.47313 36.3167 5.70721 34.9609 6.2852C33.2593 7.00768 31.8891 8.12897 30.7825 9.65485C30.861 9.67074 30.8963 9.68086 30.9316 9.68375C32.4358 9.82824 33.943 9.94528 35.4428 10.1266C35.8794 10.1794 36.1452 10.0587 36.4356 9.76105C37.6307 8.53717 39.1443 8.37533 40.7357 8.54656C41.0455 8.58052 41.3509 8.70767 41.3754 9.11299C41.4035 9.5761 41.0873 10.2299 40.7753 10.321C40.1659 10.4973 39.5564 10.6822 38.9397 10.8267C36.9687 11.2999 34.9573 11.5665 32.9762 11.9827C31.4633 12.3027 30.0059 12.7709 28.7812 13.7723C27.7078 14.6508 26.8678 15.702 26.5141 17.0726C26.2201 18.2097 26.7151 19.1678 27.7892 19.6215C28.372 19.8678 28.9916 19.9596 29.6147 19.9827C31.938 20.0781 34.1475 19.641 36.2014 18.5146C36.522 18.3391 36.8412 18.1621 37.2352 17.9453C37.0688 18.4648 36.9283 18.9091 36.9644 19.3859C36.978 19.5673 37.0242 19.6352 37.2158 19.6323C38.8838 19.6087 40.552 19.5906 42.2205 19.5781C42.3876 19.5781 42.4561 19.5268 42.4525 19.352C42.4309 18.4048 42.7867 17.5682 43.2204 16.7511C44.3251 14.6727 45.4314 12.5939 46.5394 10.5146C46.8708 9.90381 47.1111 9.24755 47.2526 8.56679H47.2533ZM34.7815 16.9302C34.4021 16.9953 34.0154 17.0053 33.6332 16.9599C32.8753 16.8789 32.59 16.3754 32.9128 15.6839C33.2139 15.0388 33.7506 14.6436 34.3824 14.369C35.0142 14.0945 35.6734 13.929 36.3383 13.7715C37.3844 13.5237 38.4275 13.2658 39.4973 13.0086C38.6264 15.1941 37.0731 16.5141 34.7815 16.9302ZM79.8447 5.41822C78.7598 5.11911 77.6475 5.06204 76.5308 5.01724C74.4352 4.93344 72.3633 5.07865 70.3137 5.55332C68.0429 6.07496 66.4667 7.36892 65.7103 9.60861C65.5662 10.0421 65.608 10.1599 66.028 10.3311C66.7102 10.6085 67.4263 10.6446 68.151 10.584C68.6719 10.5399 69.0213 10.3311 69.1949 9.77478C69.4514 8.95187 69.9967 8.31754 70.859 8.12174C72.6046 7.7251 74.371 7.44478 76.1706 7.52208C76.6836 7.54376 77.2015 7.60228 77.6691 7.85515C78.1078 8.09212 78.285 8.43313 78.1734 8.89986C78.0192 9.54214 77.6014 10.032 77.1648 10.4994C76.9285 10.7545 76.5777 10.6483 76.2794 10.7053C76.1733 10.7252 76.0659 10.7382 75.9581 10.7443C73.8502 10.8672 71.7401 10.969 69.6343 11.1179C67.8917 11.2407 66.1857 11.5766 64.5727 12.2738C62.5109 13.1639 61.2134 14.757 60.5896 16.884C60.274 17.9619 60.8309 18.8975 61.8791 19.3C62.2279 19.4303 62.5905 19.52 62.9597 19.5673C64.6397 19.8006 66.332 19.8317 68.0235 19.8483C70.7013 19.8736 73.3726 19.719 76.0424 19.5463C76.0739 19.5102 76.1021 19.4712 76.1267 19.43C77.4731 16.6803 78.9565 13.9977 80.2085 11.201C80.6048 10.3159 81.0889 9.467 81.2892 8.4996C81.6443 6.82923 81.3396 6.17105 79.8447 5.41822ZM72.6017 13.5729C72.4713 14.017 72.1928 14.4029 71.8129 14.666C71.7352 14.7194 71.6705 14.7897 71.6236 14.8716C71.5767 14.9535 71.5488 15.045 71.542 15.1392C71.39 16.2713 71.2149 17.3998 71.0543 18.5305C71.0327 18.6786 71.0096 18.7762 70.8252 18.7747C69.6632 18.7689 68.5011 18.7747 67.3369 18.7747C67.3189 18.6302 67.414 18.5414 67.4695 18.4409C68.0847 17.3211 68.7029 16.2049 69.3238 15.0922C69.4074 14.9412 69.4593 14.8206 69.3555 14.6356C69.1776 14.3185 69.2547 13.9818 69.393 13.6617C69.759 12.8171 70.7661 12.2016 71.6832 12.2608C72.4014 12.3071 72.8042 12.8757 72.6017 13.5729Z" fill="#787878"/>
</g>
<defs>
<clipPath id="clip0">
<rect width="128" height="25" fill="white"/>
</clipPath>
</defs>
</svg>
