<svg width="62" height="48" viewBox="0 0 62 48" fill="none" xmlns="http://www.w3.org/2000/svg">
<g clip-path="url(#clip0)">
<path d="M11.2296 47.6823V44.5071C11.2296 43.2898 10.4845 42.496 9.26053 42.496C8.62191 42.496 7.93008 42.7077 7.4511 43.3957C7.07858 42.8135 6.54639 42.496 5.74811 42.496C5.21593 42.496 4.63053 42.6548 4.20478 43.2369V42.6018H3.19363V47.6823H4.20478V44.7717C4.20478 43.872 4.73696 43.4486 5.48203 43.4486C6.22708 43.4486 6.65283 43.9249 6.65283 44.7717V47.6823H7.66398V44.7717C7.66398 43.872 8.19616 43.4486 8.94118 43.4486C9.68632 43.4486 10.112 43.9249 10.112 44.7717V47.6823H11.2296ZM27.8338 42.6018H25.9711V41.0671H24.96V42.6018H23.8956V43.5015H24.96V45.8829C24.96 47.0473 25.3858 47.7352 26.663 47.7352C27.1419 47.7352 27.6741 47.5765 28.0466 47.3648L27.7274 46.4651C27.408 46.6768 27.0355 46.7297 26.7694 46.7297C26.2373 46.7297 25.9711 46.4122 25.9711 45.8829V43.4486H27.8338V42.6018ZM37.3066 42.496C36.668 42.496 36.189 42.8135 35.923 43.2369V42.6018H34.9118V47.6823H35.923V44.8245C35.923 43.9778 36.3488 43.4486 37.0405 43.4486C37.2534 43.4486 37.5195 43.5015 37.7324 43.5544L38.0518 42.6018C37.8389 42.496 37.5195 42.496 37.3066 42.496ZM22.9909 43.0252C22.4587 42.6548 21.7136 42.496 20.9154 42.496C19.6381 42.496 18.8399 43.0781 18.8399 44.0836C18.8399 44.9304 19.4253 45.4067 20.5429 45.5655L21.075 45.6183C21.6604 45.7242 22.033 45.9359 22.033 46.2005C22.033 46.571 21.6072 46.8356 20.8089 46.8356C20.0106 46.8356 19.4785 46.571 19.106 46.3064L18.5738 47.1002C19.3188 47.6294 20.2235 47.7352 20.7558 47.7352C22.2459 47.7352 23.0441 47.0473 23.0441 46.0947C23.0441 45.195 22.4055 44.7717 21.2879 44.6128L20.7558 44.5599C20.2768 44.5071 19.851 44.3482 19.851 44.0307C19.851 43.6603 20.2768 43.3957 20.8621 43.3957C21.5008 43.3957 22.1394 43.6603 22.4587 43.819L22.9909 43.0252ZM38.4243 45.1421C38.4243 46.6768 39.4354 47.7882 41.0851 47.7882C41.8303 47.7882 42.3624 47.6294 42.8946 47.206L42.3624 46.4122C41.9366 46.7297 41.5109 46.8885 41.0319 46.8885C40.1273 46.8885 39.4354 46.2005 39.4354 45.195C39.4354 44.1895 40.1273 43.5015 41.0319 43.5015C41.5109 43.5015 41.9366 43.6603 42.3624 43.9778L42.8946 43.184C42.3624 42.7606 41.8303 42.6018 41.0851 42.6018C39.4886 42.496 38.4243 43.6073 38.4243 45.1421ZM31.293 42.496C29.8029 42.496 28.7917 43.5544 28.7917 45.1421C28.7917 46.7297 29.8561 47.7882 31.3994 47.7882C32.1445 47.7882 32.8895 47.5765 33.4749 47.1002L32.9428 46.3593C32.517 46.6768 31.9848 46.8885 31.4526 46.8885C30.7608 46.8885 30.0158 46.4651 29.9093 45.5655H33.6878C33.6878 45.4067 33.6878 45.3009 33.6878 45.1421C33.6878 43.5544 32.7299 42.496 31.293 42.496ZM31.2398 43.3957C31.9848 43.3957 32.517 43.872 32.5703 44.6658H29.8029C29.9625 43.9778 30.4415 43.3957 31.2398 43.3957ZM17.4561 45.1421V42.6018H16.445V43.2369C16.0725 42.7606 15.5403 42.496 14.7953 42.496C13.3584 42.496 12.294 43.6073 12.294 45.1421C12.294 46.6768 13.3584 47.7882 14.7953 47.7882C15.5403 47.7882 16.0725 47.5235 16.445 47.0473V47.6823H17.4561V45.1421ZM13.3584 45.1421C13.3584 44.1895 13.9438 43.4486 14.9549 43.4486C15.9129 43.4486 16.4983 44.1895 16.4983 45.1421C16.4983 46.0947 15.8596 46.8356 14.9549 46.8356C13.9438 46.8356 13.3584 46.0947 13.3584 45.1421ZM52.6868 42.496C52.0481 42.496 51.5692 42.8135 51.3031 43.2369V42.6018H50.292V47.6823H51.3031V44.8245C51.3031 43.9778 51.7289 43.4486 52.4207 43.4486C52.6335 43.4486 52.8996 43.5015 53.1125 43.5544L53.4319 42.6018C53.219 42.496 52.8996 42.496 52.6868 42.496ZM60.8824 46.9414C60.9357 46.9414 61.0421 46.9414 61.0953 46.9943C61.1485 46.9943 61.2018 47.0473 61.255 47.1002C61.3081 47.1531 61.3614 47.206 61.3614 47.2589C61.4146 47.3119 61.4146 47.3648 61.4146 47.4706C61.4146 47.5235 61.4146 47.6294 61.3614 47.6823C61.3082 47.7352 61.3081 47.7882 61.255 47.8411C61.2018 47.894 61.1485 47.9469 61.0953 47.9469C61.0421 47.9998 60.9889 47.9998 60.8824 47.9998C60.8293 47.9998 60.7228 47.9998 60.6695 47.9469C60.6164 47.894 60.5631 47.894 60.5099 47.8411C60.4567 47.7882 60.4035 47.7352 60.4035 47.6823C60.3503 47.6294 60.3503 47.5765 60.3503 47.4706C60.3503 47.4177 60.3503 47.3119 60.4035 47.2589C60.4567 47.206 60.4567 47.1531 60.5099 47.1002C60.5631 47.0473 60.6164 46.9943 60.6695 46.9943C60.7228 46.9414 60.8293 46.9414 60.8824 46.9414ZM60.8824 47.8411C60.9357 47.8411 60.9889 47.8411 61.0421 47.7882C61.0953 47.7882 61.1485 47.7352 61.1485 47.6823C61.2018 47.6294 61.2018 47.6294 61.255 47.5765C61.255 47.5235 61.3082 47.4706 61.3082 47.4177C61.3082 47.3648 61.3081 47.3119 61.255 47.2589C61.255 47.206 61.2018 47.1531 61.1485 47.1531C61.0953 47.1002 61.0953 47.1002 61.0421 47.0473C60.9889 47.0473 60.9357 46.9943 60.8824 46.9943C60.8293 46.9943 60.776 46.9943 60.7228 47.0473C60.6695 47.0473 60.6164 47.1002 60.6164 47.1531C60.5631 47.206 60.5631 47.206 60.5099 47.2589C60.5099 47.3119 60.4567 47.3648 60.4567 47.4177C60.4567 47.4706 60.4567 47.5235 60.5099 47.5765C60.5099 47.6294 60.5631 47.6823 60.6164 47.6823C60.6695 47.7352 60.6695 47.7352 60.7228 47.7882C60.776 47.8411 60.8293 47.8411 60.8824 47.8411ZM60.8824 47.206C60.9357 47.206 60.9889 47.206 61.0421 47.2589C61.0953 47.3119 61.0953 47.3119 61.0953 47.3648C61.0953 47.4177 61.0953 47.4177 61.0421 47.4706C61.0421 47.4706 60.9889 47.5235 60.9356 47.5235L61.0953 47.6823H60.9889L60.8293 47.5235H60.776V47.6823H60.6695V47.206H60.8824ZM60.776 47.3119V47.4177H60.8824H60.9356C60.9356 47.4177 60.9356 47.4177 60.9356 47.3648V47.3119H60.8824H60.776ZM48.7486 45.1421V42.6018H47.7375V43.2369C47.3649 42.7606 46.8328 42.496 46.0877 42.496C44.6508 42.496 43.5864 43.6073 43.5864 45.1421C43.5864 46.6768 44.6508 47.7882 46.0877 47.7882C46.8328 47.7882 47.3649 47.5235 47.7375 47.0473V47.6823H48.7486V45.1421ZM44.5976 45.1421C44.5976 44.1895 45.183 43.4486 46.1941 43.4486C47.152 43.4486 47.7375 44.1895 47.7375 45.1421C47.7375 46.0947 47.0989 46.8356 46.1941 46.8356C45.2362 46.8356 44.5976 46.0947 44.5976 45.1421ZM59.0198 45.1421V40.5909H58.0086V43.2369C57.6361 42.7606 57.1039 42.496 56.3589 42.496C54.922 42.496 53.8576 43.6073 53.8576 45.1421C53.8576 46.6768 54.922 47.7882 56.3589 47.7882C57.1039 47.7882 57.6361 47.5235 58.0086 47.0473V47.6823H59.0198V45.1421ZM54.922 45.1421C54.922 44.1895 55.5074 43.4486 56.5185 43.4486C57.4764 43.4486 58.0619 44.1895 58.0619 45.1421C58.0619 46.0947 57.4233 46.8356 56.5185 46.8356C55.5074 46.8356 54.922 46.0947 54.922 45.1421Z" fill="#787878"/>
<path d="M40.2858 4.07561H21.819V34.0293H40.2858V4.07561Z" fill="#8C8C8C"/>
<path d="M23.6822 19.0537C23.6822 12.9677 26.556 7.56974 30.9731 4.07692C27.7268 1.53668 23.629 0.00195312 19.1586 0.00195312C8.56817 0.00195312 0 8.52234 0 19.0537C0 29.5852 8.56817 38.1055 19.1586 38.1055C23.629 38.1055 27.7268 36.5708 30.9731 34.0306C26.556 30.5377 23.6822 25.0868 23.6822 19.0537Z" fill="#565656"/>
<path d="M60.1894 30.8535V30.2184H60.4555V30.1125H59.8169V30.2184H60.083V30.8535H60.1894ZM61.4134 30.8535V30.1125H61.2006L60.9877 30.6418L60.7748 30.1125H60.562V30.8535H60.7216V30.2714L60.9345 30.7476H61.0941L61.307 30.2714V30.8535H61.4134Z" fill="#838383"/>
<path d="M62.0004 19.0518C62.0004 29.5832 53.4322 38.1036 42.8418 38.1036C38.3714 38.1036 34.2736 36.5688 31.0273 34.0286C35.4976 30.5358 38.3182 25.1378 38.3182 19.0518C38.3182 12.9658 35.4444 7.56779 31.0273 4.07497C34.2736 1.53472 38.3714 0 42.8418 0C53.4322 0 62.0004 8.52038 62.0004 19.0518Z" fill="#787878"/>
</g>
<defs>
<clipPath id="clip0">
<rect width="62" height="48" fill="white"/>
</clipPath>
</defs>
</svg>
