<svg width="156" height="26" viewBox="0 0 156 26" fill="none" xmlns="http://www.w3.org/2000/svg">
<g clip-path="url(#clip0)">
<path d="M137.58 10.9601C136.744 11.5361 135.529 11.821 133.868 11.821H133.147H132.22L133.483 5.08047H134.124H134.695C136.075 5.08047 137.082 5.29973 137.777 5.74471C138.318 6.09371 138.962 6.78455 138.962 8.09554C138.962 9.67507 138.214 10.5248 137.58 10.9601ZM39.283 19.4195H26.5308L27.355 15.0138H35.3537L36.2625 10.0513H28.3408L29.1066 5.69088H41.8365L39.283 19.4195ZM144.451 1.90907C142.575 0.639598 139.738 0 136.018 0H126.275L122.654 19.4202H109.892L110.711 15.0143H118.4L119.314 10.0656L111.629 10.0792L112.453 5.69217H120.37L121.424 0.000648324H105.34L101.902 18.4238H96.0047L99.4671 0.000648324H91.0587L87.6212 18.4238H81.8708L85.3364 0.000648324H76.9366L73.3061 19.4209H60.4534L61.2632 15.015H68.9866L69.8961 10.0948L62.1846 10.0876L63.0036 5.69217H71.0093L72.0575 0.000648324H21.9493L19.097 15.3906L13.4148 0H4.69381L0 25.115H8.32827L11.1687 9.30209L16.6834 25.115H46.5341L50.1627 5.69152H54.8336L51.203 25.115H129.749L132.024 12.8529L135.712 25.115H144.045L140.228 15.0961L141.099 14.9099C143.019 14.5038 144.522 13.6287 145.566 12.3178C146.61 10.9945 147.141 9.2956 147.141 7.25485C147.141 4.87807 146.263 3.13053 144.451 1.90907Z" fill="#737373"/>
<path d="M151.318 22.1438L152.453 22.0853C152.693 22.0743 152.882 22.0386 153.015 21.9822C153.148 21.927 153.248 21.8427 153.313 21.7292C153.378 21.6164 153.408 21.4976 153.4 21.3705C153.39 21.1824 153.313 21.0325 153.17 20.9177C153.027 20.8042 152.806 20.7575 152.51 20.7712L151.247 20.8347L151.318 22.1438ZM150.898 24.3739L150.694 20.4235L152.468 20.3352C152.823 20.3171 153.094 20.3391 153.284 20.4014C153.474 20.4623 153.627 20.5804 153.748 20.7549C153.869 20.9288 153.936 21.1221 153.943 21.34C153.96 21.6202 153.88 21.8602 153.706 22.0627C153.533 22.2631 153.257 22.4 152.876 22.4714C153.018 22.5323 153.129 22.5907 153.204 22.651C153.367 22.7834 153.522 22.952 153.67 23.1557L154.416 24.1962L153.757 24.2293L153.185 23.4339C153.018 23.2036 152.882 23.0285 152.776 22.9079C152.67 22.7872 152.575 22.7049 152.493 22.6581C152.414 22.6114 152.328 22.581 152.247 22.564C152.186 22.555 152.088 22.5536 151.952 22.5609L151.341 22.5913L151.429 24.3473L150.898 24.3739Z" fill="#737373"/>
<path d="M149.163 22.463C149.123 21.6457 149.404 20.8621 149.959 20.2561C150.514 19.649 151.277 19.2903 152.107 19.2488C153.813 19.1612 155.273 20.4631 155.361 22.1503C155.363 22.2022 155.366 22.2574 155.366 22.3073C155.366 23.9264 154.075 25.2827 152.421 25.3684C150.711 25.454 149.254 24.1508 149.163 22.463ZM152.07 18.6189C151.076 18.6714 150.157 19.1008 149.489 19.8333C148.82 20.565 148.478 21.5121 148.53 22.4974C148.637 24.5291 150.396 26.0969 152.455 25.995C154.51 25.89 156.101 24.1508 155.995 22.1192V22.1172C155.891 20.0849 154.131 18.5157 152.07 18.6189Z" fill="#737373"/>
</g>
<defs>
<clipPath id="clip0">
<rect width="156" height="26" fill="white"/>
</clipPath>
</defs>
</svg>
