<svg width="47" height="48" viewBox="0 0 47 48" fill="none" xmlns="http://www.w3.org/2000/svg">
<path d="M23.5 48C36.4787 48 47 37.2548 47 24C47 10.7452 36.4787 0 23.5 0C10.5213 0 0 10.7452 0 24C0 37.2548 10.5213 48 23.5 48Z" fill="#737373"/>
<path fill-rule="evenodd" clip-rule="evenodd" d="M9.24591 24.2505C9.24591 24.2505 17.4624 26.0464 18.617 22.1808C19.749 18.3907 15.9948 17.6068 15.9948 17.6068H14.3456V23.9622H12.5784V17.8134H11.0136V17.1636C11.0136 17.1636 16.9422 17.1397 17.5968 17.2172C20.8885 17.6068 22.4905 23.5765 17.2187 24.766C13.1183 25.6913 9.24591 24.2505 9.24591 24.2505ZM12.5684 25.6197V29.4347C12.5684 29.4347 12.5581 30.2465 11.8347 30.2465C11.1114 30.2465 10.9341 30.2465 10.9341 30.2465V30.8832H16.0339V30.1826H14.9058C14.9058 30.1826 14.3239 30.1159 14.3239 29.5169C14.3239 28.9179 14.3239 25.5846 14.3239 25.5846H12.5785L12.5684 25.6197ZM19.0864 30.9148H24.2228V30.1175H22.7463C22.7463 30.1175 22.2666 29.8432 22.2666 29.288C22.2666 28.7326 22.2666 19.6861 22.2666 19.6861L27.9916 30.9028L33.5919 19.9009L33.4689 29.3921C33.4689 29.3921 33.6094 30.1764 32.817 30.1764C32.0246 30.1764 31.8565 30.2007 31.8565 30.2007L31.847 30.8115H36.9836V30.0855H35.7846C35.7846 30.0855 35.2848 30.1351 35.2847 29.5795C35.2847 29.0239 35.2847 18.0598 35.2847 18.0598C35.2847 18.0598 35.2922 17.8082 35.7345 17.8082H36.7754V17.0323H33.5884L28.3413 28.0408L23.127 17.11H20.2752V17.7679H21.1807C21.1807 17.7679 21.4947 17.7329 21.4947 18.2159C21.4947 18.699 21.3716 29.339 21.3716 29.339C21.3716 29.339 21.413 30.1649 20.5174 30.1649C19.6219 30.1649 19.0882 30.1649 19.0882 30.1649V30.9677L19.0864 30.9148Z" fill="#262626"/>
</svg>
