<svg width="81" height="27" viewBox="0 0 81 27" fill="none" xmlns="http://www.w3.org/2000/svg">
<path d="M64.393 2.69604L71.1498 1.50661V26.7224H64.393V2.69604ZM74.2432 2.69604V26.7224H81V1.50661L74.2432 2.69604ZM54.8276 26.7224H61.5844V8.28634H54.8276V26.7224ZM10.2573 10.9031C9.40253 10.8634 7.44874 10.7445 7.44874 8.99997C7.44874 6.89867 10.298 6.89868 11.3563 6.89868C13.2286 6.89868 15.6709 7.45374 17.3804 7.92952C17.3804 7.92952 18.3573 8.2467 19.1714 8.60352L19.2527 8.64317V8.56388V2.93392L19.1306 2.89428C17.0954 2.18062 14.694 1.54626 10.298 1.54626C2.68643 1.50661 0 5.82819 0 9.51541C0 11.6564 0.936177 16.6519 9.64675 17.2467C10.3794 17.2864 12.3332 17.4052 12.3332 19.1894C12.3332 20.6564 10.7457 21.5287 8.01859 21.5287C5.04724 21.5287 2.19799 20.7754 0.447738 20.1013V26.0088C3.05277 26.6828 5.98342 27 9.44321 27C16.892 27 20.1889 22.9163 20.1889 18.8722C20.2296 14.2732 16.4849 11.2996 10.2573 10.9031ZM51.0015 8.00881C44.7738 8.20705 41.599 10.9428 41.599 16.3348V26.7224H48.3965V18.2775C48.3965 15.0265 48.8442 13.6387 52.7925 13.5199V8.12776C52.1412 7.96916 51.0015 8.00881 51.0015 8.00881ZM32.7257 8.2467C32.5628 8.60352 31.5046 11.5771 28.8995 14.6696V1.50661L21.9392 2.85462V26.7224H28.8995V19.348C30.9347 22.282 31.9116 26.7224 31.9116 26.7224H40.2558C39.4417 23.3921 35.8191 17.2467 35.8191 17.2467C39.0754 13.2423 40.4593 8.99997 40.7035 8.28634H32.7257V8.2467ZM58.1653 6.5022C59.997 6.5022 61.503 5.03524 61.503 3.2511C61.503 1.46696 59.997 0 58.1653 0C56.3337 0 54.8276 1.46696 54.8276 3.2511C54.8684 5.07489 56.3337 6.5022 58.1653 6.5022Z" fill="#737373"/>
</svg>
