<svg width="74" height="24" viewBox="0 0 74 24" fill="none" xmlns="http://www.w3.org/2000/svg">
<path d="M21.8132 0.425848L15.5907 16.2225L13.0725 2.79103C12.9698 2.13077 12.6351 1.52926 12.129 1.09541C11.623 0.661553 10.979 0.424031 10.3136 0.425848H0.140379L0 1.09627C2.0885 1.55377 4.46063 2.30188 5.8988 3.07301C6.77832 3.55353 7.03043 3.97075 7.33124 5.11306L12.087 23.6375H18.3897L28.0931 0.425848H21.8132ZM30.6571 0.425848L25.7124 23.6375H31.6914L36.6362 0.425848H30.6571ZM69.1641 0.425848H64.0617C63.5167 0.419814 62.9824 0.578819 62.5286 0.882143C62.0749 1.18547 61.7226 1.61904 61.5177 2.12636L52.5449 23.6375H58.8218L60.0681 20.1702H67.7402L68.4708 23.6375H74L69.1641 0.425848ZM61.7899 15.4111L64.9412 6.6956L66.7518 15.4111H61.7899ZM44.4917 6.85098C44.5089 6.01942 45.2996 5.12457 47.0271 4.90589C49.0487 4.71357 51.0846 5.07241 52.9202 5.94461L53.9716 1.02434C52.1798 0.348859 50.2818 0.00191106 48.3679 0C42.4576 0 38.2978 3.16509 38.2634 7.67102C38.2262 11.0174 41.2343 12.879 43.5004 14.0012C45.8267 15.1521 46.6088 15.8686 46.6002 16.8786C46.583 18.4352 44.7409 19.1229 43.022 19.1488C40.0167 19.1977 38.272 18.3345 36.8797 17.6842L35.8111 22.7656C37.2063 23.4101 39.7847 23.9712 42.4576 24C48.7403 24 52.8485 20.8838 52.8686 16.0585C52.8944 9.93262 44.4344 9.59309 44.4917 6.85098Z" fill="#737373"/>
</svg>
