<svg width="22" height="22" viewBox="0 0 22 22" fill="none" xmlns="http://www.w3.org/2000/svg">
<path fill-rule="evenodd" clip-rule="evenodd" d="M21.4615 18.8615L16.6821 14.0823C16.6567 14.0569 16.6269 14.0391 16.6004 14.0155C17.5408 12.5889 18.0897 10.8813 18.0897 9.04493C18.0897 4.04953 14.0402 0 9.04484 0C4.04953 0 0 4.04953 0 9.04484C0 14.0401 4.04944 18.0897 9.04476 18.0897C10.8812 18.0897 12.5887 17.5408 14.0153 16.6004C14.0389 16.6268 14.0566 16.6566 14.082 16.682L18.8615 21.4615C19.5794 22.1794 20.7434 22.1794 21.4615 21.4615C22.1794 20.7435 22.1794 19.5795 21.4615 18.8615ZM9.04484 14.9541C5.78114 14.9541 3.13547 12.3085 3.13547 9.04484C3.13547 5.78114 5.78123 3.13547 9.04484 3.13547C12.3084 3.13547 14.9541 5.78123 14.9541 9.04484C14.9541 12.3085 12.3084 14.9541 9.04484 14.9541Z" fill="#9D5F51"/>
</svg>
